<svg width="129" height="98" viewBox="0 0 129 98" fill="none" xmlns="http://www.w3.org/2000/svg">
<path d="M33.7603 40.9104C33.0777 41.1243 32.3883 41.413 31.6988 41.773C31.006 42.133 30.3336 42.5541 29.6816 43.0295C29.0261 43.5084 28.4182 44.0348 27.8511 44.6087C27.2839 45.1827 26.8017 45.7906 26.4043 46.4223C26.0036 47.0573 25.7013 47.7162 25.4975 48.3988C25.2938 49.0814 25.2293 49.764 25.3074 50.4466C24.8964 50.5248 24.5229 50.5927 24.1799 50.6504C23.8368 50.7082 23.5312 50.7387 23.2595 50.7387C22.7127 50.7387 22.2203 50.664 21.7822 50.518C21.3441 50.3719 20.9807 50.141 20.6988 49.832C20.417 49.5195 20.2166 49.1188 20.0977 48.6331C19.9823 48.1441 19.9721 47.5498 20.0672 46.8468C20.2234 45.8517 20.7362 44.8668 21.6022 43.8922C22.4682 42.9175 23.5516 41.9937 24.8489 41.1277C26.1462 40.2617 27.5862 39.4738 29.1653 38.7708C30.7445 38.0678 32.3441 37.4939 33.9641 37.0456C34.9014 36.7739 35.9983 36.5396 37.2549 36.3426C38.5114 36.149 39.7748 36.0505 41.0449 36.0505C42.1758 36.0505 43.2728 36.149 44.3358 36.3426C45.3988 36.5362 46.3395 36.8758 47.1579 37.3512C47.9764 37.8301 48.6353 38.4686 49.1345 39.2667C49.6303 40.0681 49.8816 41.07 49.8816 42.279C49.8409 43.4676 49.5216 44.5578 48.9171 45.5427C48.3126 46.5275 47.5621 47.4003 46.6655 48.1611C45.7689 48.9218 44.7976 49.5569 43.755 50.0629C42.7124 50.5689 41.7411 50.9391 40.8446 51.1734C42.0162 51.6794 42.8347 52.2602 43.3034 52.9156C43.772 53.5711 44.0064 54.2775 44.0064 55.0382C44.0064 55.9144 43.6837 56.794 43.0419 57.6702C42.3966 58.5464 41.5578 59.3445 40.5253 60.0543C39.4929 60.7674 38.3348 61.3414 37.0579 61.7795C35.781 62.2176 34.4972 62.4383 33.2101 62.4383C32.3135 62.4383 31.4407 62.3127 30.5917 62.058C29.7427 61.8032 28.9786 61.4127 28.2959 60.8863H28.3537C27.885 60.5739 27.5182 60.2614 27.2567 59.949C26.9952 59.6365 26.7983 59.3207 26.6726 58.9981C26.5469 58.6754 26.4688 58.3392 26.4383 57.9894C26.4077 57.6396 26.3941 57.2694 26.3941 56.8789C26.3941 56.1759 26.5198 55.388 26.7745 54.5084C27.0292 53.6322 27.3586 52.7085 27.7695 51.744C28.1805 50.7795 28.6423 49.7878 29.1586 48.7758C29.6748 47.7603 30.2215 46.7721 30.7955 45.8076C31.3694 44.8431 31.9468 43.9261 32.5207 43.0567C33.0946 42.1907 33.6278 41.4232 34.1169 40.7609L33.7603 40.9104ZM44.2645 42.7545C44.2645 42.0345 43.952 41.4232 43.3271 40.9274C42.7022 40.4315 41.8057 40.1225 40.634 40.007C39.7171 41.3145 38.7662 42.7137 37.7813 44.2046C36.7964 45.6955 35.8693 47.2034 35.0033 48.7248C34.1339 50.2463 33.3629 51.7542 32.6905 53.245C32.0181 54.7359 31.5358 56.1385 31.2438 57.4426C31.0875 58.1253 31.1351 58.6177 31.3898 58.92C31.6445 59.2222 32.0045 59.375 32.4732 59.375C33.0777 59.375 33.7603 59.2188 34.521 58.9064C35.2817 58.5939 35.9847 58.1796 36.6266 57.6634C37.2719 57.1472 37.7813 56.5664 38.1616 55.9212C38.542 55.2759 38.6643 54.6239 38.5284 53.9616C38.4707 53.6492 38.3145 53.3537 38.0598 53.0684C37.8051 52.7866 37.5232 52.5387 37.2107 52.3213C36.8983 52.1073 36.5858 51.9206 36.2734 51.7643C35.961 51.6081 35.7164 51.4927 35.5432 51.4145L35.0168 51.1496C35.1153 50.8168 35.241 50.5893 35.3972 50.4636C35.5534 50.338 35.7572 50.2259 36.0119 50.1274C36.09 50.0901 36.1681 50.0595 36.2462 50.0391C36.3243 50.0187 36.3923 49.9916 36.45 49.9508C37.8152 49.3259 38.9903 48.6943 39.9752 48.049C40.96 47.4037 41.7683 46.7721 42.4034 46.1472C43.0385 45.5223 43.5037 44.9246 43.806 44.3472C44.1116 43.7733 44.2645 43.2435 44.2645 42.7545Z" fill="black"/>
<path d="M54.5104 46.4697C54.8229 46.4697 55.1693 46.5037 55.5496 46.5716C55.93 46.6395 56.29 46.7516 56.633 46.9078C56.9726 47.064 57.2613 47.2644 57.4956 47.5089C57.7299 47.7535 57.8658 48.0489 57.9065 48.4021C58.2971 48.4429 58.6571 48.6059 58.9899 48.8979C59.3227 49.19 59.5367 49.4651 59.6318 49.7164C59.2412 50.6537 58.9186 51.5605 58.6673 52.4367C58.4126 53.3129 58.2563 54.1144 58.1986 54.8343C58.1409 55.517 58.1544 55.972 58.2427 56.1962C58.331 56.4203 58.4567 56.5018 58.6231 56.4441C58.7895 56.3864 58.9831 56.2301 59.2072 55.9754C59.4314 55.7207 59.6419 55.4592 59.8355 55.1841C60.0291 54.9294 60.2261 54.6476 60.4197 54.3351C60.6132 54.0227 60.8 53.7272 60.9766 53.4419C61.1532 53.1601 61.3026 52.9054 61.4317 52.6812C61.5573 52.4571 61.6524 52.2975 61.7102 52.199C62.043 51.5741 62.3928 51.1733 62.763 51.0001C63.1331 50.8235 63.4592 50.7964 63.7444 50.9118C64.0263 51.0273 64.2267 51.2481 64.3456 51.5707C64.461 51.8933 64.4339 52.2499 64.2573 52.6371C63.809 53.3978 63.3709 54.1585 62.9396 54.9192C62.5083 55.68 62.043 56.4203 61.537 57.1437C61.2245 57.5716 60.9019 57.9791 60.5725 58.3595C60.2397 58.7399 59.8797 59.0727 59.4891 59.3546C59.0986 59.6365 58.6808 59.8606 58.2326 60.027C57.7843 60.1934 57.2952 60.2749 56.7688 60.2749C56.1236 60.2749 55.5632 60.0881 55.0878 59.718C54.6089 59.3478 54.3712 58.8519 54.3712 58.2271C54.0384 58.5769 53.6648 58.9301 53.2437 59.2799C52.8226 59.6297 52.3845 59.9353 51.926 60.1866C51.4675 60.4413 50.9887 60.6315 50.4928 60.7572C49.997 60.8828 49.5012 60.8998 49.0155 60.8013C48.0986 60.5874 47.3888 60.1764 46.8794 59.5719C46.3733 58.9674 46.0711 58.2271 45.9726 57.3475C45.9149 56.5086 46.0609 55.5204 46.4107 54.3793C46.7605 53.2382 47.365 52.0054 48.2242 50.6775C48.771 49.859 49.3246 49.1764 49.8917 48.6297C50.4589 48.0829 51.0124 47.6482 51.5592 47.3289C52.106 47.0063 52.6256 46.7822 53.1248 46.6565C53.6206 46.5343 54.0825 46.4697 54.5104 46.4697ZM52.2588 51.9137C51.7901 52.4605 51.42 53.0208 51.1483 53.5948C50.8766 54.1687 50.6694 54.7053 50.5336 55.2045C50.3977 55.7004 50.3366 56.1418 50.357 56.5222C50.3774 56.9026 50.4453 57.1709 50.5607 57.3271C50.6389 57.4629 50.8053 57.4256 51.0566 57.2116C51.3113 56.9977 51.6067 56.6818 51.9498 56.2607C52.2894 55.843 52.6663 55.3438 53.0773 54.7698C53.4882 54.1959 53.8821 53.5982 54.2625 52.9835C54.6429 52.3688 55.0029 51.7745 55.3459 51.1971C55.6855 50.6232 55.9741 50.1307 56.2085 49.7198C56.3851 49.3496 56.3511 49.1017 56.1066 48.9727C55.8621 48.847 55.6243 48.8402 55.39 48.9591C55.0572 49.1153 54.6259 49.4243 54.0893 49.8794C53.5493 50.3379 52.9414 51.0171 52.2588 51.9137Z" fill="black"/>
<path d="M79.1459 53.2281C78.5617 54.3217 77.9606 55.3405 77.3459 56.2846C76.7312 57.2321 76.1131 58.0642 75.4883 58.7876C74.8634 59.5109 74.2249 60.0747 73.5728 60.4856C72.9174 60.8965 72.2518 61.1003 71.5691 61.1003C71.2363 61.1003 70.7982 60.9781 70.2515 60.7335C69.7047 60.489 69.1138 60.1732 68.4821 59.7826C67.847 59.3921 67.2255 58.954 66.6108 58.4649C65.9961 57.9759 65.4663 57.4902 65.0146 57.0012C64.8007 57.6261 64.6343 58.3766 64.5188 59.2528C64.4033 60.129 64.4781 61.2531 64.7531 62.6184C63.9924 62.4622 63.3539 62.2618 62.8377 62.0173C62.3215 61.7727 61.8902 61.5214 61.5506 61.2565C61.211 60.9916 60.9461 60.7403 60.7593 60.4958C60.5759 60.2513 60.4537 60.0509 60.3925 59.8947C60.1378 59.1747 60.036 58.3291 60.0869 57.3646C60.1344 56.4001 60.2975 55.3711 60.5691 54.2775C60.8408 53.184 61.2042 52.0531 61.6525 50.8848C62.1008 49.7132 62.5898 48.5585 63.1162 47.4174C63.6426 46.2763 64.1894 45.1793 64.7531 44.1265C65.3203 43.0738 65.8535 42.1127 66.3629 41.2433C66.8689 40.3738 67.324 39.6233 67.7247 38.9916C68.1255 38.3566 68.4311 37.9049 68.6451 37.6298C68.8794 37.4362 69.1851 37.314 69.5654 37.263C69.9458 37.2155 70.3364 37.2257 70.7371 37.2936C71.1378 37.3615 71.508 37.4872 71.8476 37.6739C72.1872 37.8607 72.4385 38.0679 72.5948 38.3022C72.5167 38.5943 72.357 39.0188 72.1125 39.5758C71.868 40.1327 71.5725 40.7508 71.2193 41.4334C70.8695 42.1161 70.496 42.8224 70.1088 43.556C69.7183 44.2862 69.3515 44.9756 69.0119 45.6174C68.6689 46.2627 68.3768 46.8163 68.1357 47.2849C67.8912 47.7536 67.7417 48.066 67.6806 48.2223C68.2477 47.7944 68.8557 47.4242 69.5111 47.1117C70.1632 46.7993 70.8526 46.6431 71.5725 46.6431C72.5472 46.6431 73.3419 46.891 73.9566 47.3902C74.5713 47.886 74.9279 48.5958 75.023 49.5128C75.0807 50.3312 74.9211 51.1259 74.5407 51.8969C74.1604 52.6678 73.6238 53.3606 72.931 53.9753C72.2382 54.59 71.4299 55.0926 70.5028 55.4831C69.5756 55.8737 68.5874 56.108 67.5312 56.1861C68.1561 56.5767 68.7402 56.9435 69.287 57.2831C69.8337 57.6261 70.4179 57.7484 71.0427 57.6499C71.7457 57.5514 72.374 57.334 72.931 56.991C73.4879 56.6514 73.9974 56.2337 74.466 55.748C74.9347 55.259 75.3694 54.719 75.7667 54.1247C76.1675 53.5304 76.5614 52.9293 76.952 52.3248C77.1286 51.8765 77.3969 51.5674 77.7569 51.4044C78.1168 51.238 78.4429 51.2007 78.7383 51.2889C79.0304 51.3772 79.241 51.5878 79.3666 51.9172C79.4923 52.2433 79.421 52.6847 79.1459 53.2281ZM69.0832 50.5656C68.8489 50.7795 68.5942 51.0478 68.3225 51.3705C68.0508 51.6931 67.7757 52.0429 67.504 52.4232C67.2323 52.8036 66.9674 53.2044 66.7127 53.6221C66.458 54.0432 66.2339 54.4575 66.0403 54.8651C66.8587 54.7496 67.5481 54.5526 68.1017 54.2809C68.6587 54.0092 69.107 53.69 69.4466 53.33C69.7862 52.97 70.0273 52.5998 70.1632 52.2195C70.299 51.8391 70.3567 51.4927 70.3397 51.1803C70.282 50.5554 70.153 50.2056 69.9594 50.1275C69.7658 50.0494 69.4703 50.1954 69.0832 50.5656Z" fill="black"/>
<path d="M80.9594 61.012C80.4907 61.012 79.9949 60.9474 79.4685 60.8218C78.9421 60.6961 78.4428 60.5093 77.9776 60.2648C77.5089 60.0203 77.0912 59.7147 76.721 59.3445C76.3508 58.9743 76.0859 58.5464 75.9297 58.0574C75.7361 57.5683 75.6241 57.0759 75.5935 56.5801C75.5629 56.0842 75.5833 55.585 75.6512 55.0892C75.7192 54.5933 75.838 54.1077 76.001 53.6424C76.1674 53.1737 76.3576 52.7255 76.5716 52.2976C76.9825 51.4995 77.4682 50.7523 78.0353 50.0595C78.6025 49.3667 79.2172 48.7622 79.8794 48.246C80.5416 47.7298 81.2243 47.3189 81.9272 47.0166C82.6302 46.7143 83.3129 46.5615 83.9751 46.5615C85.1468 46.5615 85.989 46.7619 86.5052 47.1626C87.0214 47.5634 87.2863 48.0762 87.2965 48.6977C87.3067 49.3226 87.1063 50.0154 86.6954 50.7761C86.2845 51.5368 85.7581 52.2874 85.1162 53.0277C84.4709 53.7681 83.7408 54.4473 82.9223 55.062C82.1038 55.6767 81.2922 56.1487 80.4941 56.4816C80.5145 57.008 80.6096 57.3985 80.7862 57.6532C80.9628 57.9079 81.1903 58.0641 81.4722 58.1219C81.754 58.1796 82.0767 58.1558 82.4367 58.0472C82.7967 57.9419 83.1532 57.7687 83.503 57.5344C83.8528 57.3408 84.2196 57.0317 84.6 56.614C84.9804 56.1963 85.3641 55.7378 85.7547 55.2386C86.1452 54.7428 86.5188 54.2231 86.8822 53.6866C87.2422 53.15 87.5682 52.6474 87.8636 52.1787C88.098 51.7508 88.3867 51.4723 88.7263 51.3432C89.0659 51.2176 89.3715 51.2108 89.633 51.3297C89.8979 51.4451 90.0881 51.6557 90.2036 51.9579C90.319 52.2602 90.2715 52.6168 90.0575 53.0243C89.4327 54.0601 88.8044 55.0518 88.1693 56.0095C87.5342 56.9638 86.8584 57.8128 86.135 58.5566C85.4117 59.2969 84.6272 59.8913 83.7781 60.3429C82.9359 60.7878 81.9952 61.012 80.9594 61.012ZM80.3481 53.639C80.6197 53.4828 80.9322 53.2824 81.2854 53.0379C81.6352 52.7934 82.0054 52.4775 82.3959 52.087C82.7865 51.7372 83.1091 51.3365 83.3604 50.8882C83.6151 50.4399 83.7781 50.0595 83.8562 49.7471C83.9343 49.4346 83.9004 49.2445 83.7544 49.1765C83.6083 49.1086 83.34 49.2682 82.9495 49.6588C82.6948 49.9135 82.4367 50.2191 82.1752 50.5791C81.9103 50.9391 81.6624 51.3025 81.428 51.6625C81.1937 52.0225 80.9797 52.3655 80.7828 52.6881C80.5858 53.0107 80.4398 53.2587 80.3447 53.4352V53.639H80.3481Z" fill="black"/>
<path d="M100.565 53.4624C99.9402 54.5933 99.2678 55.731 98.5478 56.8721C97.8244 58.0132 97.0264 58.9437 96.1468 59.6671C95.6204 60.095 95.06 60.4176 94.4657 60.6316C93.8714 60.8456 93.2329 60.8965 92.5503 60.7776C91.6911 60.6418 91.1103 60.2512 90.8081 59.606C90.5058 58.9607 90.336 58.2102 90.2953 57.3544C90.2545 56.3219 90.4175 55.371 90.7775 54.5016C91.1375 53.6356 91.5348 52.7696 91.9628 51.9138C91.6877 51.9715 91.4601 52.036 91.2767 52.104C91.09 52.1719 90.8624 52.1957 90.5907 52.1787C90.3938 52.4911 90.2477 52.7254 90.1526 52.8817C90.0541 53.0379 89.9421 53.2043 89.8164 53.3775C89.6908 53.5541 89.5244 53.7986 89.3206 54.1077C89.1168 54.4201 88.8078 54.8786 88.4002 55.4831C88.1659 55.911 87.8772 56.1895 87.5376 56.3185C87.198 56.4442 86.889 56.4544 86.6173 56.3491C86.3456 56.2438 86.1554 56.0367 86.0467 55.7344C85.9381 55.4322 86.0026 55.0756 86.2369 54.668L88.1965 51.2142H88.1659C87.9893 50.8644 87.9214 50.4297 87.9621 49.9135C88.0029 49.3973 88.1184 48.8607 88.3119 48.3037C88.5055 47.7468 88.767 47.2068 89.0863 46.6804C89.4089 46.154 89.7587 45.6921 90.139 45.2914C90.5194 44.8906 90.9134 44.585 91.3243 44.371C91.7352 44.1571 92.1224 44.0993 92.496 44.1944C93.002 44.3099 93.3484 44.5272 93.5352 44.8397C93.7219 45.1521 93.8068 45.4985 93.8001 45.8789C93.7899 46.2593 93.7185 46.6498 93.5793 47.0505C93.4435 47.4513 93.3178 47.7977 93.1989 48.0898L93.8714 47.2985C94.0072 47.1219 94.3298 47.0641 94.8359 47.1219C95.3419 47.1796 95.8649 47.3121 96.4015 47.5158C96.9381 47.7196 97.4169 47.9641 97.8346 48.246C98.2523 48.5279 98.4357 48.7961 98.3746 49.0509C98.1607 49.5195 97.9195 49.9712 97.658 50.4127C97.3931 50.8508 97.1248 51.2821 96.8532 51.6998C96.5815 52.1209 96.3166 52.5387 96.0619 52.9564C95.8072 53.3775 95.5932 53.819 95.4166 54.2877C95.223 54.7359 95.094 55.1605 95.0362 55.5612C94.9785 55.9619 95.0668 56.2404 95.3011 56.3966C95.4166 56.4951 95.5049 56.5325 95.566 56.5121C95.6238 56.4917 95.6917 56.4544 95.7698 56.3966C95.8479 56.2982 95.9192 56.2031 95.9905 56.1046C96.0585 56.0061 96.14 55.911 96.2385 55.8125C96.432 55.5782 96.6324 55.3099 96.8396 55.0076C97.0433 54.7054 97.2335 54.4167 97.4101 54.145C97.5867 53.8733 97.7361 53.6322 97.8652 53.4284C97.9909 53.2247 98.0758 53.0922 98.1131 53.0345C98.3474 52.5489 98.6361 52.2398 98.9757 52.1141C99.3153 51.9885 99.6346 51.9783 99.9266 52.0836C100.219 52.1923 100.443 52.3757 100.599 52.6405C100.748 52.8919 100.742 53.1703 100.565 53.4624Z" fill="black"/>
<path d="M104.691 59.1678C104.359 59.4802 104.019 59.7621 103.666 60.0168C103.316 60.2715 102.942 60.4787 102.555 60.6451C102.165 60.8115 101.75 60.9134 101.312 60.9507C100.874 60.9881 100.409 60.9405 99.9233 60.8047C98.8908 60.533 98.1573 60.0202 97.7294 59.2696C97.3015 58.5191 97.1351 57.6055 97.2335 56.5324C97.2913 56.0264 97.4203 55.4388 97.6139 54.7766C97.8075 54.1143 98.0486 53.4249 98.3305 52.7151C98.6124 52.002 98.9146 51.282 99.2372 50.5484C99.5599 49.8183 99.8757 49.1289 100.188 48.487C100.304 48.1372 100.436 47.8247 100.582 47.5497C100.728 47.278 100.881 46.9757 101.037 46.6429C101.075 46.6055 101.214 46.5648 101.448 46.5274C101.682 46.4901 101.971 46.4527 102.311 46.4255C102.65 46.395 103.017 46.3882 103.408 46.395C103.798 46.4052 104.168 46.4391 104.518 46.4969C104.868 46.5546 105.177 46.6395 105.439 46.7448C105.703 46.8535 105.873 46.9927 105.951 47.1693C105.795 47.4614 105.551 47.8995 105.221 48.487C104.888 49.0711 104.549 49.7164 104.196 50.4194C103.846 51.1224 103.516 51.8491 103.214 52.5997C102.912 53.3502 102.722 54.0294 102.644 54.6339C102.508 55.4932 102.491 56.0875 102.599 56.4203C102.705 56.7531 102.888 56.8992 103.139 56.8584C103.394 56.821 103.696 56.6241 104.046 56.2743C104.396 55.9245 104.749 55.4932 105.099 54.9871C105.741 53.6796 106.277 52.5929 106.709 51.7235C107.137 50.8575 107.507 50.1205 107.819 49.516C108.132 48.9115 108.39 48.4089 108.594 48.0081C108.797 47.6074 109.008 47.2236 109.222 46.8535C109.514 46.755 109.87 46.6769 110.288 46.6191C110.706 46.5614 111.13 46.5444 111.562 46.575C111.99 46.6055 112.397 46.6735 112.774 46.7787C113.155 46.8874 113.433 47.0572 113.61 47.2916L112.937 48.8436C112.662 49.4888 112.367 50.1884 112.044 50.9492C111.721 51.7099 111.389 52.4808 111.049 53.2619C110.706 54.043 110.38 54.8072 110.067 55.5577C109.755 56.3082 109.473 56.9976 109.218 57.6191C109.412 57.4629 109.612 57.2693 109.82 57.035C110.023 56.8007 110.264 56.478 110.536 56.0705C110.808 55.6596 111.151 55.1332 111.562 54.4913C111.973 53.8461 112.479 53.0276 113.083 52.0325C113.396 51.5061 113.732 51.1937 114.092 51.0952C114.452 50.9967 114.764 51.0205 115.029 51.1699C115.294 51.3159 115.474 51.5401 115.569 51.8423C115.668 52.1446 115.606 52.4435 115.393 52.7355C114.965 53.5166 114.476 54.3589 113.929 55.2656C113.382 56.1724 112.791 57.0248 112.159 57.8263C111.524 58.6278 110.862 59.3172 110.169 59.9047C109.477 60.4888 108.78 60.8522 108.077 60.9881C107.901 61.708 107.653 62.479 107.33 63.3008C107.008 64.1193 106.651 64.9276 106.264 65.729C105.873 66.5271 105.469 67.298 105.051 68.0418C104.63 68.7821 104.236 69.4376 103.866 70.0013C103.594 70.4293 103.231 70.7417 102.783 70.9387C102.334 71.1323 101.879 71.2206 101.421 71.2036C100.962 71.1832 100.528 71.0609 100.12 70.8368C99.7093 70.6127 99.4071 70.2764 99.2135 69.8281C99.0369 69.3221 98.9927 68.8093 99.081 68.2931C99.1693 67.7769 99.3493 67.2573 99.621 66.7411C99.8927 66.2249 100.232 65.7087 100.63 65.1891C101.03 64.6729 101.445 64.16 101.873 63.654C102.185 63.2838 102.481 62.9273 102.766 62.5876C103.048 62.2446 103.313 61.9016 103.557 61.5484C103.802 61.1986 104.019 60.8251 104.216 60.4379C104.416 60.0372 104.573 59.6194 104.691 59.1678ZM109.137 57.7074H109.195H109.225H109.137Z" fill="black"/>
<path d="M44.8044 28.7183C43.9282 28.1376 43.2082 27.6146 42.4373 27.1867C42.1928 27.0508 41.7547 27.0814 41.483 27.2003C39.8698 27.9202 38.2397 27.9508 36.5281 27.6044C35.9915 27.4957 35.3156 27.7606 34.7859 28.0255C33.801 28.518 32.9384 29.4213 31.9161 29.6455C27.9936 30.5047 25.0152 33.0042 21.7855 35.0928C21.0825 35.5479 20.3422 35.9962 19.5543 36.2543C17.1974 37.0286 14.8371 36.1694 13.7537 34.2404C12.6636 32.2944 13.0643 29.5232 14.8099 28.0153C15.4959 27.421 15.6759 26.8607 15.6827 25.998C15.7167 21.2741 18.3521 18.204 22.9266 17.3482C23.341 17.27 23.864 16.8591 24.0202 16.4754C27.3925 8.13451 38.2533 8.9224 42.1181 13.6838C42.6071 14.2849 43.052 14.4581 43.7957 14.4003C46.0609 14.2237 48.2209 14.6279 50.1974 15.8233C53.8109 18.0138 54.9044 22.4287 52.7173 26.032C51.5423 27.9678 49.8103 29.024 47.5586 29.0579C46.7368 29.0715 46.3938 29.3602 46.1051 30.07C45.47 31.6254 44.7399 33.1435 43.9961 34.7974C35.9032 33.0688 29.0872 36.149 22.7059 40.5572C21.6463 39.3889 20.6716 38.3124 19.6969 37.2392C19.7173 37.1713 19.7411 37.1033 19.7615 37.0388C20.6173 37.3445 21.5478 37.5278 22.3085 37.9897C23.0285 38.4244 23.4598 38.2648 24.0643 37.8437C28.1023 35.0385 32.4663 32.9974 37.428 32.5695C38.9631 32.4371 40.5321 32.5627 42.0739 32.685C42.7531 32.7393 43.1233 32.6612 43.3814 31.9684C43.7788 30.8817 44.2984 29.8492 44.8044 28.7183ZM23.5244 19.0666C21.6463 19.1956 20.0467 19.9496 18.8649 21.4744C16.508 24.5106 17.1499 27.747 18.1891 31.133C17.4759 30.5217 16.7593 29.9104 16.0495 29.3059C14.7963 30.5794 14.545 32.2673 15.3941 33.5442C16.2159 34.777 17.88 35.283 19.4388 34.4034C21.7414 33.1061 23.9047 31.5541 26.0545 30.1583C25.3786 29.3772 24.7775 28.6878 24.1764 27.995C24.2511 27.9033 24.3258 27.8116 24.4005 27.7199C26.8424 28.827 29.2977 28.9561 31.7531 27.8761C34.3817 26.7214 35.6349 24.6566 35.499 21.6239C37.102 22.86 36.6062 24.4121 36.6401 25.852C38.1888 26.229 39.7102 26.3139 40.9328 25.3834C42.0433 24.5377 42.9026 23.3593 44.0097 22.1808C43.9112 23.1148 43.7957 24.0419 43.7244 24.969C43.6973 25.3154 43.6395 25.8486 43.8297 25.998C45.684 27.472 48.7201 28.2055 50.8563 25.6415C52.7343 23.3864 52.466 20.1194 50.2687 18.0579C48.8661 16.7436 47.1273 16.2546 45.2798 16.0916C44.244 15.9999 43.086 15.7893 42.9569 17.4127C42.9331 17.698 42.6037 17.9629 42.3762 18.2889C40.8581 13.789 38.2669 11.8634 33.8146 11.8872C31.366 11.9008 29.1687 12.597 27.4163 14.3969C25.6843 16.1765 24.8726 18.3398 24.9949 20.8903C24.8794 20.8869 24.7605 20.8835 24.6451 20.8835C24.2885 20.296 23.9251 19.7118 23.5244 19.0666Z" fill="black"/>
<path d="M96.0992 72.9222C96.3539 72.6743 96.4796 72.4297 96.4796 72.1852C96.4796 71.7132 96.2011 71.4788 95.6441 71.4788H93.6268C93.3789 71.4788 93.1684 71.5535 92.9985 71.7098C92.8253 71.8626 92.7404 72.0528 92.7404 72.2769C92.7404 72.6369 92.9578 72.8169 93.3925 72.8169H93.5419L94.2076 72.7931L92.2446 74.6814C91.9763 74.9429 91.8439 75.1738 91.8439 75.3776C91.8439 75.5881 91.9152 75.7579 92.0612 75.8836C92.2073 76.0058 92.4042 76.0704 92.6521 76.0704H96.9856C95.7528 78.4205 93.2872 80.02 90.4515 80.02C86.3761 80.02 83.0717 76.7156 83.0717 72.6403C83.0717 72.3279 83.0921 72.0222 83.1294 71.7199C83.2144 72.0256 83.3638 72.3041 83.5709 72.552C83.9275 72.9765 84.3554 73.1871 84.8547 73.1871C85.1162 73.1871 85.3301 73.1157 85.5033 72.9697C85.6799 72.8237 85.7648 72.6403 85.7648 72.4161C85.7648 72.1479 85.612 71.9611 85.3098 71.8524C84.8071 71.6724 84.5592 71.3498 84.5592 70.8879C84.5592 70.4634 84.7222 70.0796 85.0483 69.74C85.3743 69.397 85.7411 69.2272 86.1486 69.2272C86.3761 69.2272 86.5765 69.2985 86.7463 69.4412C86.9161 69.5838 87.001 69.7502 87.001 69.9472C87.001 70.1713 86.8822 70.5755 86.6478 71.1596L85.089 75.0006L85.0177 75.1772C84.9498 75.3504 84.9158 75.4998 84.9158 75.6323C84.9158 75.7953 84.9803 75.9379 85.1162 76.0602C85.2486 76.179 85.4048 76.2402 85.5882 76.2402C86.0331 76.2402 86.3761 75.9379 86.6139 75.3402L87.8568 72.2871L89.4462 76.5832C89.6228 77.0484 89.8198 77.3541 90.0337 77.4967C90.2511 77.6428 90.6247 77.7141 91.1511 77.7141H93.1446C93.5012 77.7141 93.7763 77.6394 93.98 77.4831C94.1804 77.3303 94.2789 77.1164 94.2789 76.8447C94.2789 76.4507 93.997 76.2504 93.4332 76.2504H91.4873C91.1205 76.2504 90.8794 76.1009 90.7673 75.8055L89.5006 72.3618L92.3703 69.3732C92.6929 69.0336 92.8559 68.745 92.8559 68.5106C92.8559 68.317 92.7948 68.1574 92.6657 68.0318C92.5367 67.9061 92.3771 67.8416 92.1869 67.8416C91.905 67.8416 91.596 68.0216 91.2563 68.3748L88.1081 71.669L88.3187 71.1596C88.5259 70.6468 88.6312 70.1883 88.6312 69.7808C88.6312 69.2034 88.4104 68.7246 87.9723 68.3408C87.5308 67.9571 86.984 67.7635 86.3286 67.7635C85.6222 67.7635 84.9871 67.974 84.4268 68.3985C85.7614 66.5035 87.9689 65.2673 90.4617 65.2673C94.537 65.2673 97.8414 68.5718 97.8414 72.6471C97.8414 73.384 97.7327 74.0972 97.5324 74.7697H94.2076L96.0992 72.9222Z" fill="black"/>
<path d="M33.7568 79.5037C33.2983 79.5037 32.8093 79.4426 32.2931 79.3169C31.7769 79.1913 31.2878 79.0113 30.8293 78.7702C30.3709 78.5324 29.9599 78.2302 29.5966 77.8668C29.2332 77.5034 28.9751 77.0823 28.8222 76.6034C28.6321 76.1246 28.52 75.6423 28.4928 75.1533C28.4656 74.6643 28.4826 74.1786 28.5506 73.6896C28.6185 73.2005 28.7339 72.7285 28.8936 72.27C29.0566 71.8115 29.2434 71.37 29.4539 70.9489C29.8547 70.1644 30.3335 69.4342 30.8905 68.755C31.444 68.0758 32.0485 67.4815 32.6972 66.9755C33.3459 66.4694 34.0183 66.0687 34.7043 65.7698C35.3937 65.4744 36.0627 65.325 36.7114 65.325C37.8593 65.325 38.6879 65.5219 39.194 65.9125C39.7 66.3064 39.9581 66.8057 39.9683 67.4204C39.9785 68.0317 39.7815 68.7109 39.3807 69.458C38.98 70.2052 38.4638 70.9421 37.8321 71.6689C37.2004 72.3957 36.4839 73.0613 35.679 73.6624C34.8741 74.2635 34.0828 74.7288 33.2983 75.0548C33.3187 75.571 33.4138 75.9548 33.5836 76.2027C33.7568 76.4506 33.9809 76.6034 34.2594 76.6612C34.5379 76.7189 34.8537 76.6951 35.2069 76.5899C35.5601 76.4846 35.9099 76.3182 36.2529 76.0872C36.5959 75.897 36.9559 75.5948 37.3295 75.1839C37.7031 74.7729 38.08 74.3246 38.4638 73.8356C38.8476 73.3466 39.2143 72.8405 39.5675 72.3141C39.9207 71.7877 40.2434 71.2953 40.5286 70.8368C40.7596 70.4157 41.0414 70.144 41.3743 70.0184C41.7071 69.8927 42.0059 69.8893 42.264 70.0048C42.5222 70.1203 42.7089 70.324 42.8244 70.6229C42.9399 70.9183 42.8923 71.2681 42.6818 71.6689C42.0705 72.6843 41.4524 73.659 40.8309 74.5963C40.2094 75.5337 39.5438 76.3657 38.8374 77.0925C38.131 77.8192 37.3601 78.4034 36.528 78.8415C35.6926 79.283 34.7688 79.5037 33.7568 79.5037ZM33.1523 72.27C33.4206 72.1172 33.7262 71.9202 34.0692 71.6825C34.4122 71.4447 34.7756 71.1323 35.1594 70.7485C35.5431 70.4055 35.859 70.0116 36.1069 69.5735C36.3548 69.132 36.5178 68.7618 36.5959 68.4528C36.6707 68.1471 36.6401 67.9603 36.4941 67.8924C36.3514 67.8245 36.0865 67.9841 35.7062 68.3645C35.4582 68.6124 35.2035 68.9146 34.9454 69.2678C34.6873 69.621 34.4428 69.9742 34.2153 70.3308C33.9843 70.684 33.7738 71.0202 33.5836 71.3361C33.3934 71.6519 33.2474 71.8964 33.1523 72.0662V72.27Z" fill="black"/>
<path d="M49.6812 74.7968C49.7763 75.1228 49.8442 75.3674 49.8816 75.527C49.919 75.69 49.9733 75.7715 50.0378 75.7715C50.1057 75.7715 50.2008 75.69 50.3231 75.527C50.4488 75.364 50.6525 75.1194 50.9412 74.7968C51.5151 74.0497 52.0313 73.2889 52.4898 72.5146C52.9483 71.7403 53.4 71.0169 53.8381 70.3479C54.0486 69.9641 54.3067 69.74 54.6124 69.6721C54.918 69.6042 55.1965 69.6381 55.4444 69.774C55.6923 69.9064 55.8757 70.117 55.9912 70.4056C56.1067 70.6909 56.0761 71.0068 55.9063 71.3532C55.638 71.8524 55.3459 72.3856 55.0301 72.9595C54.7143 73.5335 54.3645 74.1176 53.9841 74.7085C53.6003 75.3028 53.1894 75.8904 52.7513 76.4745C52.3098 77.0586 51.8513 77.5884 51.3725 78.0673C50.9514 78.4884 50.4691 78.8382 49.9224 79.1133C49.3756 79.3918 48.8356 79.5446 48.3024 79.5717C47.7658 79.5989 47.2802 79.4699 46.8387 79.1846C46.3972 78.8959 46.0746 78.4103 45.864 77.7209C45.8266 77.6054 45.8029 77.5069 45.7927 77.4186C45.7825 77.3337 45.7689 77.242 45.7485 77.1469C45.7282 77.0518 45.7044 76.933 45.6772 76.7869C45.65 76.6443 45.6059 76.4677 45.5482 76.2571C45.2052 76.6579 44.9165 77.0213 44.6889 77.3473C44.458 77.6733 44.2542 78.0027 44.0709 78.339C43.8875 78.6752 43.7075 79.0318 43.5241 79.4155C43.3407 79.7993 43.1165 80.2578 42.8483 80.7943C41.9313 80.3528 41.2113 79.8468 40.6951 79.2729C40.1789 78.6989 39.9378 78.2303 39.9785 77.8669C40.0363 77.7922 40.2095 77.5714 40.4948 77.2081C40.78 76.8447 41.1434 76.3896 41.5849 75.8462C42.0264 75.2994 42.5324 74.6881 43.1064 74.0089C43.6803 73.3297 44.2814 72.6267 44.9131 71.8999C44.7806 70.9049 44.6788 70.1985 44.6108 69.7774C44.5429 69.3562 44.4376 69.1796 44.295 69.2476C44.1524 69.3155 43.935 69.6008 43.6497 70.1068C43.3645 70.6128 42.9433 71.2784 42.3864 72.1003C42.1385 72.5995 41.8328 72.9154 41.4694 73.0478C41.1061 73.1803 40.7868 73.1769 40.5083 73.0342C40.2299 72.8916 40.06 72.6267 39.9921 72.2463C39.9242 71.8626 40.0736 71.4041 40.437 70.8675C40.7427 70.3887 41.0687 69.8283 41.4117 69.1898C41.7547 68.548 42.1249 67.9231 42.5154 67.3118C42.906 66.7005 43.3271 66.1503 43.7788 65.6613C44.2271 65.1722 44.7195 64.8428 45.2561 64.6696C45.9455 64.4591 46.5228 64.4489 46.9915 64.6424C47.4602 64.8326 47.7421 65.1315 47.8371 65.5322C47.9322 65.9737 48.0341 66.4084 48.1394 66.8363C48.2447 67.2676 48.316 67.6344 48.3534 67.9401L50.4759 64.6696C50.8393 64.6119 51.2129 64.6662 51.5966 64.8258C51.9804 64.9888 52.3234 65.1994 52.6291 65.4575C52.9347 65.7156 53.1826 66.0043 53.3762 66.3201C53.5664 66.636 53.6547 66.9178 53.6343 67.1658C53.5766 67.2235 53.3966 67.4137 53.0875 67.7397C52.7819 68.0657 52.4117 68.4699 51.9838 68.9589C51.5525 69.4479 51.0804 69.9879 50.5642 70.5788C50.048 71.1732 49.542 71.7471 49.0428 72.3007C49.1379 72.8373 49.2431 73.3093 49.3586 73.7202C49.4809 74.1312 49.5861 74.4912 49.6812 74.7968Z" fill="black"/>
<path d="M60.3857 65.814C60.8068 65.6408 61.3196 65.4778 61.9207 65.325C62.5219 65.1721 63.1264 65.0906 63.7275 65.0804C64.3286 65.0702 64.8856 65.1653 65.3916 65.3691C65.8976 65.5695 66.2678 65.9396 66.4953 66.4728C66.801 67.4475 66.8485 68.4833 66.6379 69.5735C66.4274 70.6636 66.0538 71.7266 65.5172 72.759C64.9806 73.7915 64.3252 74.7695 63.5509 75.6865C62.7766 76.6034 61.9785 77.3845 61.1532 78.0264C60.3314 78.6683 59.5299 79.1301 58.7556 79.4188C57.9813 79.7075 57.3156 79.7448 56.7621 79.5343C56.5141 79.4562 56.29 79.4052 56.0862 79.3781C55.8859 79.3509 55.6787 79.2694 55.4681 79.1335C55.3357 79.7652 55.2202 80.4139 55.1251 81.0863C55.03 81.7553 54.9621 83.2157 54.9248 83.8847C54.8874 84.5537 54.8976 85.2194 54.9519 85.8782C55.0097 86.5371 55.1251 87.1653 55.2949 87.7563C54.8365 87.7563 54.344 87.7461 53.8176 87.7291C53.2912 87.7087 52.7852 87.6476 52.2962 87.5423C51.8071 87.437 51.3622 87.2638 50.9615 87.0261C50.5608 86.785 50.2619 86.4488 50.0717 86.0073C50.0344 85.1277 50.1328 84.0409 50.374 82.7504C50.6151 81.4599 50.9343 79.3067 51.3351 77.8702C51.7358 76.4336 52.1909 74.9903 52.6969 73.5367C53.2029 72.0832 53.7259 70.7519 54.2625 69.5463C54.7991 68.3407 55.3085 67.3287 55.7976 66.5034C56.2866 65.6815 56.7009 65.1653 57.0473 64.9548C57.4107 64.897 57.9065 64.8699 58.5382 64.8699C59.1699 64.8699 59.8763 64.9174 60.6608 65.0125C60.6234 65.0906 60.5759 65.2197 60.5181 65.3997C60.474 65.5797 60.4231 65.7189 60.3857 65.814ZM57.2884 72.0425C57.0983 72.4636 56.9183 72.9696 56.7587 73.5639C56.5956 74.1582 56.5617 74.7967 56.6568 75.4861C56.7722 76.2706 56.9862 76.6476 57.302 76.6204C57.6179 76.5932 57.9847 76.3487 58.4058 75.8903C58.8269 75.4691 59.2344 75.0005 59.625 74.4843C60.0155 73.9681 60.3619 73.4281 60.6574 72.8643C60.9529 72.3006 61.1872 71.7164 61.3604 71.1153C61.5336 70.5142 61.6083 69.9233 61.5913 69.3493C61.5709 68.986 61.5098 68.7075 61.4045 68.5173C61.2993 68.3271 61.16 68.2015 60.9868 68.1437C60.8136 68.086 60.6336 68.086 60.44 68.1437C60.2499 68.2015 60.0563 68.2966 59.8661 68.429C59.5401 68.6396 59.2446 68.9011 58.9763 69.2169C58.708 69.5327 58.4635 69.8622 58.2462 70.2086C58.0254 70.5516 57.8352 70.8878 57.6722 71.2138C57.5126 71.5364 57.3835 71.8115 57.2884 72.0425Z" fill="black"/>
<path d="M75.3659 76.892C75.0026 77.3709 74.5611 77.826 74.0449 78.2539C73.5286 78.6852 72.9717 79.0418 72.3808 79.3304C71.7864 79.6157 71.1751 79.7991 70.5435 79.8772C69.9118 79.9519 69.3107 79.867 68.7367 79.6191H68.7639C67.847 79.2761 67.1711 78.7905 66.7398 78.169C66.3085 77.5475 66.0572 76.8547 65.9791 76.0872C65.9417 75.5506 65.9689 74.9868 66.064 74.3925C66.1591 73.7982 66.2983 73.2073 66.4817 72.6129C66.6651 72.0186 66.8825 71.4447 67.1406 70.8911C67.3987 70.3375 67.6704 69.8281 67.959 69.3697C68.5126 68.5648 69.0526 67.9025 69.579 67.3761C70.1054 66.8497 70.6114 66.4388 71.1004 66.1433C71.5895 65.8479 72.0581 65.6407 72.5064 65.5253C72.9547 65.4098 73.3826 65.3521 73.7834 65.3521C74.7003 65.3521 75.4916 65.583 76.1504 66.0415C76.8093 66.4999 77.1863 67.1995 77.2847 68.1369C77.801 68.327 78.1168 68.6768 78.2323 69.1829C78.3477 69.6889 78.3511 70.2391 78.2458 70.8334C78.1406 71.4277 77.964 72.005 77.7161 72.5688C77.4681 73.1325 77.2372 73.5605 77.0266 73.8457C77.1591 74.0189 77.2983 74.0563 77.4444 73.9612C77.587 73.8661 77.6991 73.771 77.7738 73.6759C77.947 73.445 78.1236 73.1869 78.3036 72.9016C78.487 72.6163 78.6534 72.3379 78.8062 72.0696C78.959 71.8013 79.1017 71.55 79.2375 71.3088C79.37 71.0711 79.4854 70.8911 79.5805 70.779C79.8115 70.3375 80.0933 70.0557 80.4262 69.9334C80.7624 69.8078 81.0578 69.8078 81.3159 69.9334C81.574 70.0591 81.7506 70.2866 81.8457 70.6228C81.9408 70.959 81.8661 71.3632 81.6148 71.842C81.3465 72.3412 81.1122 72.776 80.9118 73.1461C80.7114 73.5197 80.528 73.8525 80.365 74.1514C80.202 74.4468 80.0458 74.7219 79.893 74.9698C79.7401 75.2178 79.5771 75.4691 79.4039 75.717C78.9047 76.386 78.29 76.8309 77.553 77.0517C76.8263 77.269 76.0927 77.2181 75.3659 76.892ZM71.6778 76.3894C71.8408 76.2468 72.0038 76.0702 72.1668 75.8596C72.3298 75.6491 72.486 75.4283 72.6389 75.2008C72.7917 74.9698 72.9343 74.7593 73.0702 74.5691C72.8019 74.0902 72.6151 73.5944 72.5098 73.0782C72.4045 72.562 72.3943 72.0628 72.4826 71.5873C72.5675 71.1085 72.7441 70.6704 73.0124 70.2662C73.2807 69.8621 73.6645 69.5395 74.1603 69.2915H74.0177C73.8649 69.2168 73.7222 69.1489 73.5864 69.0912C73.4539 69.0334 73.3554 68.9587 73.3011 68.8602C72.9955 68.8976 72.683 69.1183 72.3672 69.5191C72.0513 69.9198 71.7593 70.4089 71.491 70.9828C71.2227 71.5567 70.9985 72.168 70.8152 72.8201C70.6318 73.4722 70.5129 74.0767 70.4552 74.6438C70.3974 75.2076 70.4314 75.6762 70.557 76.0498C70.6827 76.4234 70.917 76.6102 71.26 76.6102C71.3789 76.6034 71.5148 76.532 71.6778 76.3894Z" fill="black"/>
</svg>
