<svg width="203" height="40" viewBox="0 0 203 40" fill="none" xmlns="http://www.w3.org/2000/svg">
<g clip-path="url(#clip0_74_826)">
<path d="M12.7094 15.4883H11.3541C10.4517 15.5793 9.58258 15.8801 8.81668 16.3663C7.72556 17.0401 7.30154 18.2067 6.73433 19.3122C6.13605 20.6864 5.39568 21.994 4.52322 23.2128C4.15915 23.6745 3.69739 24.0763 3.28891 24.5159C2.80162 25.032 2.3443 25.5759 1.91807 26.1443C0.95348 27.2731 0.303023 28.6373 0.0321842 30.0981C-0.00999564 30.8773 -0.00999564 31.6587 0.0321842 32.4379C0.0321842 33.2638 -0.00555566 34.0885 0.0321842 34.9143C0.0577141 35.7035 0.251963 36.4783 0.600502 37.1865C1.1 38.1555 1.85813 38.3375 2.87266 38.4896C6.03837 38.9081 9.22294 39.1612 12.4153 39.2466C13.3466 39.2921 15.1792 39.3143 16.1116 39.3221C16.2747 39.3221 16.4068 39.1889 16.4068 39.0257C16.4068 38.8626 16.2747 38.7316 16.1116 38.7305C12.3986 38.7671 8.68681 38.5917 4.99386 38.2077C4.01596 38.1178 3.04249 37.979 2.0779 37.7914C1.04006 37.5495 0.737031 36.1631 0.623811 35.2462C0.589402 34.7012 0.589402 34.1551 0.623811 33.6101V30.8384C0.623811 28.3243 2.57074 26.1121 4.25127 24.4238C6.09165 22.5612 6.87974 20.0915 8.174 17.8726C8.93101 16.5395 10.6881 16.0999 12.1422 16.0999H21.8669V15.4861H12.7105L12.7094 15.4883Z" fill="black"/>
<path d="M11.3763 17.1545C10.8935 17.1923 10.4228 17.3233 9.98992 17.5408C9.34945 17.9071 8.86549 18.4943 8.62684 19.1914C8.05853 20.4867 7.46801 21.7666 6.85418 23.0464C6.85085 23.0664 6.85085 23.0875 6.85418 23.1074C6.84974 23.1352 6.84974 23.1629 6.85418 23.1907C6.83087 23.3228 6.91967 23.4482 7.05065 23.4704H7.24712C10.4206 23.2207 13.624 23.1374 16.8119 23.1452V22.5547C14.0048 22.5547 11.1976 22.6401 8.39041 22.8122L7.6334 22.8577C8.02745 22.0241 8.39041 21.1916 8.8 20.3513C9.01756 19.6221 9.38053 18.9439 9.86782 18.36C10.2685 18.0303 10.7536 17.8194 11.2686 17.7539C12.3731 17.674 13.482 17.674 14.5853 17.7539H21.9168V17.1779H15.1159C13.8816 17.1479 12.6095 17.0569 11.3741 17.1557L11.3763 17.1545Z" fill="black"/>
<path d="M2.71954 23.9245C2.8594 24.0055 3.03922 23.9578 3.12136 23.8179C3.19795 23.6769 3.15133 23.5016 3.0148 23.4161C2.93821 23.3573 2.86495 23.294 2.79502 23.2263L2.67403 23.0897L2.60632 22.991C2.57302 22.9443 2.54527 22.8933 2.52307 22.84V22.7945C2.51974 22.7567 2.51974 22.719 2.52307 22.6813V22.537C2.52196 22.5214 2.52196 22.507 2.52307 22.4915C2.49421 22.4326 2.48089 22.3671 2.48533 22.3016C2.48311 22.2761 2.48311 22.2506 2.48533 22.2262L2.53861 22.1352V22.0974L2.59966 22.0364L2.64517 21.9909L2.70622 21.9376L2.80501 21.8699H3.53982L3.77514 21.9453H3.82842L3.91167 21.9831L4.07817 22.0741C4.21359 22.1574 4.39119 22.1141 4.47333 21.9786C4.47555 21.9753 4.47777 21.972 4.47888 21.9687C4.55547 21.8277 4.50885 21.6523 4.37232 21.5668C3.81621 21.1683 3.08362 21.1095 2.4709 21.4159C2.05909 21.6512 1.7938 22.0785 1.76605 22.5514C1.78603 22.9155 1.93699 23.2596 2.19007 23.5204C2.3488 23.6769 2.5264 23.8112 2.72065 23.9222L2.71954 23.9245Z" fill="black"/>
<path d="M11.7171 30.6355C12.6517 30.3625 13.6219 30.2382 14.5953 30.2648C14.8984 30.2648 16.1105 30.3103 15.9817 30.2648C16.3458 30.3181 16.5045 29.7498 16.1327 29.6965C15.0116 29.5455 12.513 29.56 11.4829 30.075C11.161 30.2248 10.8957 30.4746 10.7259 30.7865C10.5483 31.2383 10.4939 31.73 10.5672 32.2106C10.5294 33.0864 10.7969 33.9489 11.3242 34.6493C12.2477 35.7171 14.8085 35.5428 16.0883 35.5351C16.2492 35.5095 16.3591 35.3575 16.3325 35.1965C16.3125 35.0711 16.2137 34.9723 16.0883 34.9523C15.0815 34.9523 12.6573 35.1643 11.877 34.384C11.4207 33.8712 11.1754 33.2063 11.1876 32.5214V31.6501C11.1721 31.4703 11.1954 31.2893 11.2554 31.1195C11.3519 30.9119 11.514 30.741 11.7171 30.6344V30.6355Z" fill="black"/>
<path d="M5.94625 29.6275C5.32021 29.4322 4.6753 29.3001 4.02263 29.2335C3.6419 29.1691 3.25562 29.1547 2.87156 29.188C2.1201 29.3256 1.59951 30.0172 1.67499 30.7786C1.69386 31.2892 1.89255 31.7776 2.23554 32.1572C3.12131 33.2483 4.66642 33.5736 5.98399 33.6724C6.99852 33.7556 9.08864 33.9077 9.37724 32.5513C9.41054 31.9108 9.09086 31.3036 8.54364 30.9684C7.76886 30.3635 6.88863 29.9084 5.94625 29.6275ZM7.62012 33.1185C7.07622 33.1795 6.52789 33.1795 5.98399 33.1185C4.77964 33.114 3.61859 32.6634 2.72726 31.8542C2.53079 31.6377 2.38761 31.378 2.31102 31.0972V30.9462C2.31102 30.8474 2.31102 30.9462 2.31102 30.8929C2.30769 30.8574 2.30769 30.8219 2.31102 30.7864C2.31102 30.2869 2.55299 29.8096 3.02252 29.7718C3.86612 29.7419 4.7086 29.8551 5.51446 30.1048C6.37138 30.3302 7.185 30.6965 7.92315 31.1882C8.27946 31.4379 8.92325 31.8997 8.86998 32.4081C8.8167 32.9153 8.03637 33.0674 7.62012 33.1196V33.1185Z" fill="black"/>
<path d="M101.539 0.492432V3.37065H109.37V23.3794H112.603V3.37065H116.474V0.492432H101.539Z" fill="black"/>
<path d="M123.661 0.492432V3.37065H127.91V23.3794H131.144V3.37065H138.975V0.492432H123.661Z" fill="black"/>
<path d="M75.645 11.8911C75.3032 11.7357 74.948 11.6091 74.585 11.5125H74.6305C76.5852 10.5901 77.7829 8.57328 77.6597 6.41545C77.7185 4.7105 76.9238 3.08879 75.5396 2.09091C74.121 1.04085 72.1008 0.513607 69.4812 0.508057H59.287V23.3651H70.1927C73.0854 23.3651 75.2665 22.8245 76.7362 21.7445C78.1914 20.7 79.0205 18.9906 78.9406 17.2002C78.9806 16.0435 78.6742 14.9025 78.0626 13.9212C77.4699 13.0255 76.6307 12.3206 75.6462 11.8911H75.645ZM69.2148 3.13541C70.5602 3.05438 71.8988 3.37295 73.0621 4.05227C74.5761 5.18447 74.8858 7.33008 73.7536 8.84412C73.5571 9.10608 73.324 9.33918 73.0621 9.53565C71.8988 10.215 70.559 10.5335 69.2148 10.4525H62.5194V3.13541H69.2148ZM74.1765 19.7975C72.9045 20.4813 71.4681 20.7977 70.0262 20.7144H62.5205V13.1409H70.0262C71.4681 13.0532 72.9056 13.3707 74.1765 14.0578C75.7727 15.2621 76.089 17.532 74.8847 19.1282C74.6827 19.3957 74.444 19.6344 74.1765 19.8364V19.7987V19.7975Z" fill="black"/>
<path d="M89.914 0.492432L79.5611 23.3494H82.9233L85.4374 17.6319H97.5552L100.069 23.3494H103.493L93.1175 0.492432H89.914ZM86.5507 15.0178L91.4813 3.8091L96.4119 15.0178H86.5507Z" fill="black"/>
<path d="M144.86 13.1253H156.318V10.3525H144.86V3.33291H157.727V0.492432H141.595V23.3494H158.181V20.509H144.86V13.1253Z" fill="black"/>
<path d="M176.562 15.4427C177.898 14.88 179.034 13.9298 179.827 12.7166C180.616 11.4401 181.014 9.96047 180.97 8.45975C181.011 6.95238 180.614 5.4661 179.827 4.18072C179.039 2.96084 177.901 2.00513 176.562 1.43903C174.939 0.768597 173.191 0.445589 171.435 0.492209H162.521V23.3492H165.786V16.3896H171.435C171.943 16.3896 172.42 16.3896 172.89 16.3363L177.805 23.3492H181.364L175.919 15.6769C176.138 15.6015 176.366 15.5326 176.562 15.4416V15.4427ZM171.337 13.6168H165.786V3.37043H171.374C173.464 3.37043 175.05 3.81775 176.131 4.7113C177.23 5.65368 177.826 7.05339 177.744 8.4986C177.817 9.9416 177.222 11.3391 176.131 12.2859C175.025 13.175 173.44 13.619 171.374 13.619H171.337V13.6168Z" fill="black"/>
<path d="M202.813 0.492432H199.578L192.232 12.5492L184.924 0.492432H181.424L190.505 15.3897V23.3494H193.732V15.4352L202.813 0.492432Z" fill="black"/>
<path d="M61.5281 34.0587H67.4355V32.1872H61.5281V29.0071H68.1859V27.0979H59.256V39.3367H68.4356V37.4364H61.5281V34.0587Z" fill="black"/>
<path d="M80.4247 27.0979H77.9627L74.8725 31.4458L71.7379 27.0979H69.1627L73.4639 33.0885L68.9196 39.3367H71.5103L74.7893 34.6792L78.1215 39.3367H80.7422L76.1457 33.0053L80.4247 27.0979Z" fill="black"/>
<path d="M89.5278 27.6051C88.6464 27.2355 87.6963 27.0579 86.7406 27.0823H81.7045V39.3211H83.9767V35.7913H86.7406C87.6963 35.8157 88.6464 35.6381 89.5278 35.2685C90.2593 34.9466 90.8831 34.4205 91.3226 33.7534C92.1607 32.317 92.1607 30.5399 91.3226 29.1036C90.8809 28.442 90.257 27.9215 89.5278 27.604V27.6051ZM88.8984 33.2328C88.2391 33.7034 87.4343 33.9287 86.6262 33.8688H83.9756V29.007H86.634C87.441 28.9482 88.2435 29.1702 88.9062 29.6353C89.8996 30.6054 89.9185 32.1972 88.9484 33.1906C88.935 33.205 88.9206 33.2183 88.9062 33.2328H88.8984Z" fill="black"/>
<path d="M104.417 28.7185C103.811 28.1469 103.102 27.6974 102.327 27.3932C100.631 26.7661 98.7674 26.7661 97.0713 27.3932C96.2932 27.6951 95.5806 28.1458 94.9734 28.7185C94.3818 29.2802 93.9122 29.9584 93.5948 30.7099C92.9388 32.3194 92.9388 34.122 93.5948 35.7315C93.9156 36.4819 94.384 37.1589 94.9734 37.7228C95.5828 38.2911 96.2943 38.7385 97.0713 39.0404C97.9149 39.3634 98.8118 39.5232 99.7142 39.5099C100.607 39.521 101.494 39.3612 102.327 39.0404C103.1 38.7385 103.809 38.2945 104.417 37.7306C105.009 37.1689 105.478 36.4907 105.796 35.7393C106.128 34.9401 106.295 34.082 106.288 33.2174C106.295 32.3571 106.128 31.5035 105.796 30.711C105.478 29.9595 105.009 29.2813 104.417 28.7197V28.7185ZM103.66 34.9445C103.448 35.4518 103.143 35.9146 102.759 36.3076C102.37 36.6972 101.906 37.0035 101.396 37.2089C100.29 37.6229 99.0715 37.6229 97.9648 37.2089C97.4542 37.0035 96.9903 36.6972 96.6018 36.3076C96.2144 35.9113 95.908 35.4429 95.7004 34.929C95.2764 33.8245 95.2764 32.6024 95.7004 31.498C95.9113 30.9885 96.2199 30.5256 96.6095 30.1349C96.9991 29.7464 97.4631 29.44 97.9726 29.2336C98.5143 29.0182 99.0937 28.9095 99.6764 28.915C100.265 28.9084 100.849 29.0171 101.396 29.2336C101.908 29.4367 102.373 29.7431 102.759 30.1349C103.146 30.5256 103.452 30.9896 103.66 31.498C103.878 32.0441 103.987 32.6291 103.979 33.2174C103.991 33.8068 103.888 34.394 103.676 34.9445H103.66Z" fill="black"/>
<path d="M119.049 33.9899C119.14 35.0654 118.818 36.1355 118.148 36.9813C116.677 38.2334 114.515 38.2334 113.043 36.9813C112.373 36.1355 112.051 35.0654 112.142 33.9899V27.0979H110.392V34.0576C110.286 35.5361 110.786 36.9935 111.779 38.0946C113.97 39.9283 117.161 39.9283 119.352 38.0946C120.332 36.988 120.826 35.5328 120.723 34.0576V27.0979H119.027L119.049 33.9899Z" fill="black"/>
<path d="M130.394 31.1727V30.075H122.874V31.4525H128.251L122.768 38.2534V39.3367H130.538V37.9581H124.919L130.394 31.1727Z" fill="black"/>
<path d="M139.68 30.5822C138.941 30.1727 138.108 29.9662 137.263 29.984C136.528 29.9762 135.803 30.156 135.157 30.5068C134.718 30.7543 134.334 31.0895 134.029 31.4913V26.3643H132.355V39.3379H133.96V37.8682C134.266 38.2989 134.665 38.6552 135.126 38.9139C135.78 39.2735 136.516 39.4566 137.262 39.4444C138.105 39.4611 138.938 39.258 139.678 38.8539C140.371 38.4577 140.944 37.8827 141.337 37.1878C141.758 36.4286 141.97 35.5717 141.951 34.7036C141.971 33.8412 141.759 32.9876 141.337 32.235C140.944 31.5446 140.37 30.9741 139.678 30.5845L139.68 30.5822ZM139.846 36.4286C139.586 36.907 139.199 37.3033 138.725 37.5719C138.237 37.8427 137.686 37.9804 137.127 37.9737C136.573 37.9804 136.028 37.8416 135.544 37.5719C135.071 37.3033 134.682 36.907 134.423 36.4286C134.142 35.8969 134.001 35.303 134.014 34.7014C134 34.1031 134.141 33.5104 134.423 32.982C134.687 32.5114 135.074 32.1207 135.544 31.8532C136.028 31.5835 136.573 31.4447 137.127 31.4514C137.685 31.4436 138.235 31.5823 138.725 31.8532C139.195 32.1207 139.582 32.5103 139.846 32.982C140.129 33.5104 140.27 34.102 140.255 34.7014C140.268 35.3019 140.127 35.8969 139.846 36.4286Z" fill="black"/>
<path d="M150.032 30.5822C149.308 30.1738 148.486 29.9662 147.655 29.984C146.82 29.9718 145.997 30.1815 145.27 30.59C144.569 30.9796 143.993 31.5568 143.603 32.2561C143.194 33.0054 142.988 33.849 143.005 34.7025C142.987 35.5617 143.202 36.4097 143.626 37.1567C144.037 37.8671 144.641 38.4477 145.367 38.8306C146.835 39.5599 148.54 39.6431 150.07 39.0582C150.674 38.8184 151.212 38.4366 151.638 37.9448L150.714 36.8537C150.39 37.2211 149.986 37.5086 149.533 37.694C148.475 38.1058 147.293 38.0625 146.268 37.573C145.77 37.3199 145.354 36.9281 145.072 36.4441C144.86 36.0823 144.726 35.6793 144.678 35.2631H152.198V34.7558C152.22 33.8845 152.019 33.0209 151.615 32.2495C151.255 31.5568 150.706 30.9796 150.032 30.5834V30.5822ZM146.094 31.7933C146.569 31.5235 147.109 31.3881 147.655 31.3992C148.201 31.387 148.74 31.5235 149.216 31.7933C149.662 32.053 150.029 32.4304 150.276 32.8844C150.473 33.2473 150.592 33.6469 150.624 34.0588H144.671C144.712 33.6525 144.833 33.2596 145.028 32.8999C145.273 32.4382 145.642 32.0552 146.095 31.7944L146.094 31.7933Z" fill="black"/>
<path d="M162.892 30.0749H160.87L155.819 34.6947V26.363H154.137V39.3367H155.819V36.807L157.735 35.0121L161.218 39.3367H163.278L158.999 33.9066L162.892 30.0749Z" fill="black"/>
<path d="M166.043 30.075H164.361V39.3445H166.043V30.075Z" fill="black"/>
<path d="M165.202 26.3487C164.919 26.3376 164.644 26.4442 164.445 26.644C164.244 26.8438 164.137 27.119 164.149 27.401C164.135 27.684 164.243 27.9593 164.445 28.158C164.644 28.3578 164.92 28.4643 165.202 28.4532C165.485 28.4677 165.76 28.36 165.959 28.158C166.166 27.9626 166.277 27.6851 166.262 27.401C166.275 27.1168 166.164 26.8404 165.959 26.644C165.76 26.4419 165.485 26.3343 165.202 26.3487Z" fill="black"/>
<path d="M174.32 34.7013C173.957 34.5181 173.573 34.3816 173.177 34.2928C172.761 34.194 172.337 34.1108 171.919 34.0508C171.534 33.992 171.152 33.9132 170.776 33.8155C170.473 33.74 170.188 33.6057 169.936 33.4215C169.706 33.2405 169.584 32.9553 169.611 32.6645C169.614 32.2826 169.823 31.933 170.156 31.7476C170.657 31.4701 171.228 31.3447 171.799 31.3835C172.259 31.3835 172.716 31.4379 173.163 31.5422C173.631 31.6521 174.075 31.8475 174.472 32.1183L175.192 30.793C174.728 30.4988 174.215 30.288 173.676 30.1725C173.07 30.0304 172.451 29.9561 171.828 29.9527C171.129 29.9361 170.433 30.0526 169.776 30.2935C169.248 30.4855 168.784 30.8219 168.435 31.2625C168.122 31.6877 167.958 32.2038 167.966 32.7322C167.944 33.1817 168.052 33.629 168.276 34.0198C168.488 34.3394 168.777 34.5992 169.117 34.7768C169.483 34.9666 169.873 35.1087 170.275 35.2008C170.692 35.2996 171.109 35.3751 171.533 35.4428C171.957 35.5105 172.336 35.5793 172.676 35.6625C172.976 35.7269 173.259 35.8501 173.51 36.0266C173.715 36.192 173.831 36.4451 173.821 36.7082C173.829 37.0889 173.632 37.4441 173.306 37.6394C172.782 37.897 172.199 38.0091 171.616 37.9647C171.013 37.9647 170.412 37.8725 169.837 37.6916C169.316 37.534 168.821 37.302 168.367 37.0023L167.67 38.3354C168.165 38.6806 168.716 38.937 169.299 39.0924C170.012 39.3 170.752 39.4054 171.495 39.4032C172.222 39.4199 172.946 39.3044 173.631 39.0625C174.168 38.8738 174.644 38.5441 175.01 38.1079C175.336 37.6972 175.51 37.1855 175.501 36.6615C175.525 36.2164 175.411 35.7747 175.176 35.3973C174.952 35.0987 174.659 34.8589 174.32 34.7002V34.7013Z" fill="black"/>
<path d="M180.538 38.027C180.139 38.0514 179.748 37.906 179.463 37.6252C179.192 37.3044 179.057 36.8926 179.084 36.4741V31.4525H181.743V30.0739H179.084V28.0437H177.434V30.0739H175.859V31.4525H177.434V36.5418C177.382 37.3321 177.655 38.1091 178.191 38.693C178.785 39.2258 179.567 39.4989 180.364 39.45C180.738 39.45 181.111 39.3967 181.47 39.2913C181.807 39.198 182.119 39.0327 182.387 38.8062L181.864 37.5941C181.49 37.8949 181.018 38.0492 180.538 38.0259V38.027Z" fill="black"/>
<path d="M187.355 29.9838C186.641 29.9827 185.932 30.087 185.249 30.2946C184.624 30.4711 184.039 30.7697 183.53 31.1726L184.227 32.4302C184.617 32.0961 185.066 31.8386 185.552 31.6732C186.071 31.4923 186.617 31.4002 187.165 31.4002C187.838 31.3502 188.504 31.5589 189.028 31.9829C189.458 32.4213 189.684 33.0207 189.648 33.6335V33.9665H186.99C186.239 33.9332 185.491 34.0597 184.793 34.3372C184.308 34.5303 183.897 34.8722 183.619 35.314C183.381 35.7291 183.258 36.1998 183.262 36.6771C183.255 37.1777 183.4 37.6694 183.679 38.0857C183.982 38.5152 184.399 38.8504 184.883 39.0547C185.455 39.2989 186.072 39.4176 186.693 39.4032C187.419 39.4387 188.141 39.2878 188.791 38.9637C189.162 38.7539 189.478 38.4608 189.715 38.1079V39.3344H191.305V33.7378C191.389 32.6889 191.013 31.6555 190.275 30.9051C189.448 30.2458 188.407 29.9172 187.352 29.9816L187.355 29.9838ZM188.627 37.7316C188.122 38.0179 187.549 38.1622 186.969 38.1478C186.433 38.1811 185.9 38.0379 185.454 37.7393C185.102 37.4896 184.896 37.08 184.908 36.6482C184.905 36.263 185.065 35.8945 185.348 35.6337C185.844 35.2929 186.447 35.1431 187.044 35.2097H189.634V36.505C189.446 37.0156 189.091 37.4485 188.627 37.7316Z" fill="black"/>
<path d="M202.32 31.7487C202.018 31.1759 201.544 30.7131 200.965 30.4234C200.343 30.1192 199.657 29.9683 198.965 29.9838C198.2 29.9649 197.441 30.1392 196.761 30.4911C196.311 30.7264 195.922 31.0638 195.626 31.4756V30.0748H194.02V39.3377H195.694V34.5659C195.674 33.9787 195.8 33.397 196.058 32.8698C196.283 32.4269 196.64 32.0673 197.081 31.8397C197.561 31.5977 198.095 31.4779 198.634 31.4912C199.317 31.449 199.988 31.6965 200.482 32.1727C200.955 32.7388 201.188 33.467 201.133 34.2029V39.3377H202.815V34.0364C202.847 33.245 202.678 32.458 202.323 31.7487H202.32Z" fill="black"/>
<path d="M28.3559 16.9646H27.4546V19.7218H28.3559V16.9646Z" fill="black"/>
<path d="M29.265 17.8738H26.5389V18.8128H29.265V17.8738Z" fill="black"/>
<path d="M46.5554 17.8738H43.8293V18.8128H46.5554V17.8738Z" fill="black"/>
<path d="M51.7813 34.7168H21.3209V38.9581H51.7813V34.7168Z" fill="black"/>
<path d="M51.7813 29.1357H21.3209V33.377H51.7813V29.1357Z" fill="black"/>
<path d="M54.4086 21.327C53.8214 20.6422 52.9445 20.277 52.0454 20.3425H50.1063V16.17C50.1063 15.7515 49.7677 15.413 49.3493 15.413H41.1098C40.8678 15.4019 40.6336 15.4962 40.466 15.6705C40.3439 15.8137 40.2784 15.9968 40.2839 16.1855V20.3658H32.817V16.17C32.817 15.7515 32.4784 15.413 32.06 15.413H23.8205C23.5785 15.4019 23.3443 15.4962 23.1767 15.6705C23.0546 15.8137 22.9891 15.9968 22.9946 16.1855V20.3658H20.7147C19.2129 20.4235 18.0341 21.6734 18.0641 23.1752C17.8976 28.2645 18.0641 33.3838 18.0641 38.4731V38.966C18.0641 39.2168 18.2672 39.42 18.518 39.42C18.7689 39.42 18.972 39.2168 18.972 38.966V24.3873C18.972 23.5615 18.8355 22.5691 19.4038 21.9031C19.8867 21.4114 20.5782 21.1827 21.2597 21.2893H50.9554C52.4173 21.2893 54.0756 21.2216 54.1134 23.3339C54.2121 28.3777 54.1134 33.4449 54.1134 38.4809V38.966C54.1134 39.2168 54.3154 39.4211 54.5662 39.4211C54.8171 39.4211 55.0213 39.219 55.0213 38.9682V23.94C55.1423 23.0231 54.9248 22.094 54.4075 21.327H54.4086ZM23.6906 20.3425V16.17C23.7272 16.1589 23.7672 16.1589 23.8038 16.17H32.0744V20.3425H23.6906ZM40.981 20.3425V16.17C41.0176 16.1589 41.0576 16.1589 41.0942 16.17H49.3648V20.3425H40.981Z" fill="black"/>
<path d="M22.1389 23.5537H50.9633C51.415 23.5537 51.7813 23.92 51.7813 24.3718V27.795H21.3209V24.3718C21.3209 23.92 21.6872 23.5537 22.1389 23.5537Z" fill="black"/>
<path d="M125.956 18.2224H114.543V23.2962H125.956V18.2224Z" fill="black"/>
<path d="M125.956 11.55H114.543V16.6238H125.956V11.55Z" fill="black"/>
<path d="M125.956 4.87695H114.543V9.95074H125.956V4.87695Z" fill="black"/>
<path d="M117.686 3.3395V1.59015C117.686 0.987421 118.175 0.499023 118.777 0.499023H121.345C121.947 0.499023 122.436 0.987421 122.436 1.59015V3.3395H117.687H117.686Z" fill="black"/>
</g>
<defs>
<clipPath id="clip0_74_826">
<rect width="202.816" height="39.0241" fill="white" transform="translate(0 0.488037)"/>
</clipPath>
</defs>
</svg>
