<svg width="368" height="101" viewBox="0 0 368 101" fill="none" xmlns="http://www.w3.org/2000/svg">
<path d="M113.491 11.5449L127.323 2.20142L109.567 68.8198H98.2196L98.4172 68.1424C95.2556 68.5376 92.3199 68.9045 89.0737 68.9045C84.2184 68.9045 78.6575 66.5051 78.6575 60.8877C78.6575 55.2703 83.6256 41.5232 84.7547 37.2043C87.7187 26.3365 100.986 27.5503 109.285 27.5503L113.491 11.5167V11.5449ZM90.1181 59.561L100.619 59.8433L107.027 36.2728H96.6106L90.1181 59.561Z" fill="black"/>
<path d="M156.906 32.6597C156.906 37.2326 153.857 44.3179 152.7 48.778L148.692 51.3467H130.654L128.367 60.1257H137.541L144.514 68.8199H123.512C120.181 68.8199 116.737 67.6626 116.737 63.6542C116.737 59.6458 123.032 37.9666 124.387 33.5065C125.432 29.1029 129.158 27.5786 133.251 27.5786H149.764C153.095 27.5786 156.934 28.8207 156.934 32.6315L156.906 32.6597ZM143.074 42.85L144.881 36.16H134.775L133.053 42.85H143.074Z" fill="black"/>
<path d="M174.774 36.2728L168.48 60.0409H175.057L188.719 68.8198H163.229C159.898 68.8198 156.37 67.6625 156.37 63.6541C156.37 59.6457 162.185 41.0433 163.229 36.2728H149.567L160.83 27.5785H165.798L169.411 13.6338L178.19 23.7395L177.146 27.5503H194.224L182.565 36.2445H174.746L174.774 36.2728Z" fill="black"/>
<path d="M230.609 32.6598C230.609 35.906 221.266 71.0218 219.742 76.6675L211.047 67.8885C206.559 68.3684 201.704 68.9329 196.933 68.9329C192.163 68.9329 189.961 67.8885 189.961 64.0777C189.961 60.2669 192.36 53.5768 193.687 48.8063C195.127 43.2736 199.615 42.8784 204.47 42.8784L197.893 34.5793C199.897 29.724 201.337 27.6069 207.237 27.6069H223.552C226.883 27.6069 230.609 28.849 230.609 32.6598ZM204.16 51.1774L201.76 59.8717H212.543L214.83 51.1774H204.131H204.16ZM208.733 36.1883L206.926 42.8784H217.032L218.754 36.1883H208.733Z" fill="black"/>
<path d="M237.864 27.5786H249.127L237.864 69.3845H226.799L237.864 27.5786Z" fill="black"/>
<path d="M263.157 68.82H243.397L260.39 5.16553H271.851L256.862 61.0855L263.157 68.82Z" fill="black"/>
<path d="M276.424 27.5786H287.687L276.424 69.3845H265.358L276.424 27.5786Z" fill="black"/>
<path d="M327.574 32.4619C327.574 35.9057 319.359 63.6822 318.117 68.8197H306.656L315.351 36.4703H304.765L296.268 68.8197H285.485L294.067 34.1838L288.732 27.6067H307.165V28.2841C311.568 28.0018 316.141 27.522 320.714 27.522C325.287 27.522 327.574 28.4817 327.574 32.4901V32.4619Z" fill="black"/>
<path d="M355.829 27.5784H367.092L353.91 76.9212C353.063 80.6473 348.264 82.6515 344.849 82.6515H320.798L329.775 73.9572H343.324L344.651 68.7915C338.554 68.7915 325.569 70.1182 325.569 60.5771C325.569 51.036 329.775 42.8216 331.497 36.6114C333.219 30.6835 339.514 27.4373 345.244 27.4373C350.974 27.4373 352.216 27.9171 355.66 28.1994L355.858 27.5219L355.829 27.5784ZM353.43 36.4703C351.341 36.2727 348.942 36.188 346.853 36.188C344.764 36.188 342.76 36.6679 342.167 38.8697C340.36 45.5597 338.723 52.6168 336.719 59.4762C337.001 60.0408 338.723 60.0408 339.203 60.0408H347.022L353.43 36.4703Z" fill="black"/>
<path d="M252.543 13.3235H252.938L250.087 24.1913H238.429C240.123 17.7835 245.909 13.3235 252.543 13.3235Z" fill="black"/>
<path d="M291.103 13.3235H291.498L288.647 24.1913H277.017C278.711 17.7835 284.497 13.3235 291.131 13.3235H291.103Z" fill="black"/>
<path d="M191.711 101H156.934L158.261 96.0318H188.07L191.711 101ZM194.365 91.0636H159.588L160.914 86.0955H190.723L194.365 91.0636ZM197.018 81.1273H162.241L163.568 76.1592H193.377L197.018 81.1273Z" fill="black"/>
<path d="M213.673 88.5796L203.313 76.1592H210.765L218.302 85.1922L230.638 76.1592H238.09L221.125 88.5796L231.456 101H224.004L216.467 91.9669L204.131 101H196.679L213.673 88.5796Z" fill="black"/>
<path d="M241.731 81.1273L243.058 76.1592H272.867C276.17 76.1592 277.383 77.8246 276.508 81.1273L275.182 86.0955C274.307 89.3982 272.218 91.0636 268.887 91.0636H244.046L241.364 101H236.396L240.405 86.0955H270.214L271.54 81.1273H241.731Z" fill="black"/>
<path d="M287.772 76.1592H312.612C315.915 76.1592 317.129 77.8246 316.254 81.1273L312.245 96.0318C311.37 99.3345 309.281 101 305.95 101H281.11C277.807 101 276.593 99.3345 277.468 96.0318L281.477 81.1273C282.352 77.8246 284.441 76.1592 287.772 76.1592ZM286.445 81.1273L282.436 96.0318H307.277L311.286 81.1273H286.445Z" fill="black"/>
<path d="M24.149 0.536133L1.96167 35.3697L24.1772 35.2285H41.1423C53.9861 35.2285 65.1927 42.2009 71.2053 52.5888C74.1693 47.4795 75.8629 41.5516 75.8629 35.2285C75.8629 25.631 71.9675 16.9649 65.7008 10.6983C59.4342 4.43162 50.7399 0.536133 41.1706 0.536133H24.1772H24.149Z" fill="black"/>
<path d="M69.7654 56.117C63.781 66.4767 52.5462 73.4773 39.7024 73.4773H0.521729L22.7373 38.7849H39.7024C52.5462 38.7849 63.7528 45.7573 69.7654 56.1452" fill="black"/>
</svg>
