<svg width="174" height="54" viewBox="0 0 174 54" fill="none" xmlns="http://www.w3.org/2000/svg">
<g clip-path="url(#clip0_74_865)">
<path d="M7.85556 8.8808H2.99235V6.81261H7.14017V5.20506H2.99235V3.26477H7.69023V1.60522H0.937683V10.5393H7.85556V8.8808Z" fill="black"/>
<path d="M10.6765 1.0686H8.6853V10.5382H10.6765V1.0686Z" fill="black"/>
<path d="M16.2728 8.88064C15.9963 8.99086 15.6749 9.04701 15.31 9.04701C14.9013 9.04701 14.5468 8.97318 14.2452 8.82345C13.9426 8.67372 13.7087 8.45848 13.5423 8.17149C13.4529 8.0176 13.3894 7.84707 13.3478 7.66718H18.5386C18.5469 7.58191 18.5552 7.49145 18.5646 7.39267C18.5729 7.29389 18.5771 7.20862 18.5771 7.13063C18.5771 6.39029 18.419 5.75392 18.105 5.22258C17.7899 4.69123 17.3626 4.28258 16.8219 3.99768C16.2822 3.71277 15.6749 3.57031 15.0032 3.57031C14.3315 3.57031 13.6806 3.72213 13.1274 4.02263C12.5742 4.32522 12.1375 4.74218 11.8193 5.27353C11.5001 5.80487 11.34 6.41524 11.34 7.10464C11.34 7.79404 11.5011 8.39193 11.8256 8.92327C12.1479 9.45462 12.6054 9.8747 13.1981 10.1804C13.7898 10.4872 14.4771 10.64 15.259 10.64C15.8798 10.64 16.4288 10.5443 16.905 10.352C17.3823 10.1607 17.7775 9.88614 18.0915 9.52948L17.0319 8.38049C16.8021 8.60093 16.5494 8.7673 16.2728 8.87752V8.8796V8.88064ZM14.1163 5.30056C14.3762 5.15083 14.6757 5.077 15.0167 5.077C15.3578 5.077 15.6552 5.15083 15.911 5.30056C16.1657 5.4503 16.3664 5.65618 16.5099 5.91925C16.6045 6.0929 16.6565 6.29254 16.6898 6.50675H13.3333C13.3676 6.29566 13.4186 6.09706 13.5121 5.92549C13.6567 5.65722 13.8594 5.44822 14.1183 5.30056H14.1173H14.1163Z" fill="black"/>
<path d="M22.022 5.43366C22.2934 5.28081 22.6012 5.20386 22.9401 5.20386C23.2552 5.20386 23.5464 5.28081 23.8146 5.43366C24.0829 5.58651 24.3065 5.82567 24.4843 6.14801L26.0284 5.31824C25.7726 4.75674 25.3764 4.32418 24.842 4.02263C24.3054 3.72005 23.6763 3.57031 22.9526 3.57031C22.2289 3.57031 21.553 3.72213 20.9739 4.02263C20.3947 4.32522 19.9424 4.74218 19.6148 5.27353C19.2873 5.80487 19.123 6.41524 19.123 7.10464C19.123 7.79404 19.2873 8.39401 19.6148 8.92951C19.9424 9.46606 20.3947 9.88406 20.9739 10.1866C21.5541 10.4892 22.2123 10.639 22.9526 10.639C23.693 10.639 24.3044 10.4882 24.842 10.1866C25.3775 9.88406 25.7736 9.45774 26.0284 8.90456L24.4843 8.06231C24.3054 8.39401 24.0829 8.63525 23.8146 8.7829C23.5464 8.93263 23.2552 9.00646 22.9401 9.00646C22.6001 9.00646 22.2934 8.92951 22.022 8.77666C21.7506 8.62381 21.5354 8.40649 21.3773 8.1247C21.2193 7.84395 21.1402 7.50393 21.1402 7.1036C21.1402 6.70327 21.2193 6.36325 21.3773 6.08354C21.5354 5.80175 21.7496 5.58651 22.022 5.43158V5.43366Z" fill="black"/>
<path d="M30.9675 8.80384C30.7471 8.97333 30.4788 9.0586 30.1627 9.0586C29.8986 9.0586 29.6906 8.97957 29.5367 8.8236C29.3839 8.66555 29.3069 8.44303 29.3069 8.15396V5.35894H31.0174V3.82625H29.3069V2.15527H27.3157V3.82729H26.2561V5.35998H27.3157V8.18099C27.3157 8.99725 27.5403 9.61282 27.9926 10.0246C28.4428 10.4374 29.074 10.6433 29.8819 10.6433C30.1887 10.6433 30.484 10.6069 30.7689 10.5351C31.0538 10.4634 31.2992 10.3542 31.503 10.2097L30.9665 8.80592L30.9675 8.80384Z" fill="black"/>
<path d="M34.4145 7.29701C34.4145 6.64192 34.5819 6.15945 34.9178 5.84854C35.2536 5.53764 35.6945 5.38271 36.2394 5.38271C36.3163 5.38271 36.3891 5.38479 36.4567 5.38895C36.5243 5.39415 36.6012 5.40038 36.6865 5.4087V3.57031C36.0397 3.57031 35.4917 3.69613 35.0405 3.94672C34.7493 4.10894 34.5143 4.32522 34.3261 4.58621V3.67221H32.4243V10.5391H34.4155V7.29805H34.4166L34.4145 7.29701Z" fill="black"/>
<path d="M39.1872 3.67212H37.196V10.539H39.1872V3.67212Z" fill="black"/>
<path d="M38.1921 0.571533C37.877 0.571533 37.6192 0.673435 37.4195 0.878278C37.2188 1.08208 37.1201 1.33788 37.1201 1.64358C37.1201 1.94929 37.2209 2.21756 37.4195 2.4224C37.6202 2.6262 37.877 2.72811 38.1921 2.72811C38.5072 2.72811 38.7536 2.6262 38.9574 2.4224C39.1612 2.2186 39.2631 1.95864 39.2631 1.64358C39.2631 1.32852 39.1612 1.08208 38.9574 0.878278C38.7536 0.674475 38.4978 0.571533 38.1921 0.571533Z" fill="black"/>
<path d="M45.5696 10.1878C46.1061 9.88516 46.5012 9.45884 46.757 8.90566L45.2129 8.06341C45.0341 8.39511 44.8115 8.63635 44.5433 8.784C44.275 8.93373 43.9838 9.00756 43.6688 9.00756C43.3288 9.00756 43.022 8.93061 42.7506 8.77776C42.4772 8.62491 42.263 8.40759 42.1049 8.1258C41.9468 7.84505 41.8699 7.50503 41.8699 7.1047C41.8699 6.70437 41.9479 6.36436 42.1049 6.08465C42.263 5.80286 42.4772 5.58761 42.7506 5.43268C43.022 5.27983 43.3298 5.20288 43.6688 5.20288C43.9838 5.20288 44.275 5.27983 44.5433 5.43268C44.8115 5.58553 45.0351 5.82469 45.2129 6.14703L46.757 5.31726C46.5012 4.75576 46.1051 4.3232 45.5696 4.02165C45.033 3.71907 44.4039 3.56934 43.6802 3.56934C42.9565 3.56934 42.2806 3.72115 41.7015 4.02165C41.1223 4.32424 40.67 4.74121 40.3424 5.27255C40.0149 5.8039 39.8506 6.41427 39.8506 7.10366C39.8506 7.79306 40.0149 8.39303 40.3424 8.92854C40.67 9.46508 41.1223 9.88308 41.7015 10.1857C42.2806 10.4883 42.9399 10.638 43.6802 10.638C44.4206 10.638 45.033 10.4872 45.5696 10.1857V10.1878Z" fill="black"/>
<path d="M54.6222 7.73685L53.5336 7.39683C53.467 7.75557 53.3537 8.06024 53.2185 8.33683L52.1132 7.31261C52.2639 7.23046 52.4012 7.14728 52.5187 7.06617C52.788 6.88005 52.9866 6.68144 53.1155 6.46932C53.2434 6.25824 53.3069 6.02428 53.3069 5.76953C53.3069 5.47942 53.233 5.22986 53.0844 5.02086C52.9367 4.81186 52.7339 4.65069 52.475 4.53839C52.2161 4.42505 51.9094 4.3689 51.5569 4.3689C51.1732 4.3689 50.8394 4.43129 50.5555 4.55606C50.2717 4.68084 50.0512 4.85553 49.8942 5.08221C49.7372 5.30785 49.6592 5.56988 49.6592 5.86623C49.6592 6.03468 49.6873 6.19793 49.7434 6.3539C49.7985 6.51091 49.8869 6.67104 50.0096 6.83326C50.0876 6.9362 50.1864 7.04538 50.2956 7.15768C50.1042 7.26478 49.9327 7.37292 49.7819 7.4821C49.4918 7.69422 49.2797 7.91986 49.1466 8.1611C49.0135 8.40129 48.9459 8.67269 48.9459 8.97527C48.9459 9.30073 49.0478 9.58772 49.2506 9.83624C49.4533 10.0858 49.7299 10.2844 50.0772 10.4279C50.4255 10.5735 50.8238 10.6452 51.2699 10.6452C51.8387 10.6452 52.3523 10.5267 52.8109 10.2886C52.9877 10.196 53.1509 10.0858 53.3058 9.96413L54.0389 10.6452L54.7792 9.78425L54.068 9.125C54.3269 8.72364 54.5141 8.26404 54.6222 7.73789V7.73685ZM51.0702 5.44718C51.1867 5.3432 51.3489 5.29017 51.5579 5.29017C51.7555 5.29017 51.9052 5.33592 52.0061 5.42951C52.108 5.52309 52.1589 5.64475 52.1589 5.79448C52.1589 5.9047 52.1215 6.01388 52.0456 6.12098C51.9697 6.22808 51.8397 6.33934 51.6536 6.4558C51.5745 6.50571 51.4747 6.55978 51.3707 6.61593C51.2844 6.53067 51.2064 6.45372 51.1482 6.39029C51.0494 6.28215 50.9829 6.18753 50.9475 6.10227C50.9132 6.01804 50.8955 5.93278 50.8955 5.84543C50.8955 5.68322 50.9538 5.54908 51.0692 5.4451L51.0702 5.44718ZM52.3409 9.33401C52.0445 9.49934 51.7201 9.58252 51.3655 9.58252C51.1451 9.58252 50.9527 9.55133 50.7905 9.48686C50.6283 9.42239 50.5015 9.33297 50.412 9.21651C50.3205 9.10005 50.2769 8.97007 50.2769 8.8245C50.2769 8.66749 50.3143 8.52607 50.3902 8.39714C50.4661 8.2682 50.5888 8.14342 50.7604 8.01864C50.8373 7.96249 50.9288 7.90738 51.0297 7.85019L52.5083 9.22379C52.4532 9.26226 52.3981 9.30177 52.3398 9.33401H52.3409Z" fill="black"/>
<path d="M63.6093 5.12811H59.5509V1.60522H57.4827V10.5393H59.5509V6.87604H63.6093V10.5393H65.6765V1.60522H63.6093V5.12811Z" fill="black"/>
<path d="M69.8118 8.33568L67.884 3.67212H65.8293L68.8011 10.5952L68.7772 10.6534C68.641 10.9591 68.4892 11.1785 68.3249 11.3106C68.1585 11.4426 67.9349 11.5082 67.6552 11.5082C67.4597 11.5082 67.2622 11.4697 67.0615 11.3927C66.8608 11.3158 66.6851 11.2097 66.5312 11.0735L65.8033 12.4908C66.0238 12.6863 66.3097 12.8391 66.6591 12.9504C67.0085 13.0606 67.3599 13.1167 67.7186 13.1167C68.1346 13.1167 68.5162 13.0523 68.8604 12.9254C69.2045 12.7975 69.5196 12.576 69.8045 12.262C70.0894 11.947 70.3421 11.5134 70.5636 10.9602L73.6643 3.67316H71.75L69.8097 8.33672H69.8118V8.33568Z" fill="black"/>
<path d="M79.6079 4.00504C79.0921 3.71597 78.5119 3.5704 77.8662 3.5704C77.287 3.5704 76.7817 3.69829 76.347 3.95305C76.1422 4.07367 75.9602 4.22652 75.799 4.40537V1.0686H73.8078V10.5382H75.7096V9.73857C75.8822 9.94861 76.0808 10.1223 76.3086 10.2564C76.7432 10.5112 77.2621 10.639 77.8662 10.639C78.513 10.639 79.0942 10.4924 79.6079 10.1982C80.1226 9.90494 80.5312 9.49421 80.8328 8.96703C81.1354 8.4388 81.2851 7.81803 81.2851 7.10368C81.2851 6.38933 81.1333 5.75608 80.8328 5.22786C80.5302 4.69963 80.1216 4.29099 79.6079 4.00296H79.6068L79.6079 4.00504ZM79.0329 8.12062C78.8748 8.40553 78.6669 8.62493 78.4069 8.77778C78.1469 8.93064 77.8527 9.00758 77.5199 9.00758C77.1872 9.00758 76.8898 8.93064 76.6267 8.77778C76.3626 8.62493 76.1547 8.40553 76.0008 8.12062C75.8479 7.83571 75.771 7.49673 75.771 7.1068C75.771 6.71687 75.8479 6.36645 76.0008 6.08674C76.1536 5.80496 76.3626 5.58971 76.6267 5.43478C76.8898 5.28193 77.1882 5.20498 77.5199 5.20498C77.8516 5.20498 78.1469 5.28193 78.4069 5.43478C78.6669 5.58763 78.8748 5.80496 79.0329 6.08674C79.1909 6.36749 79.2699 6.70751 79.2699 7.1068C79.2699 7.50609 79.1909 7.83675 79.0329 8.12062Z" fill="black"/>
<path d="M83.8389 4.58639V3.6724H81.9371V10.5393H83.9283V7.29823C83.9283 6.64314 84.0957 6.16067 84.4316 5.84977C84.7674 5.53886 85.2083 5.38393 85.7532 5.38393C85.8301 5.38393 85.9029 5.38601 85.9705 5.39017C86.0381 5.39537 86.115 5.40161 86.2003 5.40992V3.57153C85.5535 3.57153 85.0056 3.69735 84.5543 3.94795C84.2631 4.11016 84.0281 4.32644 83.8399 4.58743H83.841L83.8389 4.58639Z" fill="black"/>
<path d="M88.7011 3.67212H86.7098V10.539H88.7011V3.67212Z" fill="black"/>
<path d="M87.7049 0.571533C87.3899 0.571533 87.132 0.673435 86.9323 0.878278C86.7317 1.08208 86.6329 1.33788 86.6329 1.64358C86.6329 1.94929 86.7337 2.21756 86.9323 2.4224C87.133 2.6262 87.3899 2.72811 87.7049 2.72811C88.02 2.72811 88.2664 2.6262 88.4702 2.4224C88.674 2.2186 88.7759 1.95864 88.7759 1.64358C88.7759 1.32852 88.674 1.08208 88.4702 0.878278C88.2664 0.674475 88.0106 0.571533 87.7049 0.571533Z" fill="black"/>
<path d="M94.8786 1.0686V4.39393C94.7195 4.22028 94.5427 4.07159 94.3421 3.95201C93.9074 3.69725 93.4021 3.56936 92.8229 3.56936C92.1761 3.56936 91.5928 3.71389 91.075 4.004C90.5561 4.29307 90.1454 4.70171 89.8438 5.2289C89.5412 5.75712 89.3915 6.38101 89.3915 7.10472C89.3915 7.82843 89.5433 8.44088 89.8438 8.96807C90.1464 9.49629 90.5561 9.90598 91.075 10.1992C91.5938 10.4924 92.1761 10.6401 92.8229 10.6401C93.427 10.6401 93.9438 10.5122 94.3733 10.2574C94.5989 10.1223 94.7954 9.94965 94.967 9.74065V10.5382H96.8688V1.0686H94.8776H94.8786ZM94.68 8.12062C94.5219 8.40553 94.3119 8.62493 94.0478 8.77778C93.7837 8.93063 93.4905 9.00758 93.1671 9.00758C92.8437 9.00758 92.5369 8.93063 92.2739 8.77778C92.0098 8.62493 91.7997 8.40553 91.6417 8.12062C91.4836 7.83571 91.4046 7.49673 91.4046 7.1068C91.4046 6.71687 91.4836 6.36645 91.6417 6.08674C91.7997 5.80496 92.0098 5.58971 92.2739 5.43478C92.5369 5.28193 92.8354 5.20498 93.1671 5.20498C93.4988 5.20498 93.7837 5.28193 94.0478 5.43478C94.3119 5.58763 94.5219 5.80496 94.68 6.08674C94.8381 6.36749 94.9171 6.70751 94.9171 7.1068C94.9171 7.50609 94.8381 7.83675 94.68 8.12062Z" fill="black"/>
<path d="M8.52415 12.2881L5.76656 18.6694L3.04953 12.2881H0.81601L4.6706 21.2222H6.71279L10.5799 12.2881H8.52415Z" fill="black"/>
<path d="M15.9588 14.6818C15.4191 14.3968 14.8119 14.2544 14.1402 14.2544C13.4684 14.2544 12.8175 14.4062 12.2643 14.7067C11.7112 15.0093 11.2744 15.4263 10.9563 15.9576C10.637 16.489 10.4769 17.0993 10.4769 17.7887C10.4769 18.4781 10.6381 19.076 10.9625 19.6074C11.2848 20.1387 11.7424 20.5588 12.335 20.8645C12.9267 21.1712 13.614 21.3241 14.396 21.3241C15.0167 21.3241 15.5657 21.2284 16.042 21.0361C16.5193 20.8447 16.9144 20.5702 17.2284 20.2136L16.1688 19.0646C15.939 19.285 15.6864 19.4514 15.4098 19.5616C15.1332 19.6718 14.8119 19.728 14.4469 19.728C14.0383 19.728 13.6837 19.6541 13.3821 19.5044C13.0806 19.3547 12.8456 19.1394 12.6792 18.8525C12.5898 18.6986 12.5264 18.528 12.4848 18.3481H17.6755C17.6838 18.2629 17.6922 18.1724 17.7015 18.0736C17.7109 17.9748 17.714 17.8896 17.714 17.8116C17.714 17.0713 17.5559 16.4349 17.2419 15.9035C16.9269 15.3722 16.4995 14.9635 15.9588 14.6786V14.6807V14.6818ZM13.2532 15.9836C13.5132 15.8339 13.8126 15.76 14.1537 15.76C14.4947 15.76 14.7921 15.8339 15.0479 15.9836C15.3027 16.1333 15.5034 16.3392 15.6469 16.6023C15.7415 16.7759 15.7935 16.9756 15.8267 17.1898H12.4702C12.5045 16.9787 12.5555 16.7801 12.6491 16.6085C12.7936 16.3403 12.9964 16.1313 13.2553 15.9836H13.2542H13.2532Z" fill="black"/>
<path d="M24.9938 14.579C24.5643 14.3616 24.0766 14.2535 23.5328 14.2535C22.9453 14.2535 22.4213 14.3772 21.9627 14.6237C21.7308 14.7474 21.527 14.8992 21.3503 15.077V11.7517H19.359V21.2213H21.3503V17.8273C21.3503 17.401 21.421 17.0537 21.5603 16.7802C21.7007 16.5089 21.8962 16.3061 22.1478 16.174C22.3994 16.042 22.6812 15.9765 22.9963 15.9765C23.4392 15.9765 23.7813 16.1085 24.0236 16.3716C24.2659 16.6347 24.3875 17.0433 24.3875 17.5965V21.2213H26.3788V17.2908C26.3788 16.5931 26.2551 16.0201 26.0086 15.5741C25.7611 15.128 25.4242 14.7952 24.9948 14.5779L24.9938 14.579Z" fill="black"/>
<path d="M29.4941 11.2546C29.179 11.2546 28.9211 11.3565 28.7215 11.5614C28.5208 11.7652 28.422 12.021 28.422 12.3267C28.422 12.6324 28.5229 12.9007 28.7215 13.1055C28.9222 13.3093 29.179 13.4112 29.4941 13.4112C29.8091 13.4112 30.0556 13.3093 30.2594 13.1055C30.4632 12.9017 30.5651 12.6418 30.5651 12.3267C30.5651 12.0116 30.4632 11.7652 30.2594 11.5614C30.0556 11.3576 29.7998 11.2546 29.4941 11.2546Z" fill="black"/>
<path d="M30.4892 14.3552H28.498V21.2222H30.4892V14.3552Z" fill="black"/>
<path d="M35.0456 16.1168C35.317 15.9639 35.6248 15.887 35.9638 15.887C36.2789 15.887 36.57 15.9639 36.8383 16.1168C37.1066 16.2696 37.3301 16.5088 37.5079 16.8311L39.052 16.0013C38.7962 15.4398 38.4001 15.0073 37.8646 14.7057C37.328 14.4032 36.6989 14.2534 35.9752 14.2534C35.2515 14.2534 34.5756 14.4052 33.9965 14.7057C33.4173 15.0083 32.965 15.4253 32.6374 15.9566C32.3099 16.488 32.1456 17.0983 32.1456 17.7877C32.1456 18.4771 32.3099 19.0771 32.6374 19.6126C32.965 20.1492 33.4173 20.5672 33.9965 20.8698C34.5756 21.1723 35.2349 21.3221 35.9752 21.3221C36.7156 21.3221 37.328 21.1713 37.8646 20.8698C38.4011 20.5672 38.7962 20.1408 39.052 19.5877L37.5079 18.7454C37.3291 19.0771 37.1066 19.3184 36.8383 19.466C36.57 19.6157 36.2789 19.6896 35.9638 19.6896C35.6238 19.6896 35.317 19.6126 35.0456 19.4598C34.7722 19.3069 34.558 19.0896 34.3999 18.8078C34.2419 18.5271 34.1649 18.187 34.1649 17.7867C34.1649 17.3864 34.2429 17.0464 34.3999 16.7666C34.558 16.4849 34.7722 16.2696 35.0456 16.1147V16.1168Z" fill="black"/>
<path d="M42.4616 11.7517H40.4703V21.2213H42.4616V11.7517Z" fill="black"/>
<path d="M49.602 14.6818C49.0623 14.3968 48.4551 14.2544 47.7834 14.2544C47.1116 14.2544 46.4607 14.4062 45.9075 14.7067C45.3543 15.0093 44.9187 15.4263 44.5994 15.9576C44.2802 16.489 44.1201 17.0993 44.1201 17.7887C44.1201 18.4781 44.2813 19.076 44.6057 19.6074C44.928 20.1387 45.3855 20.5588 45.9782 20.8645C46.5699 21.1712 47.2572 21.3241 48.0391 21.3241C48.6599 21.3241 49.2089 21.2284 49.6852 21.0361C50.1624 20.8447 50.5576 20.5702 50.8726 20.2136L49.8131 19.0646C49.5833 19.285 49.3306 19.4514 49.054 19.5616C48.7774 19.6718 48.4561 19.728 48.0911 19.728C47.6825 19.728 47.3269 19.6541 47.0243 19.5044C46.7217 19.3547 46.4877 19.1394 46.3214 18.8525C46.2319 18.6986 46.1685 18.528 46.1269 18.3481H51.3177C51.326 18.2629 51.3343 18.1724 51.3426 18.0736C51.351 17.9748 51.3551 17.8896 51.3551 17.8116C51.3551 17.0713 51.1971 16.4349 50.883 15.9035C50.568 15.3722 50.1406 14.9635 49.6009 14.6786V14.6807L49.602 14.6818ZM46.8953 15.9836C47.1553 15.8339 47.4548 15.76 47.7958 15.76C48.1369 15.76 48.4343 15.8339 48.689 15.9836C48.9438 16.1333 49.1445 16.3392 49.288 16.6023C49.3826 16.7759 49.4346 16.9756 49.4679 17.1898H46.1113C46.1456 16.9787 46.1976 16.7801 46.2902 16.6085C46.4347 16.3403 46.6375 16.1313 46.8964 15.9836H46.8953Z" fill="black"/>
<path d="M58.7222 17.4955H62.87V15.8879H58.7222V13.9476H63.419V12.2881H56.6675V21.2222H63.5844V19.5637H58.7222V17.4955Z" fill="black"/>
<path d="M71.8426 14.3552H69.7235L68.2324 16.361L66.7756 14.3552H64.5421L67.0948 17.7585L64.4527 21.2222H66.6228L68.1814 19.1197L69.6861 21.2222H71.9445L69.2878 17.7138L71.8426 14.3552Z" fill="black"/>
<path d="M79.034 14.6943C78.5182 14.4011 77.938 14.2534 77.2923 14.2534C76.6881 14.2534 76.1693 14.3813 75.7346 14.6361C75.5048 14.7712 75.3062 14.9439 75.1357 15.1529V14.3553H73.2339V23.698H75.2251V20.4881C75.3873 20.668 75.5683 20.8219 75.7731 20.9415C76.2078 21.1963 76.7131 21.3242 77.2923 21.3242C77.939 21.3242 78.5203 21.1796 79.034 20.8895C79.5487 20.6004 79.9573 20.1918 80.2589 19.6646C80.5604 19.1374 80.7112 18.5125 80.7112 17.7877C80.7112 17.063 80.5594 16.4516 80.2589 15.9244C79.9563 15.3962 79.5476 14.9865 79.034 14.6933H79.035L79.034 14.6943ZM78.459 18.8036C78.3009 19.0886 78.0929 19.308 77.833 19.4608C77.573 19.6137 77.2788 19.6906 76.946 19.6906C76.6133 19.6906 76.3159 19.6137 76.0528 19.4608C75.7887 19.308 75.5807 19.0886 75.4269 18.8036C75.274 18.5187 75.1971 18.1798 75.1971 17.7898C75.1971 17.3999 75.274 17.0495 75.4269 16.7698C75.5797 16.488 75.7887 16.2727 76.0528 16.1178C76.3159 15.965 76.6143 15.888 76.946 15.888C77.2777 15.888 77.573 15.965 77.833 16.1178C78.0929 16.2707 78.3009 16.488 78.459 16.7698C78.617 17.0505 78.696 17.3905 78.696 17.7898C78.696 18.1891 78.617 18.5198 78.459 18.8036Z" fill="black"/>
<path d="M88.9059 15.9504C88.5815 15.4222 88.1354 15.0073 87.5656 14.7057C86.9958 14.4032 86.349 14.2534 85.6253 14.2534C84.9016 14.2534 84.2445 14.4052 83.6798 14.7057C83.1131 15.0083 82.6671 15.4253 82.3395 15.9566C82.012 16.488 81.8477 17.0983 81.8477 17.7877C81.8477 18.4771 82.012 19.075 82.3395 19.6064C82.6671 20.1377 83.1131 20.5578 83.6798 20.8635C84.2455 21.1703 84.8943 21.3231 85.6253 21.3231C86.3563 21.3231 86.9948 21.1703 87.5656 20.8635C88.1354 20.5578 88.5826 20.1377 88.9059 19.6064C89.2283 19.075 89.3915 18.4688 89.3915 17.7877C89.3915 17.1067 89.2304 16.4776 88.9059 15.9494V15.9504ZM87.1445 18.8026C86.9916 19.0875 86.7826 19.3069 86.5185 19.4598C86.2544 19.6126 85.957 19.6896 85.6253 19.6896C85.2936 19.6896 84.9952 19.6126 84.7311 19.4598C84.468 19.3069 84.2569 19.0875 84.0989 18.8026C83.9408 18.5177 83.8639 18.1787 83.8639 17.7888C83.8639 17.3989 83.9419 17.0484 84.0989 16.7687C84.2569 16.4869 84.468 16.2717 84.7311 16.1168C84.9952 15.9639 85.2926 15.887 85.6253 15.887C85.9581 15.887 86.2555 15.9639 86.5185 16.1168C86.7816 16.2696 86.9906 16.4869 87.1445 16.7687C87.2974 17.0495 87.3743 17.3895 87.3743 17.7888C87.3743 18.1881 87.2974 18.5187 87.1445 18.8026Z" fill="black"/>
<path d="M96.7689 48.4583C95.3142 42.4045 90.9345 37.6432 85.4558 35.4887C84.6707 35.1809 83.8617 34.9355 83.0257 34.8471C81.9214 34.7307 81.2071 34.4738 80.37 33.7117C77.7071 31.2889 74.5252 29.3101 71.3455 27.7618C67.4441 25.8621 63.2609 24.5738 58.9509 24.422C54.9216 24.2795 50.9246 25.3651 47.2187 26.9747C44.4881 28.1611 41.873 29.6065 39.3691 31.2587C38.6226 31.7516 38.2929 31.9367 37.3769 32.0854C36.0989 32.2934 34.8085 32.3807 33.5431 32.6739C31.9979 33.0316 30.4881 33.6836 29.3089 34.8263C27.927 36.1656 27.2356 38.1787 26.8082 40.0639C26.1697 42.8849 25.9992 45.9451 26.2581 48.8357C26.3226 49.5553 26.7832 50.1729 27.5194 50.1729H34.3988C36.0022 52.8172 39.1664 54.1232 42.0446 53.0574C44.9987 51.9645 46.836 48.7692 46.39 45.4886C45.947 42.234 43.3267 39.7499 40.2384 39.571C37.0597 39.387 34.2553 41.7775 33.5379 45.0134C33.1667 46.6875 35.5988 47.4018 35.97 45.7246C36.4234 43.6783 38.0392 42.156 40.0825 42.2412C41.9957 42.3213 43.6293 43.8696 43.9121 45.8816C44.1866 47.825 43.0948 49.7747 41.3729 50.4797C39.2922 51.3313 37.1679 50.1885 36.2164 48.1609C36.022 47.7471 35.5478 47.4985 35.1267 47.4985H28.6996C28.6268 45.7475 28.7079 43.9663 28.9637 42.2537C29.2039 40.6472 29.5658 38.8473 30.4486 37.4851C31.1858 36.3476 32.3847 35.7539 33.6075 35.4055C35.631 34.8295 38.0559 35.1341 39.9182 34.0465C41.898 32.8902 43.7665 31.578 45.8139 30.5381C49.1018 28.8661 52.686 27.5133 56.341 27.1702C60.3661 26.7917 64.3964 27.6849 68.145 29.2093C71.5389 30.5912 74.7405 32.5595 77.6613 34.8482C78.4838 35.4929 79.2096 36.3195 80.1267 36.8155C80.8234 37.193 81.5648 37.4144 82.3446 37.4799C82.5401 37.4955 82.7367 37.4893 82.9311 37.508C82.9602 37.5101 82.9696 37.5101 82.9727 37.5091C82.9945 37.5153 83.032 37.5247 83.1058 37.5413C87.9503 38.657 92.0503 42.6187 93.8148 47.4778C92.0097 47.484 90.2046 47.4902 88.3995 47.4944C87.9784 47.4954 87.5042 47.7419 87.3098 48.1567C85.8207 51.3292 81.4358 51.7098 79.9448 48.2794C79.9032 48.1848 79.8668 48.0881 79.8345 47.9904C80.9814 48.0174 82.1252 47.9831 83.2482 47.8552C84.8319 47.6753 86.6692 47.3447 87.8349 46.075C90.6309 43.0305 86.0713 39.4244 83.2888 39.5668C80.1766 39.7259 77.81 42.1945 77.2215 45.1434C76.2513 45.0612 75.2843 44.9406 74.3266 44.7524C72.587 44.4103 70.9649 43.8457 69.3979 43.0783C69.6964 42.2444 69.8201 41.1994 69.5945 39.8913C69.5737 38.238 64.8685 30.3052 64.358 29.9267C63.8432 29.5462 63.1694 29.6865 62.792 30.2626C62.3574 30.9229 61.9289 31.5842 61.4985 32.2445L61.3508 32.4701L61.0981 32.2861C60.1217 31.5707 60.4701 31.8202 59.4895 31.109C58.7991 30.6089 57.9465 30.901 57.7239 31.7027C57.5846 32.2102 57.7697 32.7166 58.2251 33.0514C59.2067 33.773 58.8677 33.5234 59.8504 34.244L60.0698 34.4052L56.9243 39.231L56.6904 39.0594C55.7077 38.3388 56.0498 38.5842 55.062 37.8688C54.3778 37.3739 53.5179 37.6796 53.3058 38.4854C53.1706 38.9939 53.3588 39.4889 53.8226 39.8299C54.7979 40.5474 54.4537 40.2937 55.4291 41.008L55.6682 41.1827L55.5112 41.4219C55.0755 42.0894 54.6378 42.7549 54.2062 43.4256C53.8527 43.9757 53.9785 44.6931 54.4797 45.0612C54.9799 45.4262 64.9018 47.1481 66.5447 46.0002C66.5447 46.0002 67.1571 45.7943 67.8424 45.2442C70.2495 46.4743 72.7596 47.2552 75.4611 47.6244C76.033 47.7024 76.6111 47.7699 77.1924 47.8271C77.2839 48.3377 77.4305 48.8472 77.6416 49.3463C79.7867 54.406 86.4342 54.6285 89.1273 50.1667C91.2662 50.1594 93.4062 50.1532 95.5451 50.1459C96.3759 50.1438 96.9634 49.2943 96.7617 48.4531H96.7648L96.7689 48.4583ZM84.3962 42.4107C84.9993 42.6478 85.6377 43.0825 86.0214 43.6388C86.1951 43.8883 86.1389 43.8415 86.1431 44.0526C86.1431 44.037 86.1264 44.1441 85.9632 44.2928C85.6513 44.5787 85.1542 44.7576 84.7383 44.8824C83.1609 45.3555 81.466 45.3409 79.8314 45.29C80.4252 43.2426 82.2604 41.5716 84.3962 42.4097V42.4107Z" fill="black"/>
<path d="M0.93869 22.3381C0.99484 22.4026 1.05203 22.4639 1.10402 22.5325C1.59065 23.1564 5.97347 29.179 6.5828 29.9682C7.21605 30.7876 7.85657 31.5997 8.48982 32.4191C9.11371 33.226 9.73239 34.036 10.3511 34.8471C10.4093 34.9219 10.4509 35.0113 10.5029 35.0914C10.5913 35.2276 10.7161 35.2359 10.794 35.0945C10.8887 34.923 10.9677 34.7431 11.0405 34.5611C11.2661 33.9954 14.4739 26.2779 14.5551 26.1916C14.6486 26.4849 14.7214 26.7365 14.8098 26.9819C14.8888 27.2013 14.9866 27.4155 15.0739 27.6307C15.1977 27.9364 15.3214 28.2411 15.4431 28.5479C15.5647 28.8546 15.6822 29.1634 15.7987 29.4723C15.9162 29.78 16.0316 30.0899 16.147 30.3987C16.277 30.7481 16.4028 31.0996 16.5317 31.451C16.616 31.6777 16.6939 31.9075 16.7844 32.1321C16.9882 32.6426 17.2035 33.1501 17.4031 33.6617C17.5237 33.9684 17.6204 34.2845 17.7369 34.5923C17.8606 34.9209 18 35.2453 18.1268 35.5728C18.2495 35.8941 18.3618 36.2186 18.4814 36.5409C18.5635 36.7676 18.6436 36.9963 18.7341 37.2189C18.8516 37.5111 18.9867 37.7991 19.099 38.0923C19.2217 38.4126 19.3247 38.7391 19.4411 39.0604C19.5202 39.2798 19.6023 39.4981 19.6886 39.7155C19.804 40.0076 19.9298 40.2978 20.0432 40.591C20.169 40.9196 20.2834 41.2533 20.405 41.583C20.4841 41.7951 20.5662 42.0062 20.6494 42.2173C20.7648 42.5094 20.8844 42.7995 20.9977 43.0928C21.1308 43.4411 21.2598 43.7905 21.3918 44.1399C21.4781 44.3665 21.5634 44.5932 21.6539 44.8189C21.7693 45.1048 21.893 45.3887 22.0032 45.6778C22.1259 45.9991 22.2351 46.3266 22.3568 46.6479C22.4701 46.9505 22.5939 47.2468 22.7082 47.5484C22.8392 47.8894 22.9682 48.2315 23.095 48.5736C23.1793 48.8003 23.2521 49.0322 23.3425 49.2568C23.4829 49.6041 23.7948 50.3413 23.7688 50.3995C23.6919 50.3299 21.7298 47.7803 21.3211 47.2416C20.4508 46.0947 19.5961 44.9395 18.7351 43.7863C18.6862 43.7208 18.6405 43.6543 18.5906 43.5898C17.8492 42.6217 17.0984 41.661 16.3685 40.6856C15.8798 40.0316 15.4202 39.3546 14.9429 38.6912C14.8639 38.581 14.7641 38.4854 14.631 38.3335C14.4864 38.6559 14.3616 38.9221 14.2473 39.1914C14.1027 39.5314 13.9644 39.8735 13.8303 40.2166C13.7128 40.5192 13.6078 40.8281 13.4892 41.1306C13.3645 41.4478 13.2262 41.7587 13.0983 42.0758C12.9745 42.3857 12.8591 42.6987 12.7364 43.0085C12.6137 43.3184 12.4827 43.6262 12.36 43.935C12.2238 44.2782 11.55 45.7973 11.4938 45.8368C11.4647 45.7911 10.7296 44.2085 10.5684 43.8529C10.3896 43.4588 10.2221 43.0595 10.0506 42.6623C10.0194 42.5885 9.98403 42.5157 9.95076 42.4419C9.75631 41.9979 9.56395 41.5538 9.3695 41.1109C9.24784 40.8353 9.13034 40.5587 9.00141 40.2874C8.8288 39.9224 8.63955 39.5647 8.47318 39.1966C8.30057 38.816 8.15084 38.4261 7.98447 38.0424C7.87425 37.7866 7.75467 37.5339 7.63717 37.2813C7.46976 36.9225 7.29715 36.5659 7.1339 36.204C6.95505 35.8099 6.78972 35.4096 6.61295 35.0134C6.49442 34.7451 6.36756 34.48 6.24382 34.2128C6.07641 33.854 5.90276 33.4974 5.74159 33.1355C5.5669 32.7477 5.40469 32.3546 5.23312 31.9636C5.08859 31.634 4.94093 31.3065 4.79432 30.9789C4.58636 30.5183 4.37943 30.0577 4.16835 29.5981C4.0155 29.2643 0.927252 22.3412 0.942849 22.3308V22.3371L0.93869 22.3381Z" fill="black"/>
<path d="M93.5508 17.3634V12.4846H95.567V17.2886C95.567 18.9439 96.2886 19.6281 97.5083 19.6281C98.728 19.6281 99.4496 18.9439 99.4496 17.2886V12.4846H101.441V17.3634C101.441 19.9276 99.9727 21.3459 97.4958 21.3459C95.019 21.3459 93.5497 19.9266 93.5497 17.3634H93.5508Z" fill="black"/>
<path d="M110.23 19.5543V21.1972H102.613V19.8902L107.392 14.1275H102.712V12.4846H110.042V13.7917L105.276 19.5543H110.229H110.23Z" fill="black"/>
<path d="M119.254 18.8202C119.254 20.3259 118.059 21.1972 115.769 21.1972H111.263V12.4846H115.52C117.698 12.4846 118.818 13.3934 118.818 14.7504C118.818 15.6217 118.37 16.2935 117.661 16.6667C118.632 16.9777 119.254 17.7253 119.254 18.8202ZM113.268 14.0027V16.0564H115.271C116.255 16.0564 116.79 15.708 116.79 15.0238C116.79 14.3396 116.254 14.0027 115.271 14.0027H113.268ZM117.225 18.6081C117.225 17.874 116.665 17.5256 115.62 17.5256H113.268V19.6791H115.62C116.665 19.6791 117.225 19.3557 117.225 18.6091V18.6081Z" fill="black"/>
<path d="M127.271 19.5793V21.1972H120.525V12.4846H127.109V14.1026H122.528V15.994H126.573V17.562H122.528V19.5782H127.271V19.5793Z" fill="black"/>
<path d="M131.789 17.7742L130.619 18.9939V21.1972H128.615V12.4846H130.619V16.5545L134.478 12.4846H136.719L133.109 16.3683L136.931 21.1972H134.579L131.791 17.7742H131.789Z" fill="black"/>
<path d="M137.565 12.4846H139.581V21.1972H137.565V12.4846Z" fill="black"/>
<path d="M140.702 20.3383L141.386 18.8202C142.12 19.3557 143.216 19.729 144.261 19.729C145.456 19.729 145.942 19.3308 145.942 18.7953C145.942 17.1648 140.876 18.2847 140.876 15.0488C140.876 13.5681 142.071 12.3359 144.547 12.3359C145.642 12.3359 146.763 12.5969 147.572 13.1075L146.95 14.6381C146.141 14.1774 145.308 13.9539 144.536 13.9539C143.341 13.9539 142.881 14.402 142.881 14.95C142.881 16.5555 147.947 15.4481 147.947 18.6466C147.947 20.1033 146.739 21.348 144.25 21.348C142.868 21.348 141.475 20.9373 140.702 20.3394V20.3383Z" fill="black"/>
<path d="M150.747 14.1275H147.959V12.4846H155.552V14.1275H152.764V21.1972H150.748V14.1275H150.747Z" fill="black"/>
<path d="M161.675 19.3297H157.63L156.859 21.1972H154.793L158.676 12.4846H160.668L164.564 21.1972H162.448L161.676 19.3297H161.675ZM161.041 17.7991L159.659 14.4634L158.277 17.7991H161.04H161.041Z" fill="black"/>
<path d="M173.202 12.4846V21.1972H171.546L167.202 15.9077V21.1972H165.211V12.4846H166.878L171.21 17.7742V12.4846H173.202Z" fill="black"/>
</g>
<defs>
<clipPath id="clip0_74_865">
<rect width="172.386" height="52.8569" fill="white" transform="translate(0.81604 0.571533)"/>
</clipPath>
</defs>
</svg>
