<svg width="222" height="38" viewBox="0 0 222 38" fill="none" xmlns="http://www.w3.org/2000/svg">
<g clip-path="url(#clip0_74_1024)">
<path d="M220.677 37.9039C220.199 37.9039 219.813 37.5175 219.813 37.0398V14.3335L207.652 2.17272L195.234 14.5911C194.912 14.9131 194.332 14.9131 194.01 14.5911L181.592 2.17272L169.178 14.5911C168.856 14.9131 168.272 14.9131 167.95 14.5911L155.536 2.17272L143.118 14.5911C142.957 14.7521 142.737 14.8434 142.512 14.8434C142.034 14.8434 141.648 14.457 141.648 13.9793C141.648 13.5017 141.766 13.4749 141.959 13.3139L154.925 0.348057C155.247 0.0260577 155.821 0.0260577 156.143 0.348057L168.567 12.7718L180.985 0.348057C181.323 0.00995773 181.865 0.00995773 182.203 0.348057L194.622 12.7665L207.04 0.348057C207.378 0.00995773 207.92 0.00995773 208.258 0.348057L221.283 13.3729C221.444 13.5339 221.536 13.7539 221.536 13.9793V37.0398C221.536 37.5175 221.149 37.9039 220.671 37.9039H220.677Z" fill="black"/>
<path d="M14.7693 26.0222H20.8926V34.861C19.6583 35.7197 18.2254 36.3744 16.5939 36.8306C14.9625 37.2868 13.3579 37.5175 11.7854 37.5175C9.55291 37.5175 7.55651 37.056 5.78015 36.1276C4.00916 35.1991 2.6192 33.9058 1.61563 32.2475C0.61207 30.5838 0.107605 28.7001 0.107605 26.591C0.107605 24.4819 0.61207 22.5929 1.61563 20.9292C2.6192 19.2656 4.02526 17.9722 5.82845 17.0438C7.63165 16.1207 9.66561 15.6538 11.9357 15.6538C14.2058 15.6538 15.8212 15.9973 17.4472 16.6842C19.068 17.3711 20.4204 18.3693 21.4937 19.6842L16.9857 23.6555C15.6709 22.1206 14.1092 21.3532 12.2953 21.3532C10.4813 21.3532 9.50997 21.8201 8.59228 22.7593C7.67458 23.693 7.21841 24.9703 7.21841 26.5803C7.21841 28.1903 7.66921 29.4193 8.57618 30.3745C9.48314 31.3298 10.6906 31.8074 12.204 31.8074C13.7174 31.8074 13.9536 31.6357 14.7747 31.2976V26.0114L14.7693 26.0222Z" fill="black"/>
<path d="M35.4094 20.4087V26.3818C34.8728 26.3013 34.3737 26.2637 33.9175 26.2637C31.6098 26.2637 30.4506 27.439 30.4506 29.7896V37.0453H23.6994V20.7092H30.1233V22.4695C31.32 21.0956 33.0803 20.4087 35.4094 20.4087Z" fill="black"/>
<path d="M54.6112 30.4443H43.2608C43.4969 31.0615 43.8994 31.5338 44.4575 31.8611C45.0157 32.1885 45.7133 32.3548 46.5505 32.3548C47.3877 32.3548 47.8707 32.2636 48.3591 32.0865C48.8475 31.9094 49.3788 31.5982 49.9584 31.1581L53.4842 34.7108C51.8904 36.4657 49.5129 37.3405 46.3466 37.3405C43.1803 37.3405 42.6436 36.9755 41.1517 36.251C39.6598 35.5265 38.5059 34.5122 37.6848 33.2189C36.8691 31.9255 36.4612 30.4712 36.4612 28.8558C36.4612 27.2404 36.8637 25.7646 37.6687 24.482C38.4737 23.1993 39.5793 22.1958 40.9853 21.482C42.3914 20.7629 43.9692 20.4087 45.7187 20.4087C47.4682 20.4087 48.8797 20.7361 50.2428 21.3962C51.6059 22.0509 52.69 23.0169 53.5004 24.2941C54.3053 25.566 54.7078 27.0902 54.7078 28.8612C54.7078 30.6322 54.6756 29.4891 54.6166 30.4443H54.6112ZM44.0389 25.5714C43.5828 25.9524 43.2823 26.4891 43.1427 27.1868H48.402C48.2625 26.5106 47.962 25.9793 47.5058 25.5875C47.0496 25.2011 46.47 25.0025 45.7724 25.0025C45.0747 25.0025 44.4951 25.1904 44.0389 25.5714Z" fill="black"/>
<path d="M74.119 30.4443H62.7685C63.0047 31.0615 63.4072 31.5338 63.9653 31.8611C64.5234 32.1885 65.2211 32.3548 66.0583 32.3548C66.8955 32.3548 67.3785 32.2636 67.8669 32.0865C68.3552 31.9094 68.8865 31.5982 69.4661 31.1581L72.992 34.7108C71.3981 36.4657 69.0207 37.3405 65.8544 37.3405C62.688 37.3405 62.1514 36.9755 60.6594 36.251C59.1675 35.5265 58.0137 34.5122 57.1926 33.2189C56.3769 31.9255 55.969 30.4712 55.969 28.8558C55.969 27.2404 56.3715 25.7646 57.1765 24.482C57.9815 23.1993 59.087 22.1958 60.4931 21.482C61.8991 20.7629 63.4769 20.4087 65.2265 20.4087C66.976 20.4087 68.3874 20.7361 69.7505 21.3962C71.1137 22.0509 72.1977 23.0169 73.0081 24.2941C73.8131 25.566 74.2156 27.0902 74.2156 28.8612C74.2156 30.6322 74.1834 29.4891 74.1244 30.4443H74.119ZM63.5467 25.5714C63.0905 25.9524 62.79 26.4891 62.6505 27.1868H67.9098C67.7703 26.5106 67.4697 25.9793 67.0136 25.5875C66.5574 25.2011 65.9778 25.0025 65.2801 25.0025C64.5825 25.0025 64.0029 25.1904 63.5467 25.5714Z" fill="black"/>
<path d="M92.532 22.228C93.7556 23.4408 94.3674 25.2762 94.3674 27.7234V37.0399H87.6161V28.888C87.6161 27.015 86.9507 26.0812 85.6144 26.0812C84.2781 26.0812 84.2459 26.3442 83.779 26.8701C83.3121 27.3961 83.076 28.2279 83.076 29.3656V37.0399H76.3247V20.7039H82.7486V22.3192C83.3872 21.6806 84.1224 21.203 84.9596 20.8863C85.7968 20.5697 86.7038 20.4087 87.6752 20.4087C89.6877 20.4087 91.303 21.0151 92.5266 22.228H92.532Z" fill="black"/>
<path d="M118.109 16.1367V37.0398H111.063V29.3387H104.553V37.0398H97.5015V16.1367H104.553V23.5427H111.063V16.1367H118.109Z" fill="black"/>
<path d="M125.054 36.251C123.61 35.5265 122.478 34.5176 121.662 33.235C120.846 31.9524 120.439 30.4926 120.439 28.8612C120.439 27.2297 120.846 25.77 121.662 24.4873C122.478 23.2047 123.61 22.2012 125.054 21.4874C126.497 20.7683 128.124 20.4141 129.938 20.4141C131.751 20.4141 133.404 20.7736 134.848 21.4874C136.292 22.2065 137.419 23.2047 138.224 24.4873C139.029 25.77 139.431 27.2297 139.431 28.8612C139.431 30.4926 139.029 31.9524 138.224 33.235C137.419 34.5176 136.292 35.5265 134.848 36.251C133.404 36.9809 131.768 37.3405 129.938 37.3405C128.107 37.3405 126.497 36.9755 125.054 36.251ZM131.848 31.2332C132.347 30.6644 132.594 29.8755 132.594 28.8612C132.594 27.8469 132.347 27.058 131.848 26.4998C131.349 25.9417 130.71 25.6626 129.938 25.6626C129.165 25.6626 128.526 25.9417 128.027 26.4998C127.528 27.058 127.281 27.8415 127.281 28.8612C127.281 29.8808 127.528 30.6697 128.027 31.2332C128.526 31.8021 129.159 32.0865 129.938 32.0865C130.716 32.0865 131.349 31.8021 131.848 31.2332Z" fill="black"/>
<path d="M159.417 20.7039V37.0399H152.998V35.489C152.402 36.1061 151.705 36.5677 150.905 36.8789C150.111 37.1848 149.263 37.3405 148.367 37.3405C146.295 37.3405 144.631 36.7072 143.381 35.446C142.125 34.1795 141.497 32.2743 141.497 29.7252V20.7039H148.249V28.5606C148.249 29.6769 148.426 30.4712 148.785 30.9488C149.145 31.4264 149.671 31.6679 150.368 31.6679C151.066 31.6679 151.571 31.405 152.011 30.879C152.451 30.3531 152.665 29.5213 152.665 28.3835V20.7092H159.417V20.7039Z" fill="black"/>
<path d="M164.67 36.895C163.318 36.5945 162.223 36.2081 161.386 35.7305L163.238 31.2815C163.994 31.7377 164.891 32.0972 165.926 32.3548C166.962 32.6124 167.966 32.7412 168.942 32.7412C169.919 32.7412 170.263 32.6768 170.568 32.548C170.874 32.4193 171.03 32.2261 171.03 31.9685C171.03 31.7109 170.837 31.5284 170.445 31.4318C170.059 31.3352 169.425 31.2332 168.551 31.1313C167.214 30.9703 166.082 30.7663 165.148 30.5195C164.214 30.2726 163.393 29.7896 162.685 29.0705C161.976 28.3513 161.622 27.3263 161.622 25.9954C161.622 24.6644 161.939 23.9936 162.578 23.1564C163.216 22.3192 164.166 21.6538 165.427 21.1547C166.694 20.6556 168.207 20.4087 169.983 20.4087C171.76 20.4087 172.425 20.5214 173.611 20.7522C174.797 20.9829 175.806 21.3157 176.643 21.7557L174.792 26.2047C173.359 25.4104 171.787 25.0079 170.075 25.0079C168.363 25.0079 167.864 25.2655 167.864 25.7861C167.864 26.3066 168.062 26.2315 168.459 26.3388C168.856 26.4462 169.484 26.5535 170.343 26.6501C171.679 26.8111 172.806 27.0204 173.735 27.278C174.663 27.5356 175.479 28.024 176.182 28.7431C176.89 29.4622 177.245 30.4873 177.245 31.8182C177.245 33.1491 176.928 33.7609 176.289 34.5981C175.651 35.4353 174.695 36.1008 173.424 36.5999C172.146 37.099 170.606 37.3458 168.792 37.3458C166.978 37.3458 166.023 37.1956 164.67 36.9004V36.895Z" fill="black"/>
<path d="M196.57 30.4443H185.219C185.455 31.0615 185.858 31.5338 186.416 31.8611C186.974 32.1885 187.672 32.3548 188.509 32.3548C189.346 32.3548 189.829 32.2636 190.318 32.0865C190.806 31.9094 191.337 31.5982 191.917 31.1581L195.443 34.7108C193.849 36.4657 191.471 37.3405 188.305 37.3405C185.139 37.3405 184.602 36.9755 183.11 36.251C181.618 35.5265 180.464 34.5122 179.643 33.2189C178.828 31.9255 178.42 30.4712 178.42 28.8558C178.42 27.2404 178.822 25.7646 179.627 24.482C180.432 23.1993 181.538 22.1958 182.944 21.482C184.35 20.7629 185.928 20.4087 187.677 20.4087C189.427 20.4087 190.838 20.7361 192.201 21.3962C193.564 22.0509 194.649 23.0169 195.459 24.2941C196.264 25.566 196.666 27.0902 196.666 28.8612C196.666 30.6322 196.634 29.4891 196.575 30.4443H196.57ZM185.998 25.5714C185.541 25.9524 185.241 26.4891 185.101 27.1868H190.355C190.216 26.5106 189.915 25.9793 189.459 25.5875C189.003 25.2011 188.423 25.0025 187.726 25.0025C187.028 25.0025 186.454 25.1904 185.992 25.5714H185.998Z" fill="black"/>
<path d="M201.051 36.895C199.699 36.5945 198.604 36.2081 197.767 35.7305L199.618 31.2815C200.375 31.7377 201.271 32.0972 202.307 32.3548C203.343 32.6124 204.346 32.7412 205.323 32.7412C206.3 32.7412 206.643 32.6768 206.949 32.548C207.255 32.4193 207.41 32.2261 207.41 31.9685C207.41 31.7109 207.217 31.5284 206.825 31.4318C206.439 31.3352 205.806 31.2332 204.931 31.1313C203.595 30.9703 202.462 30.7663 201.529 30.5195C200.595 30.2726 199.774 29.7896 199.065 29.0705C198.357 28.3513 198.003 27.3263 198.003 25.9954C198.003 24.6644 198.319 23.9936 198.958 23.1564C199.597 22.3192 200.547 21.6538 201.808 21.1547C203.074 20.6556 204.588 20.4087 206.364 20.4087C208.14 20.4087 208.806 20.5214 209.992 20.7522C211.178 20.9829 212.187 21.3157 213.024 21.7557L211.172 26.2047C209.74 25.4104 208.167 25.0079 206.455 25.0079C204.743 25.0079 204.244 25.2655 204.244 25.7861C204.244 26.3066 204.443 26.2315 204.84 26.3388C205.237 26.4462 205.865 26.5535 206.724 26.6501C208.06 26.8111 209.187 27.0204 210.115 27.278C211.044 27.5356 211.859 28.024 212.562 28.7431C213.271 29.4622 213.625 30.4873 213.625 31.8182C213.625 33.1491 213.308 33.7609 212.67 34.5981C212.031 35.4353 211.076 36.1008 209.804 36.5999C208.527 37.099 206.987 37.3458 205.173 37.3458C203.359 37.3458 202.403 37.1956 201.051 36.9004V36.895Z" fill="black"/>
</g>
<defs>
<clipPath id="clip0_74_1024">
<rect width="221.433" height="37.808" fill="white" transform="translate(0.107544 0.0959473)"/>
</clipPath>
</defs>
</svg>
