<svg width="321" height="100" viewBox="0 0 321 100" fill="none" xmlns="http://www.w3.org/2000/svg">
<path d="M1.06836 49.3585H48.9724V1.19775H1.06836V49.3585ZM20.3155 11.4629C22.1975 8.98216 23.7372 6.92914 23.9083 6.8436C23.9083 6.8436 24.0794 6.84359 24.0794 6.75805C24.165 6.75805 24.3361 6.67251 24.4216 6.58696C24.5927 6.58696 24.9348 6.50143 25.1915 6.50143C25.3626 6.50143 25.5336 6.50143 25.6192 6.50143C26.3035 6.67251 26.8168 7.35685 29.7253 11.2918C33.4036 16.2533 33.4891 16.4244 33.2325 17.3654C33.0614 18.0497 32.7193 18.4774 32.1205 18.7341C31.6927 18.9052 31.4361 18.9907 31.0939 18.9907C30.153 18.9052 29.9819 18.8196 27.5011 15.3979C26.218 13.6015 25.106 12.2328 25.0204 12.2328C24.9349 12.2328 23.8228 13.687 22.5396 15.3979C19.8878 18.9052 19.8023 18.9907 18.7758 18.9907C17.7492 18.9907 17.0649 18.4774 16.8083 17.4509C16.5516 16.5099 16.6372 16.4244 20.3155 11.4629ZM33.4036 25.3209C33.4036 26.1763 33.147 26.6896 32.4626 27.1173L32.0349 27.3739H18.177L17.7492 27.1173C16.9794 26.604 16.5516 25.663 16.8083 24.7221C16.9794 24.2088 17.5782 23.5245 18.0914 23.3534C18.2625 23.3534 21.0854 23.2678 25.1915 23.3534H31.9494L32.3771 23.6956C33.0614 24.1233 33.3181 24.6365 33.3181 25.492M18.0914 31.7366C18.2625 31.7366 18.6902 31.6511 18.9469 31.6511C19.9734 31.6511 20.0589 31.8222 22.6252 35.2439C23.9083 37.0403 25.0204 38.4089 25.1059 38.4089C25.1915 38.4089 26.3036 36.9547 27.5867 35.2439C30.2385 31.7366 30.3241 31.6511 31.3506 31.6511C32.3771 31.6511 33.0614 32.1643 33.3181 33.1908C33.5747 34.1318 33.4891 34.2173 29.8108 39.1788L29.6397 39.3499C26.7313 43.1994 26.218 43.8837 25.5336 44.0548C25.3626 44.0548 25.1915 44.0548 25.0204 44.0548C24.8493 44.0548 24.6782 44.0548 24.5071 44.0548C23.8228 43.8837 23.3095 43.1994 20.4011 39.3499L20.23 39.1788C18.348 36.6981 16.8083 34.474 16.7227 34.3029C16.7227 34.1318 16.6372 33.7896 16.6372 33.7041C16.6372 32.8487 17.236 31.9932 18.0059 31.7366" fill="black"/>
<path d="M1.06832 82.9769C1.92375 82.7203 2.86473 82.7203 5.17439 82.7203H8.08284L8.51056 82.3781C8.76719 82.207 9.19491 81.8648 9.45154 81.6937L9.9648 81.266V72.3696L10.307 71.6852C10.4781 71.343 10.8202 70.7442 11.1624 70.4876L11.6757 69.8888L11.2479 69.4611C10.9913 69.2045 10.6491 68.7768 10.4781 68.349C10.1359 67.6647 10.1359 67.4936 10.1359 66.4671C10.1359 65.4406 10.1359 65.2695 10.4781 64.6707C10.9058 63.8153 11.5901 63.1309 12.4455 62.7032C13.0443 62.4466 13.2154 62.361 14.2419 62.361C15.2685 62.361 15.4395 62.361 16.1239 62.7032C17.9203 63.6442 18.8613 65.6972 18.348 67.5792C18.1769 68.349 17.6637 69.1189 17.236 69.5466L16.9793 69.8033L17.4926 70.4021C18.2625 71.2575 18.6046 72.0274 18.6902 73.3105V74.4226L22.8818 71.2575V68.9478C22.8818 67.6647 22.8818 66.5526 22.8818 66.4671C22.9673 66.2105 23.5661 65.9538 23.9083 66.0394C24.4216 66.2105 24.5071 66.4671 24.5071 68.178C24.5071 69.8888 24.5071 69.8033 24.5927 69.8033C24.5927 69.8033 25.7902 68.9478 27.2445 67.8358L29.8108 65.8683V64.4141C29.8108 62.7032 29.6397 62.2755 28.8698 61.5911C28.0144 60.8213 26.8168 60.7357 25.8758 61.3345C25.3625 61.5912 24.6782 62.5321 24.6782 62.8743C24.6782 63.2165 24.5926 63.2165 24.4216 63.3876C24.1649 63.7297 23.5661 63.8153 23.1384 63.3876C22.6252 62.8743 23.1384 61.5911 23.9938 60.5646L24.5071 59.9658L24.0794 59.5381C22.7107 58.1694 22.5396 55.8598 23.6517 54.2344C24.1649 53.4646 24.6782 53.0369 25.5336 52.6947C26.1324 52.4381 26.3035 52.438 27.2445 52.438C28.0999 52.438 28.3565 52.5236 28.9553 52.7802C29.7252 53.2079 30.4951 53.9778 30.9228 54.7477C31.1795 55.3465 31.265 55.5176 31.265 56.5441C31.265 57.5706 31.0939 58.4261 30.2385 59.367L29.7252 59.8803L30.2385 60.3935C30.9228 61.0779 31.265 61.9333 31.4361 63.2165L31.6072 64.3285L34.4301 62.19C37.3386 59.9658 37.8518 59.6237 38.9639 59.367C39.9048 59.1104 47.6037 59.1104 48.6302 59.367H48.8013C48.8013 59.367 48.8013 59.367 48.8869 59.367V50.385H0.982788V82.5492L1.06832 82.9769Z" fill="black"/>
<path d="M2.0093 85.8855H5.34547C8.85273 85.7144 9.10937 85.7144 9.9648 85.1156C10.1359 84.9445 16.6371 79.983 24.336 74.1661L26.9878 72.113C38.6217 63.2166 38.9639 62.96 39.2205 62.8744C39.4771 62.8744 40.9314 62.7889 43.6687 62.7889H47.7748L48.4591 63.131C48.4591 63.131 48.4591 63.131 48.5447 63.131C48.5447 63.131 48.7158 63.131 48.8013 63.3021V61.7624L48.117 61.4202H39.2205L38.6217 61.6768C38.1084 61.9334 27.4156 69.9745 11.3335 82.3782C9.96479 83.4047 8.85274 84.1746 8.59611 84.2602C8.16839 84.4312 7.48405 84.4312 5.17439 84.4312C2.86473 84.4312 1.83822 84.4312 0.982788 84.859V86.3987C1.06833 86.3987 1.23941 86.3132 1.32495 86.2276L2.09484 85.8855H2.0093Z" fill="black"/>
<path d="M6.28645 92.3865H10.1359L24.6782 81.2659C32.7192 75.1068 39.4771 70.0597 39.7337 69.8887C40.8458 69.3754 41.1024 69.2899 44.4386 69.2899H47.6037L48.117 68.8621C48.3736 68.6911 48.7158 68.3489 48.8869 67.9212V65.6115C48.6302 65.1838 48.288 64.7561 47.7748 64.585C47.3471 64.4139 46.9194 64.3284 43.5832 64.3284H39.9048L38.9639 65.0127C38.8783 65.0127 38.5361 65.3549 38.0229 65.697C36.0554 67.2368 31.1795 70.9152 25.8758 75.0212C19.2034 80.1538 13.0443 84.8587 12.2745 85.4575C9.79371 87.425 9.45154 87.5105 5.34547 87.5105C1.23941 87.5105 2.43702 87.5105 2.0093 87.7671C1.58159 88.0238 1.15387 88.3659 0.982788 88.7936V91.2744C0.982788 91.4455 1.15386 91.531 1.23941 91.7021C1.92375 92.5576 2.00929 92.5576 6.37199 92.5576" fill="black"/>
<path d="M48.5447 70.4876L47.7748 70.8297H44.6097C41.7868 70.9153 41.3591 71.0008 40.8458 71.1719C40.3326 71.343 35.1144 75.278 11.6757 93.3276C10.7347 94.0974 10.6491 94.0974 6.11537 94.0119H2.0093L1.32495 93.6697C1.23941 93.6697 1.15387 93.5842 0.982788 93.4986V95.0384C1.23942 95.124 1.58158 95.295 1.92375 95.295C2.35147 95.3806 3.8057 95.3806 6.71416 95.3806H10.8202L11.419 95.0384C11.7612 94.8673 18.2625 89.9914 26.389 83.7467C34.259 77.6732 40.9314 72.6261 41.188 72.5406C41.6157 72.284 41.7868 72.284 44.8663 72.1984C47.7748 72.1984 48.117 72.1129 48.7158 71.8563C48.8013 71.8563 48.8869 71.8563 48.9724 71.7707V70.231C48.8869 70.231 48.8013 70.3165 48.7158 70.402L48.5447 70.4876Z" fill="black"/>
<path d="M41.9579 74.1661C41.7012 74.2516 36.3976 78.3577 20.0589 90.847C12.7877 96.4073 12.6166 96.4928 11.6757 96.835C10.9913 97.0916 10.8202 97.0916 6.54308 97.0916C2.95028 97.0916 1.83822 97.0916 0.982788 96.835V98.9736H48.8869V73.6528C48.0314 73.9095 47.0904 73.995 44.9519 73.995C42.8133 73.995 42.129 73.995 41.9579 74.0805" fill="black"/>
<path d="M28.1 54.5767C27.159 54.149 25.7903 54.4912 25.1915 55.2611C24.3361 56.3731 24.4216 57.6563 25.3626 58.5972C26.218 59.4527 27.159 59.6237 28.1855 59.0249C29.0409 58.5972 29.4687 57.9984 29.5542 56.9719C29.5542 56.3731 29.5542 56.1165 29.3831 55.7743C29.1265 55.1755 28.6132 54.7478 28.1 54.5767Z" fill="black"/>
<path d="M15.354 68.7768C17.1504 67.8358 17.1504 65.184 15.354 64.3285C14.3275 63.8153 13.0444 64.0719 12.36 64.9273C11.9323 65.4406 11.7612 66.0394 11.7612 66.8093C11.7612 67.7502 12.2745 68.349 13.1299 68.7768C13.9854 69.2045 14.5842 69.2045 15.4396 68.7768" fill="black"/>
<path d="M11.6756 79.9829L16.8938 75.9624V74.4226C16.8938 73.1395 16.8937 72.7973 16.6371 72.3696C16.3805 71.7708 16.0383 71.4287 15.4395 71.0865C15.1829 71.0009 14.6696 70.8298 14.3275 70.8298C13.3009 70.8298 12.1889 71.4287 11.7612 72.4552C11.6756 72.7118 11.5901 73.6528 11.5901 76.3901V79.8974L11.6756 79.9829Z" fill="black"/>
<path d="M81.6497 35.5006H64.0279V1.28345H56.7567V41.232H81.6497V35.5006Z" fill="black"/>
<path d="M90.6319 12.9172H83.3607V41.232H90.6319V12.9172Z" fill="black"/>
<path d="M86.9535 8.4689C88.3222 8.4689 89.3487 8.04119 90.2042 7.2713C91.0596 6.50141 91.4873 5.4749 91.4873 4.27729C91.4873 3.07969 91.0596 2.05318 90.2042 1.28329C89.3487 0.513403 88.3222 0.0856934 86.9535 0.0856934C85.5849 0.0856934 84.5583 0.513403 83.6174 1.28329C82.7619 2.05318 82.3342 2.99415 82.3342 4.27729C82.3342 5.56044 82.7619 6.50141 83.6174 7.2713C84.4728 8.04119 85.5849 8.4689 86.9535 8.4689Z" fill="black"/>
<path d="M90.803 18.9908H94.6524V41.232H101.924V18.9908H111.761V31.309C111.761 34.9873 112.616 37.5536 114.413 39.0078C116.209 40.4621 118.519 41.1464 121.513 41.1464H126.474V34.9018H122.967C121.513 34.9018 120.486 34.6451 119.888 34.1319C119.289 33.6186 119.032 32.6777 119.032 31.309V18.9052H126.645V12.8317H119.032V5.21837H112.616L111.761 12.8317H101.924V9.49552C101.924 8.29792 102.18 7.44248 102.693 7.01477C103.207 6.50151 104.148 6.24488 105.345 6.24488H107.313V0.000244141H104.148C101.154 0.000244141 98.844 0.684588 97.1331 2.13882C95.4223 3.59305 94.5668 5.98825 94.5668 9.40997V12.7461H90.7174V18.8197L90.803 18.9908Z" fill="black"/>
<path d="M177.116 31.2235L184.216 41.3175H191.829V53.8923H199.1V37.4681C200.127 38.9223 201.41 40.0344 202.95 40.8043C204.575 41.5742 206.371 42.0019 208.51 42.0019C210.649 42.0019 213.557 41.4031 215.61 40.1199C217.663 38.8368 219.374 37.0404 220.572 34.9018C221.769 32.6777 222.368 30.1114 222.368 27.2885C222.368 24.4656 221.769 21.8993 220.572 19.6751C219.374 17.451 217.749 15.6546 215.61 14.3715C213.557 13.0883 211.162 12.404 208.51 12.404C205.858 12.404 204.147 12.9173 202.693 13.8582C201.239 14.7992 200.041 15.9113 199.1 17.1944L198.33 13.1739H184.216L177.116 23.268L169.93 13.1739H162.146L172.411 27.374L163.001 40.4621V35.6717H144.267V24.1234H161.29V18.392H144.267V7.4425H163.001V1.54004H136.996V41.4886H170.016L177.201 31.3945L177.116 31.2235ZM201.239 21.0438C202.779 19.4185 204.661 18.6486 207.056 18.6486C209.451 18.6486 211.247 19.4185 212.787 21.0438C214.327 22.6692 215.097 24.7222 215.097 27.1174C215.097 29.5126 214.327 31.6512 212.787 33.1909C211.247 34.7307 209.365 35.5006 207.056 35.5006C204.746 35.5006 202.779 34.7307 201.239 33.1909C199.785 31.5656 199.015 29.5126 199.015 27.1174C199.015 24.7222 199.785 22.6692 201.239 21.0438ZM191.829 13.1739V40.9753L181.735 27.1174L191.829 13.2594V13.1739Z" fill="black"/>
<path d="M230.238 40.0344C232.462 41.3175 234.943 41.9163 237.595 41.9163C240.247 41.9163 242.727 41.3175 244.951 40.0344C247.176 38.7512 248.886 37.0404 250.084 34.8163C251.367 32.5921 252.051 29.9403 252.051 27.0318C252.051 24.1234 251.367 21.5571 250.084 19.333C248.801 17.1089 247.09 15.3125 244.951 14.1149C242.813 12.8317 240.332 12.2329 237.68 12.2329C235.028 12.2329 232.462 12.8317 230.324 14.1149C228.185 15.398 226.474 17.1089 225.191 19.333C223.908 21.5571 223.224 24.1234 223.224 27.0318C223.224 29.9403 223.822 32.5921 225.105 34.8163C226.389 37.0404 228.099 38.7512 230.238 40.0344ZM232.719 20.7017C234.087 19.2474 235.798 18.5631 237.68 18.5631C239.562 18.5631 241.188 19.2474 242.556 20.7017C243.925 22.0704 244.695 24.2089 244.695 27.0318C244.695 29.8548 244.01 31.9933 242.556 33.4476C241.188 34.8163 239.477 35.5861 237.595 35.5861C235.713 35.5861 234.087 34.9018 232.633 33.4476C231.265 31.9933 230.58 29.8548 230.58 27.0318C230.58 24.2089 231.265 22.0704 232.633 20.7017" fill="black"/>
<path d="M87.7233 59.0249H78.7413L64.0279 75.1925V59.0249H56.7567V99.059H64.0279V84.6878L67.7918 80.4962L79.169 99.059H88.151L73.0099 74.9359L87.7233 59.0249Z" fill="black"/>
<path d="M99.1006 69.9744C96.7054 69.9744 94.6524 70.4021 92.7705 71.2575C90.8885 72.0274 89.3488 73.225 88.1512 74.7648C86.9536 76.3046 86.2692 78.101 86.0981 80.154H93.1982C93.4548 78.7853 94.1392 77.7588 95.2512 77.0744C96.3633 76.3901 97.6464 75.9624 99.1006 75.9624C100.555 75.9624 102.095 76.3901 103.207 77.3311C104.319 78.272 104.832 79.6407 104.832 81.6082V82.2926H97.6464C93.5404 82.2926 90.4608 83.148 88.4078 84.7733C86.3547 86.3986 85.3282 88.5372 85.3282 91.189C85.3282 93.8409 85.6704 94.183 86.4403 95.4662C87.2102 96.7493 88.3222 97.7758 89.9476 98.6313C91.4873 99.4011 93.4548 99.7433 95.9356 99.7433C98.4163 99.7433 100.213 99.2301 101.667 98.2891C103.207 97.2626 104.319 96.065 105.174 94.5252L105.859 99.059H112.018V81.6082C112.018 77.9299 110.906 75.0214 108.51 73.0539C106.201 71.0009 103.036 70.0599 99.0151 70.0599M102.351 91.9589C101.239 93.3276 99.6139 94.0119 97.4753 94.0119C95.3368 94.0119 94.9946 93.6698 94.1392 93.071C93.2837 92.4722 92.856 91.6167 92.856 90.5047C92.856 89.3926 93.2837 88.6227 94.1392 87.9384C94.9946 87.254 96.3633 86.8263 98.3308 86.8263H104.49C104.148 88.8794 103.463 90.5047 102.266 91.8734" fill="black"/>
<path d="M135.029 76.5612V70.6587H112.445V76.7322H126.731L112.274 93.1565V99.0589H135.285V92.9854H120.401L135.029 76.5612Z" fill="black"/>
<path d="M149.4 69.9744C147.09 69.9744 144.952 70.4021 143.07 71.2575C141.188 72.0274 139.648 73.225 138.45 74.7648C137.253 76.3046 136.568 78.101 136.397 80.154H143.497C143.754 78.7853 144.438 77.7588 145.55 77.0744C146.662 76.3901 147.946 75.9624 149.4 75.9624C150.854 75.9624 152.394 76.3901 153.506 77.3311C154.618 78.272 155.131 79.6407 155.131 81.6082V82.2926H147.946C143.84 82.2926 140.76 83.148 138.707 84.7733C136.654 86.3986 135.627 88.5372 135.627 91.189C135.627 93.8409 135.97 94.183 136.739 95.4662C137.509 96.7493 138.621 97.7758 140.247 98.6313C141.787 99.4011 143.754 99.7433 146.235 99.7433C148.716 99.7433 150.512 99.2301 151.966 98.2891C153.506 97.2626 154.618 96.065 155.473 94.5252L156.158 99.059H162.317V81.6082C162.317 77.9299 161.205 75.0214 158.81 73.0539C156.5 71.0009 153.335 70.0599 149.314 70.0599M152.736 91.9589C151.624 93.3276 149.999 94.0119 147.86 94.0119C145.722 94.0119 145.379 93.6698 144.524 93.071C143.668 92.4722 143.241 91.6167 143.241 90.5047C143.241 89.3926 143.668 88.6227 144.524 87.9384C145.379 87.254 146.748 86.8263 148.716 86.8263H154.875C154.532 88.8794 153.848 90.5047 152.65 91.8734" fill="black"/>
<path d="M208.596 69.9745C206.543 69.9745 204.661 70.4022 203.035 71.3432C201.41 72.1986 200.212 73.3962 199.186 75.0215V57.9129H191.915V98.6314L178.827 83.5758L190.375 70.6588H181.735L171.727 82.1216V57.8274H164.455V98.9736H171.727V84.7734L183.189 98.9736H199.271V84.3457C199.271 81.7794 199.956 79.7264 201.239 78.2722C202.608 76.8179 204.318 76.1336 206.372 76.1336C208.425 76.1336 209.964 76.8179 210.905 78.1011C211.932 79.3842 212.36 81.2662 212.36 83.6614V98.9736H219.545V82.977C219.545 78.6999 218.604 75.4493 216.637 73.3107C214.755 71.0866 212.017 69.9745 208.596 69.9745Z" fill="black"/>
<path d="M239.733 83.4046C238.108 82.8058 236.312 82.2925 234.344 81.8648C232.548 81.4371 231.093 81.0094 229.981 80.4961C228.869 79.9829 228.356 79.2985 228.356 78.5286C228.356 77.7587 228.698 77.0744 229.468 76.5611C230.238 76.0479 231.265 75.7913 232.633 75.7913C235.371 75.7913 236.91 76.8178 237.338 78.9563H244.182C243.839 76.219 242.642 74.0804 240.589 72.5406C238.621 71.0008 235.969 70.231 232.633 70.231C229.297 70.231 226.218 71.0864 224.25 72.7972C222.283 74.5081 221.256 76.6467 221.256 79.1274C221.256 81.6082 221.598 81.6937 222.197 82.6347C222.881 83.5757 223.651 84.3455 224.678 84.9443C225.704 85.5431 226.902 85.9709 228.185 86.3986C229.468 86.7407 230.666 87.0829 231.863 87.3396C233.745 87.7673 235.2 88.195 236.312 88.6227C237.338 89.0504 237.937 89.8203 237.937 91.1034C237.937 92.3866 237.595 92.6432 236.825 93.3276C236.14 94.0119 234.943 94.2685 233.318 94.2685C231.692 94.2685 230.409 93.9264 229.383 93.1565C228.356 92.3866 227.757 91.4456 227.586 90.3336H220.229C220.486 92.2155 221.17 93.9264 222.283 95.3806C223.395 96.8348 224.934 97.9469 226.816 98.8023C228.698 99.5722 230.922 99.9999 233.403 99.9999C235.884 99.9999 237.937 99.5722 239.733 98.8023C241.53 98.0324 242.898 96.9204 243.839 95.4661C244.78 94.0974 245.208 92.4721 245.208 90.7613C245.208 88.7082 244.695 87.1685 243.754 86.142C242.727 85.0299 241.444 84.26 239.733 83.6612" fill="black"/>
<path d="M255.901 63.1309H249.485L248.63 70.7443H243.839V76.8178H248.63V89.136C248.63 92.8144 249.485 95.3807 251.282 96.8349C253.078 98.2891 255.388 98.9735 258.382 98.9735H263.343V92.7288H259.836C258.382 92.7288 257.355 92.4722 256.756 91.9589C256.158 91.4457 255.901 90.5047 255.901 89.136V76.7323H263.514V70.6587H255.901V63.0454V63.1309Z" fill="black"/>
<path d="M277.885 69.9744C275.49 69.9744 273.437 70.4021 271.555 71.2575C269.673 72.0274 268.134 73.225 266.936 74.7648C265.738 76.3046 265.054 78.101 264.883 80.154H271.983C272.24 78.7853 272.924 77.7588 274.036 77.0744C275.148 76.3901 276.431 75.9624 277.885 75.9624C279.34 75.9624 280.879 76.3901 281.991 77.3311C283.104 78.272 283.617 79.6407 283.617 81.6082V82.2926H276.431C272.325 82.2926 269.246 83.148 267.193 84.7733C265.14 86.3986 264.113 88.5372 264.113 91.189C264.113 93.8409 264.455 94.183 265.225 95.4662C265.995 96.7493 267.107 97.7758 268.732 98.6313C270.272 99.4011 272.24 99.7433 274.72 99.7433C277.201 99.7433 278.997 99.2301 280.452 98.2891C281.991 97.2626 283.104 96.065 283.959 94.5252L284.643 99.059H290.802V81.6082C290.802 77.9299 289.69 75.0214 287.295 73.0539C284.986 71.0009 281.82 70.0599 277.8 70.0599M281.136 91.9589C280.024 93.3276 278.399 94.0119 276.26 94.0119C274.122 94.0119 273.779 93.6698 272.924 93.071C272.069 92.4722 271.641 91.6167 271.641 90.5047C271.641 89.3926 272.069 88.6227 272.924 87.9384C273.779 87.254 275.148 86.8263 277.116 86.8263H283.275C282.932 88.8794 282.248 90.5047 281.051 91.8734" fill="black"/>
<path d="M317.663 73.3106C315.695 71.0864 313.044 69.9744 309.536 69.9744C306.029 69.9744 305.345 70.4876 303.719 71.4286C302.094 72.4551 300.811 73.7383 299.956 75.4491L299.357 70.6587H292.941V98.9735H300.212V84.3456C300.212 81.7793 300.897 79.7263 302.18 78.272C303.548 76.8178 305.174 76.1335 307.227 76.1335C309.28 76.1335 310.82 76.8178 311.846 78.1009C312.873 79.3841 313.3 81.266 313.3 83.6612V98.9735H320.571V82.9769C320.571 78.6998 319.63 75.4491 317.663 73.3106Z" fill="black"/>
</svg>
