<svg width="188" height="66" viewBox="0 0 188 66" fill="none" xmlns="http://www.w3.org/2000/svg">
<g clip-path="url(#clip0_74_966)">
<path d="M0.424698 29.6689H29.2015V0.759033H0.424698V29.6689ZM11.9496 6.89618C13.0582 5.4175 14.0227 4.1722 14.092 4.12845C14.123 4.11021 14.1704 4.08833 14.2178 4.06281C14.2834 4.03181 14.3527 3.99899 14.411 3.97711C14.5186 3.93336 14.7246 3.90783 14.8814 3.91877H14.8851C14.9927 3.92606 15.082 3.93153 15.1659 3.95159C15.5597 4.04822 15.8751 4.47122 17.6547 6.8506L17.6729 6.8743C19.8882 9.84259 19.9265 9.91005 19.7751 10.4698C19.6621 10.8983 19.4743 11.1189 19.0859 11.2939C18.8361 11.4143 18.6793 11.4453 18.4861 11.4252C17.9044 11.3559 17.8406 11.3012 16.3073 9.24456C15.5178 8.18706 14.8486 7.31918 14.8176 7.31918C14.7866 7.31918 14.1157 8.18706 13.328 9.24456C11.7436 11.3614 11.6998 11.407 11.0617 11.407C10.4235 11.407 10.0224 11.0806 9.86562 10.4771C9.71064 9.91005 9.74711 9.84806 11.9496 6.89253V6.89618ZM19.7934 15.2158C19.7934 15.7062 19.6311 16.0144 19.2427 16.2715L18.9856 16.441H10.6533L10.4162 16.2897C9.94037 15.9943 9.71976 15.4091 9.8638 14.8493C9.95131 14.5284 10.3397 14.1145 10.635 14.0252C10.759 13.9887 12.4565 13.9705 14.9161 13.976L18.9838 13.9887L19.2409 14.1583C19.6274 14.4154 19.7915 14.7235 19.7915 15.214L19.7934 15.2158ZM10.6223 19.072C10.7408 19.0283 10.9669 19.0009 11.1219 19.0155C11.7162 19.0538 11.7746 19.1103 13.3262 21.1852C14.1139 22.2427 14.7848 23.1106 14.8158 23.1106C14.8468 23.1106 15.5159 22.2427 16.3054 21.1852C17.8899 19.0665 17.9318 19.0228 18.5718 19.0228C19.2117 19.0228 19.611 19.3491 19.766 19.9527C19.9228 20.5252 19.8863 20.5799 17.6711 23.5554L17.5927 23.6594C15.866 25.9695 15.5397 26.4052 15.144 26.4873C15.0455 26.5073 14.9434 26.5055 14.8158 26.5055H14.7958C14.6772 26.5055 14.5806 26.5055 14.4876 26.4873C14.092 26.4034 13.7656 25.9676 12.0463 23.6594L11.966 23.5554C10.8575 22.064 9.92032 20.7512 9.87656 20.6327C9.84009 20.5124 9.80727 20.3501 9.80727 20.2608C9.80727 19.7703 10.1883 19.2179 10.6205 19.0738L10.6223 19.072Z" fill="black"/>
<path d="M0.422867 49.8508C0.927914 49.6977 1.50772 49.6703 2.88611 49.6703H4.63099L4.90265 49.477C5.05216 49.3749 5.31836 49.1817 5.48793 49.0522L5.80335 48.8116L5.84346 43.4694L6.02762 43.0792C6.12972 42.8604 6.34851 42.5377 6.51808 42.3553L6.83168 42.018L6.58736 41.7865C6.45791 41.657 6.24641 41.3544 6.12972 41.1082C5.92551 40.6962 5.91093 40.6159 5.91093 39.9778C5.91093 39.3396 5.92551 39.2649 6.12972 38.8802C6.38862 38.3824 6.80433 37.9704 7.30938 37.7096C7.65033 37.5309 7.75243 37.5109 8.36505 37.5109C8.97767 37.5109 9.07978 37.5255 9.49731 37.7297C10.5949 38.2785 11.1528 39.5128 10.821 40.6688C10.697 41.1082 10.4108 41.6005 10.1446 41.8539L9.97501 42.0162L10.2904 42.3663C10.7663 42.895 10.9377 43.3253 10.9851 44.133L11.0252 44.8113L13.5067 42.9205L13.514 41.5385C13.514 40.7764 13.534 40.1072 13.5541 40.0452C13.6234 39.8811 13.9643 39.7298 14.1612 39.779C14.4876 39.8611 14.535 40.0252 14.535 41.0863C14.535 41.6278 14.5551 42.0654 14.5879 42.0581C14.6152 42.0581 15.3245 41.5221 16.1705 40.873L17.7039 39.6897L17.6966 38.8054C17.6911 37.7844 17.6018 37.5255 17.1241 37.1134C16.6044 36.6667 15.9043 36.6138 15.3044 36.9694C14.9963 37.1481 14.6025 37.6677 14.6025 37.8938C14.6025 37.9558 14.5405 38.087 14.4584 38.1891C14.2816 38.4152 13.9206 38.4353 13.7091 38.2238C13.4228 37.9339 13.6617 37.1626 14.2415 36.5172L14.5423 36.1744L14.2889 35.9228C13.4848 35.1005 13.3754 33.7239 14.0446 32.7576C14.3582 32.2909 14.6718 32.0392 15.1896 31.8186C15.5378 31.6764 15.6727 31.6564 16.2124 31.6764C16.7157 31.6892 16.8943 31.7293 17.2152 31.8824C17.6929 32.1213 18.1615 32.5935 18.4077 33.0858C18.5699 33.4286 18.5918 33.5453 18.5918 34.1889C18.5918 35.0185 18.4769 35.3266 17.9792 35.8882L17.6856 36.2164L17.9865 36.519C18.4168 36.9511 18.621 37.4234 18.714 38.211L18.7978 38.8619L20.468 37.582C22.2256 36.2328 22.541 36.0359 23.1755 35.8699C23.748 35.7204 28.37 35.7204 28.9553 35.8699C28.9972 35.8809 29.041 35.8918 29.0829 35.9046C29.0993 35.9101 29.1158 35.9155 29.1322 35.9192C29.154 35.9265 29.1759 35.9338 29.1996 35.941V30.5642H0.422867V49.849V49.8508Z" fill="black"/>
<path d="M0.984436 51.5521L2.96816 51.5119C5.07404 51.4718 5.25272 51.4427 5.74865 51.0944C5.87081 51.0105 9.75804 48.0386 14.3855 44.4996L15.9882 43.2726H15.99L15.9955 43.2671C22.995 37.9121 23.17 37.7809 23.3633 37.717L23.3797 37.7116C23.3907 37.7079 23.4034 37.7043 23.4162 37.6988C23.5529 37.6514 24.4463 37.6295 26.0745 37.6368L28.5287 37.6496L28.9225 37.8501C28.9425 37.8593 28.9626 37.8702 28.9845 37.8811C29.0282 37.9048 29.072 37.9304 29.1139 37.9595V37.0479L28.6782 36.8291H23.3487L22.9677 37.0078C22.6522 37.1573 16.2671 42.0017 6.57825 49.4443C5.76142 50.0661 5.09228 50.5347 4.91359 50.5948C4.67657 50.6769 4.24628 50.6969 2.86241 50.6969C1.29075 50.6969 0.85863 50.7188 0.337173 50.9485V51.8821C0.402811 51.8438 0.468449 51.8055 0.537734 51.7727L0.98079 51.5521H0.984436Z" fill="black"/>
<path d="M3.56072 55.492H5.85076L14.6043 48.7933C19.4178 45.1157 23.4782 42.0417 23.6295 41.9742C24.2786 41.6588 24.4409 41.6387 26.4319 41.5968L28.3482 41.5567L28.649 41.3506C28.8222 41.2285 28.9918 41.017 29.1176 40.7909V39.4052C28.9662 39.1281 28.7402 38.9002 28.4703 38.7762C28.2187 38.6613 27.9799 38.6467 25.9615 38.6467H23.7334L23.1664 39.0788C23.1026 39.1263 22.9075 39.2776 22.6012 39.5128C21.3997 40.4317 18.5061 42.647 15.3063 45.0938C11.2969 48.1624 7.61569 50.9757 7.13981 51.3385C5.6265 52.4963 5.44234 52.551 2.97545 52.551C1.38556 52.551 1.25063 52.5583 0.978967 52.6951C0.698182 52.8318 0.483036 53.0433 0.34082 53.2895V54.7554C0.386402 54.8356 0.439277 54.914 0.499445 54.9887C0.909682 55.481 0.977143 55.4956 3.56072 55.4956V55.492Z" fill="black"/>
<path d="M28.9316 42.3536L28.9152 42.3627L28.4703 42.5815L26.5541 42.6161C24.8511 42.6489 24.6123 42.669 24.3041 42.7948C23.9978 42.9169 20.8818 45.2799 6.77151 56.081C6.19171 56.5259 6.16436 56.5259 3.41122 56.5058L0.922445 56.4858L0.526794 56.287C0.464803 56.256 0.402812 56.2177 0.34082 56.1795V57.0947C0.519501 57.1713 0.701829 57.2315 0.887803 57.2734C1.154 57.3281 2 57.35 3.75217 57.3281L6.24094 57.3081L6.61471 57.1276C6.82621 57.0254 10.6988 54.1082 15.5998 50.3614C20.3367 46.7385 24.3242 43.7046 24.4609 43.6226C24.6998 43.4785 24.8146 43.473 26.6562 43.4366C28.4266 43.4038 28.6326 43.3837 28.959 43.2506C29.0118 43.2305 29.0647 43.2087 29.1158 43.1831V42.2478C29.0611 42.2806 29.0045 42.3134 28.948 42.3426L28.9298 42.3517L28.9316 42.3536Z" fill="black"/>
<path d="M24.9386 44.5396C24.8037 44.6161 21.6002 47.0539 11.7946 54.5657C7.41878 57.9151 7.34949 57.9625 6.78428 58.1831C6.39045 58.3253 6.28105 58.3326 3.69565 58.3527C1.55148 58.3673 0.88598 58.3636 0.34082 58.1977V59.474H29.1176V44.2825C28.6144 44.4374 28.051 44.4666 26.7382 44.4666C25.6388 44.4666 25.0334 44.4921 24.9368 44.5414L24.9386 44.5396Z" fill="black"/>
<path d="M16.6227 32.7959C16.0374 32.5498 15.2461 32.7339 14.8851 33.208C14.3746 33.8862 14.4147 34.6538 14.9945 35.2282C15.4977 35.735 16.0775 35.8317 16.712 35.5089C17.2444 35.2427 17.476 34.8799 17.5088 34.2691C17.5288 33.899 17.5088 33.7477 17.3994 33.5362C17.2225 33.1934 16.9436 32.9272 16.6227 32.7977V32.7959Z" fill="black"/>
<path d="M9.00867 41.3288C10.0844 40.7599 10.0716 39.1773 8.98132 38.6522C8.38876 38.3623 7.61204 38.5155 7.18175 39.0078C6.90279 39.3305 6.80069 39.666 6.8335 40.1583C6.87362 40.6998 7.12705 41.0754 7.6321 41.3288C8.12803 41.5822 8.5255 41.5822 9.00867 41.3288Z" fill="black"/>
<path d="M6.75146 48.0203L9.88567 45.6227V44.7183C9.88567 43.958 9.86014 43.7666 9.74345 43.5058C9.57389 43.1229 9.38244 42.9169 9.04149 42.7382C8.89198 42.6617 8.59843 42.5887 8.3924 42.5687C7.75244 42.5213 7.10517 42.9297 6.83897 43.5551C6.76969 43.7246 6.74963 44.2734 6.74963 45.8962V48.0203H6.75146Z" fill="black"/>
<path d="M48.7707 21.3439H38.1902V0.773682H33.8216V24.7735H48.7707V21.3439Z" fill="black"/>
<path d="M51.9705 5.12767C52.7673 5.12767 53.4164 4.887 53.9159 4.40747C54.4392 3.92795 54.7018 3.32263 54.7018 2.59149C54.7018 1.86036 54.4392 1.26415 53.9159 0.806505C53.4164 0.326984 52.7673 0.0881348 51.9705 0.0881348C51.1737 0.0881348 50.5137 0.326984 49.9923 0.806505C49.4927 1.26415 49.2392 1.85854 49.2392 2.59149C49.2392 3.32445 49.4909 3.92795 49.9923 4.40747C50.5155 4.887 51.1737 5.12767 51.9705 5.12767Z" fill="black"/>
<path d="M54.1548 7.76782H49.7862V24.7735H54.1548V7.76782Z" fill="black"/>
<path d="M54.2769 11.4362H56.598V24.7735H60.9665V11.4362H66.8503V18.8442C66.8503 21.0594 67.3845 22.6038 68.4547 23.4716C69.5232 24.3413 70.9453 24.7735 72.7194 24.7735H75.6895V21.0357H73.5745C72.7084 21.0357 72.094 20.8881 71.7312 20.589C71.3902 20.27 71.2206 19.6975 71.2206 18.8752V11.4344H75.7934V7.76595H71.2206V3.20594H67.3626L66.8521 7.76595H60.9684V5.77858C60.9684 5.06932 61.127 4.5661 61.4461 4.27073C61.7651 3.97171 62.2975 3.82403 63.0487 3.82403H64.243V0.0881348H62.3668C60.5928 0.0881348 59.1816 0.522074 58.135 1.38995C57.1103 2.25966 56.5998 3.72192 56.5998 5.77858V7.76595H54.2788V11.4344L54.2769 11.4362Z" fill="black"/>
<path d="M110.337 24.7735H114.93V32.3163H119.299V22.4415C119.889 23.3112 120.664 23.984 121.618 24.4653C122.573 24.9448 123.689 25.1855 124.964 25.1855C126.555 25.1855 127.977 24.8081 129.228 24.0533C130.479 23.2765 131.471 22.2245 132.198 20.9008C132.926 19.5516 133.29 18.02 133.29 16.3062C133.29 14.5923 132.928 13.0607 132.198 11.7115C131.471 10.3623 130.479 9.30114 129.228 8.5226C127.977 7.74589 126.555 7.35753 124.964 7.35753C123.53 7.35753 122.356 7.64196 121.446 8.21447C120.558 8.78515 119.842 9.44883 119.297 10.2018L118.819 7.76777H115.045H110.335L106.071 13.8028L101.771 7.76777H97.0947L103.239 16.2715L97.5688 24.1189V21.2436H86.3411V14.3188H96.5441V10.8892H86.3411V4.30537H97.5688V0.773682H81.9725V24.7735H101.771L106.071 18.7384L110.335 24.7735H110.337ZM120.56 12.6377C121.47 11.6787 122.632 11.1973 124.041 11.1973C125.45 11.1973 126.577 11.6769 127.489 12.6377C128.399 13.5968 128.853 14.8202 128.853 16.3062C128.853 17.7921 128.399 19.0046 127.489 19.9418C126.577 20.8771 125.428 21.3457 124.041 21.3457C122.653 21.3457 121.47 20.8771 120.56 19.9418C119.672 18.9809 119.229 17.7575 119.229 16.2715C119.229 14.7856 119.672 13.5767 120.56 12.6377ZM114.93 7.93004V24.613L108.871 16.2733L114.93 7.93186V7.93004Z" fill="black"/>
<path d="M146.815 8.48797C145.519 7.73313 144.062 7.35571 142.447 7.35571C140.831 7.35571 139.331 7.73313 138.011 8.48797C136.715 9.2428 135.679 10.293 134.906 11.6404C134.131 12.9678 133.744 14.5102 133.744 16.2697C133.744 18.0292 134.12 19.5826 134.871 20.9318C135.646 22.2592 136.68 23.2984 137.976 24.0514C139.298 24.8063 140.775 25.1837 142.414 25.1837C144.053 25.1837 145.497 24.8063 146.815 24.0514C148.136 23.2966 149.171 22.2573 149.921 20.9318C150.695 19.5826 151.082 18.031 151.082 16.2697C151.082 14.5084 150.695 12.9659 149.921 11.6404C149.169 10.2912 148.134 9.24098 146.815 8.48797ZM145.384 20.1095C144.542 20.9555 143.552 21.3785 142.414 21.3785C141.276 21.3785 140.286 20.9555 139.444 20.1095C138.625 19.2398 138.215 17.9617 138.215 16.2715C138.215 14.5814 138.625 13.3105 139.444 12.4645C140.286 11.5967 141.287 11.1627 142.447 11.1627C143.607 11.1627 144.54 11.5985 145.384 12.4645C146.225 13.3105 146.646 14.5795 146.646 16.2715C146.646 17.9635 146.225 19.2416 145.384 20.1095Z" fill="black"/>
<path d="M71.4176 44.8695V42.3352H57.1103V45.5442H66.3306L56.9171 56.9323V57.0509L47.87 37.0112H43.764L33.6594 59.4667H37.9586L40.183 54.2704H51.4144L53.6461 59.4667H71.7056V56.2577H62.004L71.4176 44.8695ZM41.5833 50.9958L45.7878 41.1683L50.0087 50.9958H41.5833Z" fill="black"/>
<path d="M84.9226 43.2324C83.6189 42.5049 82.1312 42.1421 80.4647 42.1421C78.7982 42.1421 77.2302 42.5159 75.8937 43.2652C74.5573 44.0146 73.5089 45.0447 72.7504 46.3611C71.9901 47.6776 71.6127 49.1891 71.6127 50.9011C71.6127 52.6132 72.0029 54.0991 72.7832 55.4247C73.5636 56.7502 74.6648 57.7931 76.087 58.5516C77.5091 59.3119 79.172 59.6893 81.0755 59.6893C82.5724 59.6893 83.9034 59.4486 85.0684 58.9673C86.2335 58.4859 87.2017 57.7967 87.9711 56.8979L85.8215 54.4273C85.2216 55.0691 84.5379 55.5395 83.7685 55.8385C82.999 56.1376 82.133 56.2871 81.1703 56.2871C80.0581 56.2871 79.0735 56.0737 78.2184 55.6453C77.3633 55.2186 76.6996 54.6078 76.2292 53.8165C75.9338 53.3188 75.7424 52.77 75.6312 52.181H89.0596C89.0796 51.9878 89.0961 51.7854 89.107 51.5721C89.1179 51.3587 89.1234 51.1655 89.1234 50.9941C89.1234 49.1982 88.7496 47.6374 88.0003 46.3101C87.2509 44.9846 86.2244 43.9581 84.9208 43.2306L84.9226 43.2324ZM75.5947 49.5209C75.6859 48.8773 75.8646 48.292 76.149 47.7724C76.5665 47.0139 77.1445 46.4195 77.8811 45.9928C78.6177 45.5644 79.4801 45.3511 80.4629 45.3511C81.4456 45.3511 82.2752 45.5644 83.0136 45.9928C83.752 46.4213 84.3337 47.0084 84.7621 47.7578C85.063 48.2865 85.2471 48.8773 85.3255 49.5227H75.5929L75.5947 49.5209Z" fill="black"/>
<path d="M94.6753 44.8442V42.3354H90.8573V59.465H94.8667V51.1564C94.8667 49.4024 95.3152 48.0823 96.2141 47.1944C97.113 46.3064 98.32 45.8634 99.8388 45.8634C99.9883 45.8634 100.138 45.8689 100.287 45.8798C100.437 45.8907 100.597 45.9181 100.769 45.96V42.1421C99.1222 42.1421 97.7475 42.4411 96.6462 43.0391C95.8239 43.4858 95.1676 44.0875 94.6734 44.8424L94.6753 44.8442Z" fill="black"/>
<path d="M116.022 43.2323C114.728 42.5049 113.236 42.142 111.548 42.142C110.159 42.142 108.891 42.4575 107.746 43.0883C107.112 43.4384 106.552 43.8924 106.062 44.443V35.6621H102.052V59.465H105.87V57.1968C106.381 57.8258 106.979 58.3382 107.666 58.7265C108.8 59.3683 110.093 59.6892 111.548 59.6892C113.236 59.6892 114.729 59.3209 116.022 58.5825C117.315 57.8441 118.343 56.823 119.102 55.5194C119.86 54.2158 120.239 52.6751 120.239 50.901C120.239 49.127 119.86 47.5863 119.102 46.2827C118.341 44.979 117.315 43.9617 116.022 43.236V43.2323ZM115.493 53.7545C115.045 54.5677 114.44 55.1876 113.681 55.6142C112.923 56.0427 112.062 56.256 111.099 56.256C110.137 56.256 109.271 56.0427 108.501 55.6142C107.732 55.1876 107.121 54.5658 106.672 53.7545C106.224 52.9413 106 51.9895 106 50.8992C106 49.8089 106.224 48.8298 106.672 48.0276C107.121 47.2253 107.732 46.6109 108.501 46.1824C109.271 45.7539 110.137 45.5406 111.099 45.5406C112.062 45.5406 112.923 45.7539 113.681 46.1824C114.44 46.6109 115.045 47.2253 115.493 48.0276C115.942 48.8298 116.166 49.787 116.166 50.8992C116.166 52.0114 115.942 52.9413 115.493 53.7545Z" fill="black"/>
<path d="M134.018 43.9233C132.66 42.7364 130.74 42.1438 128.26 42.1438C126.891 42.1438 125.571 42.3207 124.298 42.6725C123.025 43.0244 121.93 43.555 121.011 44.2606L122.582 47.1797C123.224 46.6455 124.01 46.2279 124.94 45.9289C125.87 45.6299 126.816 45.4804 127.779 45.4804C129.212 45.4804 130.28 45.8068 130.988 46.4577C131.693 47.1104 132.045 48.0257 132.045 49.1999V49.457H127.618C125.886 49.457 124.495 49.6812 123.448 50.1297C122.4 50.5783 121.647 51.1891 121.188 51.9585C120.728 52.7279 120.498 53.594 120.498 54.5567C120.498 55.5193 120.759 56.4219 121.284 57.2022C121.807 57.9826 122.551 58.5916 123.514 59.031C124.477 59.4686 125.6 59.6892 126.883 59.6892C128.402 59.6892 129.658 59.412 130.652 58.8559C131.34 58.4712 131.876 57.9789 132.273 57.3809V59.4649H136.058V49.4241C136.058 46.9427 135.38 45.1103 134.022 43.9233H134.018ZM132.045 54.1081C131.702 54.9851 131.141 55.6488 130.36 56.0973C129.58 56.5459 128.698 56.7701 127.713 56.7701C126.728 56.7701 125.884 56.5568 125.308 56.1283C124.73 55.6998 124.442 55.1237 124.442 54.3962C124.442 53.7544 124.677 53.2147 125.148 52.7753C125.618 52.3377 126.537 52.1171 127.906 52.1171H132.045V54.1063V54.1081Z" fill="black"/>
<path d="M141.092 39.6078C141.734 39.6078 142.274 39.3944 142.713 38.966C143.151 38.5375 143.371 37.9923 143.371 37.3305C143.371 36.6686 143.153 36.1235 142.713 35.695C142.274 35.2665 141.734 35.0532 141.092 35.0532C140.45 35.0532 139.883 35.2665 139.457 35.695C139.028 36.1235 138.815 36.6686 138.815 37.3305C138.815 37.9923 139.028 38.5393 139.457 38.966C139.885 39.3944 140.43 39.6078 141.092 39.6078Z" fill="black"/>
<path d="M143.08 42.3352H139.07V59.4649H143.08V42.3352Z" fill="black"/>
<path d="M148.405 34.6993C147.656 34.6993 147.042 34.9291 146.56 35.3885C146.079 35.848 145.838 36.4205 145.838 37.1042C145.838 37.788 146.079 38.3331 146.56 38.8035C147.042 39.2739 147.656 39.5091 148.405 39.5091C149.155 39.5091 149.795 39.2685 150.267 38.7871C150.737 38.3058 150.973 37.7132 150.973 37.0076C150.973 36.3439 150.732 35.7933 150.251 35.3557C149.769 34.9181 149.155 34.6975 148.405 34.6975V34.6993Z" fill="black"/>
<path d="M146.416 59.8807C146.416 60.7796 146.212 61.4578 145.807 61.9173C145.401 62.3768 144.834 62.6065 144.108 62.6065C143.167 62.6065 142.387 62.3822 141.767 61.9337L140.613 64.9166C141.083 65.2575 141.656 65.5092 142.328 65.6696C143.001 65.83 143.712 65.9103 144.462 65.9103C146.365 65.9103 147.835 65.3596 148.872 64.2584C149.91 63.1571 150.427 61.6657 150.427 59.7841V42.3335H146.418V59.8807H146.416Z" fill="black"/>
<path d="M165.872 43.9233C164.514 42.7364 162.594 42.1438 160.114 42.1438C158.745 42.1438 157.425 42.3207 156.152 42.6725C154.88 43.0244 153.784 43.555 152.865 44.2606L154.437 47.1797C155.079 46.6455 155.864 46.2279 156.794 45.9289C157.724 45.6299 158.67 45.4804 159.633 45.4804C161.066 45.4804 162.135 45.8068 162.842 46.4577C163.548 47.1104 163.9 48.0257 163.9 49.1999V49.457H159.473C157.741 49.457 156.349 49.6812 155.303 50.1297C154.254 50.5783 153.501 51.1891 153.042 51.9585C152.583 52.7279 152.353 53.594 152.353 54.5567C152.353 55.5193 152.614 56.4219 153.139 57.2022C153.662 57.9826 154.406 58.5916 155.368 59.031C156.331 59.4686 157.454 59.6892 158.738 59.6892C160.257 59.6892 161.513 59.412 162.507 58.8559C163.194 58.4712 163.73 57.9789 164.127 57.3809V59.4649H167.913V49.4241C167.913 46.9427 167.234 45.1103 165.876 43.9233H165.872ZM163.9 54.1081C163.557 54.9851 162.995 55.6488 162.215 56.0973C161.435 56.5459 160.552 56.7701 159.567 56.7701C158.583 56.7701 157.739 56.5568 157.163 56.1283C156.586 55.6998 156.297 55.1237 156.297 54.3962C156.297 53.7544 156.532 53.2147 157.002 52.7753C157.473 52.3377 158.391 52.1171 159.761 52.1171H163.9V54.1063V54.1081Z" fill="black"/>
<path d="M186.867 45.3985C186.247 44.2972 185.396 43.4786 184.317 42.9443C183.237 42.4101 182.012 42.1421 180.645 42.1421C179.148 42.1421 177.826 42.4356 176.683 43.0246C175.911 43.422 175.266 43.9362 174.743 44.5616V42.3354H170.925V59.465H174.934V50.8045C174.934 49.6503 175.131 48.6931 175.527 47.9328C175.922 47.1743 176.484 46.6018 177.211 46.2171C177.939 45.8324 178.772 45.6391 179.713 45.6391C180.996 45.6391 181.996 46.0129 182.712 46.7623C183.429 47.5116 183.786 48.6439 183.786 50.1627V59.465H187.795V49.6485C187.795 47.9164 187.485 46.4997 186.866 45.3985H186.867Z" fill="black"/>
</g>
<defs>
<clipPath id="clip0_74_966">
<rect width="187.456" height="65.8239" fill="white" transform="translate(0.340698 0.0881348)"/>
</clipPath>
</defs>
</svg>
