<svg width="205" height="58" viewBox="0 0 205 58" fill="none" xmlns="http://www.w3.org/2000/svg">
<path d="M82.1931 34.2156H75.2288V45.626H82.1931C85.6753 45.626 88.5357 43.7294 88.5357 39.9208C88.5357 36.1277 85.6753 34.2156 82.1931 34.2156ZM82.1931 47.2116H75.2288V57.6737H73.3322V32.6455H82.1931C86.95 32.6455 90.4322 34.8685 90.4322 39.9363C90.4322 45.0041 86.9345 47.2116 82.1931 47.2116Z" fill="black"/>
<path d="M102.138 42.7811C101.19 41.8329 99.9149 41.1955 98.3448 41.1955C96.7747 41.1955 95.5 41.8329 94.5362 42.7811C92.9506 44.3668 92.6396 46.5898 92.6396 48.7972C92.6396 51.0047 92.9506 53.2277 94.5362 54.8133C96.1218 56.399 96.7592 56.3989 98.3448 56.3989C99.9305 56.3989 101.19 55.7616 102.138 54.8133C103.724 53.2277 104.361 51.0047 104.361 48.7972C104.361 46.5898 103.724 44.3668 102.138 42.7811ZM103.413 55.7616C102.153 57.0208 100.568 57.9846 98.3448 57.9846C96.1218 57.9846 94.5362 57.0363 93.277 55.7616C91.3805 54.1759 90.7431 51.642 90.7431 48.7972C90.7431 45.9524 91.3805 43.4185 93.277 41.5064C94.5362 40.2317 96.1218 39.6099 98.3448 39.6099C100.568 39.6099 102.138 40.2472 103.413 41.5064C105.309 43.4029 105.947 45.626 105.947 48.7972C105.947 51.642 105.309 54.1915 103.413 55.7616Z" fill="black"/>
<path d="M112.911 57.6736C110.377 57.6736 109.118 56.7253 109.118 54.1914V32.0081H111.014V53.865C111.014 55.1397 111.325 56.088 112.911 56.088H114.497V57.6736C113.859 57.6736 113.548 57.6736 112.911 57.6736Z" fill="black"/>
<path d="M128.114 48.4862L121.787 48.7971C119.253 49.1081 117.357 50.3828 117.357 52.6058C117.357 54.8288 119.253 56.4144 121.787 56.4144C126.218 56.4144 128.114 52.9322 128.114 49.4501V48.4862ZM130.648 57.6736C128.752 57.6736 128.114 56.088 128.114 54.1914C127.166 56.7253 124.321 58.0001 121.787 58.0001C119.253 58.0001 115.771 56.1035 115.771 52.6058C115.771 49.1081 117.994 47.538 121.476 47.2271L128.13 46.9161V45.3305C128.13 42.1592 125.907 41.211 123.373 41.211C120.839 41.211 118.616 42.4857 118.305 45.0196H116.409C116.72 41.5374 119.58 39.6409 123.373 39.6409C127.166 39.6409 128.441 40.2782 129.389 42.8121C129.7 43.7604 129.7 45.0351 129.7 46.2943V54.2225C129.7 55.4972 130.011 56.119 131.286 56.119H131.597V57.7047C131.389 57.684 131.073 57.6736 130.648 57.6736Z" fill="black"/>
<path d="M146.8 57.6735V45.9522C146.8 43.1074 145.525 41.1953 142.37 41.1953C139.214 41.1953 136.353 45.004 136.353 48.7971V57.6735H134.768V39.9362H136.353V43.1074C137.302 40.8844 139.836 39.6252 142.37 39.6252C146.489 39.6252 148.697 42.1592 148.697 45.9678V57.6891H146.8V57.6735Z" fill="black"/>
<path d="M161.677 42.4546C160.729 41.8172 159.454 41.1799 157.884 41.1799C156.314 41.1799 155.039 41.8172 154.091 42.7655C152.816 44.3511 152.194 46.5741 152.194 48.7816C152.194 50.9891 152.832 53.5385 154.402 55.1241C155.35 55.7615 156.625 56.3989 157.884 56.3989C159.143 56.3989 160.729 55.7615 161.677 54.8132C163.263 53.2276 163.9 51.3311 163.9 48.7971C163.9 46.2632 163.263 44.0402 161.677 42.4546ZM163.9 57.6736V54.5023C162.952 56.7253 160.418 57.9845 157.884 57.9845C155.35 57.9845 154.402 57.3471 153.453 56.3989C151.23 54.5023 150.282 51.9684 150.282 48.7971C150.282 45.6259 151.23 43.092 153.127 41.1954C154.386 40.2471 155.972 39.6098 157.884 39.6098C159.796 39.6098 162.952 40.869 163.9 42.7811V32.0081H165.486V57.6736H163.9Z" fill="black"/>
<path d="M73.3167 25.992V0.948242H78.0736V21.546H89.4684V25.992H73.3167Z" fill="black"/>
<path d="M92.3288 25.9921V7.61736H96.7592V25.9921H92.3288ZM92.0023 5.0679V0.637451H96.7592V5.0679H92.0023Z" fill="black"/>
<path d="M109.429 3.80872C107.843 3.80872 107.221 4.75699 107.221 6.03172V7.61735H111.978V11.426H107.221V25.9921H102.791V11.426H99.6196V7.61735H102.791V6.03172C102.791 2.54954 105.014 0.015625 109.133 0.015625C113.253 0.015625 111.03 0.326535 112.305 0.652989V4.13517C111.636 3.80871 110.688 3.80872 109.429 3.80872Z" fill="black"/>
<path d="M121.461 26.3028C117.668 26.3028 115.756 24.0798 115.756 20.5977V11.4103H112.584V7.60166H115.756V2.84476L120.186 1.89648V7.60166H124.943V11.4103H120.186V20.2868C120.186 21.5615 120.824 22.1833 122.409 22.1833C123.995 22.1833 123.995 22.1833 125.254 21.8724V25.681C123.995 25.9919 122.736 26.3028 121.461 26.3028Z" fill="black"/>
<path d="M128.752 25.992V0.948242H146.474V5.06779H133.182V10.773H144.903V14.8925H133.182V21.8724H146.474V25.992H128.752Z" fill="black"/>
<path d="M159.143 16.789L165.486 25.9919H160.729L156.609 19.9603L152.49 25.9919H147.748L154.075 16.4781L147.748 7.61719H152.816L156.936 13.6333L160.729 7.61719H165.486L159.143 16.789Z" fill="black"/>
<path d="M179.414 12.3587C178.777 11.4104 177.829 10.773 176.57 10.773C173.087 10.773 172.139 14.2552 172.139 16.7891C172.139 19.323 173.087 22.8052 176.57 22.8052C180.052 22.8052 178.777 22.1678 179.414 21.2196C180.363 19.9448 180.689 18.3748 180.689 16.7891C180.689 15.2035 180.363 13.6334 179.414 12.3587ZM181.637 25.0438C180.689 25.992 179.103 26.3185 177.207 26.3185C175.31 26.3185 173.414 25.6811 172.45 24.7328V32.9719H168.02V7.63285H171.828L172.139 9.5294C173.414 7.94376 175.31 7.3064 177.207 7.3064C179.103 7.3064 180.689 7.94376 181.637 8.89203C183.86 10.4777 185.12 13.3225 185.12 16.8047C185.12 20.2868 183.845 23.1317 181.637 25.0438Z" fill="black"/>
<path d="M199.048 12.0478C198.411 11.4104 197.463 11.0995 196.203 11.0995C194.944 11.0995 193.98 11.4104 193.359 12.0478C192.41 13.3225 192.084 15.219 192.084 16.8047C192.084 18.3903 192.395 20.2868 193.359 21.5616C193.996 22.1989 194.944 22.5098 196.203 22.5098C197.463 22.5098 198.426 22.1989 199.048 21.5616C199.997 20.2868 200.307 18.3903 200.307 16.8047C200.307 15.219 199.997 13.3069 199.048 12.0478ZM202.53 23.4581C201.256 25.0438 199.048 26.3029 196.203 26.3029C193.359 26.3029 191.136 25.0282 189.861 23.4581C188.275 21.8725 187.638 19.9759 187.638 16.8047C187.638 13.6334 188.275 11.7369 189.861 10.1512C191.136 8.56558 193.343 7.3064 196.203 7.3064C199.064 7.3064 201.271 8.58112 202.53 10.1512C204.116 11.7369 204.753 13.6334 204.753 16.8047C204.753 19.9759 204.116 21.8725 202.53 23.4581Z" fill="black"/>
<path d="M54.9575 54.1915H4.59021V3.80864H54.9419V54.1915H54.9575ZM0.797119 0V57.9845H58.7506V0H0.797119Z" fill="black"/>
<path d="M14.7259 24.7174L29.9293 10.7732L45.1328 24.7174H14.7259ZM50.2006 26.614L29.9293 8.23926L9.65805 26.614H50.2006Z" fill="black"/>
<path d="M14.7259 33.2671H45.1328L29.9293 47.2114L14.7259 33.2671ZM9.65805 31.3706L29.9293 50.0718L50.2006 31.3706H9.65805Z" fill="black"/>
</svg>
