<svg width="209" height="66" viewBox="0 0 209 66" fill="none" xmlns="http://www.w3.org/2000/svg">
<g clip-path="url(#clip0_74_910)">
<path d="M23.1777 56.3766C23.1777 58.3373 22.7634 59.7181 21.935 60.5742C21.1065 61.4302 19.9467 61.8721 18.4554 61.8721C16.9642 61.8721 15.8043 61.4302 14.9758 60.5742C14.1474 59.7181 13.7331 58.3097 13.7331 56.3766V45.0818H8.81755V56.5423C8.81755 59.5524 9.67364 61.8445 11.3582 63.4738C13.0427 65.1031 15.4177 65.904 18.4278 65.904C21.4379 65.904 23.7852 65.1031 25.4974 63.4738C27.182 61.8445 28.038 59.5524 28.038 56.5423V45.0818H23.2053V56.3766H23.1777Z" fill="black"/>
<path d="M49.5783 48.1471V45.0818H31.7386V48.948H43.1162L31.4624 62.4796V65.545H50.0201V61.7064H37.9797L49.5783 48.1471Z" fill="black"/>
<path d="M69.3511 55.1065C69.1578 55.0236 68.9645 54.9684 68.7435 54.9132C69.572 54.4989 70.2348 53.9466 70.7319 53.2286C71.2842 52.4278 71.5603 51.5164 71.5603 50.4394C71.5603 48.8377 70.8976 47.5674 69.5444 46.5732C68.1912 45.6067 66.2029 45.1096 63.5242 45.1096H53.1683V65.5728H64.1317C66.9209 65.5728 69.0197 65.0757 70.4557 64.1092C71.8917 63.115 72.6097 61.7618 72.6097 59.9944C72.6097 58.227 72.3336 57.8128 71.7536 56.9843C71.1737 56.1559 70.3729 55.5207 69.3511 55.1065ZM62.9166 48.6444C64.1041 48.6444 65.0154 48.8377 65.6506 49.252C66.2857 49.6386 66.6171 50.2461 66.6171 51.047C66.6171 51.8478 66.2857 52.483 65.6506 52.8696C65.0154 53.2562 64.1041 53.4772 62.9166 53.4772H58.0287V48.6444H62.9166ZM66.6447 61.4028C65.982 61.7895 65.0154 62.0104 63.7451 62.0104H58.0287V56.9567H63.7451C65.0154 56.9567 65.982 57.1777 66.6447 57.5919C67.3075 58.0061 67.6389 58.6413 67.6389 59.4974C67.6389 60.3535 67.3075 60.9886 66.6447 61.4028Z" fill="black"/>
<path d="M81.2257 57.0117H91.0569V53.3389H81.2257V48.8927H92.3272V45.0818H76.3102V65.545H92.7415V61.7616H81.2257V57.0117Z" fill="black"/>
<path d="M116.353 45.0818H110.94L101.551 54.6368V45.0818H96.6353V65.545H101.551V60.3809L104.368 57.5364L111.189 65.545H116.878L107.599 54.1949L116.353 45.0818Z" fill="black"/>
<path d="M124.002 45.0818H119.087V65.545H124.002V45.0818Z" fill="black"/>
<path d="M142.505 55.2168C141.787 54.7749 140.986 54.4435 140.102 54.195C139.219 53.9465 138.335 53.7255 137.479 53.5322C136.595 53.3389 135.794 53.1456 135.076 52.9523C134.358 52.759 133.751 52.5105 133.309 52.1791C132.867 51.8477 132.646 51.4334 132.646 50.9087C132.646 50.3841 132.784 50.0527 133.033 49.7213C133.281 49.3899 133.723 49.1137 134.331 48.8928C134.938 48.6719 135.711 48.5614 136.65 48.5614C137.589 48.5614 138.556 48.6995 139.55 48.948C140.544 49.2242 141.538 49.6108 142.505 50.1631L144.024 46.5731C143.03 45.9655 141.897 45.5237 140.599 45.2199C139.301 44.9162 138.003 44.7781 136.65 44.7781C134.662 44.7781 132.977 45.0542 131.679 45.6342C130.354 46.2141 129.36 46.9873 128.725 47.9539C128.062 48.9204 127.73 49.9974 127.73 51.1573C127.73 52.3171 127.951 53.1456 128.421 53.836C128.863 54.5264 129.47 55.1063 130.188 55.5206C130.906 55.9624 131.707 56.2938 132.591 56.57C133.475 56.8461 134.358 57.067 135.214 57.2603C136.098 57.4537 136.899 57.647 137.617 57.8403C138.335 58.0336 138.942 58.3097 139.384 58.6411C139.826 58.9725 140.047 59.3867 140.047 59.9391C140.047 60.4914 139.909 60.7399 139.633 61.0713C139.357 61.4027 138.915 61.6512 138.307 61.8445C137.7 62.0379 136.926 62.1207 135.96 62.1207C134.993 62.1207 133.419 61.9274 132.177 61.5132C130.934 61.1265 129.857 60.6018 128.946 59.9667L127.289 63.5291C128.228 64.2195 129.498 64.7994 131.044 65.2413C132.591 65.6831 134.22 65.904 135.932 65.904C137.644 65.904 139.633 65.6003 140.931 65.0203C142.256 64.4404 143.25 63.6672 143.913 62.7006C144.576 61.7341 144.907 60.6847 144.907 59.5524C144.907 58.4202 144.686 57.5917 144.217 56.9013C143.803 56.2109 143.223 55.631 142.505 55.2168Z" fill="black"/>
<path d="M164.1 45.0818H145.598V48.948H152.419V65.545H157.334V48.948H164.1V45.0818Z" fill="black"/>
<path d="M172.33 45.0818L162.885 65.545H167.911L169.789 61.1541H179.62L181.498 65.545H186.635L177.162 45.0818H172.33ZM171.363 57.5641L174.732 49.7212L178.101 57.5641H171.363Z" fill="black"/>
<path d="M203.453 45.0818V57.5088L192.903 45.0818H188.872V65.545H193.732V53.1456L204.281 65.545H208.341V45.0818H203.453Z" fill="black"/>
<path d="M8.0443 17.8528C8.18237 14.3732 9.89454 11.3907 13.3465 9.6233C16.8261 7.82828 20.278 8.2149 23.5091 10.4242C23.9509 10.7279 24.1166 10.9765 23.7576 11.5012C20.278 16.4996 15.9976 20.6143 10.8059 23.8177C10.2535 24.1767 9.97739 24.1215 9.61839 23.5416C8.56899 21.9123 8.07191 20.1449 8.0443 17.8528Z" fill="black"/>
<path d="M4.04 31.9368C3.12868 31.8263 2.21737 31.7435 1.41651 31.2188C0.063347 30.3351 -0.157578 29.2581 0.808969 27.9602C0.974663 27.7392 1.16797 27.5735 1.30605 27.3802C1.66505 26.8279 1.9136 27.0212 1.96883 27.5183C2.1069 28.3468 2.6316 28.4848 3.32199 28.5125C5.2827 28.5953 6.99487 27.7116 8.73466 27.0212C9.5079 26.7174 10.2259 26.3032 10.9715 25.9166C11.4134 25.6957 11.7724 25.7233 12.1314 26.0823C12.5456 26.5241 12.9875 26.9384 13.4017 27.3526C13.8712 27.8221 13.8712 28.2363 13.236 28.5677C11.1925 29.5895 9.17651 30.7217 6.96726 31.4121C6.02833 31.7159 5.03416 31.7987 4.04 31.9368Z" fill="black"/>
<path d="M20.3885 30.5284C19.2287 30.3351 18.4002 29.5894 17.6822 28.761C17.3508 28.402 17.5993 27.9325 17.986 27.6563C19.6981 26.4413 21.3827 25.2262 22.9016 23.7902C23.3158 23.4035 23.7853 23.3759 24.3099 23.7902C26.4087 25.2814 26.464 25.7232 24.6413 27.5735C23.7024 28.5124 22.6806 29.3133 21.6036 30.0865C21.2446 30.3351 20.8304 30.4455 20.3885 30.556V30.5284Z" fill="black"/>
<path d="M15.8595 26.9106C15.0863 26.9106 13.5674 25.5022 13.5122 24.8394C13.5122 24.508 13.5951 24.2319 13.8712 24.011C15.5005 22.8511 17.047 21.5532 18.5659 20.2552C18.9525 19.9515 19.3943 19.8686 19.7533 20.1448C20.3609 20.5866 20.9132 21.0837 21.4379 21.6084C21.9626 22.1331 21.9074 22.4921 21.3827 22.9339C19.781 24.2871 18.124 25.5574 16.3566 26.6897C16.2185 26.8278 15.97 26.883 15.8595 26.9106Z" fill="black"/>
<path d="M26.7678 1.64237C27.1544 0.620593 27.9276 0.013049 28.6732 0.0958959C29.4465 0.206358 30.054 0.841518 30.1092 1.89091C30.3578 5.45333 29.9159 8.9329 28.618 12.2744C28.4247 12.7991 28.1209 12.8267 27.6791 12.5782C27.6238 12.5782 27.5962 12.5229 27.541 12.4953C25.746 11.4183 25.7736 11.4459 26.6573 9.54045C27.4305 7.88351 28.0933 6.17134 28.4799 4.3487C28.5628 3.9897 28.5904 3.60308 28.5628 3.24408C28.5628 1.89091 28.1762 1.53191 26.7678 1.64237Z" fill="black"/>
<path d="M27.5133 14.8149C27.4028 15.0634 27.2924 15.312 27.1819 15.5329C26.2706 17.2451 25.2212 18.8468 24.0061 20.3104C23.5919 20.8075 23.1776 20.8351 22.6806 20.4209C22.1835 20.0343 21.6864 19.62 21.2169 19.2334C20.7198 18.8192 20.6922 18.3773 21.1065 17.9078C22.3768 16.5271 23.509 15.0634 24.5584 13.517C24.6413 13.4065 24.7241 13.2684 24.8346 13.2132C25.2488 12.9923 25.6078 13.158 25.9668 13.4065C26.5468 13.8207 27.2648 14.014 27.5133 14.8149Z" fill="black"/>
<path d="M12.4904 34.1734C11.3029 34.1734 10.1707 33.6211 9.09369 33.0688C8.51376 32.765 8.90038 32.4613 9.287 32.2956C10.364 31.7709 11.4686 31.2738 12.5456 30.7491C13.2084 30.4177 13.8712 30.0863 14.5064 29.6721C15.1415 29.2855 15.6662 29.3407 16.2185 29.8102C16.8261 30.3349 17.4612 30.8043 18.0964 31.329C18.4278 31.6052 18.5382 31.9366 18.0964 32.1575C16.329 33.0688 14.6444 34.1182 12.4904 34.1734Z" fill="black"/>
<path d="M24.7242 32.9585C24.0062 32.8756 23.2882 32.5166 22.5978 32.1024C22.2388 31.8815 22.3769 31.4949 22.7082 31.2463C24.4756 30.0036 25.9669 28.4571 27.4581 26.9107C27.4581 26.9107 27.541 26.8278 27.5962 26.8002C28.0657 26.4412 29.6122 27.0487 30.2749 27.8496C30.7444 28.4295 30.3854 28.8161 29.9988 29.258C28.8389 30.5007 27.541 31.5777 26.0773 32.4614C25.6907 32.6823 25.3041 32.9585 24.7242 32.9585Z" fill="black"/>
<path d="M34.2515 20.3106C34.0306 22.3818 33.2021 24.3701 32.1527 26.248C31.9594 26.5793 31.6556 26.607 31.3242 26.5241C31.2138 26.5241 31.1309 26.4136 31.0205 26.3584C28.7836 24.9776 28.5627 25.3366 29.9711 22.9617C30.7167 21.719 31.3519 20.3934 31.9042 19.0403C32.2632 18.1842 32.705 18.1013 33.3954 18.7089C34.2239 19.4821 34.2515 19.565 34.2515 20.3106Z" fill="black"/>
<path d="M30.7996 17.2452C30.6615 18.046 30.2473 18.7917 29.9159 19.5373C29.4188 20.6143 28.8665 21.6361 28.2866 22.6578C27.7619 23.5692 27.0162 23.7349 26.1325 23.1273C26.0497 23.0721 25.9945 23.0168 25.9116 22.9892C24.6689 22.0779 24.6689 21.9951 25.6631 20.8076C26.7401 19.5097 27.6514 18.0736 28.4799 16.61C28.7008 16.1958 28.8389 15.5606 29.5017 15.8092C30.1368 16.0301 30.772 16.3615 30.7996 17.2452Z" fill="black"/>
<path d="M32.5669 10.0098C32.4012 11.5011 32.1527 12.9647 31.7661 14.4007C31.628 14.8978 31.3518 14.953 30.9376 14.7045C29.971 14.1798 29.8606 13.8208 30.2472 12.7714C30.7167 11.4735 31.0757 10.1479 31.3518 8.79474C31.407 8.5462 31.407 8.24243 31.7384 8.21481C32.0146 8.1872 32.0974 8.46336 32.2079 8.62905C32.5117 9.04328 32.6221 9.48513 32.5669 10.0098Z" fill="black"/>
<path d="M17.406 35.0296C17.2127 35.0296 16.909 35.1401 16.8261 34.8639C16.7157 34.5325 17.1023 34.4773 17.2956 34.3668C18.0412 33.9526 18.8144 33.566 19.5601 33.1517C20.1952 32.8204 21.576 33.1517 22.0179 33.7041C22.3216 34.1183 22.0179 34.2564 21.6589 34.3392C20.7752 34.5878 19.8638 34.7535 18.9525 34.8639C18.4554 34.9192 17.9584 34.9744 17.406 35.0296Z" fill="black"/>
<path d="M34.6105 16.5825C34.6105 16.7758 34.6934 17.052 34.4172 17.1901C34.1411 17.3281 34.0582 17.1072 33.8925 16.9967C33.2021 16.5825 32.926 16.0578 33.2297 15.2846C33.3954 14.8427 33.4783 14.3456 33.5887 13.8762C33.644 13.6829 33.644 13.4343 33.8925 13.4343C34.1411 13.4343 34.1963 13.6829 34.2239 13.8762C34.3896 14.7599 34.5001 15.6712 34.6105 16.5825Z" fill="black"/>
<path d="M24.6966 3.87935C24.2547 4.98397 23.8405 6.0886 23.3986 7.16561C23.3434 7.3313 23.2606 7.497 23.2053 7.63507C23.0949 7.91123 23.3158 8.27023 23.6196 8.35308C23.9509 8.43593 24.1995 8.24262 24.3376 7.93885C24.7794 6.83422 25.1937 5.7296 25.6355 4.65259C25.6907 4.48689 25.7736 4.3212 25.8288 4.18312C25.9393 3.90696 25.7184 3.54796 25.4146 3.46511C25.0832 3.40988 24.8346 3.57558 24.6966 3.87935Z" fill="black"/>
<path d="M19.0906 2.4708C18.9525 3.60304 18.7868 4.73528 18.6487 5.86752C18.6487 6.03321 18.5935 6.19891 18.5935 6.33699C18.5935 6.64076 18.8972 6.91692 19.1734 6.91692C19.4496 6.91692 19.6981 6.64076 19.7533 6.33699C19.8914 5.20475 20.0571 4.0725 20.1952 2.94026C20.1952 2.77457 20.2504 2.60888 20.2504 2.4708C20.2504 2.16703 19.9466 1.89087 19.6705 1.89087C19.3943 1.89087 19.1182 2.16703 19.0906 2.4708Z" fill="black"/>
<path d="M12.3523 3.10614C12.6285 4.15554 12.9046 5.23255 13.1532 6.28194C13.1532 6.42002 13.236 6.58571 13.2636 6.72379C13.3465 7.02756 13.6779 7.22087 13.9817 7.13803C14.2854 7.02756 14.4511 6.75141 14.3959 6.42002C14.1197 5.37063 13.8436 4.29362 13.595 3.24422C13.595 3.10614 13.5122 2.94045 13.4846 2.80237C13.4017 2.4986 13.0703 2.30529 12.7666 2.38814C12.4628 2.4986 12.2695 2.80237 12.3523 3.10614Z" fill="black"/>
<path d="M6.11115 6.47512C6.96724 7.35882 7.82332 8.24252 8.67941 9.09861C8.78987 9.20907 8.92795 9.34715 9.03841 9.45761C9.25934 9.67853 9.64596 9.67853 9.86688 9.45761C10.0878 9.23668 10.0878 8.87768 9.86688 8.62914C9.0108 7.74544 8.15471 6.86174 7.29863 6.00565L6.93962 5.64665C6.7187 5.42573 6.33208 5.42573 6.11115 5.64665C5.89023 5.86758 5.86261 6.22658 6.11115 6.47512Z" fill="black"/>
<path d="M1.94123 12.3573C3.1287 12.8268 4.28856 13.2963 5.47603 13.7657C5.64172 13.821 5.80742 13.9038 5.97311 13.959C6.24927 14.0695 6.60827 13.821 6.69112 13.5448C6.77396 13.2134 6.58066 12.9373 6.27688 12.8268C5.08941 12.3573 3.92955 11.8879 2.74208 11.4184C2.57639 11.3632 2.41069 11.2803 2.245 11.2251C1.96884 11.1146 1.60984 11.3632 1.52699 11.6393C1.44415 11.9707 1.63746 12.2469 1.94123 12.3573Z" fill="black"/>
<path d="M1.30608 19.2887C2.5764 19.2058 3.8191 19.1506 5.08942 19.0678C5.28273 19.0678 5.44843 19.0678 5.64174 19.0678C5.94551 19.0678 6.22166 18.8192 6.22166 18.4878C6.22166 18.1565 5.94551 17.8803 5.64174 17.9079C4.37142 17.9908 3.12871 18.046 1.85839 18.1288C1.66508 18.1288 1.49939 18.1288 1.30608 18.1288C1.00231 18.1288 0.726151 18.3774 0.726151 18.7088C0.726151 19.0402 1.00231 19.2887 1.30608 19.2887Z" fill="black"/>
<path d="M3.01827 25.2538C4.20574 24.8948 5.39321 24.5358 6.58069 24.1768C6.74638 24.1216 6.93969 24.0663 7.10538 24.0111C7.40916 23.9283 7.60247 23.5969 7.51962 23.2931C7.43677 22.9893 7.10538 22.796 6.80161 22.8789C5.61414 23.2379 4.42667 23.5969 3.23919 23.9559C3.0735 24.0111 2.88019 24.0663 2.7145 24.1216C2.41073 24.2044 2.21742 24.5358 2.30026 24.8396C2.38311 25.1433 2.7145 25.3367 3.01827 25.2538Z" fill="black"/>
<path d="M45.1045 11.8051C44.7455 11.9156 44.276 11.9708 43.7237 11.9708C43.1714 11.9708 42.2325 11.8604 41.4868 11.6118C40.7412 11.3633 40.1061 11.0595 39.5814 10.6729L38.5872 12.8545C39.1395 13.2964 39.8851 13.6278 40.7965 13.9039C41.7078 14.1801 42.6743 14.3182 43.6685 14.3182C44.6626 14.3182 45.8501 14.1525 46.6234 13.7935C47.3966 13.4345 48.0041 12.965 48.3908 12.3851C48.7774 11.8051 48.9707 11.1424 48.9707 10.452C48.9707 9.76158 48.8326 9.2645 48.5565 8.82265C48.2803 8.3808 47.9489 8.04941 47.5071 7.77326C47.0652 7.4971 46.5957 7.30379 46.071 7.1381C45.5463 6.9724 45.0216 6.83432 44.5246 6.72386C43.9999 6.6134 43.5304 6.47532 43.0886 6.36486C42.6467 6.2544 42.3153 6.0887 42.0392 5.89539C41.763 5.70208 41.6525 5.42593 41.6525 5.12215C41.6525 4.81838 41.7354 4.59746 41.8735 4.40415C42.0392 4.18322 42.2877 4.01753 42.6467 3.90707C43.0057 3.76899 43.4752 3.71376 44.0275 3.71376C44.5798 3.71376 45.1597 3.7966 45.7397 3.9623C46.3196 4.12799 46.8995 4.37653 47.5071 4.70792L48.3908 2.49867C47.8108 2.13967 47.1204 1.86351 46.3748 1.6702C45.6016 1.47689 44.8283 1.39404 44.0551 1.39404C42.8676 1.39404 41.9011 1.55974 41.1002 1.91874C40.327 2.27774 39.7194 2.74721 39.3328 3.32714C38.9462 3.90707 38.7529 4.56984 38.7529 5.28785C38.7529 6.00585 38.891 6.50294 39.1671 6.94479C39.4433 7.38664 39.7747 7.71802 40.2165 7.99418C40.6584 8.27034 41.1278 8.46365 41.6525 8.62934C42.1772 8.79503 42.7019 8.93311 43.199 9.04358C43.7237 9.15404 44.1932 9.2645 44.635 9.40258C45.0769 9.54066 45.4083 9.67873 45.6844 9.89966C45.9606 10.093 46.071 10.3691 46.071 10.7005C46.071 11.0319 45.9882 11.1976 45.8225 11.3909C45.712 11.529 45.4635 11.6947 45.1045 11.8051Z" fill="black"/>
<path d="M61.95 3.18887C61.3425 2.60894 60.6245 2.13948 59.7684 1.8357C58.9399 1.50432 58.0286 1.33862 57.0344 1.33862C56.0403 1.33862 55.1566 1.50432 54.3005 1.8357C53.472 2.16709 52.7264 2.60894 52.1189 3.18887C51.5113 3.7688 51.0142 4.45919 50.6828 5.26004C50.3515 6.0609 50.1858 6.91698 50.1858 7.8283C50.1858 8.73961 50.3515 9.62331 50.6828 10.3966C51.0142 11.1698 51.5113 11.8602 52.1189 12.4677C52.7264 13.0477 53.472 13.5171 54.3005 13.8209C55.129 14.1523 56.0679 14.318 57.0621 14.318C58.0562 14.318 58.9399 14.1523 59.7684 13.8209C60.5969 13.4895 61.3149 13.0477 61.95 12.4677C62.5576 11.8878 63.0546 11.1974 63.386 10.3966C63.745 9.5957 63.9107 8.73961 63.9107 7.80068C63.9107 6.86175 63.745 6.00567 63.386 5.20481C63.0546 4.45919 62.5576 3.7688 61.95 3.18887ZM60.7073 9.45762C60.514 9.9547 60.2379 10.3689 59.8789 10.7279C59.5198 11.0869 59.1056 11.3631 58.6361 11.5564C58.1667 11.7497 57.642 11.8326 57.0897 11.8326C56.5374 11.8326 56.0127 11.7497 55.5432 11.5564C55.0737 11.3631 54.6595 11.0869 54.3005 10.7279C53.9415 10.3689 53.6653 9.9547 53.472 9.45762C53.2787 8.96054 53.1683 8.40823 53.1683 7.8283C53.1683 7.24837 53.2787 6.69606 53.472 6.19898C53.6653 5.70189 53.9415 5.28766 54.3005 4.92866C54.6595 4.56965 55.0737 4.2935 55.5432 4.10019C56.0127 3.90688 56.5374 3.82403 57.0897 3.82403C57.642 3.82403 58.1667 3.90688 58.6361 4.10019C59.1056 4.2935 59.5198 4.56965 59.8789 4.92866C60.2379 5.28766 60.514 5.70189 60.7073 6.19898C60.9006 6.69606 61.0111 7.22075 61.0111 7.8283C61.0111 8.43584 60.9006 8.96054 60.7073 9.45762Z" fill="black"/>
<path d="M75.3159 11.7221H68.9919V1.55957H66.0923V14.0971H75.3159V11.7221Z" fill="black"/>
<path d="M79.4583 11.3908H85.2852L86.3898 14.0695H89.4276L83.8216 1.53198H80.9496L75.3712 14.0695H78.3537L79.4583 11.3908ZM82.358 4.40401L84.3463 9.20913H80.3696L82.358 4.40401Z" fill="black"/>
<path d="M99.0654 10.0652C99.8662 9.70618 100.501 9.18149 100.943 8.51871C101.385 7.85594 101.606 7.02747 101.606 6.11615C101.606 5.20483 101.385 4.34875 100.943 3.68597C100.501 2.99558 99.8662 2.47089 99.0654 2.11188C98.2645 1.75288 97.298 1.55957 96.1657 1.55957H90.7254V14.0971H93.6251V10.5899H96.2762L98.6787 14.0971H101.827L99.0654 10.0652ZM97.9884 4.48683C98.4302 4.87345 98.6511 5.39814 98.6511 6.08854C98.6511 6.77893 98.4302 7.30362 97.9884 7.69024C97.5465 8.07686 96.8837 8.27017 95.9724 8.27017H93.5975V3.9069H95.9724C96.8837 3.9069 97.5465 4.10021 97.9884 4.48683Z" fill="black"/>
<path d="M120.164 12.5229L118.7 11.1697C119.225 10.3412 119.611 9.40231 119.832 8.3253L117.596 7.63491C117.457 8.38053 117.237 9.01569 116.96 9.59562L114.668 7.46921C114.972 7.30352 115.248 7.13782 115.497 6.97213C116.049 6.58551 116.463 6.17128 116.712 5.75704C116.988 5.31519 117.098 4.84573 117.098 4.32103C117.098 3.79633 116.933 3.2164 116.629 2.77455C116.325 2.3327 115.911 2.00132 115.386 1.78039C114.862 1.55946 114.226 1.42139 113.508 1.42139C112.79 1.42139 112.045 1.55946 111.437 1.80801C110.857 2.05655 110.388 2.41555 110.084 2.88502C109.753 3.35448 109.587 3.87918 109.587 4.48672C109.587 5.09427 109.642 5.17711 109.753 5.48089C109.863 5.81227 110.056 6.14366 110.305 6.47505C110.471 6.69597 110.664 6.9169 110.885 7.13782C110.498 7.35875 110.139 7.57967 109.836 7.8006C109.228 8.24245 108.814 8.71192 108.538 9.209C108.261 9.70608 108.123 10.2584 108.123 10.8936C108.123 11.5287 108.344 12.1639 108.759 12.661C109.173 13.1857 109.753 13.5723 110.471 13.876C111.189 14.1798 112.017 14.3179 112.928 14.3179C113.84 14.3179 115.165 14.0694 116.104 13.5723C116.463 13.379 116.795 13.158 117.126 12.9095L118.645 14.3179L120.164 12.5229ZM112.487 3.60302C112.735 3.3821 113.067 3.27163 113.481 3.27163C113.895 3.27163 114.199 3.35448 114.392 3.54779C114.613 3.7411 114.696 3.98964 114.696 4.29341C114.696 4.59719 114.613 4.73526 114.475 4.95619C114.309 5.17711 114.061 5.39804 113.674 5.64658C113.508 5.75704 113.315 5.86751 113.094 5.97797C112.901 5.81227 112.763 5.64658 112.625 5.5085C112.431 5.28758 112.293 5.09427 112.21 4.92857C112.128 4.76288 112.1 4.56957 112.1 4.40388C112.128 4.1001 112.266 3.82395 112.487 3.60302ZM115.11 11.6116C114.503 11.9429 113.84 12.1086 113.094 12.1086C112.349 12.1086 112.238 12.0534 111.907 11.9153C111.575 11.7773 111.299 11.6116 111.133 11.363C110.94 11.1145 110.857 10.8659 110.857 10.5622C110.857 10.2584 110.94 9.95462 111.078 9.67846C111.244 9.40231 111.492 9.15377 111.851 8.90523C112.017 8.79476 112.183 8.6843 112.404 8.54622L115.442 11.363C115.331 11.4735 115.221 11.5287 115.11 11.6116Z" fill="black"/>
<path d="M128.2 8.8501H133.999V6.61323H128.2V3.87928H134.8V1.55957H125.3V14.0971H134.993V11.7497H128.2V8.8501Z" fill="black"/>
<path d="M145.957 9.15387L139.716 1.55957H137.313V14.0971H140.213V6.47515L146.426 14.0971H148.829V1.55957H145.957V9.15387Z" fill="black"/>
<path d="M161.532 11.7497H154.711V8.8501H160.51V6.61323H154.711V3.87928H161.256V1.55957H151.811V14.0971H161.532V11.7497Z" fill="black"/>
<path d="M169.264 10.5899H169.403L171.805 14.0971H174.953L172.164 10.0652C172.965 9.70618 173.6 9.18149 174.042 8.51871C174.484 7.85594 174.705 7.02747 174.705 6.11615C174.705 5.20483 174.484 4.34875 174.042 3.68597C173.6 2.99558 172.965 2.47089 172.164 2.11188C171.363 1.75288 170.397 1.55957 169.264 1.55957H163.824V14.0971H166.724V10.5899H169.237H169.264ZM171.087 4.48683C171.529 4.87345 171.75 5.39814 171.75 6.08854C171.75 6.77893 171.529 7.30362 171.087 7.69024C170.645 8.07686 169.982 8.27017 169.071 8.27017H166.696V3.9069H169.071C169.982 3.9069 170.645 4.10021 171.087 4.48683Z" fill="black"/>
<path d="M188.126 12.7162V7.63491H185.475V11.3078C185.281 11.4182 185.088 11.5011 184.895 11.5563C184.342 11.7496 183.79 11.8325 183.21 11.8325C182.63 11.8325 182.078 11.7496 181.581 11.5563C181.084 11.363 180.642 11.0869 180.283 10.7279C179.924 10.3689 179.648 9.927 179.454 9.45754C179.261 8.96046 179.151 8.43576 179.151 7.85583C179.151 7.2759 179.261 6.72359 179.454 6.22651C179.648 5.72943 179.924 5.31519 180.283 4.95619C180.642 4.59719 181.084 4.32103 181.581 4.12772C182.078 3.93441 182.63 3.85156 183.238 3.85156C183.845 3.85156 184.453 3.96203 185.005 4.21057C185.53 4.43149 186.027 4.79049 186.496 5.28758L188.347 3.57541C187.739 2.8574 186.994 2.3327 186.11 1.9737C185.226 1.6147 184.232 1.42139 183.1 1.42139C181.968 1.42139 181.167 1.58708 180.338 1.89085C179.51 2.19462 178.764 2.66409 178.157 3.24402C177.549 3.82395 177.052 4.51434 176.721 5.31519C176.389 6.11605 176.223 6.97213 176.223 7.91106C176.223 8.84999 176.389 9.73369 176.721 10.5069C177.052 11.3078 177.549 11.9706 178.157 12.5781C178.764 13.158 179.482 13.6275 180.338 13.9313C181.167 14.235 182.078 14.4007 183.072 14.4007C184.066 14.4007 184.867 14.2627 185.778 13.9865C186.662 13.6275 187.463 13.2133 188.126 12.7162Z" fill="black"/>
<path d="M193.925 14.0971H196.825V9.65095L201.713 1.55957H198.841L195.499 7.11031L192.13 1.55957H189.092L193.925 9.62334V14.0971Z" fill="black"/>
<path d="M38.1453 24.453H42.1496V34.6432H45.0492V24.453H49.0535V22.1057H38.1453V24.453Z" fill="black"/>
<path d="M56.5097 29.3962H62.309V27.1594H56.5097V24.4254H63.1098V22.1057H53.61V34.6432H63.3307V32.3235H56.5097V29.3962Z" fill="black"/>
<path d="M71.9469 25.4748C72.3059 25.1158 72.7201 24.8396 73.2172 24.6463C73.7143 24.453 74.239 24.3701 74.8189 24.3701C75.3988 24.3701 76.0064 24.4806 76.5311 24.7291C77.0557 24.9777 77.5252 25.3367 77.9671 25.8338L79.8173 24.1216C79.2098 23.4036 78.4918 22.8513 77.6081 22.4647C76.7244 22.078 75.7578 21.9124 74.6532 21.9124C73.5486 21.9124 72.7753 22.078 71.9469 22.3818C71.1184 22.6856 70.4004 23.1551 69.7928 23.735C69.1853 24.3149 68.6882 25.0053 68.3568 25.8062C68.0254 26.607 67.8597 27.4631 67.8597 28.402C67.8597 29.341 68.0254 30.2247 68.3568 30.9979C68.6882 31.7988 69.1853 32.4615 69.7928 33.0691C70.4004 33.649 71.1184 34.1185 71.9469 34.4222C72.7753 34.726 73.6866 34.8917 74.6532 34.8917C75.6197 34.8917 76.752 34.6984 77.6081 34.3118C78.4918 33.9252 79.2374 33.3728 79.8173 32.6548L77.9671 30.9427C77.5252 31.4397 77.0557 31.8264 76.5311 32.0749C76.0064 32.3235 75.4264 32.4339 74.8189 32.4339C74.2113 32.4339 73.6866 32.3511 73.2172 32.1578C72.7201 31.9644 72.3059 31.6883 71.9469 31.3293C71.5878 30.9703 71.3117 30.556 71.1184 30.059C70.9251 29.5619 70.8146 29.0372 70.8146 28.4296C70.8146 27.8221 70.9251 27.2974 71.1184 26.8003C71.3117 26.248 71.5878 25.8338 71.9469 25.4748Z" fill="black"/>
<path d="M93.3766 27.0489H87.6878V22.1057H84.7605V34.6432H87.6878V29.5067H93.3766V34.6432H96.2762V22.1057H93.3766V27.0489Z" fill="black"/>
<path d="M110.885 29.7L104.616 22.1057H102.241V34.6432H105.113V27.0213L111.354 34.6432H113.729V22.1057H110.885V29.7Z" fill="black"/>
<path d="M130.685 23.7348C130.078 23.1548 129.36 22.6854 128.504 22.3816C127.675 22.0502 126.764 21.8845 125.77 21.8845C124.776 21.8845 123.892 22.0502 123.036 22.3816C122.207 22.713 121.462 23.1548 120.854 23.7348C120.247 24.3147 119.749 25.0051 119.418 25.8059C119.087 26.6068 118.921 27.4629 118.921 28.3742C118.921 29.2855 119.087 30.1692 119.418 30.9424C119.749 31.7157 120.247 32.4061 120.854 33.0136C121.462 33.5936 122.207 34.063 123.036 34.3668C123.864 34.6982 124.803 34.8639 125.797 34.8639C126.791 34.8639 127.675 34.6982 128.504 34.3668C129.332 34.0354 130.05 33.5936 130.685 33.0136C131.293 32.4337 131.79 31.7433 132.121 30.9424C132.48 30.1416 132.646 29.2855 132.646 28.3466C132.646 27.4076 132.48 26.5516 132.121 25.7507C131.762 25.0051 131.293 24.3147 130.685 23.7348ZM129.415 30.0035C129.222 30.5006 128.945 30.9148 128.586 31.2738C128.227 31.6328 127.813 31.909 127.344 32.1023C126.874 32.2956 126.35 32.3785 125.797 32.3785C125.245 32.3785 124.72 32.2956 124.251 32.1023C123.781 31.909 123.367 31.6328 123.008 31.2738C122.649 30.9148 122.373 30.5006 122.18 30.0035C121.986 29.5064 121.876 28.9541 121.876 28.3742C121.876 27.7943 121.986 27.242 122.18 26.7449C122.373 26.2478 122.649 25.8336 123.008 25.4746C123.367 25.1156 123.781 24.8394 124.251 24.6461C124.72 24.4528 125.245 24.3699 125.797 24.3699C126.35 24.3699 126.874 24.4528 127.344 24.6461C127.813 24.8394 128.227 25.1156 128.586 25.4746C128.945 25.8336 129.222 26.2478 129.415 26.7449C129.608 27.242 129.719 27.7667 129.719 28.3742C129.719 28.9817 129.636 29.5064 129.415 30.0035Z" fill="black"/>
<path d="M140.737 22.1057H137.838V34.6432H147.034V32.2683H140.737V22.1057Z" fill="black"/>
<path d="M162.388 23.7348C161.781 23.1548 161.063 22.6854 160.206 22.3816C159.378 22.0502 158.467 21.8845 157.472 21.8845C156.478 21.8845 155.595 22.0502 154.739 22.3816C153.91 22.713 153.164 23.1548 152.557 23.7348C151.949 24.3147 151.452 25.0051 151.121 25.8059C150.79 26.6068 150.624 27.4629 150.624 28.3742C150.624 29.2855 150.79 30.1692 151.121 30.9424C151.452 31.7433 151.949 32.4061 152.557 33.0136C153.164 33.5936 153.91 34.063 154.739 34.3668C155.567 34.6982 156.506 34.8639 157.5 34.8639C158.494 34.8639 159.378 34.6982 160.206 34.3668C161.035 34.0354 161.753 33.5936 162.388 33.0136C162.996 32.4337 163.493 31.7433 163.824 30.9424C164.183 30.1416 164.349 29.2855 164.349 28.3466C164.349 27.4076 164.183 26.5516 163.824 25.7507C163.493 25.0051 162.996 24.3147 162.388 23.7348ZM161.145 30.0035C160.952 30.5006 160.676 30.9148 160.317 31.2738C159.958 31.6328 159.544 31.909 159.074 32.1023C158.605 32.2956 158.08 32.3785 157.528 32.3785C156.975 32.3785 156.451 32.2956 155.981 32.1023C155.512 31.909 155.098 31.6328 154.739 31.2738C154.38 30.9148 154.103 30.5006 153.91 30.0035C153.717 29.5064 153.606 28.9541 153.606 28.3742C153.606 27.7943 153.717 27.242 153.91 26.7449C154.103 26.2478 154.38 25.8336 154.739 25.4746C155.098 25.1156 155.512 24.8394 155.981 24.6461C156.451 24.4528 156.975 24.3699 157.528 24.3699C158.08 24.3699 158.605 24.4528 159.074 24.6461C159.544 24.8394 159.958 25.1156 160.317 25.4746C160.676 25.8336 160.952 26.2478 161.145 26.7449C161.339 27.242 161.449 27.7667 161.449 28.3742C161.449 28.9817 161.339 29.5064 161.145 30.0035Z" fill="black"/>
<path d="M172.854 25.4747C173.213 25.1157 173.655 24.8396 174.152 24.6463C174.649 24.453 175.202 24.3701 175.809 24.3701C176.417 24.3701 177.024 24.4806 177.577 24.7291C178.101 24.95 178.599 25.309 179.068 25.8061L180.918 24.094C180.311 23.376 179.565 22.8513 178.681 22.4923C177.798 22.1333 176.803 21.9399 175.671 21.9399C174.539 21.9399 173.738 22.1056 172.91 22.4094C172.081 22.7132 171.336 23.1826 170.728 23.7626C170.121 24.3425 169.623 25.0329 169.292 25.8337C168.961 26.6346 168.795 27.4907 168.795 28.4296C168.795 29.3685 168.961 30.2522 169.292 31.0255C169.623 31.8263 170.121 32.4891 170.728 33.0967C171.336 33.6766 172.054 34.1461 172.91 34.4498C173.738 34.7536 174.649 34.9193 175.644 34.9193C176.638 34.9193 177.439 34.7812 178.35 34.5051C179.261 34.2289 180.035 33.8423 180.725 33.3176V28.2363H178.074V31.9092C177.88 32.0196 177.687 32.1025 177.494 32.1577C176.942 32.351 176.389 32.4339 175.809 32.4339C175.229 32.4339 174.677 32.351 174.18 32.1577C173.683 31.9644 173.241 31.6883 172.882 31.3293C172.523 30.9703 172.247 30.5284 172.054 30.0589C171.86 29.5895 171.75 29.0372 171.75 28.4572C171.75 27.8773 171.86 27.325 172.054 26.8279C172.192 26.248 172.468 25.8337 172.854 25.4747Z" fill="black"/>
<path d="M194.395 22.1057L191.025 27.6565L187.712 22.1057H184.619L189.451 30.1695V34.6432H192.351V30.1971L197.239 22.1057H194.395Z" fill="black"/>
</g>
<defs>
<clipPath id="clip0_74_910">
<rect width="208.139" height="65.8081" fill="white" transform="translate(0.201569 0.0959473)"/>
</clipPath>
</defs>
</svg>
