<svg width="178" height="100" viewBox="0 0 178 100" fill="none" xmlns="http://www.w3.org/2000/svg">
<path d="M19.4766 75.4972H27.8587V70.6917H19.4766V68.3721H29.0046V63.3354H12.9244V83.1307H29.3928V78.0849H19.4766V75.4972Z" fill="black"/>
<path d="M62.3294 63.3354H52.8014V83.1307H59.4645V78.2789H62.3294C67.8465 78.2789 71.3583 75.3956 71.3583 70.8118C71.3583 66.228 67.8558 63.3447 62.3294 63.3447V63.3354ZM61.895 73.1129H59.4645V68.483H61.895C63.7248 68.483 64.6212 69.3517 64.6212 70.7933C64.6212 72.235 63.7525 73.1037 61.895 73.1037V73.1129Z" fill="black"/>
<path d="M84.1855 62.8826C77.7534 62.8826 73.0033 67.2353 73.0033 73.233C73.0218 79.2307 77.7442 83.5835 84.1855 83.5835C90.6268 83.5835 95.3677 79.2307 95.3677 73.233C95.3677 67.2353 90.6453 62.8826 84.1855 62.8826ZM84.1855 78.1772C81.7365 78.1772 79.7403 76.3197 79.7403 73.233C79.7403 70.1464 81.7088 68.2888 84.1855 68.2888C86.6622 68.2888 88.6306 70.1464 88.6306 73.233C88.6306 76.3197 86.6622 78.1772 84.1855 78.1772Z" fill="black"/>
<path d="M36.9061 68.3998C37.7101 68.1041 38.5788 67.9377 39.4752 67.9377C39.6785 67.9193 39.8911 67.9193 40.0666 67.9377C40.2053 67.9377 40.3439 67.9562 40.4825 67.9839L37.553 63.6589H30.8159L34.9376 69.5273C35.5291 69.0467 36.1945 68.6771 36.9061 68.4091V68.3998Z" fill="black"/>
<path d="M39.1333 75.7098L41.7949 76.4214L50.9532 63.6404H44.5396C42.1368 66.801 39.8911 69.8229 37.5992 73.0575L39.1333 75.719V75.7098Z" fill="black"/>
<path d="M45.7224 78.7963C45.1494 79.7574 44.3732 80.5799 43.4583 81.1991L44.4933 82.8071H51.369L46.6466 76.1902C46.5079 77.1328 46.1845 78.0015 45.7317 78.8055L45.7224 78.7963Z" fill="black"/>
<path d="M45.7963 75.1368C45.7963 74.3605 45.6577 73.6212 45.4082 72.965L42.1829 77.5211L38.5141 76.5322L36.4717 73.0297L39.429 68.8618C35.9726 68.8803 33.2002 71.699 33.2002 75.1645C33.2002 78.6301 33.4035 77.022 33.7917 77.8261L29.9934 83.1399H32.9045L35.2148 79.9146C35.4644 79.5727 35.9449 79.4988 36.2684 79.7298C36.6103 79.9793 36.6842 80.4599 36.4532 80.7833L34.7805 83.1214H37.5991L38.7913 81.4025C39.0223 81.421 39.2719 81.4487 39.5029 81.4487C42.9869 81.4487 45.8056 78.6301 45.8056 75.146L45.7963 75.1368Z" fill="black"/>
<path d="M105.718 64.8695C105.718 65.1283 105.663 65.3131 105.552 65.424C105.441 65.5349 105.293 65.5903 105.099 65.5903C104.905 65.5903 104.748 65.5349 104.646 65.424C104.535 65.3131 104.48 65.1283 104.48 64.8695V63.3909H103.833V64.8972C103.833 65.2946 103.944 65.5996 104.166 65.8121C104.387 66.0247 104.702 66.1356 105.099 66.1356C105.496 66.1356 105.801 66.0247 106.032 65.8121C106.254 65.5996 106.365 65.2946 106.365 64.8972V63.3909H105.727V64.8695H105.718Z" fill="black"/>
<path d="M112.354 63.7882V63.3816H110.006V63.8899H111.503L109.969 65.6735V66.0709H112.409V65.5626H110.819L112.354 63.7882Z" fill="black"/>
<path d="M118.129 64.7031C118.102 64.6939 118.083 64.6846 118.056 64.6754C118.166 64.62 118.25 64.546 118.314 64.4536C118.388 64.352 118.425 64.2226 118.425 64.0839C118.425 63.8714 118.333 63.705 118.157 63.5757C117.982 63.4463 117.723 63.3816 117.362 63.3816H116.004V66.0709H117.446C117.815 66.0709 118.092 66.0062 118.277 65.8768C118.471 65.7474 118.564 65.5718 118.564 65.3408C118.564 65.1097 118.527 65.0543 118.453 64.9434C118.379 64.8325 118.268 64.7493 118.129 64.6939V64.7031ZM116.651 63.8529H117.288C117.446 63.8529 117.566 63.8806 117.649 63.9268C117.732 63.9823 117.778 64.0562 117.778 64.1671C117.778 64.278 117.741 64.3612 117.649 64.4074C117.566 64.4628 117.446 64.4813 117.288 64.4813H116.651V63.8437V63.8529ZM117.778 65.5256C117.695 65.5811 117.566 65.5995 117.399 65.5995H116.651V64.9342H117.399C117.566 64.9342 117.695 64.9619 117.778 65.0173C117.861 65.0728 117.908 65.156 117.908 65.2669C117.908 65.3778 117.871 65.4702 117.778 65.5164V65.5256Z" fill="black"/>
<path d="M122.944 64.9526H124.238V64.4628H122.944V63.8806H124.414V63.3816H122.307V66.0709H124.46V65.5718H122.944V64.9526Z" fill="black"/>
<path d="M130.744 63.3816H130.033L128.794 64.6384V63.3816H128.156V66.0709H128.794V65.3962L129.164 65.0173L130.06 66.0709H130.818L129.589 64.583L130.744 63.3816Z" fill="black"/>
<path d="M135.901 63.3816H135.254V66.0709H135.901V63.3816Z" fill="black"/>
<path d="M142.518 64.7123C142.425 64.6568 142.314 64.6106 142.203 64.5829C142.093 64.5459 141.972 64.5182 141.861 64.4905C141.751 64.4627 141.64 64.435 141.547 64.4165C141.455 64.3888 141.372 64.3611 141.316 64.3149C141.261 64.2779 141.224 64.2225 141.224 64.1485C141.224 64.0746 141.242 64.0376 141.279 63.9914C141.316 63.9452 141.372 63.9082 141.446 63.8805C141.52 63.8528 141.63 63.8436 141.751 63.8436C141.871 63.8436 142 63.862 142.13 63.899C142.259 63.936 142.388 63.9914 142.518 64.0561L142.721 63.5848C142.592 63.5109 142.444 63.4462 142.268 63.4092C142.102 63.3722 141.926 63.3538 141.751 63.3538C141.483 63.3538 141.27 63.3907 141.094 63.4647C140.919 63.5386 140.789 63.6402 140.706 63.7696C140.623 63.899 140.577 64.0376 140.577 64.1855C140.577 64.3334 140.605 64.4443 140.669 64.5367C140.725 64.6291 140.808 64.703 140.9 64.7585C140.993 64.8139 141.104 64.8601 141.215 64.8971C141.325 64.9341 141.446 64.9618 141.557 64.9895C141.667 65.0172 141.778 65.0357 141.871 65.0634C141.963 65.0912 142.037 65.1281 142.102 65.1651C142.157 65.2021 142.194 65.2667 142.194 65.3407C142.194 65.4146 142.176 65.4516 142.139 65.4885C142.102 65.5347 142.046 65.5625 141.963 65.5902C141.889 65.6179 141.778 65.6272 141.658 65.6272C141.538 65.6272 141.325 65.5994 141.168 65.5532C141.002 65.4978 140.863 65.4331 140.743 65.3499L140.521 65.8212C140.651 65.9137 140.808 65.9876 141.011 66.043C141.215 66.0985 141.427 66.1262 141.649 66.1262C141.871 66.1262 142.13 66.0892 142.305 66.0153C142.481 65.9414 142.61 65.8397 142.693 65.7103C142.786 65.581 142.823 65.4423 142.823 65.2945C142.823 65.1466 142.795 65.0357 142.73 64.9433C142.675 64.8509 142.592 64.7862 142.499 64.7215L142.518 64.7123Z" fill="black"/>
<path d="M146.565 63.8899H147.453V66.0709H148.1V63.8899H148.987V63.3816H146.565V63.8899Z" fill="black"/>
<path d="M153.552 63.3816L152.314 66.0709H152.979L153.228 65.4979H154.522L154.772 66.0709H155.446L154.199 63.3816H153.561H153.552ZM153.423 65.0266L153.866 64.0008L154.31 65.0266H153.423Z" fill="black"/>
<path d="M160.613 63.3816V65.0173L159.226 63.3816H158.69V66.0709H159.328V64.4351L160.723 66.0709H161.25V63.3816H160.613Z" fill="black"/>
<path d="M27.9141 53.2806V48.2348H19.6337V44.8339H29.0785V39.7881H12.9429V59.6388H19.6337V53.2806H27.9141Z" fill="black"/>
<path d="M36.2499 39.7881L27.5721 59.6388H34.3739L35.7046 56.1825H43.2549L44.5857 59.6388H51.5076L42.8298 39.7881H36.2499ZM37.5622 51.3584L39.4844 46.3588L41.4066 51.3584H37.5622Z" fill="black"/>
<path d="M64.8615 49.085C64.2054 48.6506 63.4938 48.2994 62.7175 48.0314C61.9412 47.7727 61.1649 47.5601 60.3794 47.4123C59.5939 47.2644 58.873 47.1165 58.2261 46.9871C57.5792 46.8578 57.0525 46.6822 56.6551 46.4881C56.2577 46.294 56.0636 46.026 56.0636 45.6841C56.0636 45.3422 56.1468 45.2498 56.3039 45.0557C56.461 44.8709 56.7383 44.7137 57.1172 44.6028C57.4961 44.492 58.0043 44.4365 58.6512 44.4365C59.2981 44.4365 60.4164 44.5659 61.3313 44.8062C62.2462 45.0557 63.198 45.4253 64.1776 45.9151V40.1762C63.6971 40.0191 63.198 39.8805 62.6713 39.7603C61.3682 39.4831 60.0467 39.3352 58.7067 39.3352C56.6643 39.3352 54.9546 39.6402 53.5869 40.2409C52.2192 40.8508 51.1934 41.6548 50.5003 42.6621C49.8164 43.6787 49.4652 44.7969 49.4652 46.026C49.4652 47.2552 49.6593 47.9667 50.0567 48.6783C50.4448 49.3899 50.9808 49.9629 51.6277 50.3973C52.2839 50.8316 52.9955 51.1828 53.781 51.4508C54.5665 51.7188 55.3428 51.9221 56.1191 52.0884C56.8954 52.2456 57.6069 52.4027 58.2631 52.5413C58.9192 52.6891 59.4368 52.8647 59.8341 53.068C60.2315 53.2714 60.4256 53.5578 60.4256 53.9183C60.4256 54.2787 60.3424 54.3434 60.1668 54.5005C60.0005 54.6576 59.7233 54.787 59.3536 54.8701C58.9839 54.9533 58.4849 54.9995 57.838 54.9995C56.7475 54.9995 55.6108 54.8332 54.4556 54.5005C53.2912 54.1678 52.2377 53.7334 51.295 53.1789L53.9104 59.7312C55.1672 59.9807 56.461 60.1008 57.7918 60.1008C59.8526 60.1008 61.5623 59.7958 62.93 59.1767C64.2885 58.5575 65.3143 57.7442 66.0075 56.7369C66.6913 55.7204 67.0425 54.6114 67.0425 53.4007C67.0425 52.1901 66.8484 51.4878 66.451 50.7854C66.0537 50.0923 65.5269 49.5193 64.88 49.085H64.8615Z" fill="black"/>
<path d="M66.1738 44.9726H71.9867V59.6388H78.6775V44.9726H84.4904V39.7881H66.1738V44.9726Z" fill="black"/>
<path d="M86.1447 59.6388H102.65V54.5929H92.7246V51.9776H101.125V47.1628H92.7246V44.8339H102.65V39.7881H86.1447V59.6388Z" fill="black"/>
<path d="M124.543 59.6388H141.039V54.5929H131.114V51.9776H139.514V47.1628H131.114V44.8339H141.039V39.7881H124.543V59.6388Z" fill="black"/>
<path d="M116.873 48.817L109.332 39.7881H103.833V59.6388H110.348V50.6099L117.898 59.6388H123.397V39.7881H116.873V48.817Z" fill="black"/>
<path d="M154.106 59.6388H161.25L157.082 53.5302C158.191 52.9572 159.069 52.1902 159.716 51.229C160.455 50.1201 160.825 48.8078 160.825 47.2737C160.825 45.7396 160.455 44.4181 159.716 43.2906C158.977 42.1631 157.932 41.3037 156.583 40.6937C155.234 40.0931 153.626 39.7881 151.778 39.7881H142.222V59.6388H148.913V54.6484H150.733L154.097 59.6388H154.106ZM153.413 45.5733C153.857 45.9891 154.079 46.5528 154.079 47.2737C154.079 47.9945 153.857 48.5583 153.413 48.9741C152.97 49.39 152.286 49.5933 151.362 49.5933H148.922V44.9448H151.362C152.286 44.9448 152.97 45.1574 153.413 45.564V45.5733Z" fill="black"/>
<path d="M85.2113 16.749H78.5297V36.609H94.194V31.406H85.2113V16.749Z" fill="black"/>
<path d="M31.2503 16.749H12.9244V21.9427H18.7466V36.609H25.4282V21.9427H31.2503V16.749Z" fill="black"/>
<path d="M46.9423 26.5266L46.3693 27.5154L45.7039 28.6614H45.6762L44.4471 30.8146H39.4751L36.9984 26.5081L39.4751 22.2016L42.7281 16.5828H36.2221L30.4924 26.5081L36.2221 36.4427H47.7001L53.4483 26.5081L50.1953 20.8893L46.9423 26.5266Z" fill="black"/>
<path d="M65.6101 16.9524C59.4922 16.9524 55.0009 21.1018 55.0009 26.7761C55.0009 32.4504 59.4922 36.5998 65.6101 36.5998C71.7279 36.5998 76.2193 32.4504 76.2193 26.7761C76.2193 21.1018 71.7279 16.9524 65.6101 16.9524ZM65.6101 31.48C63.272 31.48 61.396 29.7149 61.396 26.7853C61.396 23.8558 63.272 22.0907 65.6101 22.0907C67.9482 22.0907 69.8242 23.8558 69.8242 26.7853C69.8242 29.7149 67.9482 31.48 65.6101 31.48Z" fill="black"/>
<path d="M46.1383 25.4082L40.0204 23.7817L39.3365 24.9739L45.4544 26.6004L46.1383 25.4082Z" fill="black"/>
<path d="M38.4401 26.508L43.7354 29.5484L44.6688 27.9219L38.5602 26.2954L38.4401 26.508Z" fill="black"/>
<path d="M45.1495 14.9192L43.7078 17.4144L49.8257 19.0409L50.4449 17.9689L50.6944 18.126L55.0471 20.6212C55.2504 17.4606 53.8088 14.2723 51.0825 12.3778L49.9181 14.4201L48.5226 13.6161L49.6871 11.5738C46.6651 10.1506 43.2088 10.5017 40.5472 12.2576L44.9 14.7528L45.1495 14.9099V14.9192Z" fill="black"/>
<path d="M49.0494 20.3626L42.9316 18.7361L42.2477 19.9282L48.3563 21.5547L49.0494 20.3626Z" fill="black"/>
<path d="M47.5799 22.8853L41.4621 21.2588L40.7782 22.4509L46.8961 24.0774L47.5799 22.8853Z" fill="black"/>
<path d="M120.357 26.7023L115.228 25.1682C115.061 26.1201 114.802 26.9703 114.451 27.7466L112.353 25.963C112.566 25.8428 112.779 25.7227 112.973 25.6025C113.924 25.0018 114.636 24.3272 115.098 23.5879C115.56 22.8486 115.791 22.0261 115.791 21.1204C115.791 20.2148 115.514 19.2074 114.969 18.4589C114.424 17.7011 113.656 17.1189 112.668 16.7122C111.688 16.3056 110.533 16.1023 109.211 16.1023C107.89 16.1023 106.522 16.3333 105.45 16.7862C104.378 17.239 103.546 17.8674 102.955 18.6714C102.363 19.4754 102.058 20.4088 102.058 21.4624C102.058 22.5159 102.16 22.5621 102.373 23.1073C102.576 23.6526 102.89 24.1978 103.306 24.7338C103.445 24.9094 103.602 25.0943 103.759 25.2698C103.445 25.4454 103.14 25.6303 102.862 25.8151C101.855 26.4897 101.107 27.2383 100.626 28.0793C100.145 28.9202 99.9052 29.8906 99.9052 30.9903C99.9052 32.0901 100.266 33.0697 100.986 33.9384C101.707 34.8071 102.687 35.4909 103.934 35.99C105.182 36.489 106.596 36.7385 108.186 36.7385C109.775 36.7385 112.085 36.3042 113.758 35.4447C114.119 35.2599 114.47 35.0566 114.812 34.8348L116.928 36.6461L120.357 32.7647L118.49 31.1751C119.368 29.8351 119.996 28.3473 120.357 26.693V26.7023ZM108.232 20.5659C108.472 20.3534 108.805 20.2425 109.239 20.2425C109.673 20.2425 109.932 20.3349 110.135 20.529C110.33 20.7138 110.431 20.9633 110.431 21.2683C110.431 21.5733 110.32 21.8043 110.089 22.0723C109.858 22.3495 109.479 22.636 108.943 22.941C108.925 22.9502 108.897 22.9687 108.879 22.978C108.795 22.904 108.722 22.8301 108.648 22.7562C108.343 22.4604 108.139 22.2109 108.038 22.0076C107.936 21.8043 107.881 21.5917 107.881 21.3884C107.881 21.065 108.001 20.797 108.232 20.5844V20.5659ZM108.675 31.9792C108.149 31.9792 107.696 31.9052 107.326 31.7481C106.956 31.6003 106.67 31.3877 106.476 31.1289C106.273 30.8609 106.18 30.5837 106.18 30.2787C106.18 29.9738 106.282 29.4932 106.494 29.1605C106.661 28.8925 106.929 28.6245 107.28 28.375L110.921 31.4986C110.209 31.8128 109.461 31.9792 108.675 31.9792Z" fill="black"/>
</svg>
