<svg width="289" height="162" viewBox="0 0 289 162" fill="none" xmlns="http://www.w3.org/2000/svg">
<path d="M67.652 84.5401L52.157 76.4851L72.122 80.5051L39.482 41.8651L74.492 74.1301L69.887 55.6501L80.252 73.8451L83.147 23.8201L86.312 74.2801L96.692 56.3851L91.637 74.5651L126.797 42.4501L94.817 80.1451L114.257 76.7701L106.052 81.3151L193.802 86.3101H25.652L67.652 84.5401Z" fill="black"/>
<path d="M43.112 91.98C43.097 92.43 43.082 93.45 43.067 95.055C43.052 96.66 42.992 97.995 42.902 99.06C42.812 100.125 42.632 101.13 42.392 102.09C40.502 97.965 39.092 94.59 38.192 91.98H37.652C36.647 94.995 35.237 98.37 33.407 102.09C33.167 101.13 32.987 100.11 32.882 99.015C32.777 97.92 32.702 96.615 32.657 95.1C32.612 93.585 32.582 92.55 32.552 91.98H26.387C27.572 94.65 28.397 97.26 28.862 99.795C29.327 102.33 29.702 105.495 29.957 109.275H35.612C35.672 107.67 35.897 106.23 36.257 104.955C36.617 103.68 37.157 102.255 37.877 100.695C38.282 101.58 38.522 102.12 38.612 102.285C38.687 102.465 38.867 102.885 39.137 103.575C39.407 104.265 39.572 104.805 39.647 105.195C39.722 105.585 39.812 106.155 39.932 106.875C40.052 107.595 40.127 108.405 40.172 109.275H45.827C45.992 106.92 46.172 104.91 46.367 103.245C46.562 101.595 46.892 99.765 47.357 97.755C47.822 95.745 48.407 93.825 49.112 91.98H43.142H43.112Z" fill="black"/>
<path d="M64.322 105.615L64.277 105.225H57.932C57.812 104.325 57.722 103.425 57.662 102.525H63.257V98.64H57.647C57.677 97.755 57.737 96.885 57.842 96.045H64.037V95.895L64.067 95.64C64.247 94.425 64.442 93.45 64.667 92.715L64.862 92.145H52.382L52.547 92.715C52.907 93.765 53.162 95.22 53.327 97.05C53.672 100.74 53.402 104.58 52.547 108.57L52.427 109.095H65.102L64.937 108.525C64.712 107.85 64.502 106.875 64.322 105.6V105.615Z" fill="black"/>
<path d="M80.282 106.695C80.132 106.14 80.027 105.735 79.967 105.465H73.967C73.982 104.73 73.982 103.62 73.967 102.15C73.952 100.68 73.952 99.51 73.967 98.64C73.967 97.77 74.027 96.705 74.132 95.46C74.222 94.215 74.372 93.06 74.567 91.98H68.417C68.972 94.98 69.242 97.86 69.242 100.62C69.242 103.38 68.972 106.26 68.417 109.26H80.687C80.687 108.795 80.657 108.39 80.597 108.03C80.537 107.67 80.432 107.22 80.297 106.665L80.282 106.695Z" fill="black"/>
<path d="M97.3819 94.59C96.6169 93.81 95.7319 93.18 94.7269 92.7C93.7219 92.22 92.6269 91.98 91.4869 91.98H83.9869C85.3969 97.755 85.3969 103.515 83.9869 109.275H91.4869C92.6569 109.275 93.7369 109.035 94.7569 108.555C95.7619 108.075 96.6619 107.445 97.4119 106.65C98.1769 105.855 98.7619 104.94 99.1819 103.89C99.6019 102.84 99.8119 101.76 99.8119 100.635C99.8119 99.51 99.6019 98.385 99.1669 97.335C98.7319 96.285 98.1469 95.37 97.3819 94.59ZM94.8769 102.57C94.6519 103.17 94.3519 103.665 93.9469 104.085C93.5419 104.505 93.0319 104.835 92.4319 105.09C91.8169 105.33 91.1419 105.465 90.3769 105.465H89.3569V95.79H90.3769C91.1269 95.79 91.8019 95.91 92.4019 96.165C93.0169 96.42 93.5269 96.75 93.9319 97.185C94.3519 97.62 94.6669 98.13 94.8769 98.715C95.1019 99.315 95.2069 99.945 95.2069 100.65C95.2069 101.355 95.1019 101.985 94.8769 102.585V102.57Z" fill="black"/>
<path d="M103.112 91.98C103.667 94.98 103.937 97.86 103.937 100.62C103.937 103.38 103.667 106.26 103.112 109.26H109.457C108.902 106.26 108.632 103.38 108.632 100.62C108.632 97.86 108.902 94.98 109.457 91.98H103.112Z" fill="black"/>
<path d="M124.397 91.98C124.832 95.565 125.057 99.075 125.057 102.54C124.322 101.52 123.602 100.44 122.867 99.285C122.132 98.145 121.307 96.81 120.377 95.31C119.447 93.795 118.757 92.7 118.307 91.98H112.772C113.267 94.965 113.522 97.845 113.522 100.62C113.522 103.395 113.267 106.275 112.772 109.26H117.557C117.617 105.99 117.647 102.48 117.647 98.7C118.532 99.975 119.732 101.805 121.217 104.235C122.702 106.65 123.767 108.33 124.397 109.275H129.917C129.407 106.29 129.167 103.41 129.167 100.635C129.167 97.86 129.422 94.98 129.917 91.995H124.397V91.98Z" fill="black"/>
<path d="M149.972 102.075C150.047 101.22 150.107 100.635 150.137 100.35C150.182 100.05 150.212 99.8251 150.227 99.6601L149.717 99.69C149.357 99.705 148.877 99.705 148.262 99.69C147.647 99.69 146.972 99.66 146.237 99.615C145.502 99.57 144.677 99.4801 143.777 99.3601C142.877 99.2251 142.037 99.0601 141.257 98.8351C141.227 98.8201 141.197 99.03 141.197 99.45C141.197 99.885 141.197 100.425 141.197 101.085C141.197 101.745 141.212 102.225 141.227 102.54C141.242 102.855 141.257 103.095 141.257 103.275L144.872 102.96C144.812 103.47 144.662 103.905 144.452 104.25C144.242 104.595 143.972 104.88 143.657 105.105C143.327 105.33 142.967 105.495 142.562 105.585C142.367 105.645 142.007 105.66 141.497 105.615C140.972 105.57 140.597 105.48 140.327 105.36C139.757 105.12 139.292 104.76 138.917 104.295C138.542 103.83 138.272 103.29 138.077 102.66C137.897 102.03 137.792 101.355 137.792 100.635C137.792 99.9151 137.897 99.075 138.122 98.415C138.347 97.77 138.632 97.2001 139.022 96.7351C139.397 96.2701 139.862 95.9101 140.402 95.6551C140.942 95.4001 141.542 95.2801 142.217 95.2801C142.892 95.2801 143.717 95.49 144.332 95.895C144.707 96.12 144.977 96.39 145.142 96.675C145.307 96.96 145.397 97.41 145.397 97.995L149.897 95.7C149.282 94.89 148.622 94.2 147.902 93.615C147.182 93.045 146.507 92.5951 145.862 92.3101C145.217 92.0101 144.542 91.8 143.852 91.65C143.162 91.515 142.562 91.44 142.037 91.425C141.512 91.425 140.987 91.4551 140.462 91.5301C139.937 91.6201 139.532 91.6951 139.247 91.7851C138.962 91.8751 138.722 91.95 138.512 92.025C137.387 92.475 136.442 93.0901 135.662 93.8851C134.882 94.6801 134.267 95.64 133.847 96.75C133.412 97.875 133.202 99.1051 133.202 100.455C133.202 101.805 133.427 103.05 133.862 104.175C134.297 105.3 134.912 106.26 135.677 107.055C136.337 107.745 137.267 108.375 138.467 108.93C139.022 109.17 139.682 109.335 140.462 109.41C141.242 109.485 141.917 109.5 142.487 109.44C143.057 109.395 143.522 109.32 143.867 109.215C144.737 108.975 145.547 108.615 146.267 108.15C146.387 108.09 146.522 107.985 146.702 107.85L146.672 107.955C146.657 108.045 146.597 108.24 146.492 108.555C146.387 108.87 146.237 109.26 146.042 109.74H150.227C150.047 109.02 149.927 108.15 149.882 107.175C149.822 106.185 149.807 105.3 149.837 104.505C149.867 103.71 149.912 102.885 149.987 102.03L149.972 102.075Z" fill="black"/>
<path d="M176.507 105.615L176.462 105.225H170.117C169.997 104.325 169.907 103.425 169.847 102.525H175.442V98.64H169.832C169.862 97.755 169.922 96.885 170.027 96.045H176.222V95.895L176.252 95.64C176.432 94.425 176.627 93.45 176.852 92.715L177.047 92.145H164.567L164.732 92.715C165.092 93.765 165.347 95.22 165.512 97.05C165.857 100.74 165.587 104.58 164.732 108.57L164.612 109.095H177.287L177.122 108.525C176.897 107.85 176.687 106.875 176.507 105.6V105.615Z" fill="black"/>
<path d="M194.762 96.225C195.767 95.01 197.012 93.6 198.497 91.98H191.522C191.447 92.205 191.357 92.43 191.297 92.655C191.222 92.865 191.132 93.09 191.042 93.315C190.952 93.54 190.862 93.72 190.787 93.87C190.712 94.02 190.607 94.215 190.472 94.47C190.337 94.725 190.232 94.905 190.142 95.055C190.067 95.19 189.932 95.415 189.737 95.73C189.557 96.045 189.407 96.285 189.287 96.45C189.197 96.255 189.017 95.925 188.792 95.49C188.552 95.04 188.402 94.725 188.312 94.545C188.222 94.365 188.117 94.11 187.982 93.81C187.847 93.495 187.757 93.195 187.697 92.925C187.637 92.64 187.607 92.34 187.607 92.01H180.812C181.712 93.075 182.462 93.96 183.017 94.65C183.587 95.34 184.232 96.195 184.967 97.2C185.702 98.205 186.332 99.165 186.857 100.065C184.697 103.095 182.162 106.17 179.252 109.29H186.437C186.857 108.18 187.277 107.25 187.682 106.5C188.102 105.735 188.702 104.79 189.512 103.65C190.202 104.805 190.712 105.75 191.042 106.47C191.372 107.19 191.687 108.135 192.017 109.29H199.277C196.382 106.035 193.937 102.96 191.972 100.065C192.812 98.73 193.742 97.455 194.747 96.24L194.762 96.225Z" fill="black"/>
<path d="M209.237 91.98H201.242C201.797 94.98 202.067 97.86 202.067 100.62C202.067 103.38 201.797 106.26 201.242 109.26H207.587C207.422 108.9 207.287 108.57 207.182 108.285C207.077 108 206.987 107.7 206.912 107.4C206.837 107.1 206.777 106.86 206.747 106.68C206.702 106.5 206.672 106.26 206.657 105.93C206.642 105.6 206.627 105.375 206.627 105.255C206.627 105.135 206.627 104.85 206.627 104.415V103.53H209.252C211.157 103.53 212.627 103.02 213.632 102.015C214.637 101.01 215.147 99.585 215.147 97.755C215.147 95.925 214.637 94.5 213.632 93.495C212.612 92.49 211.157 91.98 209.252 91.98H209.237ZM208.097 99.93H206.612V95.625H208.097C209.717 95.625 210.527 96.345 210.527 97.77C210.527 99.195 209.717 99.915 208.097 99.915V99.93Z" fill="black"/>
<path d="M236.507 96.8399C236.042 95.7299 235.382 94.7549 234.557 93.9299C233.732 93.1049 232.742 92.4599 231.587 91.9949C230.432 91.5299 229.172 91.3049 227.807 91.3049C226.442 91.3049 225.137 91.5299 223.997 91.9949C222.842 92.4599 221.867 93.1049 221.027 93.9299C220.202 94.7549 219.557 95.7299 219.092 96.8399C218.627 97.9499 218.402 99.1499 218.402 100.425C218.402 101.7 218.627 102.9 219.092 104.01C219.557 105.12 220.202 106.095 221.027 106.92C221.852 107.745 222.842 108.39 223.997 108.855C225.152 109.32 226.412 109.545 227.807 109.545C229.202 109.545 230.432 109.32 231.587 108.855C232.742 108.39 233.732 107.745 234.557 106.92C235.382 106.095 236.027 105.12 236.507 104.01C236.972 102.9 237.212 101.7 237.212 100.425C237.212 99.1499 236.972 97.9499 236.507 96.8399ZM232.217 102.33C231.962 102.915 231.602 103.425 231.167 103.845C230.732 104.28 230.222 104.61 229.637 104.835C229.052 105.06 228.437 105.18 227.807 105.18C227.177 105.18 226.562 105.06 225.977 104.835C225.392 104.61 224.882 104.28 224.462 103.845C224.027 103.41 223.682 102.915 223.427 102.33C223.172 101.745 223.037 101.115 223.037 100.425C223.037 99.7349 223.172 99.1049 223.427 98.5199C223.682 97.9349 224.027 97.4249 224.462 97.0049C224.897 96.5849 225.392 96.2549 225.977 96.0149C226.562 95.7749 227.177 95.6549 227.807 95.6549C228.437 95.6549 229.052 95.7749 229.637 96.0149C230.222 96.2549 230.732 96.5849 231.167 97.0049C231.602 97.4249 231.947 97.9349 232.217 98.5199C232.472 99.1049 232.607 99.7349 232.607 100.425C232.607 101.115 232.472 101.745 232.217 102.33Z" fill="black"/>
<path d="M90.0769 76.14C90.8269 78.51 92.1169 79.275 94.5319 78.615C95.3269 78.405 112.817 69.33 116.297 67.71C117.497 67.155 117.962 66.42 117.332 65.115C116.372 63.135 115.487 61.125 114.587 59.115C114.062 57.945 113.312 57.615 112.142 58.215C104.972 61.89 97.7869 65.52 90.6469 69.255C88.3669 70.44 88.0219 72.39 89.3719 74.55C89.6719 75.03 89.9119 75.585 90.0919 76.14H90.0769Z" fill="black"/>
<path d="M119.852 63.9001C120.347 65.0551 121.037 65.2951 122.117 64.6951C122.942 64.2151 123.827 63.8251 124.667 63.3601C124.997 63.1801 125.537 62.8951 125.522 62.6701C125.432 60.4351 127.367 60.3751 128.627 59.6701C130.862 58.4251 133.187 57.3601 135.422 56.1151C139.322 53.9251 143.357 53.4901 147.632 54.9901C148.367 52.7551 149.087 50.5651 149.852 48.2251C145.622 46.5901 141.182 46.2001 136.922 47.8651C132.422 49.6201 128.162 52.0051 123.767 54.0301C123.212 54.2851 122.402 53.9101 121.802 54.1051C120.227 54.5851 118.622 55.0951 117.197 55.9051C116.882 56.0851 117.107 57.6301 117.407 58.4101C118.127 60.2851 119.072 62.0551 119.852 63.9001Z" fill="black"/>
<path d="M178.877 76.8C181.967 78 184.757 77.355 187.367 75.36C187.787 75.045 188.222 74.76 189.062 74.175C185.477 72.945 182.222 71.835 178.982 70.71C175.967 69.66 172.982 68.535 169.952 67.5C167.582 66.69 166.487 67.245 165.632 69.6C165.377 70.29 165.107 70.965 164.762 71.82C167.417 72.75 170.027 73.65 172.637 74.565C174.722 75.3 176.822 76.02 178.892 76.815L178.877 76.8Z" fill="black"/>
<path d="M260.132 89.5649C260.222 89.2349 260.297 88.9049 260.387 88.5449C261.002 85.9949 260.927 85.6349 258.032 84.9449C257.402 84.7949 256.592 85.2449 255.902 85.5449C254.942 85.9649 254.927 86.2799 254.282 86.7749C253.922 86.5049 252.962 85.9949 252.602 85.7249C253.097 84.9749 253.742 84.2849 254.072 83.4599C254.762 81.8099 254.327 80.4899 252.527 79.9649C250.622 79.4099 249.317 78.3149 248.612 76.3649C248.357 75.6899 247.592 75.0299 246.902 74.7149C230.147 67.0949 213.362 59.5499 195.977 53.4899C194.747 53.0549 181.247 48.8849 179.132 48.3599C173.807 47.0399 170.282 46.3499 167.042 43.9949C165.137 41.3549 161.102 42.0449 159.857 45.1349C159.092 47.0399 158.642 49.0799 157.937 51.4349C155.972 50.4599 154.487 49.7399 152.402 48.7049C152.042 50.3099 151.862 51.4499 151.502 52.5299C151.142 53.6249 150.617 54.6749 149.987 56.1449C151.937 56.6399 153.572 57.0749 155.147 57.4799C153.407 65.5049 155.372 69.5849 162.662 71.0999C162.812 70.1999 163.322 69.4049 163.652 68.4449C165.122 64.3499 168.122 62.9699 172.157 64.4699C180.962 67.7399 189.752 71.0399 198.557 74.2799C209.162 78.1799 219.752 82.1249 230.417 85.8449C234.362 87.2249 237.407 89.4599 239.492 93.1049C239.882 93.7799 240.332 94.4099 240.767 95.0399C241.562 96.1949 242.567 96.6149 243.902 95.9249C245.252 95.2199 246.542 94.5299 248.237 94.9499C248.837 95.0999 249.932 94.1999 250.427 93.5099C250.952 92.7749 251.012 91.7249 251.282 90.8099C251.552 90.7499 252.557 91.0949 252.887 91.1849C252.887 91.8299 252.992 92.0399 253.022 92.8349C253.112 95.0549 254.792 95.4749 255.932 95.4599C257.222 95.4449 257.867 95.0549 258.287 94.2899C258.317 94.2299 258.347 94.1699 258.377 94.1099C258.542 94.2299 258.692 94.3499 258.857 94.4699C258.887 94.4999 258.977 94.5599 259.052 94.6199C259.157 94.6949 259.262 94.7849 259.352 94.8599C260.597 95.8949 261.782 97.0349 262.832 98.2799C263.402 98.9549 263.582 99.1949 264.152 100.125C264.392 100.515 264.617 100.905 264.812 101.295C264.917 101.49 265.007 101.7 265.112 101.91C265.127 101.955 265.217 102.15 265.247 102.24C266.717 106.065 266.027 109.575 263.612 113.19C262.802 114.39 261.857 115.5 260.837 116.52C260.642 116.715 260.462 116.895 260.267 117.075C260.177 117.165 259.967 117.315 259.862 117.405C258.932 118.08 257.957 118.68 256.922 119.19C256.622 119.34 256.322 119.475 256.022 119.61C255.992 119.61 255.992 119.625 255.962 119.64C255.797 119.7 255.647 119.775 255.482 119.835C254.807 120.105 254.132 120.345 253.442 120.57C251.927 121.065 250.397 121.485 248.837 121.83C247.097 122.235 245.342 122.55 243.587 122.835C241.637 123.15 240.242 123.33 238.112 123.555C228.782 124.56 219.392 124.8 210.017 124.92C188.207 125.175 166.397 124.47 144.602 125.31C134.687 125.7 127.472 126.39 117.662 128.01C110.897 129.12 104.162 130.245 97.3369 130.965C90.2719 131.715 83.1619 132.195 76.0519 132.39C63.9169 132.72 51.6019 132.39 39.6169 130.35C35.1619 129.585 30.6919 128.61 26.4319 127.05C24.7069 126.42 23.7019 126 21.9769 125.04C21.3319 124.665 19.7419 123.57 19.6219 123.465C19.3819 123.255 19.1419 123.045 18.9169 122.805C18.7069 122.595 17.8219 121.53 17.5819 120.795C16.6519 117.9 12.1519 119.145 13.0819 122.055C15.2419 128.805 23.8969 131.475 29.8819 133.095C41.0269 136.11 52.8019 136.95 64.2919 137.175C78.8719 137.46 93.4819 136.44 107.927 134.37C113.657 133.545 119.462 132.375 125.072 131.7C130.082 131.1 132.377 130.695 137.417 130.395C159.842 129.09 182.342 129.825 204.797 129.705C214.772 129.66 224.777 129.495 234.707 128.625C242.072 127.98 249.797 127.155 256.727 124.38C259.322 123.345 261.812 122.07 263.867 120.12C267.647 116.55 270.737 111.495 270.722 106.095C270.692 99.0449 265.622 93.2999 260.147 89.5199L260.132 89.5649Z" fill="black"/>
<path d="M34.7869 119.805C34.7869 120.495 34.6519 120.99 34.3669 121.29C34.0819 121.59 33.6919 121.74 33.1969 121.74C32.7019 121.74 32.3119 121.59 32.0269 121.29C31.7419 120.99 31.6069 120.495 31.6069 119.805V115.815H29.9569V119.88C29.9569 120.945 30.2419 121.755 30.8119 122.34C31.3819 122.91 32.1769 123.195 33.1819 123.195C34.1869 123.195 34.9819 122.91 35.5519 122.34C36.1219 121.77 36.4069 120.945 36.4069 119.88V115.815H34.7719V119.805H34.7869Z" fill="black"/>
<path d="M45.1819 116.895V115.815H39.1819V117.18H43.0069L39.1069 121.965V123.06H45.3319V121.695H41.2819L45.1819 116.895Z" fill="black"/>
<path d="M53.342 119.355C53.267 119.325 53.192 119.31 53.117 119.295C53.402 119.145 53.642 118.95 53.807 118.695C53.987 118.41 54.077 118.08 54.077 117.705C54.077 117.135 53.852 116.685 53.402 116.34C52.952 115.995 52.277 115.815 51.377 115.815H47.897V123.06H51.572C52.502 123.06 53.222 122.88 53.702 122.535C54.182 122.19 54.422 121.695 54.422 121.08C54.422 120.465 54.332 120.3 54.137 120.015C53.942 119.73 53.672 119.505 53.327 119.355H53.342ZM51.182 117.075C51.587 117.075 51.887 117.15 52.097 117.285C52.307 117.42 52.412 117.645 52.412 117.915C52.412 118.185 52.307 118.425 52.097 118.56C51.887 118.695 51.572 118.77 51.182 118.77H49.547V117.06H51.182V117.075ZM52.442 121.59C52.217 121.725 51.902 121.8 51.467 121.8H49.547V120.015H51.467C51.887 120.015 52.217 120.09 52.442 120.24C52.667 120.39 52.772 120.615 52.772 120.915C52.772 121.215 52.667 121.455 52.442 121.59Z" fill="black"/>
<path d="M58.8619 120.03H62.1619V118.725H58.8619V117.15H62.5969V115.815H57.2269V123.06H62.7319V121.71H58.8619V120.03Z" fill="black"/>
<path d="M72.1969 115.815H70.3669L67.2019 119.19V115.815H65.5669V123.06H67.2019V121.23L68.1619 120.21L70.4419 123.06H72.3619L69.2419 119.04L72.1969 115.815Z" fill="black"/>
<path d="M76.277 115.815H74.627V123.06H76.277V115.815Z" fill="black"/>
<path d="M84.0169 119.4C83.7769 119.25 83.5069 119.13 83.2069 119.04C82.9069 118.95 82.6219 118.875 82.3219 118.8C82.0219 118.725 81.7519 118.665 81.5119 118.59C81.2719 118.515 81.0769 118.425 80.9269 118.32C80.7769 118.2 80.7019 118.05 80.7019 117.87C80.7019 117.69 80.7469 117.57 80.8369 117.45C80.9269 117.33 81.0769 117.225 81.2719 117.15C81.4819 117.075 81.7369 117.03 82.0519 117.03C82.3669 117.03 82.6969 117.075 83.0269 117.165C83.3569 117.255 83.6869 117.405 84.0169 117.6L84.5269 116.325C84.1969 116.115 83.8069 115.95 83.3719 115.845C82.9369 115.74 82.5019 115.68 82.0519 115.68C81.3769 115.68 80.8219 115.785 80.3719 115.98C79.9219 116.19 79.5919 116.46 79.3819 116.805C79.1569 117.15 79.0519 117.525 79.0519 117.945C79.0519 118.365 79.1269 118.65 79.2769 118.905C79.4269 119.16 79.6219 119.355 79.8769 119.505C80.1169 119.655 80.3869 119.775 80.6869 119.88C80.9869 119.97 81.2719 120.06 81.5719 120.12C81.8719 120.18 82.1419 120.255 82.3819 120.33C82.6219 120.405 82.8169 120.495 82.9669 120.615C83.1169 120.735 83.1919 120.885 83.1919 121.08C83.1919 121.275 83.1469 121.365 83.0569 121.485C82.9669 121.605 82.8169 121.695 82.6069 121.755C82.4119 121.815 82.1419 121.86 81.8119 121.86C81.4819 121.86 80.9569 121.785 80.5519 121.65C80.1319 121.515 79.7719 121.32 79.4719 121.11L78.9169 122.37C79.2319 122.625 79.6519 122.82 80.1769 122.97C80.7019 123.12 81.2419 123.21 81.8119 123.21C82.3819 123.21 83.0569 123.105 83.4919 122.895C83.9419 122.685 84.2719 122.415 84.4969 122.07C84.7219 121.725 84.8269 121.365 84.8269 120.945C84.8269 120.525 84.7519 120.255 84.6019 120C84.4519 119.745 84.2569 119.55 84.0019 119.4H84.0169Z" fill="black"/>
<path d="M86.5969 117.18H88.8769V123.06H90.5269V117.18H92.8069V115.815H86.5969V117.18Z" fill="black"/>
<path d="M97.0969 115.815L93.9169 123.06H95.6119L96.2419 121.5H99.5419L100.172 123.06H101.897L98.7169 115.815H97.0819H97.0969ZM96.7669 120.225L97.9069 117.45L99.0319 120.225H96.7669Z" fill="black"/>
<path d="M109.082 115.815V120.21L105.542 115.815H104.177V123.06H105.797V118.665L109.352 123.06H110.702V115.815H109.082Z" fill="black"/>
</svg>
