<?xml version="1.0" encoding="UTF-8"?>
<svg id="katman_1" data-name="katman 1" xmlns="http://www.w3.org/2000/svg" viewBox="0 0 688.56 570.13">
  <defs>
    <style>
      .cls-1 {
        fill: #faa53f;
      }

      .cls-1, .cls-2 {
        fill-rule: evenodd;
      }

      .cls-1, .cls-2, .cls-3, .cls-4 {
        stroke-width: 0px;
      }

      .cls-2 {
        fill: #4fa64a;
      }

      .cls-3 {
        fill: #53a646;
      }

      .cls-4 {
        fill: #faa43e;
      }
    </style>
  </defs>
  <path class="cls-2" d="M31.04,484.74h19.82l31.04,82.77h-20.55l-5.39-15.45h-30.02l-5.24,15.45H0l31.04-82.77ZM30.16,537.93h21.57l-10.78-31.62-10.78,31.62ZM145.43,522.48h35.12v45.03h-14.42v-8.89h-.29c-4.81,7.58-13.11,11.51-25.06,11.51-6.85,0-12.82-1.02-18.07-3.06-5.1-2.04-9.47-4.96-12.67-8.89-3.5-3.79-5.98-8.45-7.58-13.84-1.6-5.54-2.48-11.66-2.48-18.51,0-12.39,2.62-21.71,7.72-28.27,5.1-6.41,10.78-10.64,17.19-12.39,6.41-1.89,12.68-2.91,18.8-2.91,7.58,0,13.99,1.46,19.23,4.22,5.25,2.92,9.18,6.56,11.95,10.93,2.77,4.52,4.37,9.18,5.1,14.13h-20.55c-.15-3.35-1.46-6.41-4.08-9.03-2.62-2.62-6.56-3.94-11.8-3.94-9.03,0-15.01,2.77-17.92,8.6-3.06,5.68-4.52,12.24-4.52,19.23,0,6.12.87,11.37,2.91,15.45,1.9,4.08,4.52,7.14,7.72,9.03,3.35,2.04,6.99,2.91,11.07,2.91,5.54,0,10.05-1.46,13.41-4.52,3.5-3.06,5.39-6.85,5.83-11.66h-16.61v-15.15ZM210.85,567.51v-82.77h42.4c4.52,0,8.45.44,11.8,1.6,3.5,1.02,6.41,2.62,8.6,4.66,2.33,2.04,4.08,4.52,5.1,7.43,1.16,2.91,1.75,6.26,1.75,9.76,0,5.68-1.31,10.2-3.79,13.55-2.62,3.5-5.98,5.83-9.76,7.14v.29c4.81,1.31,8.01,3.79,9.47,7.14,1.46,3.5,2.18,7.87,2.33,12.97.14,5.98.29,9.91.73,12.09.29,2.04,1.16,4.23,2.48,6.12h-19.82c-1.16-1.75-2.04-3.79-2.48-6.12-.44-2.18-.73-6.12-.73-11.51-.15-2.77-.44-4.96-1.02-6.7-.44-1.9-1.75-3.35-3.64-4.52-2.04-1.16-4.96-1.75-8.89-1.75h-15.01v30.6h-19.53ZM230.38,500.77v21.13h17.78c8.45,0,12.67-3.5,12.67-10.49,0-4.22-1.16-6.99-3.5-8.45s-5.68-2.18-9.91-2.18h-17.05ZM347.53,569.84c-7.28,0-13.69-1.16-19.09-3.5s-9.76-5.54-12.97-9.62c-3.35-4.08-5.68-8.74-7.29-13.99-1.6-5.25-2.48-10.79-2.48-16.61,0-7.58,1.46-14.72,4.22-21.27,2.62-6.7,6.99-12.09,13.41-16.32,6.27-4.08,14.28-6.26,24.19-6.26s17.93,2.18,24.19,6.26c6.27,4.23,10.78,9.62,13.55,16.17,2.77,6.7,4.08,13.85,4.08,21.42s-1.31,14.72-4.08,21.27c-2.77,6.7-7.29,12.09-13.55,16.18-6.26,4.22-14.28,6.26-24.19,6.26M347.53,553.81c5.83,0,10.2-1.6,13.26-4.81,3.2-3.06,5.1-6.7,6.12-10.78.88-4.08,1.31-8.01,1.31-12.09s-.44-8.31-1.31-12.39c-.88-3.93-2.92-7.58-5.98-10.64-3.06-3.21-7.58-4.66-13.41-4.66-5.39,0-9.62,1.31-12.68,3.93-3.06,2.77-5.25,6.12-6.41,10.2-1.17,4.08-1.75,8.6-1.75,13.55s.58,9.18,1.75,13.26c1.31,4.22,3.35,7.58,6.41,10.34,3.06,2.62,7.28,4.08,12.68,4.08M417.33,567.51v-82.77h42.4c4.52,0,8.45.44,11.95,1.6,3.5,1.02,6.26,2.62,8.6,4.66,2.19,2.04,3.94,4.52,5.1,7.43,1.16,2.91,1.75,6.26,1.75,9.76,0,5.68-1.31,10.2-3.94,13.55-2.62,3.5-5.83,5.83-9.76,7.14v.29c4.96,1.31,8.01,3.79,9.47,7.14,1.6,3.5,2.33,7.87,2.33,12.97.15,5.98.44,9.91.73,12.09.44,2.04,1.17,4.23,2.62,6.12h-19.96c-1.17-1.75-1.9-3.79-2.33-6.12-.44-2.18-.73-6.12-.88-11.51,0-2.77-.29-4.96-.87-6.7-.58-1.9-1.75-3.35-3.79-4.52-1.89-1.16-4.81-1.75-8.89-1.75h-15.01v30.6h-19.53ZM436.86,500.77v21.13h17.92c8.31,0,12.53-3.5,12.53-10.49,0-4.22-1.17-6.99-3.5-8.45s-5.54-2.18-9.76-2.18h-17.19ZM515.11,484.74h19.53v48.23c0,4.37.58,8.01,1.46,10.93.88,3.06,2.48,5.39,4.81,7,2.48,1.75,5.83,2.48,10.05,2.48s7.58-.73,10.05-2.48c2.33-1.6,4.08-3.94,4.95-6.85.88-3.06,1.31-6.7,1.31-11.07v-48.23h19.53v51.44c0,8.45-2.33,16.17-6.99,23.02-4.66,6.99-14.28,10.34-28.85,10.34s-24.19-3.35-28.85-10.2-6.99-14.57-6.99-23.17v-51.44ZM612.88,540.55h19.67c0,3.5,1.16,6.7,3.35,9.62,2.18,3.06,6.56,4.52,13.26,4.52,9.91,0,14.86-3.2,14.86-9.47,0-2.77-1.02-4.96-2.91-6.56-1.9-1.6-4.08-2.77-6.7-3.5-2.48-.73-6.27-1.6-11.51-2.77-4.22-1.02-7.72-1.9-10.64-2.77-2.92-1.02-5.68-2.33-8.16-4.22-2.62-1.75-4.66-4.23-6.12-7.29-1.46-2.91-2.18-6.85-2.18-11.37,0-5.1,1.31-9.62,3.93-13.26,2.48-3.64,6.41-6.41,11.51-8.31,5.1-1.89,11.22-2.91,18.36-2.91s12.39,1.02,16.76,3.06c4.37,2.04,7.58,4.52,9.62,7.43,2.04,2.77,3.35,5.54,4.08,8.01.58,2.48.87,4.81,1.02,6.7h-18.51c-.29-3.94-1.9-6.56-4.81-8.01-3.06-1.31-6.12-1.9-9.47-1.9-4.08,0-7.28.73-9.62,2.33-2.33,1.6-3.5,3.64-3.5,6.41,0,2.33.88,4.23,2.48,5.54,1.75,1.46,3.5,2.33,5.54,2.77,1.9.58,4.66,1.16,8.45,1.9,7.29,1.46,13.11,3.06,17.63,4.81,4.52,1.75,8.16,4.22,10.78,7.58,2.62,3.35,3.94,7.87,3.94,13.41,0,3.21-.58,6.41-1.46,9.62-1.02,3.06-2.77,5.98-5.39,8.74-2.48,2.77-6.12,4.96-10.78,6.56-4.66,1.75-10.49,2.62-17.49,2.62-9.47,0-16.9-1.6-22.15-4.81-5.39-3.06-9.03-6.85-10.93-11.22-2.04-4.37-2.92-8.74-2.92-13.26"/>
  <path class="cls-1" d="M344.83,413.18c-157.86,0-291.51,25.84-344.57,62.12,74.82-23.69,198.72-39.25,338.49-39.25,147.02,0,276.46,17.22,349.82,43.08-49.14-38.19-185.68-65.94-343.74-65.94"/>
  <path class="cls-3" d="M571.43,256.66l-.63-7.25-25.24-16.4-74.13-14.51-7.28-69.44-102.49-7.32-24.91,52.48,11.99,8.83h-47.95l-32.17,27.13v-.94l-5.15,15.45c-1.18,1.67-2.11,3.2-2.63,4.42,5.68-4.1,32.74-26.89,39.46-29.07,2.35-.76,4.73-1.53,7.19-1.71,2.75-.2,5.5.35,8.21.92,21.09,4.48,41.8,10.74,61.84,18.7,2.48.98,4.99,2.02,6.99,3.78,1.53,1.35,2.69,3.07,3.82,4.77,4.88,7.27,9.83,14.72,12.11,23.17,4.6,2.55,9.2,5.1,13.79,7.65l-.21,75.89,6.31,5.99,42.79.74,4-6.62,5.01-40.98c9.91-30.47,38.51-52.49,72.28-52.49,7.9,0,15.51,1.21,22.67,3.44,2.95.92,5.8,2.07,8.58,3.33l.8-1.72-5.05-8.2ZM457.34,260.74c-2.36.27-6.76.56-14.74.56-2.54,0-4.92-.03-6.84-.07l-14.79-46.67-54.12-23.02,11.28-28.84,77.18,4.59c2.09,14.58,7.33,57.71,2.04,93.45Z"/>
  <path class="cls-3" d="M399.72,320.95v-8.04l-3.73,1.22c-.12-1.84-.3-3.66-.55-5.46l3.42-1.82-1.4-7.92-3.5,1.87c-.43-1.79-.92-3.55-1.47-5.29l3.06-2.4-2.75-7.56-3.14,2.46c-.73-1.68-1.52-3.33-2.37-4.94l2.62-2.92-4.02-6.97-2.68,2.98c-1.01-1.52-2.07-3.01-3.18-4.45l2.09-3.35-5.17-6.16-2.12,3.41c-1.26-1.33-2.55-2.62-3.9-3.86l1.46-3.63-6.16-5.17-1.48,3.67c-1.46-1.09-2.98-2.12-4.52-3.11l.8-3.8-6.97-4.02-.81,3.83c-1.64-.83-3.3-1.61-5-2.33l.13-3.79-7.56-2.75-.13,3.83c-1.75-.53-3.53-.99-5.34-1.4l-.52-3.7-7.92-1.4.53,3.74c-1.82-.22-3.66-.39-5.52-.48l-1.13-3.46h-8.04l1.14,3.48c-1.86.1-3.7.28-5.53.51l-1.67-3.13-7.92,1.4,1.68,3.14c-1.82.42-3.63.89-5.4,1.44l-2.09-2.67-7.56,2.75,2.11,2.69c-1.72.73-3.4,1.54-5.05,2.39l-2.45-2.2-6.97,4.02,2.47,2.22c-1.57,1.03-3.11,2.1-4.59,3.24l-2.69-1.68-6.17,5.17,2.73,1.7c-1.37,1.29-2.7,2.62-3.98,4l-2.83-1.14-5.17,6.16,2.85,1.15c-1.13,1.51-2.19,3.07-3.21,4.66l-2.87-.61-4.02,6.97,2.9.61c-.85,1.69-1.66,3.41-2.39,5.16l-2.8-.1-2.75,7.56,2.86.1c-.54,1.81-1.02,3.65-1.43,5.51l-2.69.38-1.4,7.92,2.76-.39c-.22,1.88-.37,3.77-.45,5.69l-2.52.82v8.04l2.58-.84c.11,1.92.31,3.81.56,5.69l-2.28,1.21,1.4,7.92,2.34-1.25c.45,1.87.95,3.71,1.53,5.52l-1.98,1.55,2.75,7.56,2.06-1.62c.77,1.75,1.6,3.47,2.49,5.16l-1.67,1.86,4.02,6.97,1.74-1.94c1.06,1.59,2.19,3.13,3.36,4.63l-1.33,2.13,5.17,6.16,1.4-2.25c1.32,1.38,2.68,2.72,4.1,3.99l-.94,2.34,6.16,5.17,1-2.47c1.53,1.12,3.11,2.19,4.73,3.2l-.53,2.51,6.97,4.02.56-2.64c1.7.83,3.44,1.6,5.21,2.31l-.09,2.62,7.56,2.75.09-2.78c1.82.52,3.65.99,5.52,1.38l.38,2.66,7.92,1.4-.4-2.83c1.86.19,3.75.3,5.65.35l.87,2.68h8.04l-.92-2.84c1.89-.13,3.77-.32,5.62-.59l1.36,2.56,7.92-1.4-1.44-2.7c1.83-.46,3.62-.99,5.4-1.57l1.86,2.37,7.56-2.75-1.97-2.51c1.71-.76,3.39-1.58,5.04-2.46l2.33,2.09,6.97-4.02-2.46-2.21c1.54-1.04,3.03-2.16,4.49-3.31l2.79,1.74,6.16-5.17-2.93-1.83c1.33-1.29,2.63-2.62,3.86-4l3.15,1.27,5.17-6.16-3.3-1.33c1.09-1.49,2.12-3.02,3.1-4.59l3.44.72,4.02-6.97-3.57-.75c.81-1.65,1.55-3.34,2.24-5.05l3.61.12,2.75-7.56-3.76-.12c.51-1.76.96-3.54,1.35-5.35l3.67-.52,1.4-7.92-3.8.54c.19-1.81.31-3.63.38-5.47l3.62-1.18ZM318.67,363.37c-24.6,0-44.54-19.94-44.54-44.54s19.94-44.54,44.54-44.54,44.54,19.94,44.54,44.54-19.94,44.54-44.54,44.54Z"/>
  <path class="cls-3" d="M607.66,337.85v-6.41l-2.97.97c-.09-1.47-.24-2.91-.43-4.35l2.72-1.45-1.11-6.31-2.78,1.49c-.34-1.42-.73-2.83-1.17-4.21l2.44-1.91-2.19-6.02-2.5,1.96c-.58-1.33-1.22-2.65-1.89-3.93l2.09-2.33-3.2-5.55-2.13,2.38c-.8-1.21-1.65-2.4-2.53-3.55l1.66-2.67-4.12-4.91-1.69,2.72c-1-1.06-2.03-2.09-3.1-3.08l1.16-2.9-4.91-4.12-1.18,2.93c-1.17-.87-2.37-1.69-3.6-2.48l.64-3.03-5.55-3.2-.64,3.05c-1.31-.66-2.63-1.28-3.98-1.85l.1-3.02-6.02-2.19-.1,3.06c-1.4-.42-2.81-.79-4.25-1.11l-.42-2.95-6.31-1.11.42,2.97c-1.45-.17-2.92-.31-4.4-.38l-.9-2.76h-6.41l.91,2.77c-1.48.08-2.95.23-4.4.41l-1.33-2.49-6.31,1.11,1.33,2.5c-1.45.33-2.89.71-4.3,1.14l-1.67-2.13-6.02,2.19,1.68,2.14c-1.37.58-2.71,1.23-4.03,1.91l-1.95-1.75-5.55,3.2,1.97,1.77c-1.25.82-2.48,1.67-3.66,2.58l-2.14-1.34-4.91,4.12,2.17,1.35c-1.1,1.02-2.15,2.08-3.17,3.18l-2.26-.91-4.12,4.91,2.27.91c-.9,1.2-1.75,2.44-2.56,3.71l-2.29-.48-3.2,5.55,2.31.49c-.68,1.34-1.32,2.71-1.9,4.11l-2.23-.08-2.19,6.02,2.28.08c-.43,1.44-.81,2.91-1.14,4.39l-2.14.31-1.11,6.31,2.2-.31c-.17,1.5-.3,3-.36,4.53l-2,.65v6.41l2.06-.67c.09,1.53.24,3.04.44,4.53l-1.81.97,1.11,6.31,1.87-1c.36,1.49.76,2.95,1.22,4.4l-1.57,1.23,2.19,6.02,1.64-1.29c.61,1.4,1.28,2.77,1.98,4.11l-1.33,1.48,3.2,5.55,1.39-1.55c.85,1.26,1.74,2.49,2.68,3.68l-1.06,1.7,4.12,4.91,1.11-1.79c1.05,1.1,2.14,2.16,3.27,3.18l-.75,1.87,4.91,4.12.79-1.97c1.22.9,2.48,1.74,3.77,2.55l-.42,2,5.55,3.21.45-2.11c1.35.67,2.74,1.27,4.15,1.84l-.07,2.09,6.02,2.19.07-2.21c1.45.41,2.91.79,4.4,1.1l.3,2.12,6.31,1.11-.32-2.25c1.48.15,2.98.24,4.5.28l.7,2.13h6.41l-.74-2.26c1.51-.1,3-.26,4.48-.47l1.09,2.04,6.31-1.11-1.15-2.15c1.46-.36,2.89-.79,4.3-1.25l1.48,1.89,6.02-2.19-1.57-2c1.36-.61,2.71-1.26,4.01-1.96l1.86,1.67,5.55-3.21-1.96-1.76c1.23-.83,2.41-1.72,3.57-2.63l2.22,1.38,4.91-4.12-2.33-1.45c1.06-1.03,2.09-2.09,3.08-3.19l2.51,1.01,4.12-4.91-2.63-1.06c.87-1.19,1.69-2.41,2.47-3.66l2.74.58,3.2-5.55-2.84-.6c.64-1.32,1.23-2.66,1.78-4.02l2.88.1,2.19-6.02-2.99-.1c.4-1.4.77-2.82,1.07-4.26l2.92-.41,1.11-6.31-3.03.43c.15-1.44.25-2.89.31-4.36l2.89-.94ZM543.1,373.37c-20.56,0-37.22-16.66-37.22-37.22s16.67-37.22,37.22-37.22,37.22,16.66,37.22,37.22-16.66,37.22-37.22,37.22Z"/>
  <polygon class="cls-4" points="106.23 402.77 84.26 353.76 38.09 325.29 60.06 374.31 106.23 402.77"/>
  <polygon class="cls-4" points="250.35 111.57 262.64 59.28 243.22 8.63 230.93 60.92 250.35 111.57"/>
  <polygon class="cls-4" points="281.08 75.76 327.57 48.86 351.12 0 304.64 26.9 281.08 75.76"/>
  <polygon class="cls-4" points="122.28 366.69 102.75 301.33 49.34 257.82 68.86 323.18 122.28 366.69"/>
  <polygon class="cls-4" points="218.05 153.78 227.8 90.48 200.01 32.07 190.26 95.37 218.05 153.78"/>
  <polygon class="cls-4" points="132.77 316.98 123.06 234.95 68.39 171.96 78.09 253.98 132.77 316.98"/>
  <polygon class="cls-4" points="155.65 261.28 156.03 182.42 111.59 116.33 111.2 195.19 155.65 261.28"/>
  <polygon class="cls-4" points="183.39 205.54 193.05 134.39 160.72 69.49 151.07 140.63 183.39 205.54"/>
  <polygon class="cls-4" points="110.83 385.48 159.42 362.57 213 371.02 164.42 393.93 110.83 385.48"/>
  <polygon class="cls-4" points="264.41 110.33 312.18 85.77 366.02 92.37 318.25 116.93 264.41 110.33"/>
  <polygon class="cls-4" points="124.45 342.98 181.4 305.43 250.29 306.4 193.34 343.95 124.45 342.98"/>
  <polygon class="cls-4" points="214.32 163.02 268.99 133.85 331.22 140.53 276.55 169.7 214.32 163.02"/>
  <polygon class="cls-4" points="139.79 288.45 205.45 244.77 285.09 245.57 219.43 289.24 139.79 288.45"/>
  <polygon class="cls-4" points="173.43 223.15 235.53 187.12 307.86 192.29 245.76 228.32 173.43 223.15"/>
</svg>