<?xml version="1.0" encoding="UTF-8"?>
<svg id="katman_1" xmlns="http://www.w3.org/2000/svg" viewBox="0 0 1548.62 334.19">
  <defs>
    <style>
      .cls-1 {
        fill: #233a86;
      }
    </style>
  </defs>
  <path class="cls-1" d="M302.84,333.01v-97.68h120.95V99.79c-32.5,0-64.02-.6-95.48.54-5.78.21-11.98,6.83-16.83,11.65-60.38,59.96-121.87,118.88-180.18,180.78-27.96,29.68-57.78,45.62-98.48,40.47-10.14-1.28-20.57-.19-32.82-.19v-95.38c.5-.42,1.86-2.4,2.86-2.23,37.49,6.37,61.38-13.6,85.54-39.1,53.56-56.5,110.13-110.13,164.45-165.94C273.1,9.6,295.45-.25,324.63.63c46.09,1.4,92.25.3,138.38.43,40.07.12,59.04,17.69,59.41,57.39.67,72.37.7,144.75.07,217.13-.34,39.57-19.4,57.27-59.41,57.39-52.39.16-104.77.04-160.24.04Z"/>
  <path class="cls-1" d="M1548.62,3.17v92.02c-47.21,0-93.1,1.25-138.87-.52-23.42-.9-39.97,6.48-56.13,23.08-55.97,57.51-115.03,112.1-169.39,171.05-33.51,36.34-70.45,52.16-120.59,42.02v-95.76c37.49,8.2,54.61-21.9,76.72-43.39,31.01-30.14,61.69-60.63,92.52-90.97-1.06-1.91-2.12-3.82-3.18-5.73h-166.69V3.17h485.61Z"/>
  <path class="cls-1" d="M570.22,2h94.79v227.76c20.16,10.09,32.03,1.93,44.02-10.19,59.82-60.46,121.04-119.57,179.7-181.12,26.2-27.49,54.54-42.19,92.58-37.63,10.9,1.31,22.09.2,35.12.2v95.28c-.98.74-2.38,2.63-3.39,2.45-37.95-6.91-61.06,14.83-85.06,39.91-55.51,58-113.26,113.84-169.93,170.72-15.95,16.01-34.36,24.58-57.4,23.91-26.22-.75-52.49.49-78.7-.42-30.92-1.07-50.9-16.78-51.27-44.79-1.23-94.49-.47-189-.47-286.07Z"/>
</svg>