<?xml version="1.0" encoding="UTF-8"?>
<svg id="katman_1" data-name="katman 1" xmlns="http://www.w3.org/2000/svg" viewBox="0 0 1641.59 316.37">
  <defs>
    <style>
      .cls-1 {
        fill: #bdce00;
      }

      .cls-1, .cls-2, .cls-3, .cls-4 {
        stroke-width: 0px;
      }

      .cls-2 {
        fill: #3c3c3b;
      }

      .cls-3 {
        fill: #4674b8;
      }

      .cls-4 {
        fill: #f29100;
      }
    </style>
  </defs>
  <polygon class="cls-1" points="231.63 155.56 231.63 148.11 239.06 148.11 239.06 140.78 231.63 140.78 231.63 133.33 223.98 133.33 223.98 140.78 216.55 140.78 216.55 148.11 223.98 148.11 223.98 155.56 231.63 155.56"/>
  <rect class="cls-1" x="365.05" y="133.33" width="7.65" height="22.23" transform="translate(224.43 513.31) rotate(-90)"/>
  <rect class="cls-1" x="174.08" y="278.02" width="248.51" height="34.62"/>
  <rect class="cls-1" x="174.08" y="232.49" width="248.51" height="34.62"/>
  <path class="cls-1" d="M175.16,186.95h246.35c.6,0,1.08.48,1.08,1.08v33.54h-248.51v-33.54c0-.6.48-1.08,1.08-1.08Z"/>
  <rect class="cls-4" x="935.88" y="144.65" width="93.09" height="41.38"/>
  <rect class="cls-4" x="935.88" y="90.22" width="93.09" height="41.38"/>
  <rect class="cls-4" x="935.88" y="35.79" width="93.09" height="41.38"/>
  <g>
    <path class="cls-3" d="M4.98,268.93c0,4.45-.37,9.02.19,13.41.99,7.41,3.46,18.72,11.93,20.7,7.72,1.79,15.88,2.47,23.79,3.46,27.37,3.4,62.65,4.51,90.33,4.51,3.09.06,3.09,4.82,0,4.82-7.6,0-22.55-.25-30.15-.56-25.95-1.24-52.21-2.53-77.91-6.43-8.03-1.24-14.27-2.72-18.29-10.57-2.84-5.56-4.45-12.23-4.7-18.47-.25-6.67,0-13.47,0-20.2,0-6.3-.49-12.85.25-19.09,1.36-11.93,8.28-22.86,15.32-32.19,3.52-4.63,7.29-9.08,11.25-13.35,3.27-3.58,7.04-6.8,10.07-10.63,7.54-9.52,12.67-21.01,18.04-31.82,4.45-9.02,8.09-18.54,16.99-23.97,5.87-3.65,13.65-6.86,20.64-7.23,3.71-.19,7.41,0,11.12,0,24.9,0,49.8-.43,74.7-.12v4.94h-79.65c-11.8,0-25.95,3.52-32.32,14.46-10.57,18.04-17.05,38.25-32.07,53.39-13.66,13.84-29.53,31.82-29.53,52.33v22.61Z"/>
    <path class="cls-3" d="M178.54,134.67v4.76c-2.72,0-5.38.06-8.09.06h-51.72c-8.77,0-18.29-1.11-27.06.19-4.08.62-8.34,2.16-11.43,4.94-4.57,4.02-6.3,10.87-8.77,16.25-3.09,6.86-6.24,13.72-9.45,20.51,2.1-.19,4.2-.31,6.3-.43,22.86-1.36,45.85-2.04,68.77-2.1v4.82c-26.01-.06-52.15.62-78.04,2.66-.31,0-.62.06-.93.06h-.25c-.12,0-.31-.06-.43-.12-1.11-.12-1.67-1.17-1.61-2.22,0-.25.06-.49.12-.74,0-.19.06-.31.12-.49,4.94-10.38,9.82-20.88,14.46-31.45,2.53-5.81,5.31-10.44,11.12-13.41,3.46-1.79,7.35-2.84,11.31-3.21,10.07-.8,20.45-.06,30.52-.06h55.05Z"/>
    <path class="cls-3" d="M36.24,170.59c-4.4-2.93-10.8-4.11-15.5-1.26-3.18,1.93-5.77,5.46-5.75,9.29.01,2.99,1.52,5.67,3.43,7.87,1.13,1.31,2.48,2.51,3.93,3.46,1.05.69,2.69.24,3.27-.86.63-1.2.26-2.53-.86-3.27-.07-.05-.14-.09-.21-.14-.07-.05-.14-.1-.21-.16-.53-.38.35.29.05.04-.63-.51-1.23-1.04-1.8-1.61-.34-.34-.66-.69-.97-1.06-.09-.1-.2-.22-.27-.33.31.53.17.22.07.08-.18-.26-.37-.52-.54-.8-.23-.37-.64-.89-.71-1.32.09.58.08.22.01.01-.04-.12-.08-.24-.12-.36-.1-.32-.17-.64-.24-.96-.09-.41.04.13.02.18.04-.08-.03-.37-.04-.46-.01-.26-.01-.52,0-.78.04-.57-.06-.03-.01,0-.03-.02.09-.45.1-.49.08-.34.19-.66.32-.99-.23.58.18-.31.25-.43.17-.29.36-.57.56-.84-.31.42.14-.16.17-.19.15-.17.31-.35.47-.51.11-.12.23-.23.35-.34.06-.06.74-.64.42-.39.29-.23.61-.43.93-.61.19-.11.38-.2.57-.3.58-.31-.27.07.1-.05s.7-.24,1.06-.33c.13-.03.26-.06.39-.09.13-.03.26-.05.39-.07-.31.04-.33.04-.05.01.67-.04,1.33-.06,2,0,.15.01.31.03.46.05-.64-.07-.03,0,.09.02.35.06.7.14,1.05.23.64.16,1.27.37,1.89.6.14.05.29.1.42.17-.64-.35-.08-.03.08.04.23.1.45.21.68.32.47.24.93.48,1.37.77,1.04.69,2.69.24,3.27-.86.63-1.2.26-2.53-.86-3.27h0Z"/>
    <path class="cls-3" d="M131.21,285.06c-10.5.06-31.33,1.48-38.93-7.23-4.82-5.56-5.68-12.79-5.99-19.9-.19-3.89-.62-8.03,1.24-11.62,1.36-2.6,3.71-4.57,6.24-5.81,8.46-4.2,28.86-4.33,38-3.09,2.97.43,1.79,4.94-1.17,4.63,0,.12-9.02-.25-11.37-.19-5.07.06-18.97.56-23.48,3.03-1.79.93-3.4,2.22-4.2,4.14-.62,1.36-.62,2.84-.62,4.32.06,2.35.12,4.76.25,7.11.43,5.68,1.54,11.06,5.68,15.2,6.36,6.36,26.14,4.63,34.35,4.63,3.09,0,3.09,4.76,0,4.76Z"/>
    <path class="cls-3" d="M69.98,247.43c-6.18-5.07-13.72-8.53-21.32-10.94-5.13-1.61-10.38-2.66-15.69-3.27-3.09-.31-6.36-.74-9.39-.31-6.67.87-9.64,6.8-9.76,12.98v.06c-.12,4.08,2.04,8.16,4.51,11.18,7.29,8.9,19.9,11.55,30.65,12.48,8.28.74,25.27,1.92,27.68-9.08,1.17-5.31-2.9-9.95-6.67-13.1ZM62.32,264.98c-4.39.62-8.96.25-13.35-.12-9.27-.8-20.08-3.03-26.57-10.32-1.67-1.85-2.84-4.02-3.4-6.12-.12-.43-.25-.8-.31-1.24-.06-.19-.06-.31-.06-.37v-.06c-.06-.31-.06-.56-.06-.87v-.06c.06-4.08,1.98-7.91,5.81-8.22,6.67-.56,13.96.99,20.33,2.72,6.92,1.92,13.72,4.76,19.65,8.84,2.9,2.04,8.16,5.81,7.72,9.95-.49,4.2-6.36,5.38-9.76,5.87Z"/>
    <path class="cls-3" d="M444.05,168.75c-5.03-6.15-11.87-8-19.26-8.04-5.29-.03-10.57,0-15.86,0v-34.02c0-4.52-3.56-6.26-6.03-6.34h-67.37c-2.78,0-4.37,1.14-5.21,2.09-1.6,1.82-1.51,3.99-1.49,4.15v34.11h-60.96v-34.02c0-4.52-3.56-6.26-6.03-6.34h-67.37c-2.78,0-4.37,1.14-5.21,2.09-1.6,1.82-1.51,3.99-1.49,4.15v34.11h-9.84c-2.91,0-5.85-.12-8.75,0-12.35.52-21.23,10.12-21.65,22.93-1.37,41.51,0,83.31,0,124.85v4.14c0,4.97,7.4,4.98,7.4,0v-118.92c0-6.72-1.09-14.81,3.53-20.24,4.2-4.94,9.55-5.03,15.18-5.03h242.35c11.94,0,25.46-.52,25.8,16.71.81,41.18,0,82.46,0,123.64v3.85c0,4.97,7.4,4.98,7.4,0v-122.58c0-7.67.02-15.02-5.12-21.31ZM193.66,160.72l-.11-34.04c.06-.04.34-.14.89-.14l67.49.16v34.02h-68.27ZM334.73,160.72l-.11-34.04c.06-.04.34-.14.9-.14l67.48.16v34.02c-6.98.01-13.95,0-20.93,0h-47.34Z"/>
    <path class="cls-3" d="M829.77.05v23.17h63.89v163.24h26.38V23.22h31.57V.05h-121.85Z"/>
    <path class="cls-3" d="M1010.32.05v23.17h34.66v163.24h26.38V23.22h63.89V.05h-124.94Z"/>
    <g>
      <path class="cls-3" d="M604.1,93c-2.73-1.25-5.64-2.21-8.65-3.04.13-.06.26-.1.39-.16,7.63-3.73,13.72-9.06,18.25-15.98,4.53-6.93,6.79-15.45,6.79-25.57,0-14.92-5.77-26.68-17.32-35.29C592.02,4.34,575.51.03,554.02.03h-83.64v186.46h88.97c23.62,0,41.42-4.4,53.41-13.18,11.99-8.79,17.98-21.18,17.98-37.16,0-10.65-2.4-19.58-7.19-26.77-4.79-7.19-11.28-12.65-19.44-16.38ZM551.62,21.61c13.49,0,23.97,2.49,31.43,7.46,7.46,4.98,11.19,12.43,11.19,22.37s-3.73,17.41-11.19,22.38c-7.46,4.97-17.94,7.46-31.43,7.46h-54.6V21.61h54.6ZM592.11,157.45c-7.81,4.98-19.09,7.46-33.83,7.46h-61.26v-62.07h61.26c14.74,0,26.01,2.49,33.83,7.46,7.81,4.98,11.72,12.88,11.72,23.71s-3.91,18.47-11.72,23.44Z"/>
      <path class="cls-3" d="M720.5.03l-84.44,186.46h27.44l20.49-46.62h99.14l20.49,46.62h27.97L746.87.03h-26.37ZM693.35,118.57l40.21-91.49,40.21,91.49h-80.41Z"/>
      <polygon class="cls-3" points="1168.79 103.12 1262.28 103.12 1262.28 80.48 1168.79 80.48 1168.79 23.21 1273.74 23.21 1273.74 .03 1142.15 .03 1142.15 186.49 1277.47 186.49 1277.47 163.32 1168.79 163.32 1168.79 103.12"/>
      <path class="cls-3" d="M1427.43,122.03c11.54-5.15,20.42-12.56,26.64-22.24,6.22-9.68,9.32-21.26,9.32-34.76s-3.11-25.13-9.32-34.89c-6.22-9.76-15.1-17.22-26.64-22.37-11.54-5.15-25.48-7.72-41.82-7.72h-72.72v186.46h26.64v-56.74h46.08c4.1,0,8.04-.16,11.84-.49l40.1,57.22h29.04l-44.32-62.54c1.73-.63,3.53-1.19,5.16-1.92ZM1384.81,107.11h-45.28V23.21h45.28c17.05,0,29.96,3.64,38.76,10.92,8.79,7.28,13.18,17.58,13.18,30.9s-4.39,23.67-13.18,31.03c-8.79,7.37-21.71,11.05-38.76,11.05Z"/>
      <polygon class="cls-3" points="1641.59 .03 1615.22 .03 1555.3 98.4 1495.62 .03 1467.12 .03 1541.17 121.57 1541.17 186.49 1567.54 186.49 1567.54 121.97 1641.59 .03"/>
    </g>
  </g>
  <rect class="cls-1" x="935.88" y="144.65" width="93.09" height="41.38"/>
  <rect class="cls-1" x="935.88" y="90.22" width="93.09" height="41.38"/>
  <rect class="cls-1" x="935.88" y="35.79" width="93.09" height="41.38"/>
  <path class="cls-1" d="M969.28-7.78h21.76c.8,0,1.44.65,1.44,1.44V29.54c0,.8-.65,1.44-1.44,1.44h-21.76V-7.78h0Z" transform="translate(969.28 992.48) rotate(-90)"/>
  <g>
    <polygon class="cls-2" points="489.07 269.1 537.68 269.1 537.68 253.71 489.07 253.71 489.07 227.54 543.87 227.54 543.87 211.87 470.38 211.87 470.38 312.53 545.88 312.53 545.88 296.86 489.07 296.86 489.07 269.1"/>
    <polygon class="cls-2" points="644.53 211.87 624.26 211.87 598.82 247.62 573.06 211.87 551.92 211.87 587.25 261.15 549.91 312.53 571.19 312.53 598.18 274.22 625.55 312.53 647.12 312.53 609.31 260.47 644.53 211.87"/>
    <path class="cls-2" d="M719.38,216.18c-6.38-2.87-14.02-4.31-22.94-4.31h-41.42v100.67h18.69v-29.05h22.72c8.92,0,16.56-1.44,22.94-4.31,6.38-2.88,11.29-7,14.74-12.37,3.45-5.37,5.18-11.74,5.18-19.13s-1.73-13.76-5.18-19.13c-3.45-5.37-8.36-9.49-14.74-12.37ZM714.2,262.42c-4.17,3.5-10.38,5.25-18.62,5.25h-21.86v-39.98h21.86c8.24,0,14.45,1.73,18.62,5.18,4.17,3.45,6.26,8.39,6.26,14.81s-2.09,11.24-6.26,14.74Z"/>
    <path class="cls-2" d="M841.84,225.17c-4.89-4.65-10.62-8.27-17.19-10.86-6.57-2.59-13.78-3.88-21.64-3.88s-14.96,1.29-21.57,3.88c-6.62,2.59-12.37,6.21-17.26,10.86-4.89,4.65-8.68,10.12-11.36,16.4-2.68,6.28-4.03,13.16-4.03,20.63s1.34,14.36,4.03,20.64c2.68,6.28,6.47,11.75,11.36,16.4,4.89,4.65,10.64,8.27,17.26,10.86,6.61,2.59,13.85,3.88,21.71,3.88s14.93-1.3,21.5-3.88c6.57-2.59,12.3-6.18,17.19-10.79,4.89-4.6,8.68-10.06,11.36-16.39,2.68-6.33,4.03-13.23,4.03-20.71s-1.34-14.36-4.03-20.63c-2.68-6.28-6.47-11.74-11.36-16.4ZM835.73,276.36c-1.78,4.27-4.24,8.01-7.41,11.22-3.16,3.21-6.9,5.68-11.22,7.41-4.32,1.73-9.01,2.59-14.09,2.59s-9.78-.86-14.09-2.59c-4.32-1.73-8.05-4.19-11.22-7.41-3.16-3.21-5.63-6.97-7.41-11.29-1.77-4.31-2.66-9.01-2.66-14.09s.89-9.9,2.66-14.16,4.27-8,7.48-11.22c3.21-3.21,6.95-5.68,11.22-7.4,4.26-1.73,8.94-2.59,14.02-2.59s9.78.86,14.09,2.59c4.31,1.73,8.05,4.2,11.22,7.4,3.16,3.21,5.63,6.95,7.41,11.22,1.77,4.27,2.66,8.99,2.66,14.16s-.89,9.9-2.66,14.17Z"/>
    <polygon class="cls-2" points="979.45 211.3 962.96 211.3 908 267.91 908 211.3 893.54 211.3 893.54 312.53 908 312.53 908 286.33 926.58 267.5 965.27 312.53 982.2 312.53 936.24 256.9 979.45 211.3"/>
    <path class="cls-2" d="M1035.71,242.82c-5.69-5.11-13.79-7.67-24.3-7.67-6.07,0-11.88.85-17.43,2.53-5.55,1.69-10.29,4.12-14.25,7.3l5.79,10.41c2.99-2.51,6.65-4.51,10.99-6,4.34-1.49,8.77-2.24,13.3-2.24,6.84,0,11.98,1.62,15.4,4.84,3.42,3.23,5.13,7.79,5.13,13.67v2.75h-21.98c-7.62,0-13.67,1.01-18.15,3.04-4.48,2.02-7.71,4.72-9.69,8.1-1.98,3.38-2.96,7.14-2.96,11.28s1.16,8.22,3.47,11.64c2.31,3.42,5.62,6.1,9.91,8.03,4.29,1.93,9.28,2.89,14.97,2.89,7.04,0,12.87-1.32,17.5-3.98,3.25-1.86,5.79-4.2,7.67-6.98v10.09h13.16v-46.28c0-10.51-2.84-18.32-8.53-23.43ZM1021.9,299.23c-3.91,2.31-8.46,3.47-13.67,3.47s-9.45-1.13-12.44-3.4c-2.99-2.26-4.48-5.28-4.48-9.04,0-3.28,1.2-6.07,3.62-8.39,2.41-2.31,7.09-3.47,14.03-3.47h21.4v10.7c-1.73,4.44-4.56,7.81-8.46,10.12Z"/>
    <polygon class="cls-2" points="1115.54 244.99 1115.54 235.88 1053.35 235.88 1053.35 247.31 1097.81 247.31 1052.48 303.57 1052.48 312.53 1116.69 312.53 1116.69 301.11 1070.22 301.11 1115.54 244.99"/>
    <path class="cls-2" d="M1177.29,242.82c-5.69-5.11-13.79-7.67-24.3-7.67-6.07,0-11.88.85-17.43,2.53-5.55,1.69-10.29,4.12-14.25,7.3l5.79,10.41c2.99-2.51,6.65-4.51,10.99-6,4.34-1.49,8.77-2.24,13.3-2.24,6.84,0,11.98,1.62,15.4,4.84,3.42,3.23,5.13,7.79,5.13,13.67v2.75h-21.98c-7.62,0-13.67,1.01-18.15,3.04-4.48,2.02-7.71,4.72-9.69,8.1-1.98,3.38-2.96,7.14-2.96,11.28s1.16,8.22,3.47,11.64c2.31,3.42,5.62,6.1,9.91,8.03,4.29,1.93,9.28,2.89,14.97,2.89,7.04,0,12.87-1.32,17.5-3.98,3.25-1.86,5.79-4.2,7.67-6.98v10.09h13.16v-46.28c0-10.51-2.84-18.32-8.53-23.43ZM1163.48,299.23c-3.91,2.31-8.46,3.47-13.67,3.47s-9.45-1.13-12.44-3.4c-2.99-2.26-4.48-5.28-4.48-9.04,0-3.28,1.2-6.07,3.62-8.39,2.41-2.31,7.09-3.47,14.03-3.47h21.4v10.7c-1.73,4.44-4.56,7.81-8.46,10.12Z"/>
    <polygon class="cls-2" points="1273.9 235.88 1257.12 235.88 1215.33 274.12 1215.33 205.22 1201.44 205.22 1201.44 312.53 1215.33 312.53 1215.33 291.59 1231.18 276.77 1260.01 312.53 1277.08 312.53 1241.65 267.58 1273.9 235.88"/>
    <path class="cls-2" d="M1337.89,238.78c-4.77-2.41-10.29-3.62-16.56-3.62-6.94,0-13.02,1.4-18.22,4.19-3.59,1.93-6.52,4.39-8.82,7.37v-41.5h-13.88v107.31h13.88v-39.48c0-5.59.99-10.27,2.96-14.03,1.98-3.76,4.79-6.6,8.46-8.53,3.66-1.93,7.95-2.89,12.87-2.89,6.55,0,11.64,1.88,15.26,5.64s5.42,9.35,5.42,16.78v42.52h13.88v-44.11c0-7.52-1.35-13.74-4.05-18.66-2.7-4.92-6.44-8.58-11.21-10.99Z"/>
    <path class="cls-2" d="M1414.25,274.21c-2.85-1.45-6-2.58-9.47-3.4-3.47-.82-6.94-1.49-10.41-2.03-3.47-.53-6.63-1.18-9.47-1.95-2.84-.77-5.16-1.86-6.94-3.25-1.79-1.4-2.68-3.4-2.68-6,0-3.09,1.49-5.62,4.48-7.59,2.99-1.97,7.52-2.96,13.59-2.96,3.76,0,7.52.43,11.28,1.3,3.76.87,7.38,2.46,10.85,4.77l5.93-10.99c-3.28-2.22-7.5-3.93-12.65-5.13-5.16-1.2-10.25-1.81-15.26-1.81-6.56,0-12.22.94-16.99,2.82-4.77,1.88-8.46,4.56-11.06,8.03s-3.91,7.52-3.91,12.15.87,7.98,2.6,10.63c1.74,2.65,4.05,4.72,6.94,6.22,2.89,1.5,6.07,2.65,9.55,3.47,3.47.82,6.94,1.5,10.41,2.03,3.47.53,6.63,1.13,9.47,1.81,2.84.68,5.13,1.69,6.87,3.04,1.74,1.35,2.6,3.23,2.6,5.64,0,3.28-1.42,5.83-4.27,7.67-2.84,1.83-7.5,2.75-13.96,2.75-5.01,0-9.93-.77-14.75-2.31-4.82-1.54-8.87-3.42-12.15-5.64l-5.78,10.99c3.28,2.51,7.78,4.63,13.52,6.36,5.73,1.74,11.79,2.6,18.15,2.6,6.85,0,12.73-.94,17.64-2.82,4.92-1.88,8.72-4.51,11.42-7.88,2.7-3.37,4.05-7.38,4.05-12,0-4.34-.89-7.81-2.68-10.41-1.79-2.6-4.1-4.63-6.94-6.07Z"/>
    <path class="cls-2" d="M1463.93,301.69c-3.86,0-6.82-1.11-8.89-3.33-2.07-2.22-3.11-5.4-3.11-9.54v-41.51h21.98v-11.43h-21.98v-16.78h-13.88v16.78h-13.02v11.43h13.02v42.08c0,7.71,2.12,13.64,6.36,17.79,4.24,4.15,10.22,6.22,17.93,6.22,3.18,0,6.24-.43,9.18-1.3,2.94-.87,5.47-2.22,7.59-4.05l-4.34-9.98c-2.89,2.41-6.51,3.62-10.85,3.62Z"/>
    <path class="cls-2" d="M1542.89,242.82c-5.69-5.11-13.79-7.67-24.3-7.67-6.07,0-11.88.85-17.43,2.53-5.55,1.69-10.29,4.12-14.25,7.3l5.79,10.41c2.99-2.51,6.65-4.51,10.99-6,4.34-1.49,8.77-2.24,13.3-2.24,6.84,0,11.98,1.62,15.4,4.84,3.42,3.23,5.13,7.79,5.13,13.67v2.75h-21.98c-7.62,0-13.67,1.01-18.15,3.04-4.48,2.02-7.71,4.72-9.69,8.1-1.98,3.38-2.96,7.14-2.96,11.28s1.16,8.22,3.47,11.64c2.31,3.42,5.62,6.1,9.91,8.03,4.29,1.93,9.28,2.89,14.97,2.89,7.04,0,12.87-1.32,17.5-3.98,3.25-1.86,5.79-4.2,7.67-6.98v10.09h13.16v-46.28c0-10.51-2.84-18.32-8.53-23.43ZM1529.08,299.23c-3.91,2.31-8.46,3.47-13.67,3.47s-9.45-1.13-12.44-3.4c-2.99-2.26-4.48-5.28-4.48-9.04,0-3.28,1.2-6.07,3.62-8.39,2.41-2.31,7.09-3.47,14.03-3.47h21.4v10.7c-1.73,4.44-4.56,7.81-8.46,10.12Z"/>
    <path class="cls-2" d="M1637.18,249.77c-2.7-4.92-6.44-8.58-11.21-10.99-4.77-2.41-10.29-3.62-16.56-3.62-6.94,0-13.02,1.4-18.22,4.19-3.89,2.09-7.02,4.79-9.4,8.12v-11.59h-13.3v76.65h13.88v-39.48c0-5.59.99-10.27,2.96-14.03,1.98-3.76,4.79-6.6,8.46-8.53,3.66-1.93,7.95-2.89,12.87-2.89,6.55,0,11.64,1.88,15.26,5.64s5.42,9.35,5.42,16.78v42.52h13.88v-44.11c0-7.52-1.35-13.74-4.05-18.66Z"/>
  </g>
</svg>