<svg viewBox="0 0 1827.18 351.57" xmlns="http://www.w3.org/2000/svg"><path d="m114.5 135.14h-12.21c-8.13.82-15.96 3.53-22.86 7.91-9.83 6.07-13.65 16.58-18.76 26.54-5.39 12.38-12.06 24.16-19.92 35.14-3.28 4.16-7.44 7.78-11.12 11.74-4.39 4.65-8.51 9.55-12.35 14.67-8.69 10.17-14.55 22.46-16.99 35.62-.38 7.02-.38 14.06 0 21.08 0 7.44-.34 14.87 0 22.31.23 7.11 1.98 14.09 5.12 20.47 4.5 8.73 11.33 10.37 20.47 11.74 28.52 3.77 57.21 6.05 85.97 6.82 8.39.41 24.9.61 33.3.68 1.47 0 2.66-1.2 2.66-2.67s-1.19-2.65-2.66-2.66c-33.45.33-66.89-1.25-100.16-4.71-8.81-.81-17.58-2.06-26.27-3.75-9.35-2.18-12.08-14.67-13.1-22.93-.31-4.91-.31-9.83 0-14.74v-24.97c0-22.65 17.54-42.58 32.68-57.79 16.58-16.78 23.68-39.03 35.34-59.02 6.82-12.01 22.65-15.97 35.75-15.97h87.61v-5.53h-82.49z" fill="#21409a"/><path d="m102.49 150.15c-4.35.34-8.59 1.52-12.49 3.48-5.77 3.3-10.13 8.59-12.28 14.87-5.12 11.67-10.44 23.2-15.97 34.73-.03.18-.03.37 0 .55-.04.25-.04.5 0 .75-.21 1.19.59 2.32 1.77 2.52h1.77c28.59-2.25 57.45-3 86.17-2.93v-5.32c-25.29 0-50.58.77-75.87 2.32l-6.82.41c3.55-7.51 6.82-15.01 10.51-22.58 1.96-6.57 5.23-12.68 9.62-17.94 3.61-2.97 7.98-4.87 12.62-5.46 9.95-.72 19.94-.72 29.88 0h66.05v-5.19h-61.27c-11.12-.27-22.58-1.09-33.71-.2z" fill="#21409a"/><path d="m24.5 211.14c1.26.73 2.88.3 3.62-.96.69-1.27.27-2.85-.96-3.62-.69-.53-1.35-1.1-1.98-1.71l-1.09-1.23-.61-.89c-.3-.42-.55-.88-.75-1.36v-.41c-.03-.34-.03-.68 0-1.02v-1.3c-.01-.14-.01-.27 0-.41-.26-.53-.38-1.12-.34-1.71-.02-.23-.02-.46 0-.68l.48-.82v-.34l.55-.55.41-.41.55-.48.89-.61h6.62l2.12.68h.48l.75.34 1.5.82c1.22.75 2.82.36 3.56-.86.02-.03.04-.06.05-.09.69-1.27.27-2.85-.96-3.62-5.01-3.59-11.61-4.12-17.13-1.36-3.71 2.12-6.1 5.97-6.35 10.23.18 3.28 1.54 6.38 3.82 8.73 1.43 1.41 3.03 2.62 4.78 3.62z" fill="#21409a"/><path d="m105.56 271.6c8.42-2.46 17.16-3.58 25.93-3.34 2.73 0 13.65.41 12.49 0 3.28.48 4.71-4.64 1.36-5.12-10.1-1.36-32.61-1.23-41.89 3.41-2.9 1.35-5.29 3.6-6.82 6.41-1.6 4.07-2.09 8.5-1.43 12.83-.34 7.89 2.07 15.66 6.82 21.97 8.32 9.62 31.39 8.05 42.92 7.98 1.45-.23 2.44-1.6 2.2-3.05-.18-1.13-1.07-2.02-2.2-2.2-9.07 0-30.91 1.91-37.94-5.12-4.11-4.62-6.32-10.61-6.21-16.78v-7.85c-.14-1.62.07-3.25.61-4.78.87-1.87 2.33-3.41 4.16-4.37z" fill="#21409a"/><path d="m53.57 262.52c-5.64-1.76-11.45-2.95-17.33-3.55-3.43-.58-6.91-.71-10.37-.41-6.77 1.24-11.46 7.47-10.78 14.33.17 4.6 1.96 9 5.05 12.42 7.98 9.83 21.9 12.76 33.77 13.65 9.14.75 27.97 2.12 30.57-10.1.3-5.77-2.58-11.24-7.51-14.26-6.98-5.45-14.91-9.55-23.4-12.08zm15.08 31.45c-4.9.55-9.84.55-14.74 0-10.85-.04-21.31-4.1-29.34-11.39-1.77-1.95-3.06-4.29-3.75-6.82v-1.36c0-.89 0 0 0-.48-.03-.32-.03-.64 0-.96 0-4.5 2.18-8.8 6.41-9.14 7.6-.27 15.19.75 22.45 3 7.72 2.03 15.05 5.33 21.7 9.76 3.21 2.25 9.01 6.41 8.53 10.99-.48 4.57-7.51 5.94-11.26 6.41z" fill="#21409a"/><path d="m914.77.04v25.93h70.55v180.26h29.13v-180.26h34.87v-25.93z" fill="#21409a"/><path d="m1114.07.04v25.93h38.28v180.26h29.13v-180.26h70.55v-25.93z" fill="#21409a"/><path d="m681.49 102.73c-3.08-1.4-6.28-2.54-9.55-3.41h.41c17.61-8.31 28.4-26.48 27.29-45.92.53-15.36-6.63-29.97-19.1-38.96-12.78-9.46-30.98-14.21-54.58-14.26h-91.84v205.92h98.25c26.06 0 45.71-4.87 58.95-14.6 13.11-9.41 20.58-24.81 19.86-40.94.36-10.42-2.4-20.7-7.91-29.54-5.34-8.07-12.9-14.42-21.77-18.29zm-57.93-78.88c12.12-.73 24.18 2.14 34.66 8.26 13.64 10.2 16.43 29.53 6.23 43.17-1.77 2.36-3.87 4.46-6.23 6.23-10.48 6.12-22.55 8.99-34.66 8.26h-60.32v-65.92zm44.7 150.11c-11.46 6.16-24.4 9.01-37.39 8.26h-67.62v-68.23h67.62c12.99-.79 25.94 2.07 37.39 8.26 14.38 10.85 17.23 31.3 6.38 45.68-1.82 2.41-3.97 4.56-6.38 6.38v-.34z" fill="#21409a"/><path d="m810.04.04-93.27 205.92h30.29l22.65-51.51h109.17l22.65 51.51h30.84l-93.47-205.92zm-30.3 130.86 44.42-100.98 44.42 100.98z" fill="#21409a"/><path d="m1305.05 113.85h103.23v-24.98h-103.23v-63.24h115.92v-25.59h-145.33v205.92h149.42v-25.59h-120.01z" fill="#21409a"/><path d="m1590.66 134.73c12.03-5.07 22.27-13.63 29.41-24.56 7.11-11.5 10.69-24.83 10.3-38.35.37-13.58-3.21-26.97-10.3-38.55-7.1-10.99-17.35-19.6-29.41-24.7-14.63-6.04-30.37-8.95-46.19-8.53h-80.31v205.92h29.41v-62.7h50.9c4.57 0 8.87 0 13.1-.48l44.28 63.18h32.07l-49.06-69.12c1.98-.68 4.03-1.3 5.8-2.12zm-47.08-16.45h-50.01v-92.31h50.35c18.83 0 33.11 4.03 42.85 12.08 9.9 8.49 15.27 21.1 14.53 34.12.66 13-4.7 25.59-14.53 34.12-9.96 8.01-24.24 12.01-42.85 12.01h-.34z" fill="#21409a"/><path d="m1827.15.04h-29.14l-66.18 108.62-65.84-108.62h-31.53l81.81 134.21v71.71h29.07v-71.3z" fill="#21409a"/><g fill="#414042"><path d="m554.31 302.44h53.22v-16.86h-53.22v-28.65h59.98v-17.2h-80.45v110.26h82.7v-17.12h-62.23z"/><path d="m724.55 239.73h-22.18l-27.84 39.17-28.24-39.17h-23.2l38.75 53.97-40.94 56.29h23.34l29.54-41.96 30.02 41.96h23.61l-41.41-57.04z"/><path d="m806.56 244.3c-7.94-3.33-16.5-4.93-25.11-4.71h-45.37v110.26h20.47v-31.8h24.9c8.61.22 17.17-1.38 25.11-4.71 6.59-2.9 12.21-7.64 16.17-13.65 7.55-12.94 7.55-28.95 0-41.89-3.98-5.96-9.6-10.65-16.17-13.51zm-5.67 50.7c-5.94 4.24-13.19 6.27-20.47 5.73h-23.88v-43.8h23.95c7.27-.53 14.5 1.47 20.47 5.66 8.95 8.74 9.12 23.08.38 32.03-.12.13-.25.25-.38.38z"/><path d="m940.7 254.33c-5.46-5.15-11.85-9.2-18.83-11.94-15.28-5.65-32.07-5.65-47.35 0-7.01 2.72-13.43 6.78-18.9 11.94-5.33 5.06-9.56 11.17-12.42 17.94-5.91 14.5-5.91 30.74 0 45.24 2.89 6.76 7.11 12.86 12.42 17.94 5.49 5.12 11.9 9.15 18.9 11.87 7.6 2.91 15.68 4.35 23.81 4.23 8.04.1 16.03-1.34 23.54-4.23 6.96-2.72 13.35-6.72 18.83-11.8 5.33-5.06 9.56-11.17 12.42-17.94 2.99-7.2 4.5-14.93 4.43-22.72.07-7.75-1.44-15.44-4.43-22.58-2.86-6.77-7.09-12.88-12.42-17.94zm-6.82 56.09c-1.91 4.57-4.66 8.74-8.12 12.28-3.5 3.51-7.68 6.27-12.28 8.12-9.96 3.73-20.94 3.73-30.91 0-4.6-1.85-8.78-4.61-12.28-8.12-3.49-3.57-6.25-7.79-8.12-12.42-3.82-9.95-3.82-20.96 0-30.91 1.9-4.59 4.68-8.76 8.19-12.28 3.51-3.5 7.69-6.26 12.28-8.12 4.88-1.94 10.1-2.92 15.35-2.87 5.3-.06 10.56.92 15.49 2.87 4.61 1.83 8.8 4.59 12.28 8.12 3.49 3.52 6.24 7.7 8.12 12.28 1.96 4.92 2.94 10.19 2.87 15.49.11 5.31-.82 10.6-2.73 15.56z"/><path d="m1072.52 301.82c.82 9.69-2.08 19.33-8.12 26.95-13.25 11.28-32.73 11.28-45.99 0-6.04-7.62-8.94-17.26-8.12-26.95v-62.09h-15.76v62.7c-.96 13.32 3.55 26.45 12.49 36.37 19.74 16.52 48.49 16.52 68.23 0 8.83-9.97 13.28-23.08 12.35-36.37v-62.7h-15.28z"/><path d="m1174.73 276.44v-9.89h-67.75v12.41h48.44l-49.4 61.27v9.76h70v-12.42h-50.62z"/><path d="m1258.38 271.12c-6.65-3.69-14.16-5.55-21.77-5.39-6.62-.07-13.15 1.55-18.97 4.71-3.96 2.23-7.42 5.25-10.17 8.87v-46.19h-15.08v116.88h14.46v-13.24c2.76 3.88 6.35 7.09 10.51 9.42 5.89 3.24 12.52 4.89 19.24 4.78 7.59.15 15.1-1.68 21.77-5.32 6.24-3.57 11.4-8.75 14.94-15.01 3.79-6.84 5.7-14.56 5.53-22.38.18-7.77-1.73-15.46-5.53-22.24-3.54-6.22-8.71-11.36-14.94-14.87zm1.5 52.67c-2.34 4.31-5.83 7.88-10.1 10.3-4.4 2.44-9.36 3.68-14.4 3.62-4.99.06-9.9-1.19-14.26-3.62-4.26-2.42-7.76-5.99-10.1-10.3-2.53-4.79-3.8-10.14-3.68-15.56-.13-5.39 1.14-10.73 3.68-15.49 2.38-4.24 5.87-7.76 10.1-10.17 4.36-2.43 9.27-3.68 14.26-3.62 5.03-.07 9.99 1.18 14.4 3.62 4.23 2.41 7.72 5.92 10.1 10.17 2.55 4.76 3.82 10.09 3.68 15.49.12 5.41-1.15 10.77-3.68 15.56z"/><path d="m1351.65 271.12c-6.53-3.68-13.93-5.55-21.42-5.39-7.52-.11-14.94 1.78-21.49 5.46-6.31 3.51-11.5 8.71-15.01 15.01-3.69 6.75-5.54 14.35-5.39 22.04-.16 7.74 1.77 15.38 5.59 22.11 3.71 6.4 9.15 11.63 15.69 15.08 13.22 6.57 28.58 7.32 42.37 2.05 5.44-2.16 10.29-5.6 14.12-10.03l-8.32-9.83c-2.92 3.31-6.56 5.9-10.64 7.57-9.53 3.71-20.18 3.32-29.41-1.09-4.49-2.28-8.24-5.81-10.78-10.17-1.91-3.26-3.12-6.89-3.55-10.64h67.75v-4.57c.2-7.85-1.61-15.63-5.25-22.58-3.25-6.24-8.19-11.44-14.26-15.01zm-35.48 10.91c4.28-2.43 9.14-3.65 14.06-3.55 4.92-.11 9.78 1.12 14.06 3.55 4.02 2.34 7.33 5.74 9.55 9.83 1.78 3.27 2.85 6.87 3.14 10.58h-53.63c.37-3.66 1.46-7.2 3.21-10.44 2.21-4.16 5.54-7.61 9.62-9.96z"/><path d="m1467.5 266.55h-18.21l-45.51 41.62v-75.06h-15.15v116.88h15.15v-22.79l17.26-16.17 31.38 38.96h18.56l-38.55-48.92z"/><path d="m1480.74 266.55h15.15v83.51h-15.15z"/><path d="m1488.31 232.98c-2.55-.1-5.02.86-6.82 2.66-1.81 1.8-2.77 4.28-2.66 6.82-.13 2.55.84 5.03 2.66 6.82 1.8 1.8 4.28 2.76 6.82 2.66 2.55.13 5.03-.84 6.82-2.66 1.87-1.76 2.87-4.26 2.73-6.82.12-2.56-.88-5.05-2.73-6.82-1.79-1.82-4.27-2.79-6.82-2.66z"/><path d="m1570.46 308.23c-3.27-1.65-6.73-2.88-10.3-3.68-3.75-.89-7.57-1.64-11.33-2.18-3.47-.53-6.91-1.24-10.3-2.12-2.73-.68-5.3-1.89-7.57-3.55-2.07-1.63-3.17-4.2-2.93-6.82.03-3.44 1.91-6.59 4.91-8.26 4.52-2.5 9.66-3.63 14.81-3.28 4.14 0 8.26.49 12.28 1.43 4.22.99 8.22 2.75 11.8 5.19l6.48-11.94c-4.18-2.65-8.8-4.55-13.65-5.59-5.46-1.28-11.04-1.95-16.65-1.98-6.3-.15-12.57.9-18.49 3.07-4.76 1.73-8.94 4.76-12.08 8.73-2.82 3.83-4.3 8.48-4.23 13.24-.19 4.05.78 8.08 2.8 11.6 1.91 2.88 4.51 5.22 7.57 6.82 3.3 1.71 6.81 2.99 10.44 3.82 3.75.89 7.51 1.57 11.33 2.18s7.23 1.23 10.3 1.98c2.7.58 5.25 1.69 7.51 3.28 1.85 1.49 2.89 3.77 2.8 6.14.07 3.43-1.7 6.63-4.64 8.39-4.72 2.32-9.97 3.33-15.22 2.93-5.44 0-10.85-.83-16.03-2.46-4.69-1.42-9.15-3.51-13.24-6.21l-6.28 12.01c4.46 3.11 9.42 5.42 14.67 6.82 6.43 1.87 13.09 2.82 19.79 2.8 6.55.15 13.07-.89 19.24-3.07 4.84-1.7 9.13-4.67 12.42-8.6 2.94-3.7 4.51-8.31 4.43-13.03.21-4.01-.81-7.99-2.93-11.39-2.02-2.69-4.66-4.85-7.71-6.28z"/><path d="m1626.48 338.19c-3.6.22-7.12-1.09-9.69-3.62-2.44-2.89-3.66-6.6-3.41-10.37v-45.24h23.95v-12.42h-23.95v-18.29h-14.87v18.29h-14.19v12.42h14.19v45.85c-.47 7.12 1.99 14.12 6.82 19.38 5.35 4.8 12.4 7.26 19.58 6.82 3.37 0 6.73-.48 9.96-1.43 3.04-.84 5.85-2.33 8.26-4.37l-4.71-10.92c-3.37 2.71-7.62 4.1-11.94 3.89z"/><path d="m1687.89 265.73c-6.43-.01-12.82.93-18.97 2.8-5.63 1.59-10.9 4.28-15.49 7.91l6.28 11.33c3.51-3.01 7.56-5.33 11.94-6.82 4.67-1.63 9.59-2.46 14.53-2.46 6.06-.45 12.06 1.43 16.78 5.25 3.88 3.95 5.91 9.35 5.59 14.87v3h-23.95c-6.76-.3-13.5.84-19.79 3.34-4.37 1.74-8.07 4.82-10.58 8.8-2.14 3.74-3.25 7.98-3.21 12.28-.07 4.51 1.24 8.94 3.75 12.69 2.73 3.87 6.49 6.89 10.85 8.73 5.15 2.2 10.71 3.27 16.31 3.14 6.54.32 13.04-1.04 18.9-3.96 3.34-1.89 6.19-4.53 8.32-7.71v11.05h14.33v-50.42c.75-9.45-2.63-18.76-9.28-25.52-7.45-5.94-16.83-8.9-26.34-8.32zm11.46 69.8c-4.55 2.58-9.71 3.88-14.94 3.75-4.83.3-9.63-.99-13.65-3.68-3.17-2.25-5.02-5.94-4.91-9.83-.03-3.47 1.41-6.79 3.96-9.14 4.47-3.07 9.9-4.42 15.28-3.82h23.33v11.67c-1.69 4.6-4.89 8.5-9.07 11.05z"/><path d="m1822.71 281.63c-2.72-5.16-6.99-9.33-12.21-11.94-5.6-2.74-11.78-4.1-18.01-3.96-6.9-.17-13.73 1.4-19.86 4.57-4.05 2.12-7.56 5.16-10.23 8.87v-12.62h-14.46v83.45h15.08v-42.99c-.18-5.29.95-10.53 3.28-15.28 2.02-3.99 5.24-7.23 9.21-9.28 4.33-2.18 9.14-3.26 13.99-3.14 6.16-.38 12.2 1.85 16.65 6.14 4.26 5.1 6.36 11.66 5.87 18.29v46.26h15.15v-47.76c.29-7.13-1.23-14.22-4.43-20.61z"/></g><path d="m247.34 148.44h8.12v24.84h-8.12z" fill="#8dc63f"/><path d="m239.09 156.63h24.56v8.46h-24.56z" fill="#8dc63f"/><path d="m394.86 156.63h24.56v8.46h-24.56z" fill="#8dc63f"/><path d="m192.08 308.37h274.42v38.21h-274.42z" fill="#8dc63f"/><path d="m192.08 258.09h274.42v38.21h-274.42z" fill="#8dc63f"/><path d="m490.17 187.74c-5.29-6.17-13.19-9.46-21.29-8.87h-17.47v-37.59c0-3.77-3.05-6.82-6.82-6.82h-74.23c-2.18-.1-4.29.75-5.8 2.32-1.1 1.29-1.69 2.94-1.64 4.64v37.66h-67.27v-37.8c0-3.77-3.05-6.82-6.82-6.82h-74.23c-2.18-.1-4.29.75-5.8 2.32-1.1 1.29-1.69 2.94-1.64 4.64v37.66h-20.54c-13.53.52-24.15 11.78-23.88 25.31-1.5 45.85 0 91.97 0 137.82v4.44c0 2.26 1.83 4.09 4.09 4.09s4.09-1.83 4.09-4.09v-131.34c0-7.44-1.23-16.38 3.89-22.38 4.35-4.43 10.58-6.49 16.72-5.53h267.53c13.17 0 28.11-.61 28.45 18.42.89 45.44 0 91.09 0 136.46v4.37c0 2.26 1.82 4.1 4.08 4.1s4.1-1.82 4.1-4.08v-135.39c1.09-8.26-.87-16.63-5.53-23.54zm-276.74-8.87v-37.59c.33-.1.69-.1 1.02 0h74.51v37.59zm155.77 0v-37.59c.33-.1.69-.1 1.02 0h74.51v37.59z" fill="#21409a"/><path d="m199.45 207.8h259.68c4.07 0 7.37 3.3 7.37 7.37v30.84h-274.42v-30.84c0-4.07 3.3-7.37 7.37-7.37z" fill="#8dc63f"/><path d="m1031.92 159.77h102.82v45.71h-102.82z" fill="#8dc63f"/><path d="m1031.92 99.66h102.82v45.71h-102.82z" fill="#8dc63f"/><path d="m1031.92 39.54h102.82v45.71h-102.82z" fill="#8dc63f"/><path d="m1060.24 25.69v-15.76c0-5.43 4.4-9.83 9.83-9.83h23.13c5.43 0 9.83 4.4 9.83 9.83v15.76h-42.78z" fill="#8dc63f"/></svg>