<?xml version="1.0" encoding="UTF-8"?>
<svg id="katman_1" xmlns="http://www.w3.org/2000/svg" viewBox="0 0 1138.36 746">
  <defs>
    <style>
      .cls-1 {
        fill-rule: evenodd;
      }

      .cls-1, .cls-2 {
        fill: #8f1e7a;
      }
    </style>
  </defs>
  <path class="cls-2" d="M43.12,703.77c6.92,1.2,12.53,3.54,16.84,6.94,4.3,3.43,6.46,7.9,6.46,13.4,0,3.98-1.14,7.54-3.44,10.69-2.26,3.15-5.3,5.6-9.12,7.37-3.78,1.78-8.02,2.65-12.68,2.65H0v-79.23h37.8c4.83,0,9.13.87,12.92,2.59,3.82,1.73,6.82,4.09,8.99,7.06,2.17,2.95,3.26,6.25,3.26,9.9,0,4.63-1.78,8.56-5.32,11.78-3.55,3.18-8.39,5.47-14.56,6.82h.02ZM30.74,667.9h-13.47v35.09h11.78c4.9,0,8.83-1.39,11.78-4.16,2.92-2.81,4.41-7.15,4.41-13.05s-1.33-9.96-3.98-13.11c-2.63-3.17-6.13-4.77-10.5-4.77h-.02ZM34.18,742.61c4.35,0,7.83-1.65,10.44-4.95,2.65-3.34,3.98-7.92,3.98-13.77,0-3.98-.58-7.21-1.7-9.72-1.13-2.49-2.57-4.36-4.29-5.61-1.73-1.28-3.5-2.15-5.32-2.59-1.81-.48-3.43-.72-4.83-.72h-15.22v37.39h16.93Z"/>
  <path class="cls-2" d="M94.35,742.61h41.13v2.24h-58.39v-79.23h57.25v2.3h-39.98v35.63h30.92v2.24h-30.92v36.84h-.01Z"/>
  <path class="cls-2" d="M197.47,744.85l-9.24-21.38h-35.33l-9.3,21.38h-3.15l34.72-79.23h5.98l34.67,79.23h-18.35,0ZM153.93,721.17h33.39l-16.67-38.34-16.73,38.34h.01Z"/>
  <path class="cls-2" d="M261.55,745.99c-6.93,0-13.13-1.33-18.6-3.98-5.48-2.69-9.78-6.49-12.92-11.41-3.11-4.9-4.64-10.6-4.64-17.09v-47.89h17.27v49.71c0,7.85,2.2,14.07,6.65,18.66,4.42,4.56,10.33,6.82,17.69,6.82s13.12-2.26,17.4-6.82c4.26-4.59,6.4-10.81,6.4-18.66v-49.71h2.72v50.25c0,6.04-1.27,11.34-3.81,15.89-2.53,4.51-6.19,8.02-10.93,10.5-4.75,2.51-10.49,3.75-17.21,3.75h0Z"/>
  <path class="cls-2" d="M368.41,665.61v2.3h-24.09v76.93h-17.34v-76.93h-24.09v-2.3h65.52,0Z"/>
  <path class="cls-2" d="M441.08,665.61h3.26l-27.48,45.3v33.95h-17.34v-33.95l-27.36-45.3h18.78l25.12,41.67,25-41.67h.01Z"/>
  <path class="cls-2" d="M500.95,742.61h41.13v2.24h-58.39v-79.23h57.25v2.3h-39.98v35.63h30.92v2.24h-30.92v36.84h-.01Z"/>
  <path class="cls-2" d="M616.32,736.27c.8,1.73,1.78,3.38,2.96,4.95,1.17,1.57,2.32,2.78,3.5,3.62h-18.72c-1.06-.68-2.04-1.65-2.96-2.9-.9-1.24-1.63-2.48-2.24-3.69l-10.5-22.7c-.53-1.08-1.2-2-2.05-2.78-.81-.8-1.86-1.43-3.15-1.87h-12.38v33.95h-17.27v-79.23h33.7c5.68,0,10.75,1,15.22,2.96,4.5,1.98,8.05,4.64,10.63,8.03,2.62,3.38,3.93,7.31,3.93,11.78,0,3.91-1.06,7.43-3.15,10.57-2.05,3.15-4.93,5.73-8.58,7.73-3.67,1.98-7.88,3.26-12.62,3.87,3.62.6,6.9,1.76,9.84,3.44,2.92,1.66,5.09,4.02,6.46,7.06l7.37,15.22v-.02ZM570.79,667.9v40.7h12.38c4.87,0,8.76-1.83,11.66-5.49,2.92-3.7,4.41-8.65,4.41-14.85s-1.47-11.13-4.41-14.79c-2.9-3.7-6.79-5.55-11.66-5.55h-12.38Z"/>
  <path class="cls-2" d="M674.18,703.77c6.92,1.2,12.53,3.54,16.84,6.94,4.3,3.43,6.46,7.9,6.46,13.4,0,3.98-1.14,7.54-3.44,10.69-2.26,3.15-5.3,5.6-9.12,7.37-3.78,1.78-8.02,2.65-12.68,2.65h-41.18v-79.23h37.8c4.83,0,9.13.87,12.92,2.59,3.82,1.73,6.82,4.09,8.99,7.06,2.17,2.95,3.26,6.25,3.26,9.9,0,4.63-1.78,8.56-5.32,11.78-3.55,3.18-8.39,5.47-14.56,6.82h.01ZM661.79,667.9h-13.47v35.09h11.78c4.9,0,8.83-1.39,11.78-4.16,2.92-2.81,4.41-7.15,4.41-13.05s-1.33-9.96-3.98-13.11c-2.63-3.17-6.13-4.77-10.5-4.77h-.02ZM665.23,742.61c4.35,0,7.83-1.65,10.44-4.95,2.65-3.34,3.98-7.92,3.98-13.77,0-3.98-.58-7.21-1.7-9.72-1.13-2.49-2.57-4.36-4.29-5.61-1.73-1.28-3.5-2.15-5.32-2.59-1.81-.48-3.43-.72-4.83-.72h-15.22v37.39h16.93Z"/>
  <path class="cls-2" d="M708.15,744.85v-79.23h17.27v79.23h-17.27Z"/>
  <path class="cls-2" d="M759.49,742.61h38.28v2.24h-55.56v-79.23h17.27v76.99Z"/>
  <path class="cls-2" d="M854.91,742.61h41.13v2.24h-58.39v-79.23h57.25v2.3h-39.98v35.63h30.92v2.24h-30.92v36.84h-.01Z"/>
  <path class="cls-2" d="M970.16,744.85h-18.48l-21.13-33.52-23.31,33.52h-3.5l25.25-36.12-27.18-43.12h18.42l20.84,33.04,23.2-33.04h3.56l-25.19,35.69,27.54,43.54h-.02Z"/>
  <path class="cls-2" d="M1017.26,665.61c5.63,0,10.69,1.08,15.16,3.26,4.5,2.15,8.05,5.06,10.63,8.76,2.62,3.71,3.93,7.94,3.93,12.68s-1.31,8.88-3.93,12.62c-2.58,3.71-6.13,6.65-10.63,8.82-4.47,2.15-9.52,3.21-15.16,3.21h-18.72v29.89h-17.27v-79.23h36ZM1012.5,712.72c5.1,0,9.18-2.05,12.2-6.16,3.02-4.1,4.53-9.51,4.53-16.24s-1.51-12.14-4.53-16.24c-3.02-4.1-7.1-6.16-12.2-6.16h-13.94v44.81h13.94Z"/>
  <path class="cls-2" d="M1096.02,745.99c-6.04,0-11.63-1.01-16.79-3.02-5.12-2.05-9.61-4.93-13.47-8.64-3.83-3.7-6.81-8.03-8.94-12.99-2.1-4.95-3.15-10.33-3.15-16.12s1.04-11.17,3.15-16.12c2.13-4.95,5.1-9.25,8.94-12.92,3.87-3.7,8.35-6.59,13.47-8.64,5.15-2.05,10.75-3.08,16.79-3.08s11.61,1.03,16.73,3.08c5.15,2.05,9.63,4.94,13.47,8.64,3.87,3.67,6.84,7.97,8.94,12.92,2.13,4.95,3.21,10.33,3.21,16.12s-1.07,11.17-3.21,16.12c-2.1,4.95-5.07,9.29-8.94,12.99-3.83,3.71-8.32,6.59-13.47,8.64-5.12,2-10.69,3.02-16.73,3.02ZM1096.02,743.7c4.9,0,9.21-1.58,12.92-4.77,3.7-3.22,6.55-7.7,8.58-13.47,2.05-5.8,3.08-12.53,3.08-20.23s-1.03-14.51-3.08-20.23c-2.03-5.75-4.88-10.22-8.58-13.4-3.71-3.22-8.02-4.83-12.92-4.83s-9.23,1.61-12.92,4.83c-3.67,3.18-6.52,7.65-8.58,13.4-2.03,5.73-3.02,12.47-3.02,20.23s1,14.44,3.02,20.23c2.05,5.76,4.9,10.25,8.58,13.47,3.7,3.18,8,4.77,12.92,4.77Z"/>
  <path class="cls-1" d="M852.51,299.66c-2.95-4.42-6.88-8.24-10.87-12.08-4.31-4.09-8.46-8.31-11.9-13.44-4.87-7.15-9.83-15.34-12.4-23.65-3.66-13.11-3.22-27.91-2.52-41.57,1.09-16.39,2.95-32.45,3.06-49.06,0-39.72-13.6-72.55-32.23-104.99,2.3-9.23,3.93-18.47,4.87-27.8l-4.87-1.25c-.87,9.56-2.52,18.74-4.8,27.97-13.49,51.89-50.2,97.84-88.98,132.86-20.21,18.13-42.23,34.69-65.45,49.71-7.97,5.09-15.9,9.62-23.71,14.58-1.2-.33-2.19-.6-3.22-1.03-11.47-2.9-23.38-3.66-35.19-1.63-5.68,1.03-11.52,2.79-16.93,5.02,3.11-5.18,6.17-10.38,9.45-15.68,1.03.87,2.3,1.92,3.71,2.62,16.61,10.6,34.69.49,47.25-11.41,14.31-13.38,22.35-34.14,24.36-55.06,2.79-36.22-10.22-61.29-14.15-68.62-18.85,4.09-37.58,12.02-52.23,25.73-11.52,10.65-20.16,24.69-24.14,40.97-3.17,13.33-3.44,28.09.6,41.46,2.24,7.59,5.96,15.03,11.14,20.7-4.09,6.5-7.92,13.11-11.52,19.61-.27-25.41-12.51-47.63-30.21-64.57-12.79-11.97-28.79-21.08-46.71-26.99l-3.06,3.22c1.58-11.59,3.5-23.27,5.63-35.51,1.14.6,2.46,1.14,3.88,1.47,27.37,6.99,50.2-42.34,49.6-64.4,0-2.19-.22-4.69-.76-7.1,2.73-8.74,3.88-20.81,3.99-34.2.16-7.05-5.74-7.65-12.73-6.07-3.44-5.14-5.36-8.69-6.94-10.43-1.03-.87-1.92-1.43-3.01-1.36-2.41-.11-5.96,2.46-13.71,6.94-2.84-3.17-6.39-6.5-10.43-9.45-8.96-6.34-10.22-7.75-16.61.98-3.06,4.31-7.54,12.51-11.79,23.87-2.35-5.79-5.52-9.73-10.16-15.68,7.54,19.4-.33,44.03-4.31,62.5-4.8,21.64,2.68,42.34,24.58,50.97-18.35-14.26-3.99-47.69-6.07-78.51,1.92-4.91,4.75-9.62,8.15-13.6.98-1.31,2.35-2.73,3.66-3.93,6.28,3.11,12.19,7.43,17.1,12.4.93,1.14,2.08,2.41,3.06,3.71-11.79,5.74-18.63,12.51-22.4,18.2-7.97,11.86-12.19,47.63,1.09,60.69-2.62,14.85-5.02,29.61-6.94,44.57-13.17,15.68-23.82,33.22-28.67,52.01-4.75,17.7-4.04,35.73,3.06,52.45,2.62,6.34,6.39,12.24,10.76,17.59-3.11-.22-6.34-.65-9.62-.6-6.45,15.57-8.91,29.66-8.53,41.73-7.81-29.5-23.76-58.5-47.53-86.48-15.03,43.97-3.8,93.58,24.94,136.68-2.79-2.52-13.21-12.63-16-15.2-13.38-11.79-53.09-41.94-64.56-56.35,1.14-.54,2.41-1.31,3.44-2.3,21.86-17.86-4.53-65.45-22.67-78.01-1.74-1.25-3.88-2.62-6.12-3.6-5.52-7.37-14.53-15.34-25.23-23.44-5.58-4.26-9.62.16-12.46,6.77-6.17-.27-10.22-.87-12.57-.6-1.31.33-2.24.71-2.84,1.58-1.47,1.92-1.58,6.28-2.46,15.19-4.31.44-9.07,1.31-13.82,2.84-10.38,3.5-12.29,3.6-9.02,13.98,1.7,4.98,5.63,13.44,12.35,23.6-6.12-1.47-11.14-1.25-18.69-1.03,20.05,5.3,35.28,26.28,47.8,40.37,12.73,14.47,30.26,21.03,47.63,14.42,1.97-.76,3.93-1.7,5.85-2.79.76-.38,1.47-.82,2.24-1.31-1.2.38-2.41.6-3.55.71-8.69.98-16.88-3.5-25.23-10.16-11.7-9.29-23.76-22.95-38.13-32.07-2.9-4.42-4.91-9.51-6.17-14.64-.44-1.52-.82-3.5-1.03-5.18,6.17-3.28,13.17-5.52,20.05-6.5,1.47-.11,3.17-.27,4.87-.27-2.35,12.95-.87,22.46,1.47,28.79,4.8,13.44,31.19,37.96,49.6,35.01,4.91,5.14,9.89,10.27,14.85,15.3,5.14,5.14,60.64,49.22,80.52,70.74l-12.24-3.22c-51.08-29.12-122.16-14.58-144.33,46.93,10.05-11.59,28.09-17.7,54.35-18.51,30.54-.6,45.95-23.98,89.27-23.76l18.85,4.87c12.73,14.42,24.8,29.94,36.33,46.76-27.97-30.75-61.9-32.51-101.55-4.98,28.51,2.03,36.66,21.75,72.39,17.26,13.87-1.81,22.73-5.68,40.75,5.18,1.47,2.46,3.01,5.14,4.69,7.7,4.48,7.54,8.91,15.07,13.28,23.11,0,0,.11.16.16.33,1.09,2.19,1.58,3.33,2.3,5.63.33.76.38,1.36.65,2.13,3.28,7.81,6.77,15.79,10.54,23.82l1.7-1.14,2.19-1.58c-3.99-8.58-7.7-17.53-11.3-26.28-.87-2.68-1.52-5.3-2.35-7.75-1.97-6.39-3.82-13.06-5.63-19.5.16-19.07,1.81-37.85,4.91-56.87,2.68,3.93,6.07,7.32,9.29,10.38,12.68,11.14,29.12,15.03,45.4,13.77-14.2,36.87-13.17,75.94,1.74,111.49l3.99-2.08c-5.96-14.36-9.78-29.39-10.81-45.13-1.81-22.4,1.92-44.47,10.27-64.95,16.12-2.24,31.73-9.34,43.81-19.18-5.58-15.57-13.55-30.21-25.9-41.02-9.34-8.35-20.87-14.09-33.71-15.57-8.96-1.09-18.31.16-26.93,3.5,1.47-5.85,2.08-12.84,1.03-21.14-.11-.87-.22-1.7-.33-2.52,1.74-5.3,3.66-10.65,5.85-15.95,6.88,13.55,19.99,23.6,32.51,30.05,15.57,8.19,33.43,10.16,50.64,7.43,6.39-.87,12.89-2.68,18.91-4.98,25.62-9.29,47.2-28.47,62.39-53.48-1.7-2.57-3.5-5.36-5.41-7.81,16.34-15.95,32.34-32.13,46.54-49.6,19.45-23.71,36.98-51.08,42.94-82.11,1.14-6.17,1.86-12.35,2.13-18.58l.49-13.55-8.46,10.05c-31.08,36.87-67.68,65.56-110.79,82.28,74.73-51.18,124.22-110.95,142.03-170.93,17.15,30.48,29.39,61.62,29.5,98.94,0,16.39-1.86,32.45-3.01,48.61-.93,14.15-1.25,29.34,2.68,42.99,2.62,8.96,7.7,17.59,13,25.19,3.5,5.3,7.92,9.62,12.4,14.09,3.6,3.55,7.54,7.15,10.11,11.3,8.85,14.04-1.92,22.89-11.36,32.23-21.79,21.68-44.85,50.42-48.07,82.28-.71,7.75-.11,15.57.6,23.16,1.03,10.92,3.99,30.21-2.84,39.61-6.61,9.29-20.97,8.85-30.86,7.7-9.94-1.36-20.97-5.3-30.43-8.64-12.57-4.58-24.92-9.56-37.36-13.82-15.41-5.14-32.23-9.78-48.45-10.05-64.57-1.47-75.34,57.52-67.41,109.48,3.06,20.16,9.18,41.19,17.86,59.66l1.14,2.13,4.2-1.97-1.14-2.13c-17.91-37.58-32.94-110.41-2.24-144.93,12.29-13.55,29.61-18.13,47.53-17.64,15.79.22,32.13,4.87,47.03,9.83,12.46,4.2,24.74,9.18,37.09,13.71,10,3.5,21.25,7.59,31.68,8.96,11.86,1.2,27.37,1.31,35.12-9.51,7.7-11.03,4.75-30.32,3.66-42.99-.76-7.1-1.31-14.76-.6-22.02,3.01-30.75,25.73-58.68,46.82-79.6,5.63-5.85,12.89-12.13,15.3-20.1,1.74-6.17.11-12.24-3.28-17.86h.01ZM626.96,173.24c-1.7,18.63-8.85,38.85-22.73,51.73-10.65,10.11-26.66,19.99-40.97,10.81-3.44-2.08-6.23-5.09-8.69-8.42,45.67-24.74,18.13-71.23,67.3-100.3,4.8,14.85,6.72,30.65,5.09,46.16h0ZM551.95,223.23c-2.13-3.71-3.55-7.7-4.69-11.36-3.77-12.4-3.77-26.17-.65-38.63,3.6-15.03,11.52-28.13,22.73-38.63,12.89-12.08,29.07-19.45,45.95-23.54,1.86,3.55,3.5,7.48,4.87,11.3-11.79,6.83-21.79,15.95-28.67,28.85-3.77,7.26-6.23,14.58-8.31,22.24-1.92,6.88-3.6,13.93-6.28,20.7-3.6,9.78-8.53,17.48-16.83,23.76-2.46,1.86-5.25,3.66-8.08,5.3h-.02ZM448.81,62.84c-.44,11.09-2.3,21.91-3.01,32.89-.44,6.28-.54,12.89.98,19.23-9.02-9.62-11.52-23.16-8.46-37.31,3.06-13.77,7.54-28.9,7.75-43.59.38.93.65,2.13.93,3.33,2.13,8.24,2.41,16.88,1.81,25.46h0ZM478.91,127.25c-2.3.27-4.26.22-6.5-.38-2.68-.65-4.87-2.35-6.61-4.48,13.11-6.72,22.18-16.61,26.77-31.8,1.92-6.01,3.06-12.19,4.42-18.4.93-4.58,2.24-9.89,4.98-13.87,2.52-3.44,5.74-5.63,9.56-6.99,3.5,4.2,4.8,9.56,4.91,15.63.38,18.4-17.04,57.52-37.53,60.31h0ZM515.41,23.3c1.03-.22,3.33-.49,4.09.27.33.33.44,1.58.38,2.03-.16,7.05-.38,17.64-2.3,26.71-2.3-4.53-6.17-8.58-12.4-11.47-3.11.87-6.23,1.7-9.13,2.68.93-5.18,1.63-9.83.87-14.31l1.86-.76c2.57-1.09,5.18-2.19,7.86-3.06,2.73-.87,5.85-1.74,8.74-2.08h.02ZM496.94,13.9c.76-.27,3.39-1.86,4.31-2.24.93.71,2.41,3.17,2.9,3.88l3.22,5.18c-4.04,1.25-8.35,3.01-11.7,4.42-.6-1.52-1.43-2.95-2.41-4.26-.87-.98-1.74-2.13-2.68-3.28,2.19-1.09,4.26-2.41,6.34-3.71h.01ZM464.21,27.23s-6.61,4.64-12.02,14.76c-.22-1.63-.76-3.39-1.03-5.18,1.92-5.9,4.26-11.86,6.99-17.37,1.81-3.55,3.93-7.48,6.07-10.76.54-.65,2.95-3.82,3.82-4.42,1.25.33,5.9,3.66,6.83,4.37,5.63,4.04,10.65,9.4,14.85,14.8,1.58,2.24,2.68,4.37,3.06,6.83.38,3.11,0,6.34-.54,9.4-.11,1.81-.49,3.5-.82,5.36-.93.38-1.86.76-2.79,1.14-3.66-4.59-11.52-13.11-24.42-18.91h0ZM463.56,119.16c-3.5-6.88-4.09-16.23-3.82-22.46.22-7.92,2.13-21.36,6.56-28.02,8.35-12.62,24.31-19.45,38.52-23.11,1.36.71,2.68,1.74,3.93,2.73-26.39,11.14-5.09,50.59-45.17,70.85h-.01ZM244.5,221c.16-.82.49-3.82.71-4.8,1.14-.38,3.99-.05,4.8-.05l6.12.38c-1.43,4.09-2.46,8.58-3.33,12.13-1.58-.38-3.22-.6-4.87-.6-1.25.11-2.73.22-4.2.27.38-2.46.6-4.87.76-7.32h0ZM255.48,288.73c7.92,6.23,14.91,13.28,22.46,19.78.76.71,1.54,1.43,2.35,2.08,1.7,1.43,3.39,2.79,5.14,4.09,3.39,2.52,6.99,4.8,10.98,6.5-13.06,1.58-25.52-4.42-35.12-15.25-9.23-10.65-18.85-23.16-30.59-32.02.98.22,2.13.65,3.28,1.14,7.92,3.22,15.03,8.15,21.52,13.66h-.01ZM265.59,246.72c-5.85.22-17.42,1.54-29.72,8.53,0,0-.11,8.08,4.87,18.47-1.47-.82-3.17-1.47-4.87-2.3-3.55-5.02-6.99-10.38-9.83-15.9-1.86-3.55-3.71-7.54-5.14-11.2-.22-.93-1.31-4.75-1.31-5.74,1.03-.82,6.45-2.57,7.59-2.9,6.56-2.19,13.82-3.11,20.7-3.28,2.73.05,5.14.44,7.32,1.58,2.73,1.54,5.14,3.77,7.26,5.9,1.36,1.14,2.46,2.52,3.88,3.88-.27,1.03-.54,1.97-.76,2.95h0ZM256.79,230l.49-1.97c.71-2.73,1.36-5.47,2.24-8.15.82-2.73,2.03-5.74,3.44-8.31.44-.93,1.58-2.95,2.62-3.11.44-.05,1.58.6,1.86.93,5.63,4.26,14.04,10.65,20.21,17.59-5.02-.82-10.6-.11-16.55,3.22-1.2,3.01-2.35,6.07-3.22,8.96-3.66-3.82-6.99-7.1-11.09-9.18h.01ZM309.67,310.04c-7.54-1.2-15.46-6.23-20.32-10.16-6.28-4.87-16.06-14.31-18.74-21.79-5.25-14.2-1.36-31.08,4.09-44.74,1.36-.65,3.01-1.09,4.53-1.58-6.66,27.91,37.75,33.98,30.43,78.28ZM313.6,310.2c2.35-14.64-.27-27.69-9.83-40.42-3.77-5.09-8.03-9.67-12.29-14.42-3.06-3.5-6.61-7.65-8.19-12.19-1.31-4.04-1.14-8.03,0-11.86,5.47-.33,10.54,1.81,15.57,5.25,15.07,10.54,36.28,47.74,26.39,65.89-1.09,2.03-2.35,3.6-4.09,5.02-2.13,1.74-4.8,2.57-7.54,2.73h-.01ZM360.96,404.54c-5.63,2.13-11.25,4.42-16.77,6.94-4.98,2.24-9.83,4.69-14.91,6.61-6.72,2.3-13.28,3.93-20.21,3.99-14.26.38-31.3,2.41-44.68,9.67,2.79-4.87,5.96-9.4,9.51-13.49,11.09.44,21.64-1.54,33.49-5.58,12.89-4.2,25.03-9.67,38.56-11.75,9.18-1.63,18.02-1.36,26.5.16-3.77.87-7.65,2.08-11.47,3.44h-.01ZM381.51,399.3c-44.68-13.17-68.28,15.34-104.28,14.96,7.92-8.31,17.59-15.14,28.67-19.94,27.8-11.9,60.2-9.62,87.02,3.99-3.93.11-7.48.44-11.41.98h0ZM460.83,173.35c1.81-2.08,3.55-4.09,5.41-5.96,17.59,6.07,33.81,15.74,46.33,29.12,18.24,19.29,29.56,47.14,22.67,73.8-1.81,7.32-4.69,14.58-8.53,21.19-.38-12.51-3.93-24.36-13.33-34.41-2.79-3.01-5.79-5.52-8.96-7.92-7.92-5.9-16.44-10.22-25.08-14.69-8.08-4.31-16.39-8.96-23.27-15.07,1.25-14.91,2.84-30.21,4.75-46.05h0ZM455.75,338.5c-.93-12.24-1.52-24.85-1.97-37.58,3.71,1.09,7.32,2.46,10.6,4.09,2.19,6.77,3.66,14.69,3.6,21.91-.16,8.58-2.52,16.12-6.83,23.54-1.14,2.03-2.3,4.04-3.55,5.85-.65-5.85-1.31-11.7-1.86-17.81h0ZM456.62,384c-3.28-1.7-7.1-4.48-9.89-7.05,1.74-2.68,4.04-5.58,6.34-8.53.44-.38.87-.98,1.25-1.63.87,5.79,1.52,11.63,2.3,17.21h0ZM469.24,307.86c15.63,9.23,28.36,25.19,30.43,43.48,2.41,19.56-4.42,38.95-27.1,37.42-3.77-.16-7.48-1.25-11.14-2.62-1.2-7.75-2.35-15.79-3.22-24.2,13.82-17.91,16.28-34.03,11.03-54.08h0ZM484.1,313.04c-.33-.27-.71-.6-1.03-.87-.49-.65-1.09-1.09-1.43-1.36-8.46-7.21-17.59-11.97-27.8-14.96-.49-22.29.16-46.11,1.86-71.02,8.91,7.21,19.72,12.35,30.21,18.08,1.58.65,3.06,1.58,4.42,2.3,20.97,12.29,33.32,24.63,31.84,51.24,0,.44-.05.93,0,1.54-6.23,7.59-14.42,13.17-25.08,14.91-4.26.71-8.69.6-13,.16h0ZM455.86,179.74c-1.47,11.75-2.9,23.71-3.66,35.57-4.48-5.14-7.43-10.65-9.18-16.5,3.6-6.5,7.86-13.06,12.84-19.07h0ZM435.16,273.87c-6.72-15.74-7.05-32.89-2.68-49.28,1.86-7.1,4.53-13.87,7.7-20.48,2.79,6.72,6.61,12.35,11.36,16.93-1.58,20.97-2.3,42-2.35,62.99.11,3.44.11,7.15.27,10.76l-.22-.05c-6.01-6.07-10.65-13.11-14.09-20.87ZM435.37,297.59c4.69.27,9.51.87,14.15,2.03.49,19.67,1.74,39.66,4.04,59.49,0,.6.05,1.25.11,1.92,0,0-.11.27-.27.33-1.58,1.97-3.39,3.99-4.87,6.17-1.81,2.03-3.33,4.15-5.02,6.39l-1.58-1.74c-7.37-8.91-11.7-19.83-13.11-31.24-1.7-14.58,1.31-29.56,6.56-43.32h-.01ZM422.7,404.38c-31.14-34.74-51.89-74.4-49.44-118.65,7.32,10.92,12.4,22.62,16.66,36.11,2.62,8.96,4.87,18.08,7.48,27.04,2.62,8.53,5.47,16.93,10.16,24.63,4.53,7.26,10.11,12.84,16.55,17.37-.33,4.48-.93,8.91-1.43,13.49h.01ZM424.44,385.32c-30.05-23-19.89-65.61-50.42-106.69.65-6.83,2.08-13.98,3.93-21.08,30.86,38.18,48.61,80.58,46.49,127.78h0ZM423.84,461.53c-7.86,1.03-15.74,1.03-23.49-.76-6.12-1.63-11.52-4.2-17.21-6.88-6.83-3.28-13-6.01-19.56-7.65,3.33-2.03,6.72-3.82,10.27-5.3,5.68,4.8,11.97,7.92,20.38,9.23,4.42.6,8.85.71,13.17,1.14,4.48.33,8.69.98,13.22,2.41,4.64,1.31,9.13,3.6,13.17,6.56-3.39.27-6.61.93-9.94,1.25h-.01ZM438.98,459.61c-25.57-19.56-42.94-5.18-61.67-20.32,11.9-4.98,24.69-7.37,37.53-4.87,16.39,3.28,29.66,14.2,39.99,27.15-5.02-1.63-10.11-2.35-15.84-1.97h-.01ZM473.99,476.17c-3.01-5.09-6.17-10.11-9.62-15.25-11.47-17.75-23.98-34.85-37.85-50.97-.07.18-.16.29-.27.33,3.28-17.91,3.93-35.39,1.74-52.88,3.71,9.62,9.13,17.42,15.68,23.22,4.58,4.2,8.64,6.66,13.82,9.13,1.31,9.07,2.95,18.24,4.75,27.31,4.48,22.62,9.94,44.79,16.44,66.81-1.52-2.68-3.17-5.02-4.69-7.7h0ZM477.05,462.02c-6.07-23.27-11.2-46.71-14.91-70.47,6.39,1.74,12.24,2.62,18.74,1.43-2.73,7.7-1.54,14.85,1.63,21.41-2.79,15.52-4.64,31.57-5.47,47.63h.01ZM584.45,423.34c-23.33,18.13-61.74,25.46-85.83,4.2-6.45-5.63-12.62-13.11-14.26-21.36,44.08-19.99,52.28,30.97,94.61,4.98,2.08,3.93,3.77,8.08,5.47,12.19h.01ZM529.83,372.97c11.63,1.31,22.35,6.5,31.24,14.36,6.56,5.85,11.75,12.62,15.9,20.05-4.31,2.68-8.64,4.91-13.17,6.12-6.28,1.74-12.68,1.09-18.74-.98-4.75-1.97-9.29-4.48-13.82-6.94-5.02-2.73-10-5.25-15.68-6.83-11.09-3.06-21.75-1.31-31.73,3.01.05-2.57.49-5.18,1.58-7.81.33-.82.65-1.58,1.2-2.46,6.01-2.3,11.14-6.83,14.42-13.6l.22-.11c8.64-4.42,18.85-6.07,28.58-4.8h-.01ZM501.91,339.75c-2.57-7.7-7.15-15.19-13-21.91,2.9.11,5.85-.05,8.91-.65,2.46-.33,4.87-.93,6.99-1.58.38,3.55,1.14,6.99,2.24,10.22-1.74,4.69-3.55,9.34-5.14,13.93h0ZM517.37,335.55c-4.42-6.5-7.43-13.77-7.92-21.86,9.67-4.64,16.72-12.35,21.79-21.19,4.04-6.72,6.66-14.09,8.31-21.14.87-3.22,1.47-6.5,1.92-9.73,7.21-4.09,15.34-7.21,23.65-8.69,17.86-3.22,36.33.71,52.12,9.23,13.06,6.83,24.47,16.55,34.52,27.64-3.22,10.71-9.13,21.25-19.89,24.8-6.28,2.19-13.33,2.03-19.89,1.03-8.03-1.03-16.12-3.17-24.03-4.91-12.78-2.79-26.5-5.41-39.39-2.3-15.19,3.44-24.74,14.15-31.19,27.1h.01ZM610.24,360.51c-3.66,1.25-7.54,2.41-11.47,3.39-.44,0-.82.16-1.2.27-17.81,3.88-36.71,2.52-52.94-6.07-9.18-4.69-17.86-10.92-24.36-18.74,33.32-70.96,110.46,23.76,134.77-45.89,2.52,2.95,5.09,6.01,7.43,8.96,2.08,3.06,4.15,5.9,6.28,8.96-13.87,21.91-33.71,39.93-58.5,49.11h0ZM756.1,152.87c-2.13,55.22-43.32,101.28-89.92,146.95l-.27-.54c-13.11-17.04-28.47-31.91-46.49-41.24-2.95-1.86-6.88-3.5-10.76-4.98,5.74-3.44,11.9-7.1,17.59-10.76,48.68-14.85,92.04-44.57,129.85-89.43h0Z"/>
</svg>