<?xml version="1.0" encoding="UTF-8"?>
<svg id="katman_1" data-name="katman 1" xmlns="http://www.w3.org/2000/svg" version="1.1" viewBox="0 0 1366 768">
  <defs>
    <style>
      .cls-1 {
        fill: #000;
      }

      .cls-1, .cls-2 {
        stroke-width: 0px;
      }

      .cls-2 {
        fill: #ff0400;
      }
    </style>
  </defs>
  <g>
    <g>
      <g>
        <path class="cls-1" d="M433.6,245.5l49-33.1-62.9,236h-40.2l.7-2.4c-11.2,1.4-21.6,2.7-33.1,2.7-17.2,0-36.9-8.5-36.9-28.4s17.6-68.6,21.6-83.9c10.5-38.5,57.5-34.2,86.9-34.2l14.9-56.8ZM350.8,415.6l37.2,1,22.7-83.5h-36.9l-23,82.5Z"/>
        <path class="cls-1" d="M587.4,320.3c0,16.2-10.8,41.3-14.9,57.1l-14.2,9.1h-63.9l-8.1,31.1h32.5l24.7,30.8h-74.4c-11.8,0-24-4.1-24-18.3s22.3-91,27.1-106.8c3.7-15.6,16.9-21,31.4-21h58.5c11.8,0,25.4,4.4,25.4,17.9ZM538.4,356.4l6.4-23.7h-35.8l-6.1,23.7h35.5Z"/>
        <path class="cls-1" d="M650.7,333.1l-22.3,84.2h23.3l48.4,31.1h-90.3c-11.8,0-24.3-4.1-24.3-18.3s20.6-80.1,24.3-97h-48.4l39.9-30.8h17.6l12.8-49.4,31.1,35.8-3.7,13.5h60.5l-41.3,30.8h-27.7Z"/>
        <path class="cls-1" d="M848.5,320.3c0,11.5-33.1,135.9-38.5,155.9l-30.8-31.1c-15.9,1.7-33.1,3.7-50,3.7s-24.7-3.7-24.7-17.2,8.5-37.2,13.2-54.1c5.1-19.6,21-21,38.2-21l-23.3-29.4c7.1-17.2,12.2-24.7,33.1-24.7h57.8c11.8,0,25,4.4,25,17.9ZM754.8,385.9l-8.5,30.8h38.2l8.1-30.8h-37.9ZM771,332.8l-6.4,23.7h35.8l6.1-23.7h-35.5Z"/>
        <path class="cls-1" d="M874.2,302.3h39.9l-39.9,148.1h-39.2l39.2-148.1Z"/>
        <path class="cls-1" d="M963.8,448.4h-70l60.2-225.5h40.6l-53.1,198.1,22.3,27.4Z"/>
        <path class="cls-1" d="M1010.8,302.3h39.9l-39.9,148.1h-39.2l39.2-148.1Z"/>
        <path class="cls-1" d="M1192,319.6c0,12.2-29.1,110.6-33.5,128.8h-40.6l30.8-114.6h-37.5l-30.1,114.6h-38.2l30.4-122.7-18.9-23.3h65.3v2.4c15.6-1,31.8-2.7,48-2.7s24.3,3.4,24.3,17.6Z"/>
        <path class="cls-1" d="M1292.1,302.3h39.9l-46.7,174.8c-3,13.2-20,20.3-32.1,20.3h-85.2l31.8-30.8h48l4.7-18.3c-21.6,0-67.6,4.7-67.6-29.1s14.9-62.9,21-84.9c6.1-21,28.4-32.5,48.7-32.5s24.7,1.7,36.9,2.7l.7-2.4ZM1283.6,333.8c-7.4-.7-15.9-1-23.3-1s-14.5,1.7-16.6,9.5c-6.4,23.7-12.2,48.7-19.3,73,1,2,7.1,2,8.8,2h27.7l22.7-83.5Z"/>
      </g>
      <path class="cls-2" d="M926.2,251.8h1.4l-10.1,38.5h-41.3,0c6-22.7,26.5-38.5,50-38.5Z"/>
      <path class="cls-2" d="M1062.8,251.8h1.4l-10.1,38.5h-41.2,0c6-22.7,26.5-38.5,50-38.5Z"/>
    </g>
    <g>
      <path class="cls-2" d="M710.7,562.4h-123.2l4.7-17.6h105.6l12.9,17.6ZM720.1,527.2h-123.2l4.7-17.6h105.6l12.9,17.6ZM729.5,492h-123.2l4.7-17.6h105.6l12.9,17.6Z"/>
      <path class="cls-2" d="M788.5,518.4l-36.7-44h26.4l26.7,32,43.7-32h26.4l-60.1,44,36.6,44h-26.4l-26.7-32-43.7,32h-26.4l60.2-44Z"/>
      <path class="cls-2" d="M887.9,492l4.7-17.6h105.6c11.7,0,16,5.9,12.9,17.6l-4.7,17.6c-3.1,11.7-10.5,17.6-22.3,17.6h-88l-9.5,35.2h-17.6l14.2-52.8h105.6l4.7-17.6h-105.6Z"/>
      <path class="cls-2" d="M1051,474.4h88c11.7,0,16,5.9,12.9,17.6l-14.2,52.8c-3.1,11.7-10.5,17.6-22.3,17.6h-88c-11.7,0-16-5.9-12.9-17.6l14.2-52.8c3.1-11.7,10.5-17.6,22.3-17.6ZM1046.3,492l-14.2,52.8h88l14.2-52.8h-88Z"/>
    </g>
  </g>
  <g>
    <path class="cls-2" d="M117.1,206.5l-78.6,123.4,78.7-.5h60.1c45.5,0,85.2,24.7,106.5,61.5,10.5-18.1,16.5-39.1,16.5-61.5,0-34-13.8-64.7-36-86.9-22.2-22.2-53-36-86.9-36h-60.2Z"/>
    <path class="cls-1" d="M278.7,403.4c-21.2,36.7-61,61.5-106.5,61.5H33.4l78.7-122.9h60.1c45.5,0,85.2,24.7,106.5,61.5"/>
  </g>
</svg>