<?xml version="1.0" encoding="UTF-8"?>
<svg id="katman_1" data-name="katman 1" xmlns="http://www.w3.org/2000/svg" xmlns:xlink="http://www.w3.org/1999/xlink" viewBox="0 0 1657.85 508.33">
  <defs>
    <style>
      .cls-1 {
        fill: #706f6e;
      }

      .cls-1, .cls-2, .cls-3, .cls-4 {
        stroke-width: 0px;
      }

      .cls-2 {
        fill: #0098b4;
      }

      .cls-3 {
        fill: url(#Adsız_degrade_10);
      }

      .cls-4 {
        fill: #3caa3d;
      }
    </style>
    <linearGradient id="Adsız_degrade_10" data-name="Adsız degrade 10" x1="243.59" y1="142.71" x2="923.14" y2="142.71" gradientTransform="translate(0 511.5) scale(1 -1)" gradientUnits="userSpaceOnUse">
      <stop offset="0" stop-color="#3caa3d"/>
      <stop offset=".56" stop-color="#3d8a35"/>
      <stop offset="1" stop-color="#026634"/>
    </linearGradient>
  </defs>
  <polygon class="cls-4" points="67.7 79.91 20.93 79.91 20.93 60.02 60.82 60.02 60.82 44.56 20.93 44.56 20.93 25.9 66.11 25.9 66.11 9.94 1.17 9.94 1.17 95.86 67.7 95.86 67.7 79.91"/>
  <rect class="cls-4" x="75.68" y="4.78" width="19.15" height="91.07"/>
  <path class="cls-4" d="M148.65,79.91c-2.66,1.06-5.75,1.6-9.26,1.6-3.93,0-7.34-.71-10.24-2.15-2.91-1.44-5.16-3.51-6.76-6.27-.86-1.48-1.47-3.12-1.87-4.85h49.92c.08-.82.16-1.69.25-2.64.08-.95.12-1.77.12-2.52,0-7.12-1.52-13.24-4.54-18.35-3.03-5.11-7.14-9.04-12.34-11.78-5.19-2.74-11.03-4.11-17.49-4.11s-12.72,1.46-18.04,4.35c-5.32,2.91-9.52,6.92-12.58,12.03-3.07,5.11-4.61,10.98-4.61,17.61s1.55,12.38,4.67,17.49c3.1,5.11,7.5,9.15,13.2,12.09,5.69,2.95,12.3,4.42,19.82,4.42,5.97,0,11.25-.92,15.83-2.77,4.59-1.84,8.39-4.48,11.41-7.91l-10.19-11.05c-2.21,2.12-4.64,3.72-7.3,4.78v.02ZM127.91,45.48c2.5-1.44,5.38-2.15,8.66-2.15s6.14.71,8.6,2.15c2.45,1.44,4.38,3.42,5.76,5.95.91,1.67,1.41,3.59,1.73,5.65h-32.28c.33-2.03.82-3.94,1.72-5.59,1.39-2.58,3.34-4.59,5.83-6.01h-.01Z"/>
  <path class="cls-4" d="M203.94,46.76c2.61-1.47,5.57-2.21,8.83-2.21,3.03,0,5.83.74,8.41,2.21,2.58,1.47,4.73,3.77,6.44,6.87l14.85-7.98c-2.46-5.4-6.27-9.56-11.41-12.46-5.16-2.91-11.21-4.35-18.17-4.35s-13.46,1.46-19.03,4.35c-5.57,2.91-9.92,6.92-13.07,12.03-3.15,5.11-4.73,10.98-4.73,17.61s1.58,12.4,4.73,17.55c3.15,5.16,7.5,9.18,13.07,12.09,5.58,2.91,11.91,4.35,19.03,4.35s13-1.45,18.17-4.35c5.15-2.91,8.96-7.01,11.41-12.33l-14.85-8.1c-1.72,3.19-3.86,5.51-6.44,6.93-2.58,1.44-5.38,2.15-8.41,2.15-3.27,0-6.22-.74-8.83-2.21-2.61-1.47-4.68-3.56-6.2-6.27-1.52-2.7-2.28-5.97-2.28-9.82s.76-7.12,2.28-9.81c1.52-2.71,3.58-4.78,6.2-6.27v.02Z"/>
  <path class="cls-4" d="M289.97,79.17c-2.12,1.63-4.7,2.45-7.74,2.45-2.54,0-4.54-.76-6.02-2.26-1.47-1.52-2.21-3.66-2.21-6.44v-26.88h16.45v-14.74h-16.45V15.23h-19.15v16.08h-10.19v14.74h10.19v27.13c0,7.85,2.16,13.77,6.51,17.73,4.33,3.97,10.4,5.95,18.17,5.95,2.95,0,5.79-.35,8.53-1.04,2.74-.69,5.1-1.74,7.06-3.13l-5.16-13.5h0Z"/>
  <path class="cls-4" d="M323.12,64.68c0-6.3,1.61-10.94,4.84-13.93,3.23-2.99,7.47-4.48,12.71-4.48.74,0,1.44.02,2.09.06.65.05,1.39.11,2.21.19v-17.68c-6.22,0-11.49,1.21-15.83,3.62-2.8,1.56-5.06,3.64-6.87,6.15v-8.79h-18.29v66.04h19.15v-31.17h.01Z"/>
  <rect class="cls-4" x="349.87" y="29.82" width="19.15" height="66.04"/>
  <path class="cls-4" d="M359.45,0c-3.03,0-5.51.98-7.43,2.95-1.93,1.96-2.88,4.42-2.88,7.36s.97,5.52,2.88,7.49c1.93,1.96,4.4,2.94,7.43,2.94s5.4-.98,7.36-2.94c1.96-1.96,2.94-4.46,2.94-7.49s-.98-5.4-2.94-7.36C364.85.99,362.39,0,359.45,0Z"/>
  <path class="cls-4" d="M430.4,92.48c5.16-2.91,8.96-7.01,11.42-12.33l-14.85-8.1c-1.72,3.19-3.86,5.51-6.44,6.93-2.58,1.44-5.38,2.15-8.41,2.15-3.27,0-6.22-.74-8.83-2.21-2.63-1.47-4.69-3.56-6.21-6.27-1.52-2.7-2.26-5.97-2.26-9.82s.75-7.12,2.26-9.81c1.52-2.71,3.58-4.78,6.21-6.27,2.61-1.47,5.57-2.21,8.83-2.21,3.03,0,5.83.74,8.41,2.21,2.58,1.47,4.73,3.77,6.44,6.87l14.85-7.98c-2.46-5.4-6.27-9.56-11.42-12.46-5.16-2.91-11.21-4.35-18.17-4.35s-13.46,1.46-19.03,4.35c-5.57,2.91-9.92,6.92-13.07,12.03-3.15,5.11-4.73,10.98-4.73,17.61s1.58,12.4,4.73,17.55c3.15,5.16,7.5,9.18,13.07,12.09,5.57,2.91,11.91,4.35,19.03,4.35s13.01-1.45,18.17-4.35v.02Z"/>
  <path class="cls-4" d="M517.46,68.91l-10.47-3.27c-.64,3.45-1.73,6.38-3.03,9.04l-10.63-9.85c1.45-.79,2.77-1.59,3.9-2.37,2.59-1.79,4.5-3.7,5.74-5.74,1.23-2.03,1.84-4.28,1.84-6.73,0-2.79-.71-5.19-2.14-7.2-1.42-2.01-3.37-3.56-5.86-4.64-2.49-1.09-5.44-1.63-8.83-1.63-3.69,0-6.9.6-9.63,1.8-2.73,1.2-4.85,2.88-6.36,5.06-1.51,2.17-2.26,4.69-2.26,7.54,0,1.62.27,3.19.81,4.69.53,1.51,1.38,3.05,2.56,4.61.75.99,1.7,2.04,2.75,3.12-1.84,1.03-3.49,2.07-4.94,3.12-2.79,2.04-4.83,4.21-6.11,6.53-1.28,2.31-1.93,4.92-1.93,7.83,0,3.13.98,5.89,2.93,8.28,1.95,2.4,4.61,4.31,7.95,5.69,3.35,1.4,7.18,2.09,11.47,2.09,5.47,0,10.41-1.14,14.82-3.43,1.7-.89,3.27-1.95,4.76-3.12l7.05,6.55,7.12-8.28-6.84-6.34c2.49-3.86,4.29-8.28,5.33-13.34h0ZM483.3,46.89c1.12-1,2.68-1.51,4.69-1.51,1.9,0,3.34.44,4.31,1.34.98.9,1.47,2.07,1.47,3.51,0,1.06-.36,2.11-1.09,3.14s-1.98,2.1-3.77,3.22c-.76.48-1.72,1-2.72,1.54-.83-.82-1.58-1.56-2.14-2.17-.95-1.04-1.59-1.95-1.93-2.77-.33-.81-.5-1.63-.5-2.47,0-1.56.56-2.85,1.67-3.85h0ZM495.52,84.27c-2.85,1.59-5.97,2.39-9.38,2.39-2.12,0-3.97-.3-5.53-.92s-2.78-1.48-3.64-2.6c-.88-1.12-1.3-2.37-1.3-3.77,0-1.51.36-2.87,1.09-4.11s1.91-2.44,3.56-3.64c.74-.54,1.62-1.07,2.59-1.62l14.22,13.21c-.53.37-1.06.75-1.62,1.06h.01Z"/>
  <polygon class="cls-4" points="603.89 43.82 564.86 43.82 564.86 9.94 544.97 9.94 544.97 95.86 564.86 95.86 564.86 60.63 603.89 60.63 603.89 95.86 623.77 95.86 623.77 9.94 603.89 9.94 603.89 43.82"/>
  <path class="cls-4" d="M663.54,74.67l-18.54-44.85h-19.76l28.58,66.58-.23.56c-1.31,2.94-2.77,5.05-4.35,6.32-1.6,1.27-3.75,1.9-6.44,1.9-1.88,0-3.78-.37-5.71-1.11-1.93-.74-3.62-1.76-5.1-3.07l-7,13.63c2.12,1.88,4.87,3.35,8.23,4.42,3.36,1.06,6.74,1.6,10.19,1.6,4,0,7.67-.62,10.98-1.84,3.31-1.23,6.34-3.36,9.08-6.38,2.74-3.03,5.17-7.2,7.3-12.52l29.82-70.08h-18.41l-18.66,44.85h.02Z"/>
  <path class="cls-4" d="M757.75,33.02c-4.96-2.78-10.54-4.18-16.75-4.18-5.57,0-10.43,1.23-14.61,3.68-1.97,1.16-3.72,2.63-5.27,4.35V4.78h-19.15v91.07h18.29v-7.69c1.66,2.02,3.57,3.69,5.76,4.98,4.18,2.45,9.17,3.68,14.98,3.68,6.22,0,11.81-1.41,16.75-4.24,4.95-2.82,8.88-6.77,11.78-11.84,2.91-5.08,4.35-11.05,4.35-17.92s-1.46-12.96-4.35-18.04c-2.91-5.08-6.84-9.01-11.78-11.78h-.01ZM752.22,72.6c-1.52,2.74-3.52,4.85-6.02,6.32-2.5,1.47-5.33,2.21-8.53,2.21s-6.06-.74-8.59-2.21c-2.54-1.47-4.54-3.58-6.02-6.32-1.47-2.74-2.21-6-2.21-9.75s.74-7.12,2.21-9.81c1.47-2.71,3.48-4.78,6.02-6.27,2.53-1.47,5.4-2.21,8.59-2.21s6.03.74,8.53,2.21c2.5,1.47,4.5,3.56,6.02,6.27,1.52,2.7,2.28,5.97,2.28,9.81s-.76,7.02-2.28,9.75Z"/>
  <path class="cls-4" d="M798.44,38.61v-8.79h-18.29v66.04h19.15v-31.17c0-6.3,1.61-10.94,4.84-13.93,3.23-2.99,7.47-4.48,12.71-4.48.74,0,1.44.02,2.09.06.65.05,1.39.11,2.21.19v-17.68c-6.22,0-11.49,1.21-15.83,3.62-2.8,1.56-5.06,3.64-6.87,6.15h.01Z"/>
  <rect class="cls-4" x="826.05" y="29.82" width="19.15" height="66.04"/>
  <path class="cls-4" d="M835.62,0c-3.03,0-5.51.98-7.43,2.95-1.93,1.96-2.88,4.42-2.88,7.36s.97,5.52,2.88,7.49c1.93,1.96,4.4,2.94,7.43,2.94s5.4-.98,7.36-2.94c1.96-1.96,2.94-4.46,2.94-7.49s-.98-5.4-2.94-7.36C841.02.99,838.56,0,835.62,0Z"/>
  <path class="cls-4" d="M904.61,4.78v31.98c-1.53-1.67-3.23-3.1-5.16-4.25-4.18-2.45-9.04-3.68-14.61-3.68-6.22,0-11.83,1.39-16.81,4.18-4.99,2.78-8.94,6.71-11.84,11.78-2.91,5.08-4.35,11.08-4.35,18.04s1.46,12.85,4.35,17.92c2.91,5.08,6.85,9.02,11.84,11.84s10.59,4.24,16.81,4.24c5.81,0,10.78-1.23,14.91-3.68,2.17-1.3,4.06-2.96,5.71-4.97v7.67h18.29V4.78h-19.15ZM902.7,72.6c-1.52,2.74-3.54,4.85-6.08,6.32-2.54,1.47-5.36,2.21-8.47,2.21s-6.06-.74-8.59-2.21c-2.54-1.47-4.56-3.58-6.08-6.32-1.52-2.74-2.28-6-2.28-9.75s.76-7.12,2.28-9.81c1.52-2.71,3.54-4.78,6.08-6.27,2.53-1.47,5.4-2.21,8.59-2.21s5.93.74,8.47,2.21,4.56,3.56,6.08,6.27c1.52,2.7,2.28,5.97,2.28,9.81s-.76,7.02-2.28,9.75Z"/>
  <polygon class="cls-4" points="74.13 112.68 47.61 174.05 21.48 112.68 0 112.68 37.07 198.6 56.71 198.6 93.9 112.68 74.13 112.68"/>
  <path class="cls-4" d="M145.63,135.7c-5.19-2.74-11.03-4.11-17.49-4.11s-12.72,1.46-18.04,4.35c-5.32,2.91-9.52,6.92-12.58,12.03-3.07,5.11-4.61,10.98-4.61,17.61s1.55,12.38,4.67,17.49c3.1,5.11,7.5,9.15,13.2,12.09,5.69,2.95,12.3,4.42,19.82,4.42,5.97,0,11.25-.92,15.83-2.77,4.59-1.84,8.39-4.48,11.41-7.91l-10.19-11.05c-2.21,2.12-4.64,3.72-7.3,4.78-2.66,1.06-5.75,1.6-9.26,1.6-3.93,0-7.34-.71-10.24-2.15s-5.16-3.51-6.76-6.27c-.86-1.48-1.47-3.12-1.87-4.85h49.92c.08-.82.16-1.69.25-2.64s.12-1.77.12-2.52c0-7.12-1.52-13.24-4.54-18.35-3.03-5.11-7.14-9.04-12.34-11.78v.02ZM119.61,148.22c2.5-1.44,5.38-2.15,8.66-2.15s6.14.71,8.6,2.15c2.45,1.44,4.38,3.42,5.76,5.95.91,1.67,1.41,3.59,1.73,5.65h-32.28c.33-2.03.82-3.94,1.72-5.59,1.39-2.58,3.34-4.59,5.83-6.01h-.01Z"/>
  <path class="cls-4" d="M232.52,134.71c-4.13-2.09-8.82-3.13-14.05-3.13-5.65,0-10.69,1.19-15.1,3.56-2.23,1.19-4.19,2.65-5.89,4.36v-31.98h-19.15v91.07h19.15v-32.64c0-4.1.68-7.44,2.02-10.07,1.35-2.61,3.23-4.56,5.65-5.83,2.42-1.27,5.13-1.9,8.16-1.9,4.26,0,7.55,1.27,9.88,3.8,2.33,2.53,3.5,6.46,3.5,11.78v34.86h19.15v-37.8c0-6.71-1.19-12.22-3.56-16.51-2.38-4.29-5.62-7.49-9.75-9.58Z"/>
  <path class="cls-4" d="M275.8,102.74c-3.03,0-5.51.98-7.43,2.95-1.93,1.96-2.88,4.42-2.88,7.36s.97,5.52,2.88,7.49c1.93,1.96,4.4,2.94,7.43,2.94s5.4-.98,7.36-2.94c1.96-1.96,2.94-4.46,2.94-7.49s-.98-5.4-2.94-7.36c-1.96-1.96-4.42-2.95-7.36-2.95Z"/>
  <rect class="cls-4" x="266.22" y="132.56" width="19.15" height="66.04"/>
  <path class="cls-4" d="M329.19,149.5c2.61-1.47,5.57-2.21,8.83-2.21,3.03,0,5.83.74,8.41,2.21,2.58,1.47,4.73,3.77,6.44,6.87l14.85-7.98c-2.46-5.4-6.27-9.56-11.42-12.46-5.16-2.91-11.21-4.35-18.17-4.35s-13.46,1.46-19.03,4.35c-5.57,2.91-9.92,6.92-13.07,12.03-3.15,5.11-4.73,10.98-4.73,17.61s1.58,12.4,4.73,17.55c3.15,5.16,7.5,9.18,13.07,12.09,5.57,2.91,11.91,4.35,19.03,4.35s13.01-1.45,18.17-4.35c5.16-2.91,8.96-7.01,11.42-12.33l-14.85-8.1c-1.72,3.19-3.86,5.51-6.44,6.93-2.58,1.44-5.38,2.15-8.41,2.15-3.27,0-6.22-.74-8.83-2.21-2.63-1.47-4.69-3.56-6.21-6.27-1.52-2.7-2.26-5.97-2.26-9.82s.75-7.12,2.26-9.81c1.52-2.71,3.58-4.78,6.21-6.27v.02Z"/>
  <rect class="cls-4" x="381.36" y="107.52" width="19.15" height="91.07"/>
  <path class="cls-4" d="M469.18,135.7c-5.19-2.74-11.03-4.11-17.49-4.11s-12.72,1.46-18.04,4.35c-5.32,2.91-9.51,6.92-12.58,12.03-3.07,5.11-4.61,10.98-4.61,17.61s1.55,12.38,4.67,17.49c3.1,5.11,7.5,9.15,13.2,12.09,5.69,2.95,12.3,4.42,19.82,4.42,5.97,0,11.25-.92,15.83-2.77,4.59-1.84,8.39-4.48,11.42-7.91l-10.19-11.05c-2.21,2.12-4.64,3.72-7.3,4.78s-5.75,1.6-9.26,1.6c-3.93,0-7.35-.71-10.26-2.15-2.91-1.44-5.16-3.51-6.76-6.27-.86-1.48-1.47-3.12-1.87-4.85h49.92c.08-.82.16-1.69.24-2.64.08-.95.12-1.77.12-2.52,0-7.12-1.52-13.24-4.54-18.35-3.03-5.11-7.14-9.04-12.33-11.78v.02ZM443.15,148.22c2.5-1.44,5.38-2.15,8.66-2.15s6.14.71,8.59,2.15c2.45,1.44,4.38,3.42,5.76,5.95.91,1.67,1.41,3.59,1.73,5.65h-32.28c.33-2.03.83-3.94,1.72-5.59,1.39-2.58,3.34-4.59,5.83-6.01Z"/>
  <g>
    <polygon class="cls-1" points="556.89 162.76 596.78 162.76 596.78 147.3 556.89 147.3 556.89 128.64 602.06 128.64 602.06 112.68 537.13 112.68 537.13 198.6 603.65 198.6 603.65 182.65 556.89 182.65 556.89 162.76"/>
    <polygon class="cls-1" points="683.07 132.56 662.69 132.56 648.35 151.85 634.34 132.56 612.86 132.56 637.41 165.29 612 198.6 632.87 198.6 647.86 178.38 662.33 198.6 684.05 198.6 658.5 164.86 683.07 132.56"/>
    <path class="cls-1" d="M752.23,135.82c-4.96-2.82-10.54-4.24-16.75-4.24-5.81,0-10.8,1.23-14.98,3.68-2.21,1.3-4.12,2.96-5.76,4.97v-7.67h-18.29v89.85h19.15v-30.87c1.56,1.73,3.3,3.21,5.27,4.36,4.18,2.45,9.04,3.68,14.61,3.68,6.22,0,11.81-1.39,16.75-4.18,4.95-2.78,8.88-6.71,11.78-11.78s4.35-11.08,4.35-18.05-1.46-12.85-4.35-17.92c-2.91-5.08-6.84-9.02-11.78-11.84h.01ZM746.7,175.34c-1.52,2.74-3.52,4.85-6.02,6.32-2.5,1.47-5.33,2.21-8.53,2.21s-6.06-.74-8.59-2.21c-2.54-1.47-4.54-3.58-6.02-6.32-1.47-2.74-2.21-6-2.21-9.75s.74-7.12,2.21-9.81c1.47-2.71,3.48-4.78,6.02-6.27,2.53-1.47,5.4-2.21,8.59-2.21s6.03.74,8.53,2.21c2.5,1.47,4.5,3.56,6.02,6.27,1.52,2.7,2.28,5.97,2.28,9.81s-.76,7.02-2.28,9.75Z"/>
    <path class="cls-1" d="M847.17,147.9c-3.12-5.08-7.41-9.07-12.89-11.97-5.48-2.91-11.7-4.35-18.66-4.35s-13.28,1.46-18.71,4.35c-5.45,2.91-9.74,6.92-12.89,12.03-3.15,5.11-4.73,10.98-4.73,17.61s1.58,12.38,4.73,17.49c3.15,5.11,7.44,9.15,12.89,12.09,5.44,2.95,11.68,4.42,18.71,4.42s13.17-1.47,18.66-4.42c5.48-2.94,9.78-6.98,12.89-12.09,3.1-5.11,4.67-10.94,4.67-17.49s-1.55-12.6-4.67-17.68h0ZM830.23,175.33c-1.47,2.74-3.48,4.85-6.02,6.32-2.54,1.47-5.4,2.21-8.59,2.21s-6.06-.74-8.6-2.21c-2.53-1.47-4.56-3.58-6.08-6.32-1.52-2.74-2.26-6-2.26-9.75s.75-7.12,2.26-9.81c1.52-2.71,3.55-4.78,6.08-6.27,2.54-1.47,5.4-2.21,8.6-2.21s6.06.74,8.59,2.21c2.53,1.47,4.54,3.56,6.02,6.27,1.47,2.7,2.21,5.97,2.21,9.81s-.74,7.02-2.21,9.75Z"/>
  </g>
  <g>
    <path class="cls-3" d="M922.79,460.53c-13.99-58.22-56.11-104.01-108.8-124.73-7.55-2.96-15.33-5.32-23.37-6.17-10.62-1.12-17.49-3.59-25.54-10.92-25.61-23.3-56.21-42.33-86.79-57.22-37.52-18.27-77.75-30.66-119.2-32.12-38.75-1.37-77.19,9.07-112.83,24.55-26.26,11.41-51.41,25.31-75.49,41.2-7.18,4.74-10.35,6.52-19.16,7.95-12.29,2-24.7,2.84-36.87,5.66-14.86,3.44-29.38,9.71-40.72,20.7-13.29,12.88-19.94,32.24-24.05,50.37-6.14,27.13-7.78,56.56-5.29,84.36.62,6.92,5.05,12.86,12.13,12.86h66.16c15.42,25.43,45.85,37.99,73.53,27.74,28.41-10.51,46.08-41.24,41.79-72.79-4.26-31.3-29.46-55.19-59.16-56.91-30.57-1.77-57.54,21.22-64.44,52.34-3.57,16.1,19.82,22.97,23.39,6.84,4.36-19.68,19.9-34.32,39.55-33.5,18.4.77,34.11,15.66,36.83,35.01,2.64,18.69-7.86,37.44-24.42,44.22-20.01,8.19-40.44-2.8-49.59-22.3-1.87-3.98-6.43-6.37-10.48-6.37h-61.81c-.7-16.84.08-33.97,2.54-50.44,2.31-15.45,5.79-32.76,14.28-45.86,7.09-10.94,18.62-16.65,30.38-20,19.46-5.54,42.78-2.61,60.69-13.07,19.04-11.12,37.01-23.74,56.7-33.74,31.62-16.08,66.09-29.09,101.24-32.39,38.71-3.64,77.47,4.95,113.52,19.61,32.64,13.29,63.43,32.22,91.52,54.23,7.91,6.2,14.89,14.15,23.71,18.92,6.7,3.63,13.83,5.76,21.33,6.39,1.88.15,3.77.09,5.64.27.28.02.37.02.4.01.21.06.57.15,1.28.31,46.59,10.73,86.02,48.83,102.99,95.56-17.36.06-34.72.12-52.08.16-4.05.01-8.61,2.38-10.48,6.37-14.32,30.51-56.49,34.17-70.83,1.18-.4-.91-.75-1.84-1.06-2.78,11.03.26,22.03-.07,32.83-1.3,15.23-1.73,32.9-4.91,44.11-17.12,26.89-29.28-16.96-63.96-43.72-62.59-29.93,1.53-52.69,25.27-58.35,53.63-9.33-.79-18.63-1.95-27.84-3.76-16.73-3.29-32.33-8.72-47.4-16.1,2.87-8.02,4.06-18.07,1.89-30.65-.2-15.9-45.45-92.19-50.36-95.83-4.95-3.66-11.43-2.31-15.06,3.23-4.18,6.35-8.3,12.71-12.44,19.06l-1.42,2.17-2.43-1.77c-9.39-6.88-6.04-4.48-15.47-11.32-6.64-4.81-14.84-2-16.98,5.71-1.34,4.88.44,9.75,4.82,12.97,9.44,6.94,6.18,4.54,15.63,11.47l2.11,1.55-30.25,46.41-2.25-1.65c-9.45-6.93-6.16-4.57-15.66-11.45-6.58-4.76-14.85-1.82-16.89,5.93-1.3,4.89.51,9.65,4.97,12.93,9.38,6.9,6.07,4.46,15.45,11.33l2.3,1.68-1.51,2.3c-4.19,6.42-8.4,12.82-12.55,19.27-3.4,5.29-2.19,12.19,2.63,15.73,4.81,3.51,100.23,20.07,116.03,9.03,0,0,5.89-1.98,12.48-7.27,23.15,11.83,47.29,19.34,73.27,22.89,5.5.75,11.06,1.4,16.65,1.95.88,4.91,2.29,9.81,4.32,14.61,20.63,48.66,84.56,50.8,110.46,7.89,20.57-.07,41.15-.13,61.72-.2,7.99-.02,13.64-8.19,11.7-16.28h.03ZM803.8,402.37c5.8,2.28,11.94,6.46,15.63,11.81,1.67,2.4,1.13,1.95,1.17,3.98,0-.15-.16.88-1.73,2.31-3,2.75-7.78,4.47-11.78,5.67-15.17,4.55-31.47,4.41-47.19,3.92,5.71-19.69,23.36-35.76,43.9-27.7h0Z"/>
    <path class="cls-4" d="M1.18,209.33c.54.62,1.09,1.21,1.59,1.87,4.68,6,46.83,63.92,52.69,71.51,6.09,7.88,12.25,15.69,18.34,23.57,6,7.76,11.95,15.55,17.9,23.35.56.72.96,1.58,1.46,2.35.85,1.31,2.05,1.39,2.8.03.91-1.65,1.67-3.38,2.37-5.13,2.17-5.44,33.02-79.66,33.8-80.49.9,2.82,1.6,5.24,2.45,7.6.76,2.11,1.7,4.17,2.54,6.24,1.19,2.94,2.38,5.87,3.55,8.82,1.17,2.95,2.3,5.92,3.42,8.89,1.13,2.96,2.24,5.94,3.35,8.91,1.25,3.36,2.46,6.74,3.7,10.12.81,2.18,1.56,4.39,2.43,6.55,1.96,4.91,4.03,9.79,5.95,14.71,1.16,2.95,2.09,5.99,3.21,8.95,1.19,3.16,2.53,6.28,3.75,9.43,1.18,3.09,2.26,6.21,3.41,9.31.79,2.18,1.56,4.38,2.43,6.52,1.13,2.81,2.43,5.58,3.51,8.4,1.18,3.08,2.17,6.22,3.29,9.31.76,2.11,1.55,4.21,2.38,6.3,1.11,2.81,2.32,5.6,3.41,8.42,1.21,3.16,2.31,6.37,3.48,9.54.76,2.04,1.55,4.07,2.35,6.1,1.11,2.81,2.26,5.6,3.35,8.42,1.28,3.35,2.52,6.71,3.79,10.07.83,2.18,1.65,4.36,2.52,6.53,1.11,2.75,2.3,5.48,3.36,8.26,1.18,3.09,2.23,6.24,3.4,9.33,1.09,2.91,2.28,5.76,3.38,8.66,1.26,3.28,2.5,6.57,3.72,9.86.81,2.18,1.51,4.41,2.38,6.57,1.35,3.34,4.35,10.43,4.1,10.99-.74-.67-19.61-25.19-23.54-30.37-8.37-11.03-16.59-22.14-24.87-33.23-.47-.63-.91-1.27-1.39-1.89-7.13-9.31-14.35-18.55-21.37-27.93-4.7-6.29-9.12-12.8-13.71-19.18-.76-1.06-1.72-1.98-3-3.44-1.39,3.1-2.59,5.66-3.69,8.25-1.39,3.27-2.72,6.56-4.01,9.86-1.13,2.91-2.14,5.88-3.28,8.79-1.2,3.05-2.53,6.04-3.76,9.09-1.19,2.98-2.3,5.99-3.48,8.97s-2.44,5.94-3.62,8.91c-1.31,3.3-7.79,17.91-8.33,18.29-.28-.44-7.35-15.66-8.9-19.08-1.72-3.79-3.33-7.63-4.98-11.45-.3-.71-.64-1.41-.96-2.12-1.87-4.27-3.72-8.54-5.59-12.8-1.17-2.65-2.3-5.31-3.54-7.92-1.66-3.51-3.48-6.95-5.08-10.49-1.66-3.66-3.1-7.41-4.7-11.1-1.06-2.46-2.21-4.89-3.34-7.32-1.61-3.45-3.27-6.88-4.84-10.36-1.72-3.79-3.31-7.64-5.01-11.45-1.14-2.58-2.36-5.13-3.55-7.7-1.61-3.45-3.28-6.88-4.83-10.36-1.68-3.73-3.24-7.51-4.89-11.27-1.39-3.17-2.81-6.32-4.22-9.47-2-4.43-3.99-8.86-6.02-13.28-1.47-3.21-31.17-69.79-31.02-69.89v.06Z"/>
  </g>
  <g>
    <path class="cls-2" d="M891.84,161.49v-46.92h19.39v46.2c0,15.92,6.94,22.5,18.67,22.5s18.67-6.58,18.67-22.5v-46.2h19.15v46.92c0,24.66-14.12,38.3-37.94,38.3s-37.95-13.65-37.95-38.3Z"/>
    <path class="cls-2" d="M1052.25,182.56v15.8h-73.26v-12.57l45.96-55.42h-45.01v-15.8h70.5v12.57l-45.84,55.42h47.64Z"/>
    <path class="cls-2" d="M1139.03,175.5c0,14.48-11.49,22.86-33.52,22.86h-43.33v-83.79h40.94c20.95,0,31.72,8.74,31.72,21.79,0,8.38-4.31,14.84-11.13,18.43,9.34,2.99,15.32,10.18,15.32,20.71ZM1081.46,129.17v19.75h19.27c9.46,0,14.6-3.35,14.6-9.93s-5.15-9.82-14.6-9.82h-19.27ZM1119.52,173.46c0-7.06-5.39-10.41-15.44-10.41h-22.62v20.71h22.62c10.05,0,15.44-3.11,15.44-10.29Z"/>
    <path class="cls-2" d="M1216.13,182.8v15.56h-64.88v-83.79h63.32v15.56h-44.05v18.19h38.9v15.08h-38.9v19.39h45.61Z"/>
    <path class="cls-2" d="M1259.58,165.44l-11.25,11.73v21.19h-19.27v-83.79h19.27v39.14l37.11-39.14h21.55l-34.71,37.35,36.75,46.44h-22.62l-26.81-32.92Z"/>
    <path class="cls-2" d="M1315.13,114.57h19.39v83.79h-19.39v-83.79Z"/>
    <path class="cls-2" d="M1345.3,190.1l6.58-14.6c7.06,5.15,17.6,8.74,27.65,8.74,11.49,0,16.16-3.83,16.16-8.98,0-15.68-48.72-4.91-48.72-36.03,0-14.24,11.49-26.09,35.31-26.09,10.53,0,21.31,2.51,29.09,7.42l-5.98,14.72c-7.78-4.43-15.8-6.58-23.22-6.58-11.49,0-15.92,4.31-15.92,9.58,0,15.44,48.72,4.79,48.72,35.55,0,14.01-11.61,25.98-35.55,25.98-13.29,0-26.69-3.95-34.12-9.7Z"/>
    <path class="cls-2" d="M1441.9,130.37h-26.81v-15.8h73.02v15.8h-26.81v67.99h-19.39v-67.99Z"/>
    <path class="cls-2" d="M1547,180.4h-38.9l-7.42,17.96h-19.87l37.35-83.79h19.15l37.47,83.79h-20.35l-7.42-17.96ZM1540.9,165.68l-13.29-32.08-13.29,32.08h26.57Z"/>
    <path class="cls-2" d="M1657.85,114.57v83.79h-15.92l-41.78-50.87v50.87h-19.15v-83.79h16.04l41.66,50.87v-50.87h19.15Z"/>
  </g>
</svg>