<?xml version="1.0" encoding="UTF-8"?>
<svg id="katman_1" data-name="katman 1" xmlns="http://www.w3.org/2000/svg" xmlns:xlink="http://www.w3.org/1999/xlink" viewBox="0 0 1644.66 472.27">
  <defs>
    <style>
      .cls-1 {
        fill: url(#Adsız_degrade_191);
      }

      .cls-1, .cls-2, .cls-3, .cls-4 {
        stroke-width: 0px;
      }

      .cls-2 {
        fill: #16b5cc;
      }

      .cls-3 {
        fill: #4186c6;
      }

      .cls-4 {
        fill: #585856;
      }
    </style>
    <linearGradient id="Adsız_degrade_191" data-name="Adsız degrade 191" x1="235.55" y1="138.14" x2="892.69" y2="138.14" gradientTransform="translate(0 475.48) scale(1 -1)" gradientUnits="userSpaceOnUse">
      <stop offset="0" stop-color="#16b5cc"/>
      <stop offset=".45" stop-color="#3e80bb"/>
      <stop offset="1" stop-color="#1d4d7f"/>
    </linearGradient>
  </defs>
  <polygon class="cls-2" points="65.47 77.27 20.24 77.27 20.24 58.04 58.81 58.04 58.81 43.09 20.24 43.09 20.24 25.05 63.92 25.05 63.92 9.61 1.13 9.61 1.13 92.69 65.47 92.69 65.47 77.27"/>
  <rect class="cls-2" x="73.19" y="4.63" width="18.51" height="88.07"/>
  <path class="cls-2" d="M143.75,77.27c-2.57,1.03-5.56,1.55-8.96,1.55-3.8,0-7.1-.69-9.91-2.08-2.81-1.39-4.99-3.4-6.53-6.06-.83-1.43-1.42-3.01-1.81-4.69h48.28c.08-.79.16-1.64.24-2.55.08-.91.11-1.71.11-2.44,0-6.88-1.47-12.81-4.39-17.75-2.93-4.94-6.9-8.74-11.94-11.39-5.02-2.65-10.66-3.97-16.91-3.97s-12.3,1.41-17.44,4.21c-5.14,2.81-9.21,6.69-12.16,11.63-2.97,4.94-4.46,10.62-4.46,17.02s1.5,11.97,4.51,16.91c3,4.94,7.25,8.85,12.76,11.69,5.51,2.85,11.89,4.28,19.17,4.28,5.78,0,10.88-.89,15.31-2.67,4.43-1.78,8.11-4.33,11.03-7.65l-9.85-10.68c-2.13,2.05-4.49,3.6-7.06,4.63v.02ZM123.69,43.98c2.41-1.39,5.2-2.08,8.37-2.08s5.93.69,8.31,2.08c2.37,1.39,4.23,3.31,5.57,5.75.88,1.61,1.37,3.47,1.67,5.46h-31.22c.32-1.96.79-3.81,1.66-5.4,1.34-2.49,3.23-4.43,5.64-5.81h-.01Z"/>
  <path class="cls-2" d="M197.21,45.22c2.53-1.42,5.38-2.13,8.54-2.13,2.93,0,5.64.71,8.13,2.13,2.49,1.42,4.57,3.64,6.23,6.65l14.36-7.72c-2.38-5.22-6.06-9.24-11.03-12.05-4.99-2.81-10.84-4.21-17.57-4.21s-13.02,1.41-18.4,4.21c-5.38,2.81-9.59,6.69-12.64,11.63-3.05,4.94-4.57,10.62-4.57,17.02s1.52,11.99,4.57,16.97c3.05,4.99,7.25,8.88,12.64,11.69,5.39,2.81,11.52,4.21,18.4,4.21s12.57-1.4,17.57-4.21c4.98-2.81,8.66-6.78,11.03-11.93l-14.36-7.83c-1.66,3.08-3.73,5.33-6.23,6.7-2.49,1.39-5.2,2.08-8.13,2.08-3.16,0-6.01-.71-8.54-2.13-2.53-1.42-4.52-3.44-5.99-6.06-1.47-2.61-2.2-5.78-2.2-9.5s.73-6.88,2.2-9.49c1.47-2.62,3.46-4.63,5.99-6.06v.02Z"/>
  <path class="cls-2" d="M280.41,76.56c-2.05,1.58-4.55,2.37-7.48,2.37-2.46,0-4.39-.73-5.82-2.19-1.42-1.47-2.13-3.54-2.13-6.23v-25.99h15.91v-14.25h-15.91v-15.55h-18.51v15.55h-9.85v14.25h9.85v26.23c0,7.59,2.09,13.31,6.3,17.15,4.19,3.84,10.05,5.75,17.57,5.75,2.85,0,5.6-.34,8.25-1,2.65-.67,4.93-1.68,6.83-3.02l-4.99-13.05h0Z"/>
  <path class="cls-2" d="M312.46,62.55c0-6.09,1.56-10.58,4.68-13.47,3.13-2.89,7.22-4.33,12.29-4.33.71,0,1.39.02,2.02.06.63.05,1.34.1,2.13.18v-17.09c-6.01,0-11.11,1.17-15.31,3.5-2.71,1.51-4.9,3.52-6.65,5.95v-8.5h-17.69v63.86h18.51v-30.15h.01Z"/>
  <rect class="cls-2" x="338.33" y="28.84" width="18.51" height="63.86"/>
  <path class="cls-2" d="M347.59,0c-2.93,0-5.33.95-7.19,2.85-1.86,1.9-2.79,4.28-2.79,7.12s.94,5.34,2.79,7.24c1.86,1.9,4.25,2.84,7.19,2.84s5.22-.95,7.12-2.84c1.9-1.9,2.84-4.31,2.84-7.24s-.95-5.22-2.84-7.12C352.82.96,350.44,0,347.59,0Z"/>
  <path class="cls-2" d="M416.2,89.43c4.99-2.81,8.66-6.78,11.05-11.93l-14.36-7.83c-1.66,3.08-3.73,5.33-6.23,6.7-2.49,1.39-5.2,2.08-8.13,2.08-3.16,0-6.01-.71-8.54-2.13-2.54-1.42-4.54-3.44-6-6.06-1.47-2.61-2.19-5.78-2.19-9.5s.72-6.88,2.19-9.49c1.47-2.62,3.46-4.63,6-6.06,2.53-1.42,5.38-2.13,8.54-2.13,2.93,0,5.64.71,8.13,2.13,2.49,1.42,4.57,3.64,6.23,6.65l14.36-7.72c-2.38-5.22-6.06-9.24-11.05-12.05-4.99-2.81-10.84-4.21-17.57-4.21s-13.02,1.41-18.4,4.21c-5.38,2.81-9.59,6.69-12.64,11.63-3.05,4.94-4.57,10.62-4.57,17.02s1.52,11.99,4.57,16.97c3.05,4.99,7.25,8.88,12.64,11.69,5.38,2.81,11.52,4.21,18.4,4.21s12.58-1.4,17.57-4.21v.02Z"/>
  <path class="cls-2" d="M500.39,66.63l-10.12-3.16c-.62,3.34-1.67,6.17-2.93,8.74l-10.28-9.52c1.4-.77,2.67-1.53,3.77-2.29,2.5-1.73,4.35-3.58,5.55-5.55,1.18-1.96,1.78-4.14,1.78-6.51,0-2.7-.69-5.02-2.06-6.96-1.38-1.94-3.26-3.44-5.66-4.49-2.4-1.05-5.26-1.58-8.54-1.58-3.57,0-6.67.58-9.31,1.74-2.64,1.16-4.69,2.79-6.15,4.9-1.46,2.1-2.19,4.54-2.19,7.29,0,1.57.26,3.08.78,4.54.51,1.46,1.33,2.94,2.47,4.46.72.96,1.65,1.97,2.66,3.01-1.78.99-3.37,2-4.77,3.01-2.7,1.97-4.67,4.07-5.91,6.32-1.24,2.23-1.86,4.76-1.86,7.57,0,3.02.95,5.7,2.83,8.01,1.88,2.32,4.46,4.16,7.68,5.51,3.24,1.35,6.94,2.02,11.09,2.02,5.29,0,10.06-1.11,14.33-3.32,1.65-.86,3.16-1.88,4.6-3.01l6.81,6.33,6.88-8.01-6.61-6.13c2.4-3.73,4.15-8.01,5.16-12.9h0ZM467.35,45.34c1.08-.97,2.59-1.46,4.54-1.46,1.84,0,3.23.43,4.16,1.3.95.87,1.42,2,1.42,3.4,0,1.03-.35,2.04-1.05,3.03s-1.92,2.03-3.64,3.11c-.73.46-1.66.97-2.63,1.49-.8-.79-1.52-1.51-2.06-2.1-.91-1-1.53-1.88-1.86-2.67-.32-.78-.49-1.58-.49-2.39,0-1.51.54-2.75,1.61-3.72h0ZM479.18,81.49c-2.75,1.53-5.78,2.31-9.07,2.31-2.05,0-3.84-.29-5.35-.89-1.51-.6-2.69-1.43-3.52-2.52-.85-1.08-1.25-2.29-1.25-3.64,0-1.46.35-2.78,1.05-3.97s1.85-2.36,3.44-3.52c.71-.52,1.57-1.04,2.5-1.57l13.75,12.77c-.51.36-1.03.72-1.57,1.03h.01Z"/>
  <polygon class="cls-2" points="583.96 42.38 546.23 42.38 546.23 9.61 526.99 9.61 526.99 92.69 546.23 92.69 546.23 58.63 583.96 58.63 583.96 92.69 603.19 92.69 603.19 9.61 583.96 9.61 583.96 42.38"/>
  <path class="cls-2" d="M641.65,72.21l-17.93-43.37h-19.11l27.64,64.39-.23.54c-1.26,2.84-2.67,4.89-4.21,6.11-1.55,1.23-3.62,1.84-6.23,1.84-1.82,0-3.66-.36-5.52-1.07-1.86-.71-3.5-1.7-4.93-2.97l-6.77,13.18c2.05,1.82,4.7,3.24,7.95,4.28,3.25,1.03,6.52,1.55,9.85,1.55,3.87,0,7.41-.6,10.62-1.78,3.2-1.18,6.13-3.25,8.78-6.17,2.65-2.93,5-6.96,7.06-12.11l28.84-67.77h-17.8l-18.04,43.37h.02Z"/>
  <path class="cls-2" d="M732.75,31.93c-4.79-2.69-10.19-4.04-16.2-4.04-5.38,0-10.09,1.18-14.13,3.55-1.91,1.12-3.6,2.54-5.1,4.21V4.63h-18.51v88.07h17.69v-7.43c1.6,1.95,3.45,3.57,5.57,4.82,4.04,2.37,8.87,3.55,14.49,3.55,6.01,0,11.42-1.37,16.2-4.1,4.78-2.73,8.59-6.54,11.39-11.45,2.81-4.91,4.21-10.68,4.21-17.33s-1.41-12.53-4.21-17.44c-2.81-4.91-6.61-8.71-11.39-11.39h-.01ZM727.41,70.21c-1.47,2.65-3.41,4.69-5.82,6.11-2.41,1.42-5.16,2.13-8.25,2.13s-5.86-.71-8.3-2.13c-2.46-1.42-4.39-3.46-5.82-6.11-1.42-2.65-2.13-5.8-2.13-9.43s.71-6.88,2.13-9.49c1.42-2.62,3.36-4.63,5.82-6.06,2.45-1.42,5.22-2.13,8.3-2.13s5.83.71,8.25,2.13c2.41,1.42,4.35,3.44,5.82,6.06,1.47,2.61,2.2,5.78,2.2,9.49s-.73,6.79-2.2,9.43Z"/>
  <path class="cls-2" d="M772.09,37.33v-8.5h-17.69v63.86h18.51v-30.15c0-6.09,1.56-10.58,4.68-13.47,3.13-2.89,7.22-4.33,12.29-4.33.71,0,1.39.02,2.02.06.63.05,1.34.1,2.13.18v-17.09c-6.01,0-11.11,1.17-15.31,3.5-2.71,1.51-4.9,3.52-6.65,5.95h.01Z"/>
  <rect class="cls-2" x="798.8" y="28.84" width="18.51" height="63.86"/>
  <path class="cls-2" d="M808.05,0c-2.93,0-5.33.95-7.19,2.85-1.86,1.9-2.79,4.28-2.79,7.12s.94,5.34,2.79,7.24c1.86,1.9,4.25,2.84,7.19,2.84s5.22-.95,7.12-2.84c1.9-1.9,2.84-4.31,2.84-7.24s-.95-5.22-2.84-7.12C813.27.96,810.89,0,808.05,0Z"/>
  <path class="cls-2" d="M874.76,4.63v30.92c-1.48-1.61-3.13-3-4.99-4.11-4.04-2.37-8.74-3.55-14.13-3.55-6.01,0-11.44,1.34-16.26,4.04-4.83,2.69-8.64,6.49-11.45,11.39-2.81,4.91-4.21,10.72-4.21,17.44s1.41,12.42,4.21,17.33c2.81,4.91,6.62,8.72,11.45,11.45,4.83,2.73,10.24,4.1,16.26,4.1,5.62,0,10.42-1.18,14.42-3.55,2.1-1.25,3.93-2.87,5.52-4.81v7.41h17.69V4.63h-18.51ZM872.92,70.21c-1.47,2.65-3.42,4.69-5.88,6.11-2.46,1.42-5.18,2.13-8.19,2.13s-5.86-.71-8.3-2.13c-2.46-1.42-4.41-3.46-5.88-6.11-1.47-2.65-2.2-5.8-2.2-9.43s.73-6.88,2.2-9.49c1.47-2.62,3.42-4.63,5.88-6.06,2.45-1.42,5.22-2.13,8.3-2.13s5.73.71,8.19,2.13c2.46,1.42,4.41,3.44,5.88,6.06,1.47,2.61,2.2,5.78,2.2,9.49s-.73,6.79-2.2,9.43Z"/>
  <polygon class="cls-2" points="71.69 108.96 46.04 168.31 20.77 108.96 0 108.96 35.84 192.04 54.84 192.04 90.8 108.96 71.69 108.96"/>
  <path class="cls-2" d="M140.82,131.22c-5.02-2.65-10.66-3.97-16.91-3.97s-12.3,1.41-17.44,4.21c-5.14,2.81-9.21,6.69-12.16,11.63-2.97,4.94-4.46,10.62-4.46,17.02s1.5,11.97,4.51,16.91c3,4.94,7.25,8.85,12.76,11.69,5.51,2.85,11.89,4.28,19.17,4.28,5.78,0,10.88-.89,15.31-2.67,4.43-1.78,8.11-4.33,11.03-7.65l-9.85-10.68c-2.13,2.05-4.49,3.6-7.06,4.63-2.57,1.03-5.56,1.55-8.96,1.55-3.8,0-7.1-.69-9.91-2.08-2.81-1.39-4.99-3.4-6.53-6.06-.83-1.43-1.42-3.01-1.81-4.69h48.28c.08-.79.16-1.64.24-2.55s.11-1.71.11-2.44c0-6.88-1.47-12.81-4.39-17.75-2.93-4.94-6.9-8.74-11.94-11.39v.02ZM115.66,143.33c2.41-1.39,5.2-2.08,8.37-2.08s5.93.69,8.31,2.08c2.37,1.39,4.23,3.31,5.57,5.75.88,1.61,1.37,3.47,1.67,5.46h-31.22c.32-1.96.79-3.81,1.66-5.4,1.34-2.49,3.23-4.43,5.64-5.81h-.01Z"/>
  <path class="cls-2" d="M224.85,130.26c-3.99-2.02-8.53-3.02-13.58-3.02-5.46,0-10.33,1.15-14.6,3.44-2.15,1.15-4.05,2.56-5.7,4.22v-30.92h-18.51v88.07h18.51v-31.57c0-3.96.65-7.2,1.95-9.74,1.31-2.53,3.13-4.41,5.46-5.64,2.34-1.23,4.96-1.84,7.89-1.84,4.12,0,7.3,1.23,9.56,3.68,2.26,2.45,3.38,6.25,3.38,11.39v33.71h18.51v-36.55c0-6.49-1.15-11.81-3.44-15.96-2.3-4.15-5.44-7.24-9.43-9.26Z"/>
  <path class="cls-2" d="M266.7,99.35c-2.93,0-5.33.95-7.19,2.85-1.86,1.9-2.79,4.28-2.79,7.12s.94,5.34,2.79,7.24c1.86,1.9,4.25,2.84,7.19,2.84s5.22-.95,7.12-2.84c1.9-1.9,2.84-4.31,2.84-7.24s-.95-5.22-2.84-7.12c-1.9-1.9-4.28-2.85-7.12-2.85Z"/>
  <rect class="cls-2" x="257.44" y="128.19" width="18.51" height="63.86"/>
  <path class="cls-2" d="M318.33,144.57c2.53-1.42,5.38-2.13,8.54-2.13,2.93,0,5.64.71,8.13,2.13,2.49,1.42,4.57,3.64,6.23,6.65l14.36-7.72c-2.38-5.22-6.06-9.24-11.05-12.05-4.99-2.81-10.84-4.21-17.57-4.21s-13.02,1.41-18.4,4.21c-5.38,2.81-9.59,6.69-12.64,11.63s-4.57,10.62-4.57,17.02,1.52,11.99,4.57,16.97c3.05,4.99,7.25,8.88,12.64,11.69,5.38,2.81,11.52,4.21,18.4,4.21s12.58-1.4,17.57-4.21c4.99-2.81,8.66-6.78,11.05-11.93l-14.36-7.83c-1.66,3.08-3.73,5.33-6.23,6.7-2.49,1.39-5.2,2.08-8.13,2.08-3.16,0-6.01-.71-8.54-2.13-2.54-1.42-4.54-3.44-6-6.06-1.47-2.61-2.19-5.78-2.19-9.5s.72-6.88,2.19-9.49c1.47-2.62,3.46-4.63,6-6.06v.02Z"/>
  <rect class="cls-2" x="368.78" y="103.98" width="18.51" height="88.07"/>
  <path class="cls-2" d="M453.7,131.22c-5.02-2.65-10.66-3.97-16.91-3.97s-12.3,1.41-17.44,4.21c-5.14,2.81-9.19,6.69-12.16,11.63-2.97,4.94-4.46,10.62-4.46,17.02s1.5,11.97,4.51,16.91c3,4.94,7.25,8.85,12.76,11.69,5.51,2.85,11.89,4.28,19.17,4.28,5.78,0,10.88-.89,15.31-2.67,4.43-1.78,8.11-4.33,11.05-7.65l-9.85-10.68c-2.13,2.05-4.49,3.6-7.06,4.63-2.57,1.03-5.56,1.55-8.96,1.55-3.8,0-7.11-.69-9.92-2.08-2.81-1.39-4.99-3.4-6.53-6.06-.83-1.43-1.42-3.01-1.81-4.69h48.28c.08-.79.16-1.64.24-2.55.08-.91.11-1.71.11-2.44,0-6.88-1.47-12.81-4.39-17.75-2.93-4.94-6.9-8.74-11.93-11.39v.02ZM428.53,143.33c2.41-1.39,5.2-2.08,8.37-2.08s5.93.69,8.3,2.08c2.37,1.39,4.23,3.31,5.57,5.75.88,1.61,1.37,3.47,1.67,5.46h-31.22c.32-1.96.8-3.81,1.66-5.4,1.34-2.49,3.23-4.43,5.64-5.81Z"/>
  <g>
    <polygon class="cls-4" points="542.3 157.39 580.87 157.39 580.87 142.44 542.3 142.44 542.3 124.4 585.97 124.4 585.97 108.96 523.19 108.96 523.19 192.04 587.52 192.04 587.52 176.62 542.3 176.62 542.3 157.39"/>
    <polygon class="cls-4" points="664.32 128.19 644.61 128.19 630.74 146.84 617.19 128.19 596.42 128.19 620.16 159.83 595.59 192.04 615.77 192.04 630.27 172.49 644.26 192.04 665.26 192.04 640.56 159.42 664.32 128.19"/>
    <path class="cls-4" d="M731.2,131.34c-4.79-2.73-10.19-4.1-16.2-4.1-5.62,0-10.45,1.18-14.49,3.55-2.13,1.25-3.98,2.87-5.57,4.81v-7.41h-17.69v86.88h18.51v-29.85c1.51,1.67,3.19,3.1,5.1,4.22,4.04,2.37,8.74,3.55,14.13,3.55,6.01,0,11.42-1.34,16.2-4.04,4.78-2.69,8.59-6.49,11.39-11.39,2.81-4.91,4.21-10.72,4.21-17.45s-1.41-12.42-4.21-17.33c-2.81-4.91-6.61-8.72-11.39-11.45h.01ZM725.85,169.56c-1.47,2.65-3.41,4.69-5.82,6.11-2.41,1.42-5.16,2.13-8.25,2.13s-5.86-.71-8.3-2.13c-2.46-1.42-4.39-3.46-5.82-6.11-1.42-2.65-2.13-5.8-2.13-9.43s.71-6.88,2.13-9.49c1.42-2.62,3.36-4.63,5.82-6.06,2.45-1.42,5.22-2.13,8.3-2.13s5.83.71,8.25,2.13c2.41,1.42,4.35,3.44,5.82,6.06,1.47,2.61,2.2,5.78,2.2,9.49s-.73,6.79-2.2,9.43Z"/>
    <path class="cls-4" d="M823,143.02c-3.01-4.91-7.16-8.77-12.47-11.58-5.3-2.81-11.32-4.21-18.04-4.21s-12.84,1.41-18.1,4.21c-5.27,2.81-9.42,6.69-12.47,11.63-3.05,4.94-4.57,10.62-4.57,17.02s1.52,11.97,4.57,16.91c3.05,4.94,7.2,8.85,12.47,11.69,5.26,2.85,11.29,4.28,18.1,4.28s12.74-1.42,18.04-4.28c5.3-2.84,9.45-6.75,12.47-11.69,3-4.94,4.51-10.58,4.51-16.91s-1.5-12.18-4.51-17.09h0ZM806.62,169.55c-1.42,2.65-3.36,4.69-5.82,6.11-2.46,1.42-5.22,2.13-8.3,2.13s-5.86-.71-8.31-2.13c-2.45-1.42-4.41-3.46-5.88-6.11-1.47-2.65-2.19-5.8-2.19-9.43s.72-6.88,2.19-9.49c1.47-2.62,3.43-4.63,5.88-6.06,2.46-1.42,5.22-2.13,8.31-2.13s5.86.71,8.3,2.13c2.45,1.42,4.39,3.44,5.82,6.06,1.42,2.61,2.13,5.78,2.13,9.49s-.71,6.79-2.13,9.43Z"/>
  </g>
  <path class="cls-1" d="M892.35,426.06c-13.53-56.3-54.26-100.58-105.21-120.62-7.3-2.87-14.82-5.14-22.6-5.97-10.27-1.08-16.91-3.47-24.7-10.56-24.76-22.53-54.36-40.93-83.93-55.33-36.28-17.67-75.18-29.65-115.27-31.06-37.47-1.32-74.64,8.77-109.11,23.74-25.4,11.03-49.71,24.47-73,39.84-6.94,4.58-10.01,6.31-18.53,7.68-11.88,1.93-23.88,2.74-35.65,5.47-14.37,3.33-28.41,9.39-39.37,20.01-12.85,12.46-19.28,31.17-23.25,48.71-5.93,26.23-7.53,54.7-5.11,81.58.6,6.69,4.89,12.43,11.73,12.43h63.98c14.92,24.6,44.34,36.73,71.1,26.83,27.47-10.17,44.56-39.88,40.41-70.39-4.12-30.27-28.49-53.36-57.21-55.03-29.56-1.71-55.64,20.52-62.31,50.61-3.45,15.57,19.17,22.21,22.62,6.61,4.22-19.03,19.25-33.19,38.25-32.39,17.79.74,32.99,15.14,35.62,33.86,2.55,18.07-7.6,36.2-23.61,42.76-19.35,7.92-39.1-2.71-47.95-21.56-1.81-3.85-6.22-6.16-10.13-6.16h-59.77c-.68-16.28.08-32.85,2.46-48.77,2.23-14.94,5.6-31.68,13.81-44.35,6.86-10.58,18.01-16.1,29.38-19.34,18.82-5.36,41.37-2.53,58.69-12.64,18.41-10.75,35.79-22.96,54.83-32.63,30.57-15.55,63.91-28.13,97.9-31.32,37.43-3.52,74.91,4.78,109.78,18.97,31.57,12.85,61.34,31.16,88.5,52.44,7.65,5.99,14.4,13.69,22.93,18.3,6.48,3.51,13.37,5.57,20.62,6.18,1.82.15,3.64.09,5.45.26.27.02.36.02.38.01.2.06.55.15,1.24.3,45.05,10.38,83.18,47.22,99.59,92.41-16.79.06-33.58.11-50.36.16-3.91.01-8.33,2.3-10.13,6.16-13.84,29.5-54.63,33.05-68.49,1.14-.38-.88-.72-1.78-1.03-2.69,10.66.25,21.3-.07,31.75-1.25,14.72-1.67,31.82-4.75,42.66-16.55,26.01-28.32-16.4-61.85-42.27-60.53-28.94,1.48-50.95,24.44-56.42,51.86-9.03-.77-18.02-1.88-26.92-3.63-16.18-3.18-31.26-8.43-45.84-15.57,2.78-7.75,3.93-17.48,1.83-29.64-.19-15.38-43.96-89.15-48.69-92.67-4.78-3.54-11.06-2.23-14.57,3.13-4.04,6.14-8.02,12.29-12.03,18.44l-1.38,2.1-2.35-1.71c-9.08-6.66-5.84-4.33-14.96-10.94-6.42-4.65-14.35-1.93-16.42,5.52-1.3,4.72.43,9.43,4.66,12.55,9.13,6.71,5.98,4.39,15.12,11.09l2.04,1.5-29.25,44.88-2.18-1.59c-9.14-6.7-5.96-4.42-15.14-11.07-6.36-4.6-14.36-1.76-16.34,5.73-1.25,4.73.5,9.33,4.81,12.5,9.07,6.67,5.87,4.31,14.94,10.95l2.22,1.62-1.46,2.22c-4.05,6.21-8.12,12.4-12.14,18.64-3.28,5.11-2.12,11.79,2.54,15.21,4.65,3.4,96.93,19.41,112.2,8.73,0,0,5.7-1.92,12.07-7.03,22.38,11.44,45.73,18.71,70.85,22.14,5.31.72,10.7,1.35,16.1,1.88.85,4.75,2.21,9.49,4.17,14.13,19.95,47.06,81.77,49.12,106.82,7.63,19.89-.07,39.79-.12,59.68-.19,7.73-.02,13.19-7.92,11.32-15.74h.03ZM777.28,369.82c5.61,2.2,11.54,6.25,15.12,11.42,1.61,2.32,1.09,1.88,1.13,3.85,0-.15-.16.85-1.67,2.23-2.9,2.66-7.53,4.32-11.39,5.48-14.67,4.4-30.43,4.26-45.64,3.79,5.52-19.04,22.59-34.58,42.45-26.78h0Z"/>
  <path class="cls-2" d="M1.14,183.14c.52.6,1.05,1.17,1.53,1.81,4.52,5.8,45.29,61.81,50.95,69.15,5.89,7.62,11.85,15.17,17.74,22.79,5.8,7.5,11.55,15.04,17.31,22.58.54.7.93,1.52,1.41,2.27.82,1.26,1.99,1.34,2.71.03.88-1.59,1.61-3.27,2.29-4.96,2.1-5.26,31.93-77.03,32.68-77.84.87,2.73,1.55,5.07,2.37,7.34.73,2.04,1.65,4.03,2.46,6.04,1.15,2.84,2.3,5.67,3.43,8.53,1.13,2.85,2.22,5.72,3.31,8.6,1.09,2.87,2.17,5.74,3.24,8.62,1.21,3.25,2.38,6.52,3.58,9.78.78,2.11,1.51,4.24,2.35,6.33,1.9,4.75,3.89,9.47,5.75,14.23,1.12,2.85,2.02,5.79,3.1,8.65,1.15,3.06,2.45,6.07,3.62,9.12,1.14,2.99,2.19,6,3.29,9,.77,2.11,1.51,4.23,2.35,6.31,1.09,2.72,2.35,5.39,3.4,8.12,1.14,2.98,2.1,6.01,3.18,9,.73,2.04,1.5,4.07,2.3,6.09,1.07,2.72,2.25,5.42,3.29,8.15,1.17,3.06,2.23,6.16,3.36,9.23.73,1.97,1.5,3.94,2.27,5.9,1.07,2.72,2.19,5.42,3.24,8.15,1.24,3.24,2.44,6.49,3.67,9.74.8,2.11,1.59,4.22,2.44,6.32,1.07,2.66,2.22,5.3,3.25,7.99,1.14,2.99,2.15,6.04,3.28,9.03,1.05,2.81,2.2,5.57,3.27,8.37,1.22,3.17,2.41,6.35,3.6,9.53.78,2.11,1.46,4.26,2.3,6.35,1.31,3.23,4.21,10.09,3.96,10.63-.71-.64-18.97-24.36-22.77-29.37-8.09-10.66-16.04-21.41-24.05-32.13-.45-.61-.88-1.23-1.34-1.83-6.89-9-13.88-17.94-20.67-27.01-4.55-6.08-8.82-12.38-13.26-18.55-.73-1.03-1.66-1.92-2.9-3.33-1.34,3-2.5,5.47-3.57,7.98-1.34,3.16-2.63,6.34-3.88,9.53-1.09,2.81-2.06,5.69-3.17,8.5-1.16,2.94-2.45,5.84-3.63,8.79-1.15,2.88-2.22,5.79-3.36,8.68-1.14,2.89-2.36,5.74-3.5,8.62-1.26,3.19-7.54,17.32-8.06,17.69-.27-.43-7.11-15.14-8.61-18.45-1.66-3.67-3.22-7.38-4.82-11.07-.29-.69-.62-1.37-.93-2.05-1.81-4.13-3.6-8.26-5.4-12.38-1.13-2.56-2.22-5.13-3.42-7.66-1.6-3.4-3.36-6.72-4.91-10.14-1.6-3.54-3-7.16-4.55-10.73-1.03-2.38-2.13-4.73-3.23-7.07-1.56-3.34-3.16-6.66-4.68-10.02-1.66-3.67-3.2-7.39-4.84-11.07-1.11-2.49-2.28-4.96-3.43-7.45-1.56-3.34-3.17-6.66-4.67-10.02-1.62-3.61-3.14-7.27-4.73-10.9-1.34-3.07-2.72-6.11-4.08-9.16-1.93-4.29-3.86-8.56-5.82-12.84-1.42-3.1-30.15-67.49-30-67.58v.06Z"/>
  <g>
    <path class="cls-3" d="M899.04,160.24l-11.19,11.67v21.07h-19.17v-83.35h19.17v38.93l36.91-38.93h21.43l-34.53,37.15,36.55,46.2h-22.5l-26.67-32.74Z"/>
    <path class="cls-3" d="M1000.13,175.12h-38.7l-7.38,17.86h-19.76l37.15-83.35h19.05l37.27,83.35h-20.24l-7.38-17.86ZM994.06,160.47l-13.22-31.91-13.22,31.91h26.43Z"/>
    <path class="cls-3" d="M1096.1,177.26v15.72h-72.87v-12.5l45.72-55.13h-44.77v-15.72h70.13v12.5l-45.6,55.13h47.39Z"/>
    <path class="cls-3" d="M1155.52,175.12h-38.7l-7.38,17.86h-19.76l37.15-83.35h19.05l37.27,83.35h-20.24l-7.38-17.86ZM1149.45,160.47l-13.22-31.91-13.22,31.91h26.43Z"/>
    <path class="cls-3" d="M1214.34,160.24l-11.19,11.67v21.07h-19.17v-83.35h19.17v38.93l36.91-38.93h21.43l-34.53,37.15,36.55,46.2h-22.5l-26.67-32.74Z"/>
    <path class="cls-3" d="M1340.67,109.63v83.35h-19.29v-34.17h-37.86v34.17h-19.29v-83.35h19.29v32.86h37.86v-32.86h19.29Z"/>
    <path class="cls-3" d="M1346.04,184.76l6.55-14.53c7.02,5.12,17.5,8.69,27.5,8.69,11.43,0,16.07-3.81,16.07-8.93,0-15.6-48.46-4.88-48.46-35.84,0-14.17,11.43-25.96,35.12-25.96,10.48,0,21.19,2.5,28.93,7.38l-5.95,14.64c-7.74-4.41-15.72-6.55-23.1-6.55-11.43,0-15.84,4.29-15.84,9.52,0,15.36,48.46,4.76,48.46,35.36,0,13.93-11.55,25.84-35.36,25.84-13.22,0-26.55-3.93-33.93-9.64Z"/>
    <path class="cls-3" d="M1436.77,125.35h-26.67v-15.72h72.63v15.72h-26.67v67.63h-19.29v-67.63Z"/>
    <path class="cls-3" d="M1537.86,175.12h-38.7l-7.38,17.86h-19.76l37.15-83.35h19.05l37.27,83.35h-20.24l-7.38-17.86ZM1531.78,160.47l-13.22-31.91-13.22,31.91h26.43Z"/>
    <path class="cls-3" d="M1644.66,109.63v83.35h-15.83l-41.55-50.6v50.6h-19.05v-83.35h15.95l41.43,50.6v-50.6h19.05Z"/>
  </g>
</svg>