<?xml version="1.0" encoding="UTF-8"?>
<svg id="katman_1" xmlns="http://www.w3.org/2000/svg" viewBox="0 0 1584.68 886">
  <defs>
    <style>
      .cls-1 {
        fill: #878788;
      }

      .cls-2 {
        fill-rule: evenodd;
      }

      .cls-2, .cls-3 {
        fill: #47883f;
      }

      .cls-4 {
        fill: #d73324;
      }
    </style>
  </defs>
  <g id="_Слой_x5F_1" data-name="Слой_x5F_1">
    <g id="_2127861385488">
      <path class="cls-2" d="M427.13,279.03c33.32-39.36,78.42-82.23,136.24-79.81-143.7,46.93-175.98,196.88-180.88,216.8-6.28-39.23-14.64-78.67-25.23-117.89v-.03c1.59-64.98-22-133.52-66.59-192.45,51.36,44.07,86.33,103.24,96.98,164.01,25.48-100.24-20.45-180.68-137.84-241.41-2.4-1.23-4.87-2.45-7.32-3.67-4.59-2.28-9.25-4.55-14.05-6.8v.02h0c-13.25-6.14-27.29-12.07-42.14-17.8,70.09,82.37-2.4,196.18,134.05,290.25h0c9.88,47.75,16.38,95.36,19.42,142.29,1.8,26.97,2.52,54.88,1.79,81.41-.3,6.77-1.8,56.29-2.73,55.38-5.75-5.12-11.54-10.16-17.36-15.14-1.12-.87-2.25-1.72-3.38-2.59-15.99-12.13-32.63-23.07-49.53-33.36-16.91-10.29-34.36-19.27-51.89-27.65-3.56-1.64-7.19-3.26-10.79-4.81l-.04-.02c-29.48-16.03-61.02-26.87-92.84-31.53,49.99-5.81,104.63,9.34,151.5,41.99C192.96,399.68,104.8,386.11,0,455.5c90.27,7.13,145.66,149.45,281.69,90.08h0c8.55,6.64,16.93,13.55,25.04,20.78,10.48,9.25,20.58,18.89,30.26,28.84-.63,9.04-1.23,18.1-1.79,27.22-.28,4.57-.54,9.14-.8,13.73-1.01,18.95-1.7,38.14-1.77,57.67-16.58,5.55-29.89,16.08-38.65,29.97-61.67,11.55-98,11.21-144.98,16.14,50.19,5.03,19.19,3.05,68.7,4.91,49.49,1.77,98.79,2.6,147.9,2.58,49.12-.02,98.05-.84,146.8-2.61,48.72-1.87,161.74.54,209.79-4.46-97.88-9.75-219.79,7.21-312.2-38.75-4.02-2-8.15-3.78-12.34-5.32-.6-10.13-1.06-20.29-1.38-30.47-.18-5.37-.35-10.78-.46-16.16-.22-9.64-.31-19.3-.36-28.99-.14-17.83-.15-35.77-.3-53.89-1.05-52.54-.9-85.65,13.87-135.59,10.58-35.77,27.98-79.71,32.71-86.34,43.96-17.45,81.55-20.87,106.23-39.94,57.42-44.37,73.31-102.73,139.56-113.14-152.57-67.59-235.17-23.81-260.38,87.3Z"/>
      <path class="cls-1" d="M514.26,884.38v-85.46h56.23v16.12h-46.44l9.32-13v79.22l-8.07-13h45.73v16.12h-56.77ZM528.93,848.78v-14.98h39.67v14.98h-39.67ZM592.81,884.38c2.1-3.96,4.24-8.01,6.42-12.14,2.17-4.14,4.43-8.41,6.77-12.85l11.34-21.45v4.61l-9.98-17.68c-2.3-4.04-4.64-8.15-7.01-12.33-2.37-4.18-4.95-8.71-7.72-13.62h22.21c1.74,3.36,3.44,6.63,5.1,9.83,1.66,3.19,3.25,6.25,4.75,9.17l5.82,11.2h1.48l5.58-11.26c1.46-2.96,2.99-6.03,4.57-9.23,1.59-3.2,3.19-6.43,4.81-9.71h21.5c-2.5,4.71-4.89,9.21-7.21,13.48-2.31,4.28-4.43,8.21-6.33,11.8l-10.93,20.38v-5.27l11.16,18.76c2.77,4.59,5.42,8.99,7.94,13.2,2.51,4.21,5.1,8.59,7.8,13.1h-23.04c-1.74-3.24-3.38-6.29-4.93-9.17-1.55-2.88-3.05-5.63-4.51-8.27l-7.07-13.18h-1.49l-6.59,13.24c-1.42,2.76-2.83,5.53-4.23,8.35-1.41,2.82-2.93,5.83-4.55,9.03h-21.68ZM747.92,884.38v-85.46h19.6v85.46h-19.6ZM695.12,884.38v-85.46h19.54v85.46h-19.54ZM709.32,849.56v-16.42h44.36v16.42h-44.36ZM797.38,884.38v-85.46h19.95v85.46h-19.95ZM876.89,884.38h-29.75v-85.46h34.26c5.78,0,10.63.46,14.53,1.4,3.9.94,7.01,2.28,9.32,4.01,2.31,1.74,3.98,3.82,4.99,6.21,1.01,2.4,1.51,5.07,1.51,8.03,0,3.64-.67,6.79-2.02,9.47-1.35,2.68-3.19,4.88-5.52,6.61-2.34,1.74-4.97,3-7.9,3.76v1.5c3.37.76,6.37,1.94,9.01,3.53,2.63,1.6,4.67,3.77,6.13,6.53,1.46,2.76,2.2,6.23,2.2,10.43,0,3.59-.56,6.85-1.68,9.79-1.13,2.94-3.07,5.47-5.82,7.59-2.75,2.12-6.51,3.73-11.26,4.87-4.75,1.14-10.75,1.72-17.99,1.72ZM866.31,869.58h12.35c3.4,0,6.22-.42,8.41-1.26,2.2-.84,3.8-2.06,4.83-3.65,1.03-1.6,1.55-3.57,1.55-5.93,0-3.55-1.19-6.19-3.56-7.89-2.37-1.7-5.8-2.54-10.28-2.54h-17.93v-13.84h17.1c2.89,0,5.28-.48,7.19-1.42,1.9-.94,3.33-2.2,4.25-3.79.93-1.6,1.39-3.45,1.39-5.57,0-3.32-.97-5.84-2.91-7.53-1.94-1.7-4.89-2.54-8.84-2.54h-13.54v55.97h0ZM939,884.38v-85.46h19.95v85.46h-19.95ZM1009.06,884.38v-82.34l7.36,14.08h-32.96v-17.2h70.6v17.2h-32.96l7.43-14.08v82.34h-19.47ZM1078.65,884.38v-85.46h19.95v85.46h-19.95ZM1168.84,886c-7.64,0-14.25-1.2-19.83-3.58-5.58-2.37-10.17-5.63-13.77-9.77-3.6-4.14-6.27-8.85-8.04-14.16-1.76-5.32-2.65-10.91-2.65-16.78,0-8.31,1.64-15.84,4.91-22.57,3.27-6.73,8.13-12.06,14.61-16.02,6.48-3.95,14.55-5.93,24.25-5.93,7.36,0,13.79,1.14,19.3,3.44,5.5,2.3,10.09,5.49,13.76,9.57,3.66,4.07,6.39,8.79,8.21,14.14,1.82,5.35,2.73,11.11,2.73,17.26,0,8.51-1.66,16.1-5.01,22.77-3.34,6.67-8.26,11.94-14.71,15.82-6.46,3.87-14.37,5.81-23.76,5.81ZM1168.55,869.76c3.92,0,7.34-.76,10.27-2.25,2.93-1.5,5.36-3.56,7.31-6.19,1.94-2.63,3.4-5.65,4.37-9.03.97-3.37,1.45-6.93,1.45-10.69,0-3.96-.51-7.65-1.56-11.06-1.05-3.42-2.57-6.39-4.58-8.95-2-2.56-4.45-4.56-7.34-5.99-2.89-1.44-6.19-2.16-9.92-2.16s-7.22.74-10.17,2.22c-2.95,1.48-5.42,3.52-7.4,6.13-1.98,2.62-3.48,5.63-4.51,9.03-1.03,3.39-1.55,6.99-1.55,10.78s.49,7.37,1.49,10.75c.99,3.37,2.47,6.37,4.43,8.99,1.96,2.62,4.41,4.68,7.36,6.18,2.95,1.49,6.4,2.25,10.35,2.25h0ZM1237.96,884.38v-85.46h17.05c3.96,5.83,7.7,11.33,11.22,16.5,3.53,5.18,7.05,10.37,10.57,15.56l13.77,20.14h1.43v-52.2h18.35v85.46h-16.87c-3.25-4.79-6.65-9.79-10.21-14.98-3.56-5.19-7.46-10.86-11.7-17.02l-13.96-20.38h-1.36v52.38h-18.29Z"/>
      <path class="cls-3" d="M1574.76,757.08c7.79,0,9.92-4.87,9.92-10.87s-2.13-10.87-9.92-10.87H135.37c-7.79,0-9.92,4.87-9.92,10.87s2.13,10.87,9.92,10.87h1439.39Z"/>
      <g>
        <path class="cls-4" d="M513.39,439.66v-94.95h62.12v18.24h-49.54l8.86-14.78v91.49h-21.44ZM529.31,401.91v-17.58h44.08v17.58h-44.08ZM594.58,439.66v-94.95h21.91v91.42l-7.59-15.58h49.67v19.11h-63.99ZM719.25,441.46c-8.57,0-15.98-1.33-22.24-3.97-6.26-2.64-11.41-6.26-15.45-10.85-4.04-4.59-7.04-9.83-9.01-15.74-1.97-5.9-2.97-12.12-2.97-18.64,0-9.23,1.84-17.6,5.5-25.08,3.66-7.48,9.12-13.4,16.38-17.8,7.26-4.4,16.31-6.59,27.19-6.59,8.26,0,15.47,1.26,21.64,3.82,6.17,2.55,11.32,6.1,15.42,10.63,4.11,4.53,7.17,9.77,9.21,15.71,2.04,5.95,3.06,12.34,3.06,19.18,0,9.45-1.86,17.89-5.61,25.3-3.75,7.41-9.26,13.27-16.49,17.58-7.24,4.31-16.11,6.46-26.63,6.46ZM718.91,423.41c4.4,0,8.24-.84,11.52-2.51,3.28-1.66,6.01-3.95,8.19-6.88,2.17-2.93,3.82-6.28,4.9-10.03,1.09-3.75,1.62-7.7,1.62-11.87,0-4.39-.58-8.5-1.75-12.3-1.18-3.79-2.89-7.1-5.13-9.94-2.24-2.84-4.99-5.06-8.23-6.66-3.24-1.6-6.95-2.4-11.12-2.4s-8.1.82-11.41,2.47c-3.31,1.64-6.08,3.91-8.3,6.81s-3.91,6.26-5.06,10.03c-1.16,3.77-1.73,7.77-1.73,11.99s.55,8.19,1.66,11.94c1.11,3.75,2.77,7.08,4.97,9.99,2.2,2.91,4.95,5.19,8.25,6.86,3.31,1.66,7.17,2.51,11.61,2.51ZM802.3,439.66c-1.24-4.7-2.57-9.74-3.99-15.09-1.42-5.35-2.75-10.3-4-14.87l-7.86-29.83c-1.42-5.28-2.95-11.08-4.62-17.36-1.66-6.28-3.24-12.21-4.71-17.8h24.71c1.2,5.81,2.46,11.92,3.79,18.33,1.33,6.42,2.6,12.52,3.79,18.29l6.59,32.29h1.66l6.79-32.69c.8-3.73,1.64-7.68,2.51-11.83.87-4.15,1.73-8.3,2.62-12.48.89-4.17,1.73-8.15,2.53-11.92h23.37c1.24,5.81,2.55,11.85,3.9,18.13,1.36,6.28,2.67,12.36,3.95,18.23l7.06,32.56h1.6l6.73-32.76c1.15-5.59,2.4-11.61,3.7-18.04,1.31-6.44,2.53-12.48,3.69-18.11h24.77c-1.55,5.64-3.15,11.56-4.82,17.78-1.66,6.22-3.22,11.94-4.64,17.18l-8.12,30.03c-1.29,4.71-2.64,9.72-4.06,15.05-1.42,5.33-2.77,10.3-4.06,14.91h-26.64c-1.24-5.33-2.55-10.92-3.93-16.76-1.37-5.84-2.66-11.39-3.86-16.67l-7.06-30.1h-1.66l-6.79,30.1c-1.15,5.24-2.4,10.81-3.75,16.72-1.36,5.9-2.64,11.47-3.84,16.71h-25.37ZM927.37,439.66v-94.95h63.06v17.91h-52.07l10.45-14.45v88.03l-9.06-14.45h51.27v17.91h-63.66ZM943.81,400.11v-16.64h44.48v16.64h-44.48ZM1011.15,439.66v-94.95h36.42c7.72,0,14.27.84,19.62,2.55,5.35,1.71,9.41,4.57,12.19,8.57,2.77,4,4.15,9.43,4.15,16.32,0,5.46-1.06,10.37-3.22,14.71-2.16,4.35-5.62,7.79-10.37,10.32-4.75,2.53-10.97,3.8-18.64,3.8l8.46-7.99,12.92,19.04c2,2.93,4.13,6.06,6.39,9.41,2.26,3.35,4.48,6.61,6.64,9.79,2.16,3.17,4.04,5.99,5.68,8.43h-24.84c-2.4-3.73-4.7-7.3-6.92-10.72-2.22-3.42-4.38-6.75-6.46-9.99l-15.38-24.23,12.99,9.92h-22.04v-15.65h15.85c3.55,0,6.55-.45,8.97-1.31,2.42-.86,4.24-2.33,5.48-4.42,1.24-2.09,1.86-4.95,1.86-8.59,0-2.71-.4-4.9-1.2-6.57-.8-1.66-1.86-2.95-3.22-3.88-1.36-.93-2.87-1.56-4.53-1.86-1.66-.31-3.35-.46-5.04-.46h-29.83l15.58-13.72v91.49h-21.51ZM1137.82,441.39c-3.95,0-7.99-.34-12.14-.98-4.15-.65-8.03-1.46-11.65-2.49-3.62-1.02-6.57-2.08-8.84-3.19l1.6-19.24c3.06,1.73,6.28,3.2,9.63,4.42,3.35,1.22,6.7,2.17,10.05,2.84,3.35.66,6.55,1,9.61,1s5.73-.38,7.99-1.13c2.26-.75,4.02-1.91,5.26-3.44,1.24-1.53,1.86-3.51,1.86-5.95s-.8-4.55-2.42-6.17c-1.62-1.62-3.95-3.04-6.97-4.26-3.02-1.22-6.61-2.42-10.79-3.62-5.77-1.68-10.7-3.66-14.78-5.9-4.08-2.24-7.19-5.13-9.35-8.66-2.15-3.53-3.24-8.06-3.24-13.6s1.22-10.45,3.66-14.69c2.44-4.24,6.13-7.55,11.05-9.94,4.93-2.4,11.16-3.6,18.71-3.6,2.97,0,5.95.18,8.92.55,2.97.38,5.88.89,8.7,1.51,2.82.62,5.42,1.33,7.81,2.13,2.4.8,4.48,1.64,6.26,2.53l-1.66,19.31c-2.84-1.77-5.79-3.26-8.86-4.46-3.07-1.2-6.06-2.11-8.99-2.73-2.93-.62-5.59-.93-7.99-.93-2.71,0-5.15.35-7.35,1.06-2.2.71-3.95,1.8-5.24,3.27-1.29,1.46-1.93,3.31-1.93,5.53s.62,3.99,1.85,5.48c1.22,1.49,3.11,2.8,5.66,3.93,2.55,1.13,5.84,2.31,9.88,3.51,7.59,2.26,13.59,4.62,17.98,7.08,4.39,2.47,7.52,5.44,9.37,8.9,1.84,3.46,2.75,7.81,2.75,13.05,0,5.82-1.26,10.88-3.79,15.21-2.53,4.33-6.48,7.7-11.85,10.1-5.37,2.4-12.29,3.6-20.77,3.6ZM560.27,574.3c-8.17,0-15.42-1.22-21.77-3.64-6.35-2.42-11.7-5.82-16.07-10.21-4.37-4.39-7.7-9.59-9.99-15.58-2.28-5.99-3.44-12.56-3.44-19.71,0-9.68,2-18.24,5.97-25.68,3.97-7.44,9.65-13.25,17.07-17.45,7.41-4.19,16.32-6.28,26.7-6.28,3.33,0,6.59.2,9.77.62,3.17.42,6.17.98,9.01,1.66,2.84.69,5.48,1.46,7.92,2.33,2.44.87,4.6,1.78,6.46,2.71l-1.66,20.31c-3.73-2.13-7.33-3.86-10.81-5.19-3.48-1.33-6.81-2.31-9.99-2.91-3.17-.6-6.17-.89-8.97-.89-4.08,0-7.86.65-11.34,1.96-3.48,1.31-6.55,3.28-9.17,5.9-2.62,2.62-4.64,5.84-6.08,9.68-1.44,3.84-2.17,8.28-2.17,13.3,0,4.31.62,8.37,1.84,12.19,1.22,3.82,3.06,7.17,5.55,10.08,2.48,2.91,5.66,5.19,9.5,6.84,3.84,1.64,8.35,2.47,13.54,2.47,2.75,0,5.37-.13,7.86-.4,2.49-.26,4.88-.69,7.19-1.26,2.31-.58,4.59-1.31,6.84-2.17,2.24-.87,4.48-1.91,6.75-3.15l2.6,19.51c-1.51.62-3.44,1.22-5.82,1.82-2.37.6-5.04,1.16-7.99,1.64-2.95.49-6.08.87-9.37,1.13-3.28.27-6.59.4-9.92.4ZM572.79,569.71v-46.21h20.58v45.81l-20.58.4ZM614.76,572.64v-94.95h36.42c7.72,0,14.27.84,19.62,2.55,5.35,1.71,9.41,4.57,12.19,8.57,2.77,4,4.15,9.43,4.15,16.32,0,5.46-1.06,10.37-3.22,14.71-2.16,4.35-5.62,7.79-10.37,10.32-4.75,2.53-10.97,3.8-18.64,3.8l8.46-7.99,12.92,19.04c2,2.93,4.13,6.06,6.39,9.41,2.26,3.35,4.48,6.61,6.64,9.79,2.16,3.17,4.04,5.99,5.68,8.43h-24.84c-2.4-3.73-4.7-7.3-6.92-10.72-2.22-3.42-4.38-6.75-6.46-9.99l-15.38-24.23,12.99,9.92h-22.04v-15.65h15.85c3.55,0,6.55-.45,8.97-1.31,2.42-.86,4.24-2.33,5.48-4.42,1.24-2.09,1.86-4.95,1.86-8.59,0-2.71-.4-4.9-1.2-6.57-.8-1.66-1.86-2.95-3.22-3.88-1.36-.93-2.87-1.56-4.53-1.86-1.66-.31-3.35-.46-5.04-.46h-29.83l15.58-13.72v91.49h-21.51ZM711.19,572.64v-94.95h63.06v17.91h-52.07l10.45-14.45v88.03l-9.06-14.45h51.27v17.91h-63.66ZM727.64,533.08v-16.64h44.48v16.64h-44.48ZM794.98,572.64v-94.95h63.06v17.91h-52.07l10.45-14.45v88.03l-9.06-14.45h51.27v17.91h-63.66ZM811.42,533.08v-16.64h44.48v16.64h-44.48ZM878.83,572.64v-94.95h19.11c4.44,6.48,8.64,12.59,12.59,18.33,3.95,5.75,7.9,11.52,11.85,17.29l15.45,22.37h1.6v-57.99h20.57v94.95h-18.91c-3.64-5.33-7.46-10.88-11.45-16.65-4-5.77-8.37-12.07-13.12-18.91l-15.65-22.64h-1.53v58.19h-20.51ZM1042.25,572.64v-94.95h21.97v94.95h-21.97ZM983.06,572.64v-94.95h21.91v94.95h-21.91ZM998.97,533.95v-18.24h49.74v18.24h-49.74ZM1132.57,574.43c-8.57,0-15.98-1.33-22.24-3.97-6.26-2.64-11.41-6.26-15.45-10.85-4.04-4.59-7.04-9.83-9.01-15.74-1.97-5.9-2.97-12.12-2.97-18.64,0-9.23,1.84-17.6,5.5-25.08,3.66-7.48,9.12-13.4,16.38-17.8,7.26-4.4,16.32-6.59,27.19-6.59,8.26,0,15.47,1.26,21.64,3.82,6.17,2.55,11.32,6.1,15.42,10.63,4.11,4.53,7.17,9.77,9.21,15.71,2.04,5.95,3.06,12.34,3.06,19.18,0,9.45-1.86,17.89-5.61,25.3-3.75,7.41-9.26,13.27-16.49,17.58-7.24,4.31-16.11,6.46-26.63,6.46ZM1132.23,556.39c4.4,0,8.24-.84,11.52-2.51,3.28-1.66,6.01-3.95,8.19-6.88,2.17-2.93,3.82-6.28,4.9-10.03,1.09-3.75,1.62-7.7,1.62-11.87,0-4.39-.58-8.5-1.75-12.3-1.18-3.79-2.89-7.1-5.13-9.94-2.24-2.84-4.99-5.06-8.23-6.66-3.24-1.6-6.95-2.4-11.12-2.4s-8.1.82-11.41,2.47c-3.31,1.64-6.08,3.91-8.3,6.81-2.22,2.91-3.91,6.26-5.06,10.03-1.16,3.77-1.73,7.77-1.73,11.99s.55,8.19,1.66,11.94c1.11,3.75,2.77,7.08,4.97,9.99,2.2,2.91,4.95,5.19,8.26,6.86,3.31,1.66,7.17,2.51,11.61,2.51ZM1239.32,574.43c-9.68,0-17.44-1.55-23.33-4.66-5.89-3.11-10.17-7.55-12.83-13.3-2.66-5.75-3.99-12.52-3.99-20.33v-58.46h21.84v57.26c0,4.53.62,8.39,1.86,11.59,1.25,3.19,3.22,5.64,5.9,7.32,2.69,1.69,6.17,2.53,10.48,2.53s7.86-.84,10.5-2.53c2.64-1.69,4.55-4.13,5.73-7.32,1.17-3.2,1.75-7.08,1.75-11.65v-57.2h21.84v58.53c0,7.81-1.4,14.58-4.2,20.31-2.8,5.73-7.12,10.14-12.98,13.25-5.86,3.11-13.39,4.66-22.57,4.66ZM1331.57,574.37c-3.95,0-7.99-.34-12.14-.98-4.15-.65-8.03-1.46-11.65-2.49-3.62-1.02-6.57-2.08-8.84-3.19l1.6-19.24c3.06,1.73,6.28,3.2,9.63,4.42,3.35,1.22,6.7,2.17,10.05,2.84,3.35.66,6.55,1,9.61,1s5.73-.38,7.99-1.13c2.26-.75,4.02-1.91,5.26-3.44,1.24-1.53,1.86-3.51,1.86-5.95s-.8-4.55-2.42-6.17c-1.62-1.62-3.95-3.04-6.97-4.26-3.02-1.22-6.61-2.42-10.79-3.62-5.77-1.68-10.7-3.66-14.78-5.9-4.08-2.24-7.19-5.13-9.35-8.66-2.15-3.53-3.24-8.06-3.24-13.6s1.22-10.45,3.66-14.69c2.44-4.24,6.13-7.55,11.05-9.94,4.93-2.4,11.16-3.6,18.71-3.6,2.97,0,5.95.18,8.92.55,2.97.38,5.88.89,8.7,1.51,2.82.62,5.42,1.33,7.81,2.13,2.4.8,4.48,1.64,6.26,2.53l-1.66,19.31c-2.84-1.77-5.79-3.26-8.86-4.46-3.07-1.2-6.06-2.11-8.99-2.73-2.93-.62-5.59-.93-7.99-.93-2.71,0-5.15.35-7.35,1.06-2.2.71-3.95,1.8-5.24,3.27-1.29,1.46-1.93,3.31-1.93,5.53s.62,3.99,1.85,5.48c1.22,1.49,3.11,2.8,5.66,3.93s5.84,2.31,9.88,3.51c7.59,2.26,13.59,4.62,17.98,7.08,4.39,2.47,7.52,5.44,9.37,8.9,1.84,3.46,2.75,7.81,2.75,13.05,0,5.82-1.26,10.88-3.79,15.21-2.53,4.33-6.48,7.7-11.85,10.1-5.37,2.4-12.29,3.6-20.77,3.6ZM1385.65,572.64v-94.95h63.06v17.91h-52.07l10.45-14.45v88.03l-9.06-14.45h51.27v17.91h-63.66ZM1402.1,533.08v-16.64h44.48v16.64h-44.48ZM1499.67,574.37c-3.95,0-7.99-.34-12.14-.98-4.15-.65-8.03-1.46-11.65-2.49-3.62-1.02-6.57-2.08-8.84-3.19l1.6-19.24c3.06,1.73,6.28,3.2,9.63,4.42,3.35,1.22,6.7,2.17,10.05,2.84,3.35.66,6.55,1,9.61,1s5.73-.38,7.99-1.13c2.26-.75,4.02-1.91,5.26-3.44,1.24-1.53,1.86-3.51,1.86-5.95s-.8-4.55-2.42-6.17c-1.62-1.62-3.95-3.04-6.97-4.26-3.02-1.22-6.61-2.42-10.79-3.62-5.77-1.68-10.7-3.66-14.78-5.9-4.08-2.24-7.19-5.13-9.35-8.66-2.15-3.53-3.24-8.06-3.24-13.6s1.22-10.45,3.66-14.69c2.44-4.24,6.13-7.55,11.05-9.94,4.93-2.4,11.16-3.6,18.71-3.6,2.97,0,5.95.18,8.92.55,2.97.38,5.88.89,8.7,1.51,2.82.62,5.42,1.33,7.81,2.13,2.4.8,4.48,1.64,6.26,2.53l-1.66,19.31c-2.84-1.77-5.79-3.26-8.86-4.46-3.07-1.2-6.06-2.11-8.99-2.73-2.93-.62-5.59-.93-7.99-.93-2.71,0-5.15.35-7.35,1.06-2.2.71-3.95,1.8-5.24,3.27-1.29,1.46-1.93,3.31-1.93,5.53s.62,3.99,1.85,5.48c1.22,1.49,3.11,2.8,5.66,3.93,2.55,1.13,5.84,2.31,9.88,3.51,7.59,2.26,13.59,4.62,17.98,7.08,4.39,2.47,7.52,5.44,9.37,8.9,1.84,3.46,2.75,7.81,2.75,13.05,0,5.82-1.26,10.88-3.79,15.21-2.53,4.33-6.48,7.7-11.85,10.1-5.37,2.4-12.29,3.6-20.77,3.6ZM513.39,705.61v-94.95h62.12v18.24h-49.54l8.86-14.78v91.49h-21.44ZM529.31,667.86v-17.58h44.08v17.58h-44.08ZM582.66,705.61c1.69-5.1,3.46-10.48,5.3-16.12,1.84-5.64,3.57-10.99,5.22-16.05l10.72-32.56c1.91-5.9,3.64-11.23,5.19-15.96,1.55-4.73,3.11-9.48,4.66-14.27h28.23c1.6,4.97,3.17,9.81,4.71,14.51,1.53,4.71,3.24,9.94,5.15,15.71l10.58,32.63c1.73,5.24,3.51,10.63,5.31,16.18,1.8,5.55,3.51,10.85,5.15,15.92h-22.64c-1.42-5.06-2.88-10.25-4.39-15.56-1.51-5.3-2.95-10.32-4.33-15.07l-13.05-45.74h-1.6l-13.18,45.28c-1.42,4.93-2.91,10.08-4.48,15.47-1.58,5.39-3.11,10.61-4.57,15.62h-21.97ZM605.57,685.77l2.33-16.38h42.41l1.86,16.38h-46.61ZM685.16,705.61v-11.52c2.22-2.88,4.73-6.12,7.5-9.7,2.77-3.57,5.57-7.19,8.39-10.85,2.82-3.66,5.41-7.01,7.81-10.08l31.96-41.29,2.53,6.66h-56.79v-18.18h78.57v14.78c-3.6,4.57-7.12,9.07-10.61,13.51-3.48,4.44-6.97,8.86-10.43,13.25l-33.16,42.28-1.73-7.06h56.67v18.18h-80.7ZM785.05,705.61v-94.95h63.06v17.91h-52.07l10.45-14.45v88.03l-9.06-14.45h51.27v17.91h-63.66ZM801.5,666.06v-16.64h44.48v16.64h-44.48Z"/>
        <path class="cls-4" d="M868.9,705.61v-94.95h19.11c4.44,6.48,8.64,12.59,12.59,18.33,3.95,5.75,7.9,11.52,11.85,17.29l15.45,22.37h1.6v-57.99h20.57v94.95h-18.91c-3.64-5.33-7.46-10.88-11.45-16.65-4-5.77-8.37-12.07-13.12-18.91l-15.65-22.64h-1.53v58.19h-20.51ZM973.13,705.61v-94.95h37.75c7.24,0,13.67,1.04,19.31,3.13,5.64,2.09,10.41,5.15,14.29,9.19,3.88,4.04,6.84,8.97,8.88,14.81,2.04,5.84,3.06,12.52,3.06,20.02,0,6.7-.89,12.94-2.68,18.73-1.8,5.79-4.66,10.88-8.59,15.22-3.93,4.35-9.12,7.75-15.56,10.19-6.44,2.44-14.3,3.66-23.57,3.66h-32.89ZM995.04,688.1h10.92c6.84,0,12.28-1.33,16.29-3.99,4.02-2.67,6.9-6.3,8.68-10.92,1.77-4.62,2.66-9.83,2.66-15.65,0-4.4-.51-8.39-1.55-11.99-1.05-3.6-2.64-6.7-4.79-9.3-2.16-2.6-4.91-4.59-8.24-5.99-3.33-1.4-7.3-2.09-11.92-2.09h-12.05v51.2c0,2.97,0,5.88,0,8.72ZM1064.58,705.61c1.69-5.1,3.46-10.48,5.3-16.12,1.84-5.64,3.57-10.99,5.22-16.05l10.72-32.56c1.91-5.9,3.64-11.23,5.19-15.96,1.55-4.73,3.11-9.48,4.66-14.27h28.23c1.6,4.97,3.17,9.81,4.71,14.51,1.53,4.71,3.24,9.94,5.15,15.71l10.58,32.63c1.73,5.24,3.51,10.63,5.31,16.18,1.8,5.55,3.51,10.85,5.15,15.92h-22.64c-1.42-5.06-2.88-10.25-4.39-15.56-1.51-5.3-2.95-10.32-4.33-15.07l-13.05-45.74h-1.6l-13.18,45.28c-1.42,4.93-2.91,10.08-4.48,15.47-1.58,5.39-3.11,10.61-4.57,15.62h-21.97ZM1087.48,685.77l2.33-16.38h42.42l1.86,16.38h-46.61Z"/>
      </g>
    </g>
  </g>
</svg>