<?xml version="1.0" encoding="UTF-8"?>
<svg xmlns="http://www.w3.org/2000/svg" version="1.1" viewBox="0 0 4127 705">
  <defs>
    <style>
      .cls-1 {
        fill: #ec9e2e;
      }
    </style>
  </defs>
  <!-- Generator: Adobe Illustrator 28.7.1, SVG Export Plug-In . SVG Version: 1.2.0 Build 142)  -->
  <g>
    <g id="katman_1">
      <path class="cls-1" d="M4110,704.5c-8.9,0-16.1-7.2-16.1-16.1v-423.1l-226.6-226.6-231.4,231.4c-6,6-16.8,6-22.8,0l-231.4-231.4-231.3,231.4c-6,6-16.9,6-22.9,0l-231.3-231.4-231.4,231.4c-3,3-7.1,4.7-11.4,4.7-8.9,0-16.1-7.2-16.1-16.1s2.2-9.4,5.8-12.4L2884.8,4.7c6-6,16.7-6,22.7,0l231.5,231.5L3370.4,4.7c6.3-6.3,16.4-6.3,22.7,0l231.4,231.4L3855.9,4.7c6.3-6.3,16.4-6.3,22.7,0l242.7,242.7c3,3,4.7,7.1,4.7,11.3v429.7c0,8.9-7.2,16.1-16.1,16.1Z"/>
      <path d="M273.2,483.1h114.1v164.7c-23,16-49.7,28.2-80.1,36.7-30.4,8.5-60.3,12.8-89.6,12.8-41.6,0-78.8-8.6-111.9-25.9-33-17.3-58.9-41.4-77.6-72.3C9.4,568.1,0,533,0,493.7s9.4-74.5,28.1-105.5c18.7-31,44.9-55.1,78.5-72.4,33.6-17.2,71.5-25.9,113.8-25.9s72.4,6.4,102.7,19.2c30.2,12.8,55.4,31.4,75.4,55.9l-84,74c-24.5-28.6-53.6-42.9-87.4-42.9s-51.9,8.7-69,26.2c-17.1,17.4-25.6,41.2-25.6,71.2s8.4,52.9,25.3,70.7c16.9,17.8,39.4,26.7,67.6,26.7s32.6-3.2,47.9-9.5v-98.5Z"/>
      <path d="M657.8,378.5v111.3c-10-1.5-19.3-2.2-27.8-2.2-43,0-64.6,21.9-64.6,65.7v135.2h-125.8v-304.4h119.7v32.8c22.3-25.6,55.1-38.4,98.5-38.4Z"/>
      <path d="M818.6,474.7c-8.5,7.1-14.1,17.1-16.7,30.1h98c-2.6-12.6-8.2-22.5-16.7-29.8-8.5-7.2-19.3-10.9-32.3-10.9s-23.8,3.5-32.3,10.6ZM1015.7,565.5h-211.5c4.4,11.5,11.9,20.3,22.3,26.4,10.4,6.1,23.4,9.2,39,9.2s24.6-1.7,33.7-5c9.1-3.3,19-9.1,29.8-17.3l65.7,66.2c-29.7,32.7-74,49-133,49s-69-6.8-96.8-20.3c-27.8-13.5-49.3-32.4-64.6-56.5-15.2-24.1-22.8-51.2-22.8-81.3s7.5-57.6,22.5-81.5c15-23.9,35.6-42.6,61.8-55.9,26.2-13.4,55.6-20,88.2-20s58.9,6.1,84.3,18.4c25.4,12.2,45.6,30.2,60.7,54,15,23.7,22.5,52.1,22.5,85.1s-.5,11.7-1.7,29.5Z"/>
      <path d="M1182.1,474.7c-8.5,7.1-14.1,17.1-16.7,30.1h98c-2.6-12.6-8.2-22.5-16.7-29.8-8.5-7.2-19.3-10.9-32.3-10.9s-23.8,3.5-32.3,10.6ZM1379.1,565.5h-211.5c4.4,11.5,11.9,20.3,22.2,26.4s23.4,9.2,39,9.2,24.6-1.7,33.7-5c9.1-3.3,19-9.1,29.8-17.3l65.7,66.2c-29.7,32.7-74,49-133,49s-69-6.8-96.8-20.3c-27.8-13.5-49.3-32.4-64.6-56.5s-22.8-51.2-22.8-81.3,7.5-57.6,22.5-81.5c15-23.9,35.6-42.6,61.8-55.9,26.2-13.4,55.6-20,88.2-20s58.9,6.1,84.3,18.4c25.4,12.2,45.6,30.2,60.7,54,15,23.7,22.5,52.1,22.5,85.1s-.5,11.7-1.7,29.5Z"/>
      <path d="M1722.2,412.4c22.8,22.6,34.2,56.8,34.2,102.4v173.6h-125.8v-151.9c0-34.9-12.4-52.3-37.3-52.3s-25.5,4.9-34.2,14.7c-8.7,9.8-13.1,25.3-13.1,46.5v143h-125.8v-304.4h119.7v30.1c11.9-11.9,25.6-20.8,41.2-26.7,15.6-5.9,32.5-8.9,50.6-8.9,37.5,0,67.6,11.3,90.4,33.9Z"/>
      <path d="M2198.8,298.9v389.6h-131.3v-143.6h-121.3v143.6h-131.3v-389.6h131.3v138h121.3v-138h131.3Z"/>
      <path d="M2454.8,580.2c9.3-10.6,13.9-25.3,13.9-44.2s-4.6-33.6-13.9-44c-9.3-10.4-21.2-15.6-35.6-15.6s-26.3,5.2-35.6,15.6c-9.3,10.4-13.9,25-13.9,44s4.6,33.7,13.9,44.2c9.3,10.6,21.1,15.9,35.6,15.9s26.3-5.3,35.6-15.9ZM2328.2,673.7c-26.9-13.5-48-32.3-63.2-56.2-15.2-23.9-22.8-51.1-22.8-81.5s7.6-57.6,22.8-81.5c15.2-23.9,36.3-42.6,63.2-55.9,26.9-13.4,57.2-20,91-20s64.6,6.7,91.6,20c26.9,13.4,47.9,32,62.9,55.9,15,23.9,22.5,51.1,22.5,81.5s-7.5,57.6-22.5,81.5c-15,23.9-36,42.7-62.9,56.2-26.9,13.6-57.4,20.3-91.6,20.3s-64.1-6.8-91-20.3Z"/>
      <path d="M2968.5,384v304.4h-119.6v-28.9c-11.1,11.5-24.1,20.1-39,25.9-14.8,5.7-30.6,8.6-47.3,8.6-38.6,0-69.6-11.8-92.9-35.3-23.4-23.6-35.1-59.1-35.1-106.6v-168.1h125.8v146.4c0,20.8,3.3,35.6,10,44.5,6.7,8.9,16.5,13.4,29.5,13.4s22.4-4.9,30.6-14.7c8.2-9.8,12.2-25.3,12.2-46.5v-143h125.8Z"/>
      <path d="M3066.4,685.7c-25.2-5.6-45.6-12.8-61.2-21.7l34.5-82.9c14.1,8.5,30.8,15.2,50.1,20,19.3,4.8,38,7.2,56.2,7.2s24.6-1.2,30.3-3.6c5.7-2.4,8.6-6,8.6-10.8s-3.6-8.2-10.9-10c-7.2-1.8-19-3.7-35.3-5.6-24.9-3-46-6.8-63.4-11.4-17.5-4.6-32.8-13.6-45.9-27-13.2-13.4-19.8-32.5-19.8-57.3s5.9-37.3,17.8-52.9c11.9-15.6,29.6-28,53.1-37.3,23.6-9.3,51.8-13.9,84.9-13.9s45.6,2.1,67.6,6.4c22.1,4.3,40.9,10.5,56.5,18.7l-34.5,82.9c-26.7-14.8-56-22.3-87.9-22.3s-41.2,4.8-41.2,14.5,3.7,8.3,11.1,10.3c7.4,2,19.1,4,35.1,5.8,24.9,3,45.9,6.9,63.2,11.7,17.3,4.8,32.5,13.9,45.6,27.3,13.2,13.4,19.8,32.5,19.8,57.3s-5.9,36.2-17.8,51.8c-11.9,15.6-29.7,28-53.4,37.3-23.8,9.3-52.5,13.9-86.3,13.9s-51.6-2.8-76.8-8.3Z"/>
      <path d="M3463.8,474.7c-8.5,7.1-14.1,17.1-16.7,30.1h97.9c-2.6-12.6-8.2-22.5-16.7-29.8-8.5-7.2-19.3-10.9-32.3-10.9s-23.7,3.5-32.3,10.6ZM3660.8,565.5h-211.5c4.4,11.5,11.9,20.3,22.3,26.4,10.4,6.1,23.4,9.2,38.9,9.2s24.6-1.7,33.7-5c9.1-3.3,19-9.1,29.8-17.3l65.7,66.2c-29.7,32.7-74,49-133,49s-69-6.8-96.8-20.3c-27.8-13.5-49.3-32.4-64.6-56.5-15.2-24.1-22.8-51.2-22.8-81.3s7.5-57.6,22.5-81.5c15-23.9,35.6-42.6,61.8-55.9,26.2-13.4,55.6-20,88.2-20s58.9,6.1,84.3,18.4c25.4,12.2,45.6,30.2,60.7,54,15,23.7,22.5,52.1,22.5,85.1s-.6,11.7-1.7,29.5Z"/>
      <path d="M3744.3,685.7c-25.2-5.6-45.6-12.8-61.2-21.7l34.5-82.9c14.1,8.5,30.8,15.2,50.1,20,19.3,4.8,38,7.2,56.2,7.2s24.6-1.2,30.3-3.6c5.7-2.4,8.6-6,8.6-10.8s-3.6-8.2-10.9-10c-7.2-1.8-19-3.7-35.3-5.6-24.9-3-46-6.8-63.4-11.4-17.4-4.6-32.8-13.6-45.9-27-13.2-13.4-19.8-32.5-19.8-57.3s5.9-37.3,17.8-52.9c11.9-15.6,29.6-28,53.1-37.3,23.6-9.3,51.8-13.9,84.9-13.9s45.5,2.1,67.6,6.4c22.1,4.3,40.9,10.5,56.5,18.7l-34.5,82.9c-26.7-14.8-56-22.3-87.9-22.3s-41.2,4.8-41.2,14.5,3.7,8.3,11.1,10.3c7.4,2,19.1,4,35.1,5.8,24.9,3,45.9,6.9,63.2,11.7,17.2,4.8,32.5,13.9,45.6,27.3,13.2,13.4,19.8,32.5,19.8,57.3s-5.9,36.2-17.8,51.8c-11.9,15.6-29.7,28-53.4,37.3-23.8,9.3-52.5,13.9-86.3,13.9s-51.6-2.8-76.8-8.3Z"/>
    </g>
  </g>
</svg>