<?xml version="1.0" encoding="UTF-8"?>
<svg id="katman_1" xmlns="http://www.w3.org/2000/svg" viewBox="0 0 1415.25 681.83">
  <defs>
    <style>
      .cls-1, .cls-2 {
        fill: #d6b36a;
      }

      .cls-3 {
        fill: #c25399;
      }

      .cls-3, .cls-2, .cls-4 {
        fill-rule: evenodd;
      }

      .cls-4 {
        fill: #f3aacc;
      }
    </style>
  </defs>
  <path class="cls-2" d="M365.1,241.8c-.86,15.57-1.69,29.17-7.72,42.38-18.53,40.57-60.74,51.1-104.03,42.03-39.27-8.23-72.12-27.15-101.78-49.68-12.02-9.13-29.54-24.96-39.47-36.21l-8.78-9.49c-1.28-1.46-1.46-1.97-3.04-3.69l-11.1-13.91C55.16,168.26,22.8,98.43,45.68,43.86,54.43,22.98,71.92,9.22,93.37,3.05c3.02-.87,7.78-1.46,10.19-2.51-24.76-2.74-60.77,4.94-77.47,22.52-2.36,2.49-4.94,4.57-7.23,7.43C-.32,54.45-4.11,86.07,4.05,121.92c9.6,42.2,34.62,81.05,60.78,111.36l21.02,22.33c1.36,1.32,2.47,2.18,3.73,3.6l11.11,10.25c7.86,6.13,13.78,11.97,24.01,19.32,14.33,10.29,20.16,13.56,34.85,22.54,22.5,13.75,54.39,25.87,83.96,31.3,49.05,9.02,99.43-4.7,116.36-50.5,6.44-17.43,6.26-31.38,5.23-50.32"/>
  <path class="cls-4" d="M213.29,269.32l-.21.29c.67,1.6,1.4,1.98.87,2.83.72,1-1.05.98,1.19.76.91-2.98,5.21-6.39,7.56-8.99l111.63-127.63c2.5-2.92,5.91-6.07,7.84-9.19-1.66-1.76-24.53-8.47-26.74-9.2-4.92-1.62-24.21-8.55-27.52-8.53l-71.92,160.69,5.67-28.61c2.19-9.77,4.09-19.68,6.53-29.47,4.78-19.17,8.53-39.56,13.01-58.9,2.24-9.67,4.37-19.45,6.46-29.01,1.03-4.72,2.21-9.67,3.19-14.48.82-3.97,4-11.69,1.71-14.25l-9.15-8.57c-9.14-7.72-20.57-19.28-28.57-25.32-.09-.07-.26-.2-.39-.31l-.08,208.17c-.24.14-.04.32-1.09-.29"/>
  <path class="cls-3" d="M213.95,272.44c.52-.85-.2-1.23-.87-2.83-2.02-1.7-52.87-118.82-62.97-140.49-2.04-4.37-6.78-16.71-9.29-19.7l-54.22,17.43c.54,1.37,2.62,3.86,3.56,4.83l35.96,40.92c11,12.02,22.67,26.71,33.96,38.67.81.85,1.12,1.44,1.89,2.4l43.88,50.1c2.83,3.1,5.18,6.11,8.11,8.67"/>
  <path class="cls-3" d="M213.29,269.32c1.04.61.85.43,1.09.29l.08-208.17-9.4,8.13c-2.13,1.74-2.26,1.89-4.41,4.12l-23.57,21.03c-3.26,3.08-.05,9.79.83,13.92l9.73,43.96c1.29,5.72,25.76,113.82,25.65,116.73"/>
  <path class="cls-3" d="M102.65,96.39l53.73-9.59c2.37-.83,27.19-32.64,28.72-35.27-2.77.77-16.87,8.85-20.78,10.87-12.89,6.67-28.4,15.92-41.06,22.41l-20.62,11.59Z"/>
  <path class="cls-4" d="M326.27,96.14l-61.84-33.78c-5.36-2.88-15.9-9.5-21.01-11.08l13.98,17.5c2.76,3.3,12.64,16.64,14.65,17.7,1.32.69,51.1,9.62,54.22,9.67"/>
  <path class="cls-1" d="M1334.97,584.45l-13.88-1.26-13.88.95v-90.85l-77.28-124.92,17.66.94,17.35-.94c6.94,13.67,17.3,32.59,31.07,56.78,13.77,24.18,23.39,40.48,28.86,48.89,3.37-3.99,9.46-13.67,18.3-29.02,6.31-10.94,14.51-25.76,24.6-44.48,5.68-10.73,11.46-21.45,17.35-32.17l12.3.94,12.3-.94c-7.78,9.88-15.25,20.45-22.4,31.6l-34.7,55.89c-4.21,6.57-7.52,11.94-9.94,16.14-2.42,4.2-5,9.36-7.73,15.46v97ZM1070.94,368.37h66.87c23.97,0,41.64,3.94,52.99,11.77,11.35,7.89,17.03,19.88,17.03,36.01,0,16.98-6.73,30.86-20.19,41.53-11.15,8.83-25.97,14.88-44.48,18.24l64.66,82.8,15.35,17.77,6.1,7.94-18.19-1.26-17.93.95-19.87-27.55-37.33-48.37-25.29-29.76h-11.98v105.67l-13.88-.95-13.88.95v-215.76ZM1098.7,466.79h16.14c4.68,0,8.99-.11,12.98-.32,4-.21,7.94-.74,11.73-1.58,11.83-2.52,21.55-7.68,29.13-15.56,7.62-7.83,11.41-17.66,11.41-29.39,0-22.61-11.62-35.8-34.86-39.59-4.42-.63-9.88-.95-16.45-.95h-30.07v87.38ZM940.66,568.36c6.73,0,17.72-.21,32.96-.63,15.25-.42,23.29-.63,24.13-.63,5.05,0,11.25-.42,18.61-1.26,5.05-.84,8.83-1.37,11.36-1.58l-.95,9.46.95,9.46h-114.82v-214.82l13.88.94,13.88-.94v199.99ZM782.94,462.37h48.89c4,0,9.31-.21,15.93-.63,6.62-.42,10.67-.63,12.15-.63l-.95,8.2.95,8.83c-3.79,0-9.04-.32-15.77-.95-6.73-.63-10.83-.95-12.3-.95h-48.89v92.11c6.73,0,17.72-.21,32.96-.63,15.25-.42,23.29-.63,24.13-.63,5.89,0,10.2-.16,12.94-.47,2.73-.32,8.1-1.11,16.09-2.37l-.95,9.46.95,9.46h-113.87v-214.82h111.98l-.95,9.46.95,9.46c-6.31-1.47-11.46-2.52-15.46-3.16-3.99-.63-8.31-.94-12.93-.94h-55.83v79.17ZM415.45,368.37l14.83.94,14.51-.94c1.05,3.15,2.63,8.62,4.73,16.4,1.47,5.68,3.05,11.36,4.73,17.04l18.61,64.03,26.5,83.28h2.84c4-11.78,11.67-33.96,23.03-66.56,12.62-36.8,20.4-59.51,23.34-68.14,7.78-23.55,12.72-38.9,14.83-46.05l9.15.94,8.83-.94,59.93,180.75h2.84c4.21-10.72,8.41-22.71,12.62-35.96l36.91-118.92,7.57-25.87,11.04.94,11.04-.94c-5.89,13.67-11.15,27.18-15.77,40.43l-60.25,175.65-10.41-1.26-10.41,1.26-57.09-176.96h-2.52l-61.2,176.96-10.41-1.26-10.72,1.26-12.62-41.69-56.47-174.39ZM309.77,462.37h48.89c4,0,9.31-.21,15.93-.63,6.62-.42,10.67-.63,12.15-.63l-.95,8.2.95,8.83c-3.79,0-9.04-.32-15.77-.95-6.73-.63-10.83-.95-12.3-.95h-48.89v92.11c6.73,0,17.72-.21,32.96-.63,15.25-.42,23.29-.63,24.13-.63,5.89,0,10.2-.16,12.93-.47,2.73-.32,8.1-1.11,16.09-2.37l-.95,9.46.95,9.46h-113.87v-214.82h111.98l-.95,9.46.95,9.46c-6.31-1.47-11.46-2.52-15.46-3.16-3.99-.63-8.31-.94-12.93-.94h-55.83v79.17ZM224.77,601.38c-.35,20.6-5.73,37.59-17.19,50.94-11.46,13.36-27.18,20.03-47.16,20.03l-2.52-8.52c15.56,0,26.41-6.2,32.49-18.61,4.43-9.03,6.33-22.29,6.62-39.75l3.93-237.11,13.88.94,13.88-.94-3.93,233.01Z"/>
  <path class="cls-1" d="M899.87,332.16v-46.61c0-6.32-.16-11.1-.5-14.37h7.27v10.88h.24c1.61-3.55,3.91-6.49,6.85-8.83,2.95-2.33,7.23-3.49,12.87-3.49,7.15,0,12.41,2.11,15.78,6.36,3.36,4.22,5.04,9.92,5.04,17.08v38.98h-7.53v-37.06c0-12.59-4.82-18.89-14.49-18.89-4.28,0-7.77,1.1-10.48,3.29-2.73,2.19-4.66,4.96-5.82,8.31-1.15,3.37-1.73,6.91-1.73,10.64v33.72h-7.51ZM874.36,305.14v-3.71h-2.15c-8.51,0-15.4.96-20.66,2.85-5.26,1.91-7.89,5.86-7.89,11.86,0,3.79,1.17,6.58,3.53,8.35,2.35,1.78,5.4,2.65,9.17,2.65,7.65,0,12.57-2.23,14.74-6.69,2.19-4.46,3.27-9.56,3.27-15.3ZM875.1,332.16v-9.8h-.24c-1.57,3.49-4.2,6.22-7.91,8.23-3.69,2.01-7.51,3.01-11.46,3.01-5.28,0-9.4-.98-12.39-2.91-2.99-1.93-5.02-4.19-6.08-6.78-1.08-2.59-1.62-5.1-1.62-7.53,0-4.8,1.14-8.69,3.41-11.66,2.29-2.95,5.26-5.12,8.91-6.49,3.67-1.4,7.51-2.27,11.54-2.67,4.03-.38,8.59-.58,13.69-.58h1.41v-3.09c0-5.36-1.06-9.31-3.19-11.86-2.13-2.55-5.68-3.83-10.66-3.83-6.74,0-12.69,1.67-17.92,5.02v-7.29c2.39-1.18,5.3-2.17,8.75-2.97,3.43-.82,6.48-1.21,9.17-1.21,5.02,0,9.1.8,12.25,2.37,3.15,1.57,5.46,4.02,6.93,7.35,1.46,3.33,2.19,7.65,2.19,12.99v26.9c0,5.74.22,10,.62,12.79h-7.41ZM826.56,271.19v6.46h-13.87v39.45c0,6.7,2.71,10.04,8.13,10.04,2.09,0,4.4-.48,6.94-1.43l.48,6.22c-2.83,1.11-5.9,1.67-9.21,1.67-4.18,0-7.29-.86-9.31-2.59-2.03-1.71-3.29-3.97-3.81-6.72-.5-2.77-.76-6.44-.76-11.02v-35.63h-11.95v-6.46h11.95v-14.71l7.53-2.63v17.34h13.87ZM748.39,330.73l.72-7.41c5.06,2.55,10.36,3.82,15.92,3.82,3.75,0,6.91-.98,9.54-2.95,2.63-1.97,3.95-4.6,3.95-7.93s-1.16-5.68-3.49-7.47c-2.33-1.77-5.96-3.84-10.92-6.18-4.94-2.35-8.65-4.66-11.14-6.93-2.49-2.27-3.75-5.38-3.75-9.31s.92-6.97,2.75-9.46c1.85-2.49,4.26-4.31,7.27-5.44,2.99-1.14,6.28-1.71,9.82-1.71,1.97,0,4.34.22,7.11.64,2.77.44,5.42,1.13,7.95,2.11l-.72,6.58c-4.22-1.91-8.73-2.87-13.49-2.87-8.79,0-13.17,3.39-13.17,10.16,0,2.47.93,4.28,2.81,5.46,1.89,1.2,5.56,3.07,11.02,5.66,5.46,2.59,9.51,5.24,12.18,7.95,2.67,2.71,4,6.32,4,10.82,0,4.01-1.08,7.31-3.23,9.94-2.15,2.61-4.86,4.5-8.13,5.66-3.27,1.16-6.58,1.73-9.92,1.73-6.63,0-12.33-.96-17.1-2.87ZM734.76,244.89v10.04h-7.53v-10.04h7.53ZM727.23,332.16v-60.97h7.53v60.97h-7.53ZM667.45,332.16v-89.66h7.53v53.68l27.28-24.99h9.66l-29.79,27.02,33.37,33.95h-10.4l-30.13-31.32v31.32h-7.53ZM611.38,297.38h33.45c0-3.77-.54-7.24-1.59-10.44-1.08-3.19-2.79-5.78-5.12-7.75-2.35-1.97-5.28-2.97-8.81-2.97s-6.68,1.04-9.4,3.11c-2.73,2.07-4.82,4.74-6.32,8.03-1.48,3.27-2.21,6.62-2.21,10.03ZM648.54,322.58v7.65c-5.44,2.25-11.34,3.37-17.67,3.37-9.58,0-16.6-2.87-21.06-8.63-4.44-5.74-6.68-13.51-6.68-23.27,0-6.14,1.08-11.64,3.21-16.5,2.15-4.86,5.16-8.65,9.04-11.38,3.91-2.71,8.39-4.06,13.47-4.06,8.13,0,14.21,2.83,18.21,8.47,4.02,5.64,6.04,12.91,6.04,21.78v3.83h-41.73c0,4.4.78,8.37,2.31,11.9,1.56,3.53,3.85,6.32,6.88,8.35,3.03,2.05,6.66,3.07,10.9,3.07,2.65,0,5.7-.46,9.17-1.39,3.45-.94,6.1-1.99,7.91-3.17ZM584.14,301.7c0-4.43-.54-8.55-1.62-12.37-1.08-3.81-2.97-6.96-5.66-9.42-2.69-2.45-6.28-3.69-10.76-3.69s-7.77,1.27-10.48,3.83c-2.71,2.55-4.64,5.76-5.82,9.65-1.18,3.88-1.77,7.89-1.77,12.02s.62,7.99,1.83,11.89c1.23,3.93,3.19,7.15,5.88,9.7,2.71,2.57,6.16,3.84,10.36,3.84,4.48,0,8.07-1.23,10.76-3.7,2.69-2.47,4.58-5.62,5.66-9.41,1.08-3.81,1.62-7.93,1.62-12.33ZM540.51,332.16v-89.66h7.53v38.97h.24c.44-1.3,1.45-2.87,3.03-4.7,1.57-1.85,3.73-3.49,6.46-4.9,2.71-1.42,5.9-2.11,9.54-2.11,5.74,0,10.48,1.33,14.23,4.01,3.77,2.69,6.52,6.41,8.25,11.2,1.73,4.76,2.61,10.34,2.61,16.74s-.94,11.56-2.83,16.38c-1.89,4.84-4.72,8.65-8.49,11.4-3.79,2.75-8.37,4.13-13.77,4.13-8.79,0-15.12-3.71-19.03-11.12h-.24v9.68h-7.53ZM482.5,332.16v-6.34l36.7-48.18h-35.27v-6.46h44v6.46l-36.7,48.06h36.7v6.46h-45.43ZM469.11,248.71v54.3c0,5.84-.94,10.76-2.81,14.77-1.89,4.01-4.34,7.15-7.37,9.46-3.03,2.29-6.28,3.93-9.74,4.9-3.47.98-6.91,1.46-10.32,1.46s-6.79-.48-10.26-1.46c-3.47-.96-6.74-2.59-9.76-4.9-3.05-2.29-5.5-5.48-7.39-9.5-1.89-4.05-2.83-8.95-2.83-14.73v-54.3h8.25v54.3c0,4.62.84,8.71,2.53,12.24,1.67,3.53,4.18,6.26,7.49,8.23,3.31,1.97,7.31,2.95,11.98,2.95s8.67-.98,11.97-2.95c3.31-1.97,5.82-4.7,7.49-8.23,1.69-3.53,2.53-7.61,2.53-12.24v-54.3h8.25Z"/>
  <path class="cls-1" d="M1377.56,613.89c-5.27,0-10.27,1.37-15,4.12-4.72,2.75-8.41,6.44-11.07,11.09-2.65,4.67-3.97,9.85-3.97,15.58,0,8.46,2.93,15.61,8.81,21.44,5.88,5.84,12.96,8.76,21.24,8.76,5.55,0,10.66-1.34,15.36-4.02,4.72-2.68,8.39-6.36,11.03-11.01,2.63-4.65,3.96-9.82,3.96-15.51s-1.32-10.78-3.96-15.35c-2.63-4.57-6.36-8.23-11.14-10.98-4.78-2.75-9.87-4.12-15.25-4.12M1377.24,606.93c10.79,0,19.83,3.61,27.1,10.81,7.27,7.2,10.91,16.07,10.91,26.6s-3.63,19.3-10.88,26.57c-7.27,7.27-16.11,10.91-26.55,10.91s-19.48-3.63-26.75-10.86c-7.27-7.23-10.91-15.99-10.91-26.27,0-6.85,1.66-13.2,4.97-19.06,3.31-5.84,7.83-10.43,13.56-13.74,5.71-3.31,11.9-4.97,18.56-4.97ZM1258.31,615.67v24.24l12.08.15c4.88,0,8.46-.45,10.73-1.34,2.27-.89,4.06-2.32,5.35-4.31,1.29-1.99,1.94-4.22,1.94-6.67s-.64-4.59-1.94-6.57c-1.29-1.98-3.01-3.39-5.13-4.24-2.12-.84-5.58-1.26-10.41-1.26h-12.62ZM1251.16,608.72h14.22c8.15,0,13.66.35,16.51,1.06,4.07,1.01,7.4,3.06,9.98,6.19,2.6,3.11,3.89,7.04,3.89,11.76s-1.26,8.66-3.79,11.75c-2.52,3.08-5.99,5.15-10.42,6.22-3.24.78-9.29,1.16-18.14,1.16h-5.1v33.18h-7.15v-71.32ZM1153.67,608.72h8.34l17.05,27.7,17.12-27.7h8.35l-21.31,34.45,22.7,36.87h-8.34l-18.52-30.1-18.62,30.1h-8.34l22.8-36.87-21.21-34.45ZM1070.94,608.72h40.82v6.95h-33.67v22.35h33.37v6.95h-33.37v28.11h33.37v6.95h-40.53v-71.32Z"/>
</svg>