<?xml version="1.0" encoding="UTF-8"?>
<svg id="katman_1" data-name="katman 1" xmlns="http://www.w3.org/2000/svg" viewBox="0 0 825.1 377.9">
  <defs>
    <style>
      .cls-1 {
        fill: #22211f;
      }

      .cls-1, .cls-2 {
        stroke-width: 0px;
      }

      .cls-2 {
        fill: #ef763f;
      }
    </style>
  </defs>
  <path class="cls-2" d="M463.23,0h-27.09c-2.71,0-5.42.45-7.9,1.58-6.55,2.93-18.51,10.38-18.51,24.38h31.15c1.35,0,2.93-.23,4.29-.68,5.19-1.58,18.06-7.45,18.06-25.28Z"/>
  <rect class="cls-2" x="788.3" y="62.53" width="11.74" height="106.33"/>
  <rect class="cls-2" x="811.78" width="13.32" height="232.97"/>
  <path class="cls-1" d="M23.93,116.03c2.48-2.71,6.77-7.68,12.19-13.54l27.09,41.54h26.19l-39.73-56.89c19.19-21.67,40.86-46.5,40.86-46.5h-26.41l-40.18,48.31v-48.31H2.48v103.39h21.45v-27.99Z"/>
  <polygon class="cls-1" points="349.68 223.26 305.43 223.26 305.43 180.82 283.99 180.82 283.99 284.21 305.43 284.21 305.43 241.77 349.68 241.77 349.68 284.21 371.13 284.21 371.13 180.82 349.68 180.82 349.68 223.26"/>
  <rect class="cls-1" x="100.01" y="40.41" width="21.45" height="103.39"/>
  <polygon class="cls-1" points="167.05 143.8 188.5 143.8 188.5 58.92 221.91 58.92 221.91 40.41 188.5 40.41 167.05 40.41 137.7 40.41 137.7 58.92 167.05 58.92 167.05 143.8"/>
  <polygon class="cls-1" points="402.05 82.85 356.9 82.85 356.9 40.41 335.68 40.41 335.68 143.8 356.9 143.8 356.9 101.36 402.05 101.36 402.05 143.8 423.5 143.8 423.5 40.41 402.05 40.41 402.05 82.85"/>
  <polygon class="cls-1" points="592.81 106.33 549.69 40.41 528.24 40.41 528.24 143.8 549.69 143.8 549.69 77.66 592.81 143.8 614.25 143.8 614.25 40.41 592.81 40.41 592.81 106.33"/>
  <polygon class="cls-1" points="216.26 180.82 184.89 180.82 184.89 199.33 216.26 199.33 216.26 284.21 237.71 284.21 237.71 199.33 269.09 199.33 269.09 180.82 237.71 180.82 216.26 180.82"/>
  <polygon class="cls-2" points="3.84 312.21 0 312.21 0 377.9 3.84 377.9 13.54 377.9 44.02 377.9 44.02 366.16 13.54 366.16 13.54 351.49 40.63 351.49 40.63 339.75 13.54 339.75 13.54 323.94 44.02 323.94 44.02 312.21 13.54 312.21 3.84 312.21"/>
  <polygon class="cls-1" points="448.1 40.41 441.78 40.41 441.78 143.8 448.1 143.8 463.23 143.8 511.09 143.8 511.09 125.29 463.23 125.29 463.23 102.26 505.9 102.26 505.9 83.75 463.23 83.75 463.23 58.92 511.09 58.92 511.09 40.41 463.23 40.41 448.1 40.41"/>
  <path class="cls-1" d="M154.64,180.82h-27.77l-36.8,103.39h24.38l7.9-23.93h37.02l7.9,23.93h24.38l-37.02-103.39ZM127.77,243.58l13.09-39.51,13.09,39.51h-26.19Z"/>
  <path class="cls-1" d="M744.73,94.14s-16.48.23-17.61,0v1.13c0,6.32-1.35,12.19-3.84,16.93-6.77-7.45-13.54-14.9-18.29-19.87,17.38-10.84,19.64-20.09,20.54-27.32.9-7.9-5.64-23.48-25.96-24.61-20.09-1.13-27.54,12.42-27.77,25.96-.45,13.77,9.03,22.8,9.03,22.8l1.13,1.13c-9.93,6.55-18.96,14.45-18.96,26.86,0,27.99,32.28,27.54,32.28,27.54,12.19,0,21.45-2.93,28.22-7.22l5.19,6.1h22.57s-6.77-7.9-15.58-17.61c9.71-14.22,9.03-31.83,9.03-31.83ZM688.52,67.05c0-2.93,1.81-9.71,10.61-9.71s9.48,7.68,9.48,7.68c0,7-5.87,11.96-13.54,16.93-5.87-7-6.55-12.42-6.55-14.9ZM697.1,130.03c-13.32.9-21.22-16.25-6.1-29.12l20.99,23.93c-4.51,3.16-9.71,4.97-14.9,5.19Z"/>
  <path class="cls-1" d="M320.11,109.94h-21.22s-5.19,16.93-22.35,16.93-27.77-14-27.77-33.86,11.51-34.09,26.41-34.09,22.35,8.58,23.25,18.96h21.45s-2.71-37.47-44.02-37.47-47.41,32.28-47.41,54.4,11.74,49.89,48.31,49.89,43.34-29.8,43.34-34.76Z"/>
  <polygon class="cls-2" points="93.68 312.21 80.37 332.07 67.05 312.21 49.89 312.21 71.56 345.16 49.89 377.9 67.72 377.9 80.37 358.48 93.01 377.9 110.84 377.9 89.17 345.16 110.84 312.21 93.68 312.21"/>
  <path class="cls-2" d="M145.38,312.21h-28.44v65.69h13.54v-20.77h16.25s18.29,0,18.29-22.35-19.64-22.57-19.64-22.57ZM144.48,345.39h-14v-20.77h13.32c1.13,0,7.9,2.48,7.9,11.29s-7.22,9.48-7.22,9.48Z"/>
  <path class="cls-1" d="M84.43,255.77c0-6.1-1.35-11.06-3.84-15.35s-6.1-7.45-10.61-9.71c-.45-.23-1.13-.45-1.58-.68,3.39-2.26,6.1-4.97,8.13-8.58,2.26-4.06,3.61-8.58,3.61-14,0-8.13-2.71-14.67-8.35-19.64s-14-7.45-25.28-7.45H2.48v103.84h46.5c11.51,0,20.32-2.48,26.41-7.45s9.03-11.96,9.03-20.99ZM56.66,260.51c-2.26,1.81-5.42,2.48-9.48,2.48h-20.32v-20.99h20.32c4.29,0,7.45.9,9.48,2.48s3.16,4.29,3.16,7.9c0,3.84-.9,6.32-3.16,8.13ZM55.76,211.75c0,.68,0,1.35-.23,1.81-.68,2.48-1.81,4.29-3.16,5.87-2.03,1.58-4.97,2.26-8.8,2.26h-16.71v-20.09h16.71c4.06,0,7.22.9,9.26,2.48,1.81,1.81,2.93,4.29,2.93,7.68Z"/>
  <path class="cls-2" d="M198.43,312.21h0c-11.51,0-30.93,7.45-30.93,34.99,0,23.93,19.87,30.25,30.25,30.25h.23c2.03,0,12.19-.45,19.87-7.9,5.64-5.42,8.58-13.32,8.58-23.03.23-26.64-18.29-34.09-27.99-34.31ZM209.94,361.19c-4.74,4.74-11.74,4.51-11.74,4.51h-.23c-3.16,0-18.51-1.13-18.51-18.51,0-21.9,15.58-23.25,18.96-23.25,2.03,0,16.48,1.58,16.48,22.57,0,6.55-1.81,11.51-4.97,14.67Z"/>
</svg>