<?xml version="1.0" encoding="utf-8"?>
<!-- Generator: Adobe Illustrator 28.0.0, SVG Export Plug-In . SVG Version: 6.00 Build 0)  -->
<svg version="1.1" id="katman_1" xmlns="http://www.w3.org/2000/svg" xmlns:xlink="http://www.w3.org/1999/xlink" x="0px" y="0px"
	 viewBox="0 0 820 340.9" style="enable-background:new 0 0 820 340.9;" xml:space="preserve">
<style type="text/css">
	.st0{fill:#1EB53A;}
	.st1{fill:#22211F;}
</style>
<path class="st0" d="M417.2,0h-24.5c-2.5,0-4.9,0.5-7.1,1.5c-6,2.7-16.7,9.3-16.7,21.9h27.9c1.3,0,2.5-0.2,3.8-0.5
	C405.6,21.4,417.2,16.2,417.2,0L417.2,0z"/>
<rect x="709.5" y="56.4" class="st0" width="10.6" height="95.6"/>
<rect x="730.7" y="0" class="st0" width="12" height="209.4"/>
<path class="st1" d="M22.3,104.3c2.2-2.5,6.2-6.8,11-12.2l24.4,37.3H81L45.4,78.3c17.2-19.5,36.8-41.8,36.8-41.8H58.5L22.3,79.8
	V36.5H3v92.9h19.2V104.3L22.3,104.3z"/>
<polygon class="st1" points="315.1,200.8 275.2,200.8 275.2,162.6 256,162.6 256,255.6 275.2,255.6 275.2,217.4 315.1,217.4 
	315.1,255.6 334.3,255.6 334.3,162.6 315.1,162.6 "/>
<rect x="90.7" y="36.5" class="st1" width="19.2" height="92.9"/>
<polygon class="st1" points="150.9,129.4 170.1,129.4 170.1,53.1 200.2,53.1 200.2,36.5 170.1,36.5 150.9,36.5 124.5,36.5 
	124.5,53.1 150.9,53.1 "/>
<polygon class="st1" points="362.2,74.6 321.7,74.6 321.7,36.5 302.5,36.5 302.5,129.4 321.7,129.4 321.7,91.2 362.2,91.2 
	362.2,129.4 381.5,129.4 381.5,36.5 362.2,36.5 "/>
<polygon class="st1" points="533.7,95.7 494.9,36.5 475.6,36.5 475.6,129.4 494.9,129.4 494.9,70 533.7,129.4 553,129.4 553,36.5 
	533.7,36.5 "/>
<polygon class="st1" points="195.2,162.6 167,162.6 167,179.2 195.2,179.2 195.2,255.6 214.5,255.6 214.5,179.2 242.7,179.2 
	242.7,162.6 214.5,162.6 "/>
<polygon class="st1" points="403.5,36.5 397.9,36.5 397.9,129.4 403.5,129.4 417.2,129.4 460.2,129.4 460.2,112.8 417.2,112.8 
	417.2,92.1 455.6,92.1 455.6,75.5 417.2,75.5 417.2,53.1 460.2,53.1 460.2,36.5 417.2,36.5 "/>
<path class="st1" d="M139.7,162.6h-24.9l-33.2,92.9h21.8l7.1-21.6h33.3l7.1,21.6h21.8L139.7,162.6L139.7,162.6z M115.5,219.2
	l11.7-35.5l11.7,35.5H115.5L115.5,219.2z"/>
<path class="st1" d="M670.3,84.8c0,0-14.9,0.2-15.9,0v1c0,5.8-1.3,10.9-3.5,15.2c-6.1-6.8-12.1-13.3-16.4-17.9
	c15.7-9.8,17.6-18.1,18.5-24.5c0.9-7.2-5.1-21.2-23.3-22.1S605,47.6,604.6,59.9s8.1,20.4,8.1,20.4l1,1.1c-9,5.9-17,13-17,24.1
	c0,25.2,29,24.8,29,24.8c11,0,19.2-2.5,25.5-6.4l4.8,5.4h20.3c0,0-6.2-7-14.1-15.9C670.9,100.5,670.3,84.8,670.3,84.8L670.3,84.8z
	 M619.8,60.4c0-2.6,1.7-8.7,9.5-8.7s8.5,6.9,8.5,6.9c0,6.3-5.3,10.9-12.1,15.3C620.4,67.4,619.8,62.5,619.8,60.4L619.8,60.4z
	 M627.6,117.1c-12,0.8-19-14.7-5.6-26.1l18.9,21.5C636.8,115.2,632.2,116.8,627.6,117.1L627.6,117.1z"/>
<path class="st1" d="M288.6,98.9h-19c0,0-4.6,15.2-20,15.2s-25-12.6-25-30.3s10.3-30.7,23.8-30.7c13.5,0,20,7.8,20.9,17h19.4
	c0,0-2.4-33.6-39.6-33.6s-42.7,29-42.7,48.8s10.6,44.9,43.3,44.9S288.6,103.3,288.6,98.9L288.6,98.9z"/>
<path class="st1" d="M76.6,230.1c0-5.4-1.1-10-3.4-13.8s-5.4-6.7-9.4-8.7c-0.5-0.2-0.9-0.4-1.4-0.6c3.1-2,5.5-4.5,7.3-7.6
	c2.1-3.6,3.2-7.8,3.2-12.6c0-7.3-2.5-13.2-7.5-17.6c-5-4.5-12.6-6.7-22.8-6.7H3v93.2h41.8c10.4,0,18.3-2.2,23.7-6.7
	C73.9,244.5,76.7,238.2,76.6,230.1L76.6,230.1z M51.6,234.3c-2,1.6-4.8,2.3-8.6,2.3H24.7v-18.9H43c3.8,0,6.6,0.8,8.6,2.3
	c2,1.6,2.9,3.9,2.9,7.1S53.6,232.8,51.6,234.3L51.6,234.3z M50.8,190.5c0,0.6,0,1.1-0.1,1.7c-0.5,2.2-1.7,3.9-2.9,5.3
	c-1.8,1.4-4.5,2.1-8,2.1h-15v-18h15c3.7,0,6.5,0.7,8.3,2.2C49.8,185.2,50.8,187.4,50.8,190.5L50.8,190.5z"/>
<g>
	<g>
		<polygon class="st1" points="17.1,315.4 44.3,315.4 44.3,304.9 17.1,304.9 17.1,292.1 47.9,292.1 47.9,281.2 3.6,281.2 3.6,339.9 
			49,339.9 49,329 17.1,329 		"/>
		<polygon class="st1" points="108.1,281.2 93.3,281.2 80.1,300.2 66.7,281.2 51.3,281.2 71.8,310 50.2,339.9 65.8,339.9 
			79.7,319.5 93.8,339.9 109.5,339.9 87.6,309.6 		"/>
		<path class="st1" d="M151.5,283.8c-3.8-1.7-8.3-2.6-13.6-2.6h-25.4v58.6h13.6v-16.2h11.8c5.2,0,9.8-0.9,13.6-2.6
			c3.8-1.7,6.7-4.1,8.8-7.3c2.1-3.2,3.1-7,3.1-11.3c0-4.4-1-8.2-3.1-11.4C158.2,287.9,155.3,285.5,151.5,283.8z M146.5,310
			c-2.1,1.8-5.2,2.7-9.4,2.7h-11.1v-20.4h11.1c4.2,0,7.3,0.9,9.4,2.7c2.1,1.8,3.1,4.3,3.1,7.5C149.6,305.7,148.6,308.2,146.5,310z"
			/>
		<path class="st1" d="M229.5,298.5c-1.6-3.7-3.9-6.9-6.7-9.6c-2.9-2.7-6.3-4.9-10.1-6.4c-3.9-1.5-8.1-2.3-12.8-2.3
			c-4.6,0-8.8,0.8-12.7,2.3c-3.9,1.5-7.3,3.6-10.2,6.4c-2.9,2.7-5.2,5.9-6.7,9.6c-1.6,3.7-2.4,7.7-2.4,12.1s0.8,8.4,2.4,12.1
			c1.6,3.7,3.8,6.9,6.7,9.6c2.9,2.7,6.3,4.9,10.2,6.4s8.2,2.3,12.9,2.3c4.6,0,8.8-0.8,12.7-2.3c3.9-1.5,7.3-3.6,10.1-6.3
			c2.9-2.7,5.1-5.9,6.7-9.6c1.6-3.7,2.4-7.7,2.4-12.1C232,306.1,231.2,302.1,229.5,298.5z M216.9,318.2c-0.9,2.3-2.2,4.3-3.9,5.9
			s-3.6,3-5.8,3.9c-2.2,0.9-4.6,1.3-7.2,1.3c-2.6,0-5.1-0.4-7.3-1.3c-2.2-0.9-4.2-2.2-5.8-3.9c-1.6-1.7-2.9-3.7-3.9-6
			c-0.9-2.3-1.4-4.8-1.4-7.6c0-2.8,0.5-5.3,1.4-7.6c0.9-2.3,2.2-4.3,3.9-5.9c1.7-1.7,3.6-3,5.8-3.9c2.2-0.9,4.6-1.3,7.2-1.3
			c2.6,0,5.1,0.4,7.3,1.3c2.2,0.9,4.2,2.2,5.8,3.9c1.6,1.7,2.9,3.7,3.9,5.9c0.9,2.3,1.4,4.8,1.4,7.6
			C218.2,313.4,217.8,315.9,216.9,318.2z"/>
	</g>
	<g>
		<path class="st0" d="M300.4,313.6c0,5.6-1.1,9.6-3.4,12.1c-2.3,2.5-5.5,3.7-9.6,3.7c-4.1,0-7.3-1.2-9.6-3.7
			c-2.3-2.5-3.4-6.5-3.4-12.1v-32.3h-13.6v32.8c0,8.6,2.3,15.2,7,19.9c4.7,4.6,11.2,7,19.5,7c8.3,0,14.8-2.3,19.5-7
			c4.7-4.6,7-11.3,7-19.9v-32.8h-13.4V313.6z"/>
		<polygon class="st0" points="371.1,290 371.1,281.2 321.8,281.2 321.8,292.3 353.3,292.3 321.1,331.1 321.1,339.9 372.4,339.9 
			372.4,328.8 339,328.8 		"/>
		<path class="st0" d="M423.5,309.9c-0.5-0.2-1.1-0.4-1.7-0.6c2.3-1.2,4.1-2.8,5.5-4.9c1.5-2.3,2.3-4.9,2.3-8
			c0-4.6-1.9-8.3-5.6-11.1c-3.7-2.8-9.3-4.2-16.6-4.2h-28.7v58.6h30.3c7.7,0,13.5-1.4,17.5-4.2c4-2.8,5.9-6.7,5.9-11.8
			c0-3.4-0.8-6.3-2.4-8.6S426.3,311.1,423.5,309.9z M405.7,291.5c3.3,0,5.8,0.6,7.6,1.7c1.8,1.1,2.6,2.9,2.6,5.2
			c0,2.3-0.9,4.1-2.6,5.2c-1.8,1.1-4.3,1.7-7.6,1.7h-13.5v-13.8H405.7z M416.1,327.9c-1.8,1.1-4.5,1.7-8,1.7h-15.8v-14.5h15.8
			c3.5,0,6.2,0.6,8,1.8c1.8,1.2,2.7,3,2.7,5.5C418.8,325,417.9,326.8,416.1,327.9z"/>
		<polygon class="st0" points="454,315.4 481.2,315.4 481.2,304.9 454,304.9 454,292.1 484.8,292.1 484.8,281.2 440.5,281.2 
			440.5,339.9 485.9,339.9 485.9,329 454,329 		"/>
		<polygon class="st0" points="548.9,281.2 533.8,281.2 507.8,308.6 507.8,281.2 494.4,281.2 494.4,339.9 507.8,339.9 507.8,325.1 
			515.7,316.9 534.5,339.9 550.3,339.9 524.6,307.4 		"/>
		<rect x="554" y="281.2" class="st0" width="13.6" height="58.6"/>
		<path class="st0" d="M616.5,310.2c-2-1.2-4.2-2.2-6.7-2.9c-2.4-0.7-4.9-1.4-7.3-1.9c-2.4-0.6-4.6-1.1-6.7-1.7
			c-2-0.6-3.6-1.3-4.9-2.2s-1.8-2.1-1.8-3.6c0-1.3,0.4-2.4,1.1-3.4c0.7-1,1.9-1.8,3.6-2.4c1.7-0.6,3.8-0.9,6.5-0.9
			c2.6,0,5.3,0.4,8,1.1c2.7,0.8,5.5,1.9,8.2,3.5l4.2-10.3c-2.7-1.7-5.9-3-9.5-3.9c-3.6-0.9-7.2-1.3-10.9-1.3
			c-5.5,0-10.1,0.8-13.8,2.5c-3.7,1.6-6.4,3.9-8.2,6.6c-1.8,2.8-2.7,5.8-2.7,9.2c0,3.1,0.6,5.7,1.9,7.7c1.3,2,2.9,3.6,4.9,4.9
			s4.2,2.2,6.7,3c2.4,0.8,4.9,1.4,7.3,2c2.4,0.5,4.6,1.1,6.7,1.7c2,0.6,3.6,1.3,4.9,2.3c1.2,0.9,1.8,2.2,1.8,3.7
			c0,1.2-0.4,2.3-1.2,3.3c-0.8,1-2,1.7-3.6,2.2c-1.6,0.5-3.8,0.8-6.5,0.8c-3.5,0-7-0.6-10.4-1.7c-3.4-1.1-6.4-2.6-8.9-4.4l-4.6,10.2
			c2.6,2,6.1,3.6,10.4,4.9c4.3,1.3,8.8,1.9,13.5,1.9c5.6,0,10.2-0.8,13.9-2.5c3.7-1.7,6.4-3.9,8.3-6.6s2.8-5.8,2.8-9
			c0-3.1-0.6-5.6-1.9-7.6S618.5,311.5,616.5,310.2z"/>
		<polygon class="st0" points="673.9,281.2 622.8,281.2 622.8,292.3 641.6,292.3 641.6,339.9 655.1,339.9 655.1,292.3 673.9,292.3 
					"/>
		<path class="st0" d="M694,281.2l-26.1,58.6h13.9l5.2-12.6h27.2l5.2,12.6h14.2l-26.2-58.6H694z M691.3,317l9.3-22.4l9.3,22.4H691.3
			z"/>
		<polygon class="st0" points="777.4,281.2 777.4,316.8 748.3,281.2 737.1,281.2 737.1,339.9 750.5,339.9 750.5,304.3 779.7,339.9 
			790.8,339.9 790.8,281.2 		"/>
	</g>
</g>
</svg>
