<?xml version="1.0" encoding="UTF-8"?>
<svg id="katman_1" data-name="katman 1" xmlns="http://www.w3.org/2000/svg" viewBox="0 0 742.7 340.91">
  <defs>
    <style>
      .cls-1 {
        fill: #d42d1e;
      }

      .cls-1, .cls-2 {
        stroke-width: 0px;
      }

      .cls-2 {
        fill: #22211f;
      }
    </style>
  </defs>
  <path class="cls-1" d="M417.19,0h-24.46c-2.45,0-4.87.49-7.11,1.51-5.97,2.7-16.69,9.32-16.69,21.93h27.91c1.28,0,2.55-.17,3.78-.54,4.99-1.5,16.57-6.73,16.57-22.89h0Z"/>
  <rect class="cls-1" x="709.52" y="56.41" width="10.62" height="95.6"/>
  <rect class="cls-1" x="730.65" width="12.05" height="209.43"/>
  <path class="cls-2" d="M22.29,104.35c2.25-2.47,6.16-6.85,10.95-12.25l24.35,37.33h23.45l-35.63-51.1c17.18-19.46,36.83-41.85,36.83-41.85h-23.77l-36.18,43.34v-43.34H3.04v92.94h19.25v-25.08h0Z"/>
  <polygon class="cls-2" points="315.06 200.8 275.23 200.8 275.23 162.63 255.98 162.63 255.98 255.57 275.23 255.57 275.23 217.4 315.06 217.4 315.06 255.57 334.31 255.57 334.31 162.63 315.06 162.63 315.06 200.8"/>
  <rect class="cls-2" x="90.67" y="36.49" width="19.25" height="92.94"/>
  <polygon class="cls-2" points="150.86 129.44 170.11 129.44 170.11 53.09 200.21 53.09 200.21 36.49 170.11 36.49 150.86 36.49 124.53 36.49 124.53 53.09 150.86 53.09 150.86 129.44"/>
  <polygon class="cls-2" points="362.2 74.64 321.7 74.64 321.7 36.49 302.45 36.49 302.45 129.44 321.7 129.44 321.7 91.24 362.2 91.24 362.2 129.44 381.45 129.44 381.45 36.49 362.2 36.49 362.2 74.64"/>
  <polygon class="cls-2" points="533.7 95.71 494.86 36.49 475.61 36.49 475.61 129.44 494.86 129.44 494.86 69.98 533.7 129.44 552.95 129.44 552.95 36.49 533.7 36.49 533.7 95.71"/>
  <polygon class="cls-2" points="195.23 162.63 167.02 162.63 167.02 179.23 195.23 179.23 195.23 255.57 214.48 255.57 214.48 179.23 242.7 179.23 242.7 162.63 214.48 162.63 195.23 162.63"/>
  <polygon class="cls-2" points="403.51 36.49 397.93 36.49 397.93 129.39 403.51 129.39 417.17 129.39 460.19 129.39 460.19 112.8 417.17 112.8 417.17 92.06 455.6 92.06 455.6 75.47 417.17 75.47 417.17 53.08 460.19 53.08 460.19 36.49 417.17 36.49 403.51 36.49"/>
  <path class="cls-2" d="M139.7,162.63h-24.93l-33.15,92.94h21.84l7.13-21.58h33.28l7.13,21.58h21.84l-33.15-92.94h0ZM115.5,219.15l11.73-35.51,11.73,35.51h-23.47.01Z"/>
  <path class="cls-2" d="M670.29,84.83s-14.91.17-15.93,0v1.03c0,5.76-1.29,10.88-3.47,15.22-6.09-6.76-12.08-13.33-16.43-17.91,15.7-9.84,17.64-18.12,18.45-24.55.9-7.2-5.14-21.2-23.26-22.12s-24.67,11.07-25.06,23.41,8.1,20.43,8.1,20.43l.98,1.11c-8.98,5.91-17.04,12.96-17.04,24.11,0,25.18,28.95,24.84,28.95,24.84,10.96,0,19.22-2.54,25.47-6.39l4.77,5.43h20.3s-6.16-7.01-14.09-15.92c8.9-12.97,8.26-28.69,8.26-28.69h0ZM619.75,60.42c0-2.57,1.71-8.74,9.51-8.74s8.48,6.94,8.48,6.94c0,6.28-5.31,10.85-12.11,15.3-5.24-6.5-5.88-11.4-5.88-13.51h0ZM627.59,117.09c-11.96.8-19.05-14.65-5.58-26.13l18.89,21.51c-4.06,2.72-8.67,4.32-13.31,4.63h0Z"/>
  <path class="cls-2" d="M288.58,98.88h-19.02s-4.63,15.25-20.04,15.25-25.01-12.57-25.01-30.35,10.28-30.69,23.81-30.69,20.04,7.76,20.9,17.01h19.36s-2.4-33.6-39.58-33.6-42.66,28.98-42.66,48.85,10.62,44.89,43.34,44.89,38.89-26.9,38.89-31.35h0Z"/>
  <path class="cls-2" d="M76.64,230.14c0-5.41-1.12-10.01-3.37-13.78s-5.4-6.66-9.44-8.66c-.46-.23-.93-.44-1.41-.64,3.07-1.98,5.51-4.52,7.32-7.61,2.1-3.6,3.15-7.79,3.15-12.59,0-7.28-2.5-13.16-7.51-17.64-5.02-4.48-12.6-6.72-22.77-6.72H3.04v93.21h41.78c10.39,0,18.29-2.24,23.71-6.72,5.41-4.48,8.12-10.77,8.12-18.84h-.01ZM51.61,234.34c-1.95,1.55-4.81,2.33-8.57,2.33h-18.34v-18.91h18.34c3.76,0,6.62.77,8.57,2.33,1.95,1.55,2.92,3.93,2.92,7.12s-.97,5.57-2.92,7.12h0ZM50.78,190.46c0,.59-.05,1.14-.12,1.68-.55,2.19-1.67,3.94-2.94,5.32-1.83,1.37-4.5,2.06-8,2.06h-15.03v-17.98h15.03c3.68,0,6.45.73,8.28,2.2,1.84,1.46,2.77,3.71,2.77,6.72h0Z"/>
  <g>
    <polygon class="cls-2" points="13.54 315.33 40.87 315.33 40.87 304.73 13.54 304.73 13.54 291.95 44.48 291.95 44.48 281.02 0 281.02 0 339.88 45.57 339.88 45.57 328.95 13.54 328.95 13.54 315.33"/>
    <polygon class="cls-2" points="104.85 281.02 90.06 281.02 76.81 300.08 63.32 281.02 47.84 281.02 68.49 309.91 46.75 339.88 62.39 339.88 76.37 319.43 90.56 339.88 106.28 339.88 84.33 309.45 104.85 281.02"/>
    <path class="cls-2" d="M148.41,283.59c-3.81-1.71-8.35-2.56-13.62-2.56h-25.48v58.86h13.62v-16.23h11.86c5.27,0,9.81-.85,13.62-2.56s6.75-4.16,8.83-7.36c2.07-3.2,3.11-6.98,3.11-11.35s-1.04-8.24-3.11-11.44-5.02-5.65-8.83-7.36h0ZM143.45,309.87c-2.07,1.79-5.21,2.69-9.42,2.69h-11.1v-20.43h11.1c4.2,0,7.34.9,9.42,2.69,2.07,1.79,3.11,4.32,3.11,7.57s-1.04,5.69-3.11,7.48h0Z"/>
    <path class="cls-2" d="M226.78,298.3c-1.63-3.67-3.88-6.88-6.77-9.63s-6.28-4.88-10.17-6.39c-3.9-1.51-8.17-2.27-12.82-2.27s-8.86.76-12.78,2.27c-3.92,1.51-7.34,3.64-10.26,6.39s-5.17,5.97-6.77,9.67-2.4,7.74-2.4,12.11.8,8.41,2.4,12.11c1.6,3.7,3.84,6.92,6.73,9.67s6.31,4.88,10.26,6.39,8.25,2.27,12.91,2.27,8.84-.76,12.74-2.27c3.9-1.51,7.29-3.63,10.17-6.35,2.89-2.72,5.14-5.94,6.77-9.67s2.44-7.78,2.44-12.15-.81-8.48-2.44-12.15h0ZM214.04,318.1c-.92,2.3-2.23,4.29-3.91,5.97-1.68,1.68-3.63,2.97-5.84,3.87-2.22.9-4.64,1.35-7.27,1.35s-5.07-.45-7.32-1.35c-2.24-.9-4.19-2.19-5.84-3.87s-2.94-3.68-3.87-6.01c-.93-2.33-1.39-4.86-1.39-7.61s.46-5.35,1.39-7.65c.92-2.3,2.23-4.29,3.91-5.97s3.63-2.97,5.84-3.87c2.21-.9,4.64-1.35,7.27-1.35s5.07.45,7.32,1.35c2.24.9,4.19,2.19,5.84,3.87s2.94,3.67,3.87,5.97c.92,2.3,1.39,4.85,1.39,7.65s-.46,5.35-1.39,7.65Z"/>
  </g>
  <g>
    <path class="cls-1" d="M291.27,320.96c3.81-1.68,6.75-4.11,8.83-7.27,2.07-3.17,3.11-6.94,3.11-11.31s-1.04-8.24-3.11-11.44c-2.07-3.2-5.02-5.65-8.83-7.36s-8.35-2.56-13.62-2.56h-25.48v58.86h13.62v-16.4h11.86c.22,0,.42-.01.63-.01l11.31,16.41h14.71l-13.15-18.87s.08-.03.12-.05h0ZM286.31,294.81c2.07,1.79,3.11,4.32,3.11,7.57s-1.04,5.7-3.11,7.53c-2.07,1.82-5.21,2.73-9.42,2.73h-11.1v-20.52h11.1c4.2,0,7.34.9,9.42,2.69h0Z"/>
    <path class="cls-1" d="M347.02,313.48c0,5.61-1.15,9.64-3.45,12.11-2.3,2.47-5.52,3.7-9.67,3.7s-7.37-1.23-9.67-3.7c-2.3-2.47-3.45-6.5-3.45-12.11v-32.46h-13.62v32.96c0,8.63,2.35,15.28,7.06,19.93s11.24,6.98,19.59,6.98,14.88-2.33,19.59-6.98c4.71-4.65,7.06-11.3,7.06-19.93v-32.96h-13.45v32.46h.01Z"/>
    <path class="cls-1" d="M410.04,314.99c-1.26-2.02-2.9-3.64-4.92-4.88-2.02-1.23-4.25-2.21-6.68-2.94s-4.88-1.37-7.32-1.93-4.67-1.12-6.69-1.68-3.64-1.3-4.88-2.23c-1.23-.92-1.85-2.14-1.85-3.66,0-1.29.36-2.42,1.09-3.41.73-.98,1.93-1.78,3.62-2.4,1.68-.62,3.84-.92,6.47-.92s5.33.38,8.07,1.13c2.75.76,5.49,1.92,8.24,3.49l4.2-10.34c-2.75-1.74-5.92-3.04-9.5-3.91-3.59-.87-7.23-1.3-10.93-1.3-5.55,0-10.16.83-13.83,2.48-3.67,1.65-6.42,3.87-8.24,6.64-1.82,2.78-2.73,5.84-2.73,9.21,0,3.14.63,5.72,1.89,7.74s2.9,3.64,4.92,4.88c2.02,1.23,4.25,2.24,6.68,3.03,2.44.79,4.88,1.44,7.32,1.98,2.44.53,4.67,1.09,6.68,1.68,2.02.59,3.64,1.34,4.88,2.27,1.23.92,1.85,2.17,1.85,3.74,0,1.23-.39,2.33-1.18,3.28-.79.95-2,1.7-3.66,2.23-1.65.53-3.83.8-6.52.8-3.53,0-7.02-.57-10.47-1.72s-6.43-2.62-8.96-4.42l-4.62,10.26c2.63,2.02,6.11,3.66,10.43,4.92s8.83,1.89,13.54,1.89c5.6,0,10.24-.84,13.92-2.52,3.67-1.68,6.43-3.9,8.28-6.64,1.85-2.75,2.77-5.77,2.77-9.08,0-3.08-.63-5.63-1.89-7.65l.02-.02Z"/>
    <path class="cls-1" d="M452.46,310.12c-2.02-1.23-4.25-2.21-6.68-2.94s-4.88-1.37-7.32-1.93-4.67-1.12-6.69-1.68-3.64-1.3-4.88-2.23c-1.23-.92-1.85-2.14-1.85-3.66,0-1.29.36-2.42,1.09-3.41.73-.98,1.93-1.78,3.62-2.4,1.68-.62,3.84-.92,6.47-.92s5.33.38,8.07,1.13c2.75.76,5.49,1.92,8.24,3.49l4.2-10.34c-2.75-1.74-5.92-3.04-9.5-3.91-3.59-.87-7.23-1.3-10.93-1.3-5.55,0-10.16.83-13.83,2.48-3.67,1.65-6.42,3.87-8.24,6.64-1.82,2.78-2.73,5.84-2.73,9.21,0,3.14.63,5.72,1.89,7.74s2.9,3.64,4.92,4.88c2.02,1.23,4.25,2.24,6.68,3.03,2.44.79,4.88,1.44,7.32,1.98,2.44.53,4.67,1.09,6.68,1.68,2.02.59,3.64,1.34,4.88,2.27,1.23.92,1.85,2.17,1.85,3.74,0,1.23-.39,2.33-1.18,3.28-.79.95-2,1.7-3.66,2.23-1.65.53-3.83.8-6.52.8-3.53,0-7.02-.57-10.47-1.72s-6.43-2.62-8.96-4.42l-4.62,10.26c2.63,2.02,6.11,3.66,10.43,4.92s8.83,1.89,13.54,1.89c5.6,0,10.24-.84,13.92-2.52,3.67-1.68,6.43-3.9,8.28-6.64,1.85-2.75,2.77-5.77,2.77-9.08,0-3.08-.63-5.63-1.89-7.65s-2.9-3.64-4.92-4.88l.02-.02Z"/>
    <path class="cls-1" d="M527.55,339.88h14.29l-26.32-58.86h-13.45l-26.15,58.67v-58.67h-13.62v58.86h27.49l5.25-12.61h27.28l5.23,12.61h0ZM499.34,316.92l9.37-22.53,9.33,22.53h-18.7,0Z"/>
  </g>
</svg>