<?xml version="1.0" encoding="UTF-8"?>
<svg id="katman_1" xmlns="http://www.w3.org/2000/svg" viewBox="0 0 1340 513.77">
  <defs>
    <style>
      .cls-1 {
        fill: #d7431c;
      }
    </style>
  </defs>
  <path class="cls-1" d="M.4,229.43h222.67V5.57H.4v223.87ZM89.86,53.28c8.75-11.53,15.91-21.07,16.7-21.47,0,0,.8,0,.8-.4.4,0,1.19-.4,1.59-.8.8,0,2.39-.4,3.58-.4h1.99c3.18.8,5.57,3.98,19.09,22.27,17.1,23.06,17.5,23.86,16.3,28.23-.8,3.18-2.39,5.17-5.17,6.36-1.99.8-3.18,1.19-4.77,1.19-4.37-.4-5.17-.8-16.7-16.7-5.96-8.35-11.13-14.71-11.53-14.71s-5.57,6.76-11.53,14.71c-12.33,16.3-12.72,16.7-17.5,16.7s-7.95-2.39-9.15-7.16c-1.19-4.37-.8-4.77,16.3-27.83ZM150.7,117.7c0,3.98-1.19,6.36-4.37,8.35l-1.99,1.19h-64.42l-1.99-1.19c-3.58-2.39-5.57-6.76-4.37-11.13.8-2.39,3.58-5.57,5.96-6.36.8,0,13.92-.4,33,0h31.41l1.99,1.59c3.18,1.99,4.37,4.37,4.37,8.35l.4-.8ZM79.13,147.52h.4c.8,0,2.78-.4,3.98-.4,4.77,0,5.17.8,17.1,16.7,5.96,8.35,11.13,14.71,11.53,14.71s5.57-6.76,11.53-14.71c12.33-16.3,12.72-16.7,17.5-16.7s7.95,2.39,9.15,7.16c1.19,4.37.8,4.77-16.3,27.83l-.8.8c-13.52,17.89-15.91,21.07-19.09,21.87h-4.77c-3.18-.8-5.57-3.98-19.09-21.87l-.8-.8c-8.75-11.53-15.91-21.87-16.3-22.67,0-.8-.4-2.39-.4-2.78,0-3.98,2.78-7.95,6.36-9.15Z"/>
  <path class="cls-1" d="M19.48,384.51h13.52l1.99-1.59c1.19-.8,3.18-2.39,4.37-3.18l2.39-1.99v-41.35l1.59-3.18c.8-1.59,2.39-4.37,3.98-5.57l2.39-2.78-1.99-1.99c-1.19-1.19-2.78-3.18-3.58-5.17-1.59-3.18-1.59-3.98-1.59-8.75s0-5.57,1.59-8.35c1.99-3.98,5.17-7.16,9.15-9.15,2.78-1.19,3.58-1.59,8.35-1.59s5.57,0,8.75,1.59c8.35,4.37,12.72,13.92,10.34,22.66-.8,3.58-3.18,7.16-5.17,9.15l-1.19,1.19,2.39,2.78c3.58,3.98,5.17,7.55,5.57,13.52v5.17l19.48-14.71v-22.27c.4-1.19,3.18-2.39,4.77-1.99,2.39.8,2.78,1.99,2.78,9.94s0,7.55.4,7.55c0,0,5.57-3.98,12.33-9.15l11.93-9.15v-6.76c0-7.95-.8-9.94-4.37-13.12-3.98-3.58-9.54-3.98-13.92-1.19-2.39,1.19-5.57,5.57-5.57,7.16s-.4,1.59-1.19,2.39c-1.19,1.59-3.98,1.99-5.96,0-2.39-2.39,0-8.35,3.98-13.12l2.39-2.78-1.99-1.99c-6.36-6.36-7.16-17.1-1.99-24.65,2.39-3.58,4.77-5.57,8.75-7.16,2.78-1.19,3.58-1.19,7.95-1.19,3.98,0,5.17.4,7.95,1.59,3.58,1.99,7.16,5.57,9.15,9.15,1.19,2.78,1.59,3.58,1.59,8.35s-.8,8.75-4.77,13.12l-2.39,2.39,2.39,2.39c3.18,3.18,4.77,7.16,5.57,13.12l.8,5.17,13.12-9.94c13.52-10.34,15.91-11.93,21.07-13.12,4.37-1.19,40.16-1.19,44.93,0h1.19v-41.75H0v149.51l.4,1.99c3.98-1.19,8.35-1.19,19.09-1.19Z"/>
  <path class="cls-1" d="M5.17,399.22h-.4s15.51,0,15.51,0c16.3-.8,17.5-.8,21.47-3.58.8-.8,31.02-23.86,66.8-50.9l12.33-9.54c54.08-41.35,55.67-42.55,56.86-42.94,1.19,0,7.95-.4,20.68-.4h19.09l3.18,1.59h.4s.8,0,1.19.8v-7.16l-3.18-1.59h-41.35l-2.78,1.19c-2.39,1.19-52.09,38.57-126.84,96.23-6.36,4.77-11.53,8.35-12.72,8.75-1.99.8-5.17.8-15.91.8s-15.51,0-19.48,1.99v7.16c.4,0,1.19-.4,1.59-.8l3.58-1.59Z"/>
  <path class="cls-1" d="M25.05,430.24l-.4-.8h17.89l67.6-51.69c37.38-28.63,68.79-52.09,69.98-52.89,5.17-2.39,6.36-2.78,21.87-2.78h14.71l2.39-1.99c1.19-.8,2.78-2.39,3.58-4.37v-10.74c-1.19-1.99-2.78-3.98-5.17-4.77-1.99-.8-3.98-1.19-19.48-1.19h-17.1l-4.37,3.18c-.4,0-1.99,1.59-4.37,3.18-9.15,7.16-31.81,24.26-56.46,43.34-31.02,23.86-59.64,45.73-63.22,48.51-11.53,9.15-13.12,9.54-32.21,9.54s-13.52,0-15.51,1.19c-1.99,1.19-3.98,2.78-4.77,4.77v11.53c0,.8.8,1.19,1.19,1.99,3.18,3.98,3.58,3.98,23.86,3.98Z"/>
  <path class="cls-1" d="M221.08,327.65l-3.58,1.59h-14.71c-13.12.4-15.11.8-17.5,1.59-2.39.8-26.64,19.09-135.59,102.99-4.37,3.58-4.77,3.58-25.85,3.18H4.77l-3.18-1.59c-.4,0-.8-.4-1.59-.8v7.16c1.19.4,2.78,1.19,4.37,1.19,1.99.4,8.75.4,22.27.4h19.09l2.78-1.59c1.59-.8,31.81-23.46,69.59-52.49,36.58-28.23,67.6-51.69,68.79-52.09,1.99-1.19,2.78-1.19,17.1-1.59,13.52,0,15.11-.4,17.89-1.59.4,0,.8,0,1.19-.4v-7.16c-.4,0-.8.4-1.19.8l-.8.4Z"/>
  <path class="cls-1" d="M190.47,344.35v.4c-1.19.4-25.85,19.48-101.79,77.54-33.8,25.85-34.59,26.24-38.97,27.83-3.18,1.19-3.98,1.19-23.86,1.19-16.7,0-21.87,0-25.85-1.19v9.94h222.67v-117.7c-3.98,1.19-8.35,1.59-18.29,1.59s-13.12,0-13.92.4Z"/>
  <path class="cls-1" d="M126.05,253.69c-4.37-1.99-10.74-.4-13.52,3.18-3.98,5.17-3.58,11.13.8,15.51,3.98,3.98,8.35,4.77,13.12,1.99,3.98-1.99,5.96-4.77,6.36-9.54,0-2.78,0-3.98-.8-5.57-1.19-2.78-3.58-4.77-5.96-5.57Z"/>
  <path class="cls-1" d="M66.8,299.02c-4.77-2.39-10.74-1.19-13.92,2.78-1.99,2.39-2.78,5.17-2.78,8.75,0,4.37,2.39,7.16,6.36,9.15,3.98,1.99,6.76,1.99,10.74,0h-.4c8.35-4.37,8.35-16.7,0-20.68Z"/>
  <path class="cls-1" d="M49.31,355.08v16.3l.4.4,24.26-18.69v-7.16c0-5.96,0-7.55-1.19-9.54-1.19-2.78-2.78-4.37-5.57-5.96-1.19-.4-3.58-1.19-5.17-1.19-4.77,0-9.94,2.78-11.93,7.55-.4,1.19-.8,5.57-.8,18.29Z"/>
  <polygon class="cls-1" points="397.01 196.46 299.49 196.46 299.49 7.1 259.26 7.1 259.26 228.17 397.01 228.17 397.01 196.46"/>
  <rect class="cls-1" x="406.48" y="71.48" width="40.24" height="156.69"/>
  <path class="cls-1" d="M426.36,46.87c7.57,0,13.25-2.37,17.99-6.63,4.73-4.26,7.1-9.94,7.1-16.57s-2.37-12.31-7.1-16.57c-4.73-4.26-10.41-6.63-17.99-6.63s-13.25,2.37-18.46,6.63c-4.73,4.26-7.1,9.47-7.1,16.57s2.37,12.31,7.1,16.57c4.73,4.26,10.89,6.63,18.46,6.63Z"/>
  <path class="cls-1" d="M578.32,215.86c9.94,8.05,22.72,11.83,39.29,11.83h27.46v-34.56h-19.41c-8.05,0-13.73-1.42-17.04-4.26-3.31-2.84-4.73-8.05-4.73-15.62v-68.64h42.13v-33.61h-42.13V28.88h-35.5l-4.73,42.13h-54.44v-18.46c0-6.63,1.42-11.36,4.26-13.73,2.84-2.84,8.05-4.26,14.68-4.26h10.89V0h-17.52c-16.57,0-29.35,3.79-38.82,11.83-9.47,8.05-14.2,21.3-14.2,40.24v18.46h-21.3v33.61l.47.95h21.3v123.08h40.24v-123.08h54.44v68.17c0,20.36,4.73,34.56,14.68,42.61Z"/>
  <path class="cls-1" d="M1138.34,79.53c-11.36-7.1-24.62-10.89-39.29-10.89s-24.14,2.84-32.19,8.05-14.68,11.36-19.88,18.46l-4.26-22.25h-78.11l-39.29,55.86-39.76-55.86h-43.08l56.81,78.58-52.07,72.43v-26.51h-103.67v-63.91h94.2v-31.72h-94.2v-60.59h103.67V8.52h-143.91v221.07h182.73l39.76-55.86-.47-.95,39.29,55.86h42.13v69.59h40.24v-90.89c5.68,8.05,12.78,14.2,21.3,18.46,8.99,4.26,18.94,6.63,30.77,6.63s27.93-3.31,39.29-10.41c11.36-7.1,20.83-17.04,27.46-28.88,6.63-12.31,9.94-26.51,9.94-42.13s-3.31-29.82-9.94-42.13c-6.63-12.31-15.62-22.25-27.46-29.35ZM1006.74,226.75l-55.86-76.69,55.86-76.69v153.38ZM1122.72,183.67c-8.52,8.52-18.94,12.78-31.72,12.78s-23.67-4.26-32.19-12.78c-8.05-8.99-12.31-20.36-12.31-33.61s4.26-24.62,12.31-33.61c8.52-8.99,18.94-13.25,32.19-13.25s23.2,4.26,31.72,13.25c8.52,8.99,12.78,20.36,12.78,33.61s-4.26,25.09-12.78,33.61Z"/>
  <path class="cls-1" d="M1329.11,106.99c-7.1-12.31-16.57-22.25-28.4-28.88-11.83-7.1-25.56-10.41-40.24-10.41s-28.88,3.31-40.71,10.41c-11.83,7.1-21.3,16.57-28.4,28.88-7.1,12.31-10.89,26.51-10.89,42.61s3.31,30.77,10.41,43.08c7.1,12.31,16.57,21.78,28.4,28.88,12.31,7.1,26.04,10.41,40.71,10.41s28.4-3.31,40.71-10.41c12.31-7.1,21.78-16.57,28.4-28.88,7.1-12.31,10.89-26.98,10.89-43.08s-3.79-30.3-10.89-42.61ZM1287.45,185.09c-7.57,7.57-17.04,11.84-27.46,11.84s-19.41-3.79-27.46-11.84c-7.57-8.05-11.36-19.88-11.36-35.5s3.79-27.46,11.36-35.03h.47c7.57-8.05,17.04-11.83,27.46-11.83s19.41,3.79,26.98,11.83c7.57,7.57,11.83,19.41,11.83,35.03s-3.79,27.46-11.83,35.5Z"/>
  <polygon class="cls-1" points="427.09 270.4 387.66 270.4 294.2 367.43 294.2 270.4 259.09 270.4 259.09 459.48 294.2 459.48 294.2 411.04 324.32 380.22 390.9 459.48 431.95 459.48 347.57 354.88 427.09 270.4"/>
  <path class="cls-1" d="M524.06,322.8c-10.98-6.12-23.5-9.18-37.54-9.18s-27.24,3.15-38.49,9.46c-11.25,6.31-20.08,14.99-26.47,26.07-6.39,11.07-9.59,23.82-9.59,38.22s3.29,26.92,9.86,38.08c6.57,11.17,15.84,19.95,27.82,26.33,11.97,6.39,25.97,9.59,42,9.59,12.6,0,23.81-2.03,33.63-6.08,9.81-4.05,17.96-9.86,24.45-17.42l-18.1-20.8c-5.05,5.4-10.8,9.36-17.29,11.89-6.48,2.52-13.78,3.78-21.88,3.78-9.37,0-17.65-1.8-24.85-5.4-7.21-3.6-12.79-8.73-16.75-15.39-2.49-4.18-4.1-8.81-5.03-13.78h113.07c.18-1.62.31-3.33.4-5.13.09-1.8.14-3.42.14-4.86,0-15.13-3.15-28.27-9.46-39.44-6.31-11.16-14.95-19.8-25.93-25.93ZM450.18,361.03c3.51-6.39,8.38-11.39,14.59-14.99,6.21-3.6,13.46-5.4,21.74-5.4s15.26,1.8,21.47,5.4,11.12,8.56,14.72,14.86c2.54,4.45,4.09,9.42,4.75,14.85h-81.94c.76-5.42,2.28-10.35,4.67-14.72Z"/>
  <path class="cls-1" d="M711.24,459.48v-82.65c0-14.58-2.61-26.51-7.83-35.79-5.22-9.27-12.38-16.16-21.47-20.66-9.1-4.5-19.4-6.75-30.93-6.75-12.61,0-23.73,2.48-33.36,7.43-6.53,3.36-11.92,7.77-16.34,13.07v-18.88h-32.14v144.24h33.76v-72.93c0-9.72,1.66-17.78,5-24.17,3.33-6.39,8.06-11.21,14.18-14.45,6.12-3.24,13.14-4.86,21.07-4.86,10.8,0,19.22,3.15,25.25,9.45,6.03,6.31,9.05,15.85,9.05,28.63v78.33h33.76Z"/>
  <path class="cls-1" d="M831.44,315.24l-45.66,106.69-45.36-106.69h-35.11l63.05,144.68-2.55,5.76c-3.24,7.2-6.75,12.33-10.53,15.4-3.78,3.06-8.74,4.59-14.86,4.59-4.5,0-8.91-.9-13.23-2.7-4.32-1.8-8.2-4.23-11.62-7.29l-13.51,24.85c4.68,4.14,10.54,7.38,17.56,9.72,7.02,2.34,14.05,3.51,21.07,3.51,8.1,0,15.53-1.26,22.28-3.78,6.75-2.52,12.87-6.93,18.37-13.23,5.49-6.31,10.49-14.86,14.99-25.66l67.52-155.85h-32.41Z"/>
  <path class="cls-1" d="M973.92,328.61c-11.44-9.99-27.6-14.99-48.49-14.99-11.53,0-22.65,1.49-33.36,4.46-10.72,2.97-19.95,7.43-27.69,13.37l13.23,24.58c5.4-4.5,12.02-8.01,19.85-10.54,7.83-2.52,15.8-3.78,23.9-3.78,12.06,0,21.07,2.75,27.01,8.24,5.94,5.49,8.91,13.19,8.91,23.09v2.16h-37.27c-14.59,0-26.29,1.89-35.11,5.67-8.82,3.78-15.17,8.91-19.04,15.4-3.88,6.48-5.81,13.78-5.81,21.88s2.2,15.71,6.62,22.28c4.41,6.57,10.67,11.71,18.77,15.39,8.1,3.69,17.56,5.54,28.36,5.54,12.78,0,23.36-2.34,31.73-7.02,5.81-3.25,10.3-7.47,13.64-12.54v17.67h31.87v-84.54c0-20.89-5.72-36.33-17.15-46.33ZM943.12,431.12c-6.57,3.78-14,5.67-22.28,5.67s-15.4-1.8-20.26-5.4c-4.86-3.6-7.29-8.46-7.29-14.59,0-5.4,1.98-9.95,5.94-13.64,3.96-3.69,11.7-5.54,23.23-5.54h34.84v16.75c-2.88,7.39-7.61,12.97-14.18,16.75Z"/>
</svg>