<?xml version="1.0" encoding="utf-8"?>
<!-- Generator: Adobe Illustrator 28.2.0, SVG Export Plug-In . SVG Version: 6.00 Build 0)  -->
<svg version="1.1" id="katman_1" xmlns="http://www.w3.org/2000/svg" xmlns:xlink="http://www.w3.org/1999/xlink" x="0px" y="0px"
	 viewBox="0 0 1028.1 361" style="enable-background:new 0 0 1028.1 361;" xml:space="preserve">
<style type="text/css">
	.st0{fill:#1595B1;}
</style>
<path class="st0" d="M0.5,162.2h157.8V3.7H0.5V162.2L0.5,162.2z M63.7,37.3c6.1-8.1,11.4-14.9,11.8-15.2c0.2-0.1,0.4-0.2,0.7-0.4
	c0.4-0.2,0.7-0.4,1.1-0.5c0.6-0.2,1.7-0.4,2.6-0.3l0,0c0.6,0,1.1,0.1,1.5,0.2c2.2,0.5,3.9,2.9,13.7,15.9l0.1,0.1
	c12.2,16.3,12.4,16.7,11.5,19.7c-0.6,2.3-1.7,3.6-3.8,4.5c-1.4,0.7-2.2,0.8-3.3,0.7c-3.2-0.4-3.5-0.7-11.9-12
	c-4.3-5.8-8-10.6-8.2-10.6s-3.8,4.8-8.2,10.6c-8.7,11.6-8.9,11.9-12.4,11.9s-5.7-1.8-6.6-5.1C51.4,53.9,51.6,53.5,63.7,37.3
	L63.7,37.3z M106.7,83c0,2.7-0.9,4.4-3,5.8l-1.4,0.9H56.6l-1.3-0.8c-2.6-1.6-3.8-4.8-3-7.9c0.5-1.8,2.6-4,4.2-4.5
	c0.7-0.2,10-0.3,23.5-0.3l22.3,0.1l1.4,0.9C105.8,78.6,106.7,80.3,106.7,83L106.7,83z M56.4,104.1c0.7-0.2,1.9-0.4,2.7-0.3
	c3.3,0.2,3.6,0.5,12.1,11.9c4.3,5.8,8,10.6,8.2,10.6s3.8-4.8,8.2-10.6c8.7-11.6,8.9-11.9,12.4-11.9s5.7,1.8,6.6,5.1
	c0.9,3.1,0.7,3.4-11.5,19.8l-0.4,0.6c-9.5,12.7-11.3,15.1-13.4,15.5c-0.5,0.1-1.1,0.1-1.8,0.1h-0.1c-0.7,0-1.2,0-1.7-0.1
	c-2.2-0.5-4-2.9-13.4-15.5l-0.4-0.6c-6.1-8.2-11.2-15.4-11.5-16c-0.2-0.7-0.4-1.6-0.4-2C51.9,108,54,104.9,56.4,104.1L56.4,104.1z"
	/>
<path class="st0" d="M0.4,272.9c2.8-0.8,5.9-1,13.5-1h9.6l1.5-1.1c0.8-0.6,2.3-1.6,3.2-2.3l1.7-1.3l0.2-29.3l1-2.1
	c0.6-1.2,1.8-3,2.7-4l1.7-1.9l-1.3-1.3c-0.7-0.7-1.9-2.4-2.5-3.7c-1.1-2.3-1.2-2.7-1.2-6.2s0.1-3.9,1.2-6c1.4-2.7,3.7-5,6.5-6.4
	c1.9-1,2.4-1.1,5.8-1.1s3.9,0.1,6.2,1.2c6,3,9.1,9.8,7.3,16.1c-0.7,2.4-2.2,5.1-3.7,6.5l-0.9,0.9l1.7,1.9c2.6,2.9,3.5,5.3,3.8,9.7
	l0.2,3.7l13.6-10.4v-7.6c0-4.2,0.1-7.9,0.2-8.2c0.4-0.9,2.2-1.7,3.3-1.5c1.8,0.4,2.1,1.4,2.1,7.2c0,3,0.1,5.4,0.3,5.3
	c0.2,0,4-2.9,8.7-6.5l8.4-6.5v-4.9c0-5.6-0.5-7-3.1-9.3c-2.8-2.4-6.7-2.7-10-0.8c-1.7,1-3.8,3.8-3.8,5.1c0,0.3-0.3,1.1-0.8,1.6
	c-1,1.2-2.9,1.4-4.1,0.2c-1.6-1.6-0.3-5.8,2.9-9.4l1.7-1.9l-1.4-1.4c-4.4-4.5-5-12.1-1.3-17.4c1.7-2.6,3.4-3.9,6.3-5.1
	c1.9-0.8,2.7-0.9,5.6-0.8c2.8,0.1,3.7,0.3,5.5,1.1c2.6,1.3,5.2,3.9,6.5,6.6c0.9,1.9,1,2.5,1,6.1c0,4.6-0.6,6.2-3.4,9.3l-1.6,1.8
	l1.7,1.7c2.4,2.4,3.5,5,4,9.3l0.5,3.6l9.2-7c9.6-7.4,11.4-8.5,14.8-9.4c3.1-0.8,28.5-0.8,31.7,0c0.2,0.1,0.5,0.1,0.7,0.2
	c0.1,0,0.2,0.1,0.3,0.1s0.2,0.1,0.4,0.1v-29.5H0.4V272.9L0.4,272.9z"/>
<path class="st0" d="M3.5,282.3l10.9-0.2c11.5-0.2,12.5-0.4,15.2-2.3c0.7-0.5,22-16.8,47.4-36.2l8.8-6.7l0,0l0,0
	c38.4-29.4,39.3-30.1,40.4-30.4h0.1c0.1,0,0.1,0,0.2-0.1c0.8-0.3,5.6-0.4,14.6-0.3l13.5,0.1l2.2,1.1c0.1,0.1,0.2,0.1,0.3,0.2
	c0.2,0.1,0.5,0.3,0.7,0.4v-5l-2.4-1.2h-29.2l-2.1,1c-1.7,0.8-36.8,27.4-89.9,68.2c-4.5,3.4-8.1,6-9.1,6.3c-1.3,0.5-3.7,0.6-11.2,0.6
	c-8.6,0-11,0.1-13.9,1.4v5.1c0.4-0.2,0.7-0.4,1.1-0.6L3.5,282.3L3.5,282.3z"/>
<path class="st0" d="M17.7,303.9h12.6l48-36.7c26.4-20.2,48.7-37,49.5-37.4c3.6-1.7,4.4-1.8,15.4-2.1l10.5-0.2l1.6-1.1
	c0.9-0.7,1.9-1.8,2.6-3.1v-7.6c-0.8-1.5-2.1-2.8-3.6-3.4c-1.4-0.6-2.7-0.7-13.8-0.7h-12.2l-3.1,2.4c-0.3,0.3-1.4,1.1-3.1,2.4
	c-6.6,5-22.5,17.2-40,30.6c-22,16.8-42.2,32.3-44.8,34.2c-8.3,6.4-9.3,6.6-22.8,6.6c-8.7,0-9.5,0-10.9,0.8c-1.5,0.8-2.7,1.9-3.5,3.3
	v8c0.2,0.4,0.5,0.9,0.9,1.3C3.1,303.8,3.5,303.9,17.7,303.9L17.7,303.9z"/>
<path class="st0" d="M156.8,231.8L156.8,231.8l-2.5,1.2l-10.5,0.2c-9.3,0.2-10.6,0.3-12.3,1s-18.8,13.6-96.2,72.9
	c-3.2,2.4-3.3,2.4-18.4,2.3l-13.6-0.1L1,308.2c-0.3-0.2-0.7-0.4-1-0.6v5c1,0.4,2,0.8,3,1c1.5,0.3,6.1,0.4,15.7,0.3l13.6-0.1l2-1
	c1.2-0.6,22.4-16.6,49.3-37.1c26-19.9,47.9-36.5,48.6-37c1.3-0.8,1.9-0.8,12-1c9.7-0.2,10.8-0.3,12.6-1c0.3-0.1,0.6-0.2,0.9-0.4
	v-5.1C157.5,231.4,157.2,231.6,156.8,231.8L156.8,231.8L156.8,231.8z"/>
<path class="st0" d="M134.9,243.8c-0.7,0.4-18.3,13.8-72.1,55c-24,18.4-24.4,18.6-27.5,19.8c-2.2,0.8-2.8,0.8-16.9,0.9
	C6.6,319.6,3,319.6,0,318.7v7h157.8v-83.3c-2.8,0.9-5.9,1-13.1,1C138.8,243.4,135.4,243.5,134.9,243.8L134.9,243.8z"/>
<path class="st0" d="M89.3,179.4c-3.2-1.4-7.6-0.3-9.5,2.3c-2.8,3.7-2.6,7.9,0.6,11.1c2.8,2.8,5.9,3.3,9.4,1.5
	c2.9-1.5,4.2-3.4,4.4-6.8c0.1-2,0-2.9-0.6-4C92.6,181.6,91.1,180.1,89.3,179.4L89.3,179.4z"/>
<path class="st0" d="M47.5,226.2c5.9-3.1,5.8-11.8-0.2-14.7c-3.2-1.6-7.5-0.8-9.9,1.9c-1.5,1.8-2.1,3.6-1.9,6.3c0.2,3,1.6,5,4.4,6.4
	C42.7,227.6,44.9,227.6,47.5,226.2z"/>
<path class="st0" d="M35.2,262.9l17.2-13.1v-5c0-4.2-0.1-5.2-0.8-6.6c-0.9-2.1-2-3.2-3.8-4.2c-0.8-0.4-2.4-0.8-3.6-0.9
	c-3.5-0.3-7.1,2-8.5,5.4c-0.4,0.9-0.5,3.9-0.5,12.8L35.2,262.9L35.2,262.9z"/>
<polygon class="st0" points="265.6,116.6 207.6,116.6 207.6,3.8 183.6,3.8 183.6,135.4 265.6,135.4 "/>
<path class="st0" d="M283.2,27.6c4.4,0,7.9-1.3,10.7-4c2.9-2.6,4.3-6,4.3-10s-1.4-7.3-4.3-9.8c-2.7-2.6-6.3-3.9-10.7-3.9
	s-8,1.3-10.9,3.9c-2.7,2.5-4.1,5.8-4.1,9.8s1.4,7.3,4.1,10C275.2,26.3,278.8,27.6,283.2,27.6z"/>
<rect x="271.2" y="42.1" class="st0" width="24" height="93.3"/>
<path class="st0" d="M295.8,62.2h12.7v73.1h24V62.2h32.3v40.6c0,12.2,2.9,20.6,8.8,25.4c5.9,4.8,13.7,7.1,23.4,7.1h16.3v-20.5h-11.6
	c-4.8,0-8.1-0.8-10.1-2.4c-1.9-1.8-2.8-4.9-2.8-9.4V62.2h25.1V42.1h-25.1v-25h-21.2l-2.8,25h-32.3V31.2c0-3.9,0.9-6.6,2.6-8.3
	c1.8-1.6,4.7-2.5,8.8-2.5h6.5V0h-10.3c-9.7,0-17.5,2.4-23.2,7.1c-5.6,4.8-8.4,12.8-8.4,24.1v10.9h-12.7L295.8,62.2L295.8,62.2z"/>
<path class="st0" d="M603.3,135.4h25.2v41.4h24v-54.2c3.2,4.8,7.5,8.5,12.7,11.1s11.4,3.9,18.3,3.9c8.7,0,16.5-2.1,23.4-6.2
	c6.9-4.3,12.3-10,16.3-17.3c4-7.4,6-15.8,6-25.2s-2-17.8-6-25.2s-9.4-13.2-16.3-17.5c-6.9-4.3-14.7-6.4-23.4-6.4
	c-7.9,0-14.3,1.6-19.3,4.7c-4.9,3.1-8.8,6.8-11.8,10.9l-2.6-13.3h-20.7l0,0h-25.8l-23.4,33.1l-23.6-33.1h-25.7l33.7,46.6l-31.1,43
	V116h-61.6V78h56V59.2h-56V23.1h61.6V3.8h-85.5v131.6h108.6l23.6-33.1L603.3,135.4L603.3,135.4z M659.4,68.8
	c5-5.3,11.4-7.9,19.1-7.9s13.9,2.6,18.9,7.9s7.5,12,7.5,20.1s-2.5,14.8-7.5,19.9s-11.3,7.7-18.9,7.7s-14.1-2.6-19.1-7.7
	c-4.9-5.3-7.3-12-7.3-20.1S654.5,74,659.4,68.8z M628.5,43v91.5l-33.2-45.7L628.5,43L628.5,43z"/>
<path class="st0" d="M803.4,46.1c-7.1-4.1-15.1-6.2-24-6.2s-17.1,2.1-24.3,6.2c-7.1,4.1-12.8,9.9-17,17.3
	c-4.2,7.3-6.4,15.7-6.4,25.4s2.1,18.2,6.2,25.6c4.2,7.3,9.9,13,17,17.1c7.2,4.1,15.3,6.2,24.3,6.2s16.9-2.1,24.1-6.2
	c7.2-4.1,12.9-9.8,17-17.1c4.2-7.4,6.4-15.9,6.4-25.6s-2.1-18.1-6.4-25.4C816.3,56,810.6,50.2,803.4,46.1z M795.5,109.8
	c-4.6,4.6-10,7-16.3,7s-11.7-2.3-16.3-7c-4.5-4.8-6.7-11.8-6.7-21.1s2.2-16.2,6.7-20.9c4.6-4.8,10.1-7.1,16.5-7.1s11.5,2.4,16.1,7.1
	c4.6,4.6,6.9,11.6,6.9,20.9S800.1,105,795.5,109.8z"/>
<path class="st0" d="M389.8,245.6v-13.9h-78.5v17.6h50.6l-51.6,62.5v0.6l-49.6-109.9h-22.5l-55.4,123.2h23.6l12.2-28.5h61.6
	l12.2,28.5h99v-17.6h-53.2L389.8,245.6L389.8,245.6z M226.2,279.2l23.1-53.9l23.2,53.9H226.2L226.2,279.2z"/>
<path class="st0" d="M463.9,236.6c-7.1-4-15.3-6-24.5-6s-17.7,2.1-25.1,6.2c-7.3,4.1-13.1,9.8-17.2,17c-4.2,7.2-6.2,15.5-6.2,24.9
	s2.1,17.5,6.4,24.8s10.3,13,18.1,17.1c7.8,4.2,16.9,6.2,27.4,6.2c8.2,0,15.5-1.3,21.9-4c6.4-2.6,11.7-6.4,15.9-11.4L468.8,298
	c-3.3,3.5-7,6.1-11.3,7.7c-4.2,1.6-9,2.5-14.2,2.5c-6.1,0-11.5-1.2-16.2-3.5s-8.3-5.7-10.9-10c-1.6-2.7-2.7-5.7-3.3-9h73.6
	c0.1-1.1,0.2-2.2,0.3-3.3c0.1-1.2,0.1-2.2,0.1-3.2c0-9.9-2-18.4-6.2-25.7C476.7,246.2,471,240.6,463.9,236.6L463.9,236.6z
	 M412.7,271.1c0.5-3.5,1.5-6.7,3-9.6c2.3-4.2,5.5-7.4,9.5-9.8c4-2.4,8.8-3.5,14.2-3.5s9.9,1.2,14,3.5s7.2,5.6,9.6,9.7
	c1.6,2.9,2.7,6.1,3.1,9.7H412.7L412.7,271.1z"/>
<path class="st0" d="M517.4,245.5v-13.8h-20.9v93.9h22V280c0-9.6,2.5-16.9,7.4-21.7s11.5-7.3,19.9-7.3c0.8,0,1.6,0,2.5,0.1
	s1.7,0.2,2.6,0.4v-20.9c-9,0-16.6,1.6-22.6,4.9C523.7,238,520.1,241.3,517.4,245.5L517.4,245.5z"/>
<path class="st0" d="M634.5,236.6c-7.1-4-15.3-6-24.5-6c-7.6,0-14.6,1.7-20.8,5.2c-3.5,1.9-6.5,4.4-9.2,7.4V195h-22v130.6h20.9
	v-12.4c2.8,3.5,6.1,6.3,9.8,8.4c6.2,3.5,13.3,5.3,21.3,5.3c9.3,0,17.5-2,24.5-6.1c7.1-4,12.7-9.6,16.9-16.8
	c4.2-7.1,6.2-15.6,6.2-25.3s-2.1-18.2-6.2-25.3C647.2,246.2,641.6,240.6,634.5,236.6L634.5,236.6z M631.6,294.3
	c-2.5,4.5-5.8,7.9-9.9,10.2c-4.2,2.4-8.9,3.5-14.2,3.5s-10-1.2-14.2-3.5s-7.6-5.8-10-10.2c-2.5-4.5-3.7-9.7-3.7-15.7
	s1.2-11.4,3.7-15.8s5.8-7.8,10-10.1c4.2-2.4,9-3.5,14.2-3.5s10,1.2,14.2,3.5s7.5,5.7,9.9,10.1s3.7,9.6,3.7,15.8
	S634,289.9,631.6,294.3z"/>
<path class="st0" d="M733.2,240.4c-7.5-6.5-18-9.8-31.6-9.8c-7.5,0-14.8,1-21.7,2.9s-13,4.8-18,8.7l8.6,16c3.5-2.9,7.8-5.2,12.9-6.9
	s10.3-2.5,15.6-2.5c7.9,0,13.7,1.8,17.6,5.4c3.9,3.6,5.8,8.6,5.8,15v1.4h-24.3c-9.5,0-17.1,1.2-22.9,3.7c-5.8,2.5-9.9,5.8-12.4,10
	s-3.8,9-3.8,14.2s1.4,10.2,4.3,14.5c2.9,4.3,7,7.6,12.2,10c5.3,2.4,11.4,3.6,18.5,3.6c8.3,0,15.2-1.5,20.7-4.6
	c3.8-2.1,6.7-4.8,8.9-8.1v11.4h20.8v-55.1C744.4,257,740.6,246.9,733.2,240.4L733.2,240.4z M722.3,296.3c-1.9,4.8-5,8.5-9.2,10.9
	c-4.3,2.5-9.1,3.7-14.5,3.7s-10-1.2-13.2-3.5c-3.2-2.4-4.8-5.5-4.8-9.5c0-3.5,1.3-6.5,3.9-8.9c2.6-2.4,7.6-3.6,15.1-3.6h22.7V296.3
	L722.3,296.3z"/>
<path class="st0" d="M772,216.8c3.5,0,6.5-1.2,8.9-3.5c2.4-2.4,3.6-5.3,3.6-9s-1.2-6.6-3.6-9s-5.4-3.5-8.9-3.5s-6.6,1.2-9,3.5
	c-2.3,2.4-3.5,5.3-3.5,9s1.2,6.6,3.5,9C765.3,215.6,768.3,216.8,772,216.8z"/>
<rect x="760.9" y="231.7" class="st0" width="22" height="93.9"/>
<path class="st0" d="M812.1,189.8c-4.1,0-7.5,1.3-10.1,3.8s-4,5.7-4,9.4s1.3,6.7,4,9.3c2.6,2.6,6,3.9,10.1,3.9s7.6-1.3,10.2-4
	c2.6-2.6,3.9-5.9,3.9-9.8c0-3.6-1.3-6.7-4-9.1S816.2,189.8,812.1,189.8L812.1,189.8z"/>
<path class="st0" d="M801.2,327.9c0,4.9-1.1,8.6-3.3,11.2c-2.2,2.5-5.3,3.8-9.3,3.8c-5.2,0-9.4-1.2-12.8-3.7l-6.3,16.4
	c2.6,1.9,5.7,3.2,9.4,4.1s7.6,1.3,11.7,1.3c10.4,0,18.5-3,24.2-9.1s8.5-14.2,8.5-24.5v-95.7h-22L801.2,327.9L801.2,327.9z"/>
<path class="st0" d="M907.9,240.4c-7.5-6.5-18-9.8-31.6-9.8c-7.5,0-14.8,1-21.7,2.9s-13,4.8-18,8.7l8.6,16c3.5-2.9,7.8-5.2,12.9-6.9
	s10.3-2.5,15.6-2.5c7.9,0,13.7,1.8,17.6,5.4c3.9,3.6,5.8,8.6,5.8,15v1.4h-24.3c-9.5,0-17.1,1.2-22.9,3.7c-5.8,2.5-9.9,5.8-12.4,10
	s-3.8,9-3.8,14.2s1.4,10.2,4.3,14.5c2.9,4.3,7,7.6,12.2,10c5.3,2.4,11.4,3.6,18.5,3.6c8.3,0,15.2-1.5,20.7-4.6
	c3.8-2.1,6.7-4.8,8.9-8.1v11.4h20.8v-55.1C919.1,257,915.3,246.9,907.9,240.4L907.9,240.4z M897.1,296.3c-1.9,4.8-5,8.5-9.2,10.9
	c-4.3,2.5-9.1,3.7-14.5,3.7s-10-1.2-13.2-3.5s-4.8-5.5-4.8-9.5c0-3.5,1.3-6.5,3.9-8.9c2.6-2.4,7.6-3.6,15.1-3.6h22.7V296.3
	L897.1,296.3z"/>
<path class="st0" d="M1023,248.5c-3.4-6-8.1-10.5-14-13.5c-5.9-2.9-12.6-4.4-20.1-4.4c-8.2,0-15.5,1.6-21.7,4.8
	c-4.2,2.2-7.8,5-10.6,8.4v-12.2h-20.9v93.9h22V278c0-6.3,1.1-11.6,3.2-15.8c2.2-4.2,5.2-7.3,9.2-9.4s8.6-3.2,13.7-3.2
	c7,0,12.5,2.1,16.5,6.2c4,4.1,5.9,10.3,5.9,18.7v51h22v-53.8C1028.1,262.3,1026.4,254.5,1023,248.5L1023,248.5z"/>
</svg>
