<?xml version="1.0" encoding="UTF-8"?>
<svg id="katman_1" data-name="katman 1" xmlns="http://www.w3.org/2000/svg" viewBox="0 0 623.77 193.9">
  <defs>
    <style>
      .cls-1 {
        fill: #056734;
        stroke-width: 0px;
      }
    </style>
  </defs>
  <path class="cls-1" d="m151.24,158.7c0,7.2-1.21,12.38-3.64,15.55-2.43,3.17-5.83,4.75-10.2,4.75s-7.78-1.58-10.2-4.75c-2.43-3.17-3.64-8.35-3.64-15.55v-41.67h-14.37v42.32c0,11.08,2.48,19.61,7.45,25.59,4.97,5.97,11.86,8.96,20.67,8.96s15.7-2.99,20.67-8.96c4.97-5.97,7.45-14.5,7.45-25.59v-42.32h-14.2v41.67Z"/>
  <polygon class="cls-1" points="217.79 144.67 217.79 134.52 176.62 134.52 176.62 147.47 200.31 147.47 176 182.45 176 192.6 218.58 192.6 218.58 179.65 193.47 179.65 217.79 144.67"/>
  <path class="cls-1" d="m268.4,137.33c-3.58-2.45-7.62-3.67-12.11-3.67-4.02,0-7.54,1.08-10.56,3.24-1.42,1.02-2.69,2.29-3.82,3.81v-28.2h-13.84v80.11h13.22v-6.74c1.19,1.77,2.58,3.23,4.17,4.36,3.02,2.16,6.62,3.24,10.82,3.24,4.49,0,8.53-1.24,12.11-3.72,3.58-2.48,6.42-5.95,8.52-10.42,2.1-4.46,3.15-9.72,3.15-15.76s-1.05-11.41-3.15-15.87c-2.1-4.46-4.94-7.92-8.52-10.36Zm-3.99,34.82c-1.1,2.41-2.54,4.26-4.35,5.56-1.81,1.3-3.86,1.94-6.17,1.94s-4.38-.65-6.21-1.94c-1.83-1.29-3.28-3.15-4.35-5.56-1.06-2.41-1.6-5.27-1.6-8.58s.53-6.26,1.6-8.64c1.06-2.38,2.51-4.21,4.35-5.51,1.83-1.3,3.9-1.94,6.21-1.94s4.36.65,6.17,1.94c1.8,1.29,3.25,3.13,4.35,5.51,1.09,2.38,1.64,5.25,1.64,8.64s-.55,6.17-1.64,8.58Z"/>
  <path class="cls-1" d="m324.47,137.27c-3.76-2.41-7.97-3.62-12.64-3.62s-9.2,1.28-13.04,3.83c-3.85,2.56-6.88,6.08-9.09,10.58-2.22,4.5-3.33,9.66-3.33,15.49s1.12,10.89,3.37,15.39c2.25,4.5,5.43,8.04,9.54,10.63,4.11,2.59,8.89,3.89,14.33,3.89,4.32,0,8.13-.81,11.44-2.43,3.31-1.62,6.06-3.94,8.25-6.96l-7.36-9.72c-1.6,1.87-3.36,3.28-5.28,4.21-1.92.94-4.16,1.4-6.7,1.4-2.84,0-5.31-.63-7.41-1.89-2.1-1.26-3.73-3.09-4.88-5.51-.63-1.31-1.07-2.73-1.35-4.26h36.09c.06-.72.12-1.49.18-2.32.06-.83.09-1.57.09-2.21,0-6.26-1.1-11.64-3.28-16.14-2.19-4.5-5.16-7.95-8.92-10.36Zm-18.81,11.01c1.8-1.26,3.89-1.89,6.25-1.89s4.44.63,6.21,1.89c1.78,1.26,3.16,3.01,4.17,5.24.66,1.48,1.09,3.14,1.31,4.97h-23.46c.23-1.8.65-3.45,1.29-4.91,1-2.27,2.41-4.03,4.21-5.29Z"/>
  <polygon class="cls-1" points="397.09 134.52 380.59 134.52 360.36 157.86 360.36 112.49 346.52 112.49 346.52 192.6 360.36 192.6 360.36 177.86 367.04 169.86 382.1 192.6 398.86 192.6 377.21 159.11 397.09 134.52"/>
  <path class="cls-1" d="m412.26,108.28c-2.19,0-3.98.86-5.37,2.59-1.39,1.73-2.08,3.89-2.08,6.48s.69,4.86,2.08,6.59c1.39,1.73,3.18,2.59,5.37,2.59s3.9-.86,5.32-2.59c1.42-1.73,2.13-3.92,2.13-6.59s-.71-4.75-2.13-6.48c-1.42-1.73-3.19-2.59-5.32-2.59Z"/>
  <rect class="cls-1" x="405.34" y="134.52" width="13.84" height="58.08"/>
  <path class="cls-1" d="m465.54,162.1c-1.69-1.19-3.56-2.11-5.63-2.75-2.07-.65-4.12-1.13-6.17-1.46-2.04-.32-3.92-.7-5.63-1.13-1.72-.43-3.09-1.01-4.13-1.73-1.04-.72-1.55-1.8-1.55-3.24,0-1.58.71-2.88,2.13-3.89,1.42-1.01,3.67-1.51,6.74-1.51,2.19,0,4.45.31,6.79.92,2.34.61,4.66,1.75,6.97,3.4l4.61-11.98c-2.25-1.66-5.06-2.92-8.43-3.78-3.37-.86-6.68-1.3-9.94-1.3-4.61,0-8.58.81-11.89,2.43-3.31,1.62-5.84,3.83-7.59,6.64-1.75,2.81-2.62,6.05-2.62,9.72,0,3.31.52,6.01,1.55,8.1,1.03,2.09,2.41,3.74,4.12,4.97,1.72,1.22,3.61,2.14,5.68,2.75,2.07.61,4.12,1.1,6.17,1.46,2.04.36,3.92.72,5.63,1.08,1.72.36,3.09.88,4.13,1.57,1.03.68,1.55,1.71,1.55,3.08,0,1.66-.67,2.95-2,3.89-1.33.94-3.59,1.4-6.79,1.4-2.9,0-5.84-.52-8.83-1.57-2.99-1.04-5.58-2.39-7.76-4.05l-4.61,12.09c2.19,1.8,5.16,3.29,8.92,4.48,3.76,1.19,7.68,1.78,11.76,1.78,4.79,0,8.86-.79,12.2-2.38,3.34-1.58,5.9-3.76,7.67-6.53,1.77-2.77,2.66-5.95,2.66-9.55,0-3.31-.53-5.99-1.6-8.04-1.07-2.05-2.44-3.67-4.13-4.86Z"/>
  <path class="cls-1" d="m501.87,180.08c-1.83,0-3.28-.66-4.35-2-1.07-1.33-1.6-3.22-1.6-5.67v-23.64h11.89v-12.96h-11.89v-14.14h-13.84v14.14h-7.36v12.96h7.36v23.86c0,6.91,1.57,12.11,4.7,15.6,3.13,3.49,7.51,5.24,13.13,5.24,2.13,0,4.18-.31,6.17-.92,1.98-.61,3.68-1.53,5.1-2.75l-3.73-11.88c-1.54,1.44-3.4,2.16-5.59,2.16Z"/>
  <path class="cls-1" d="m538.86,133.65c-3.79,0-7.51.61-11.18,1.83-3.67,1.22-6.8,2.95-9.4,5.18l4.97,11.77c1.72-1.65,3.8-2.97,6.25-3.94,2.45-.97,4.95-1.46,7.5-1.46,3.73,0,6.49,1.01,8.29,3.02,1.8,2.01,2.71,4.82,2.71,8.42h-11c-4.85,0-8.78.74-11.8,2.21-3.02,1.48-5.22,3.51-6.61,6.1-1.39,2.59-2.08,5.61-2.08,9.07s.71,6.3,2.13,8.96c1.42,2.66,3.46,4.77,6.12,6.32,2.66,1.55,5.86,2.32,9.58,2.32,4.2,0,7.63-.97,10.29-2.92,1.8-1.32,3.22-3.06,4.26-5.2v7.25h12.95v-33.14c0-8.85-2.01-15.37-6.03-19.54-4.02-4.17-9.67-6.26-16.95-6.26Zm5.15,46.48c-1.83,1.33-3.9,2-6.21,2-2.43,0-4.33-.63-5.72-1.89-1.39-1.26-2.08-2.97-2.08-5.13,0-1.94.61-3.56,1.82-4.86,1.21-1.29,3.44-1.94,6.7-1.94h9.49v5.94c-.83,2.59-2.16,4.55-3.99,5.88Z"/>
  <path class="cls-1" d="m621.2,144.83c-1.72-3.78-4.07-6.59-7.05-8.42-2.99-1.83-6.37-2.75-10.16-2.75-4.08,0-7.72,1.04-10.91,3.13-1.89,1.23-3.51,2.79-4.88,4.65v-6.92h-13.22v58.08h13.84v-28.72c0-3.6.49-6.55,1.46-8.85.98-2.3,2.34-4.01,4.08-5.13,1.74-1.11,3.71-1.67,5.9-1.67,3.07,0,5.46,1.12,7.14,3.35,1.69,2.23,2.53,5.69,2.53,10.36v30.66h13.84v-33.25c0-5.9-.86-10.74-2.57-14.52Z"/>
  <path class="cls-1" d="m236.28,80.93c3.12.01,6.23,0,9.35,0,.23,0,.45,0,.68-.01.26-.02.41-.16.42-.43.01-.22.02-.45.02-.68,0-3.34,0-6.67,0-10.01,0-.23,0-.45-.02-.68-.02-.27-.19-.4-.44-.41-.32-.02-.63-.01-.95-.01-1.94,0-3.88,0-5.83,0-1.36,0-2.7-.16-4.01-.54-1.61-.46-2.63-1.49-3.07-3.12-.32-1.19-.45-2.39-.45-3.61,0-7.62,0-15.24,0-22.87,0-1.34-.1-1.32,1.33-1.32,4.11,0,8.22,0,12.33,0,.36,0,.72-.01,1.08-.04.2-.02.33-.16.34-.35.02-.31.03-.63.03-.95,0-3.11,0-6.22,0-9.34,0-1.5.11-1.38-1.39-1.38-4.06,0-8.13,0-12.19,0-.36,0-.72,0-1.08-.01-.25-.01-.42-.14-.43-.41,0-.36-.01-.72-.01-1.08,0-3.97,0-7.94,0-11.91,0-.36,0-.72-.02-1.08-.01-.26-.16-.4-.43-.41-.32,0-.63-.01-.95-.01-3.3,0-6.59,0-9.89,0-.27,0-.54,0-.81,0-.54.02-.61.08-.67.62-.28,2.51-.56,5.02-.84,7.53-.21,1.88-.39,3.77-.65,5.64-.16,1.16.12,1.12-1.31,1.12-5.64,0-11.29,0-16.93,0-.18,0-.36,0-.54,0-.66-.02-.71-.06-.71-.68,0-2.07,0-4.15.01-6.22,0-.49.04-.99.12-1.48.45-2.71,1.79-3.72,3.79-4.21.35-.08.71-.13,1.07-.18,1.3-.18,2.61-.12,3.92-.13.5,0,.99-.02,1.49-.04.2-.01.32-.16.34-.35.02-.27.02-.54.02-.81,0-3.38,0-6.77,0-10.15,0-.31-.04-.63-.07-.94h-9.76c-.01.13-.04.24-.21.27-.58.09-1.16.17-1.74.28-2.6.51-5.02,1.42-7.22,2.92-1.79,1.22-3.16,2.8-4.13,4.74-.79,1.59-1.29,3.27-1.6,5-.33,1.87-.45,3.76-.47,5.65-.01,1.85,0,3.7,0,5.55,0,.75-.02.77-.75.77-1.63,0-3.25,0-4.88,0-.45,0-.9,0-1.35,0-.56.02-.64.08-.64.63,0,3.56,0,7.13,0,10.69,0,.65.07.73.69.73,1.58.01,3.16-.02,4.74.02.7.02,1.43-.18,2.11.17.21.66.1,1.34.1,2,0,13.26,0,26.52,0,39.78,0,.45,0,.9.03,1.35.01.2.15.32.35.34.22.02.45.03.67.03,4.11,0,8.22,0,12.33,0,.23,0,.45,0,.68-.02.2-.02.33-.15.34-.35.02-.45.03-.9.03-1.35,0-13.39,0-26.79,0-40.18,0-.45,0-.9.03-1.35.01-.26.18-.4.44-.41.32-.01.63-.02.95-.02,5.51,0,11.02,0,16.53,0,1.6,0,1.44-.12,1.44,1.47,0,7.44,0,14.88,0,22.32,0,1.72.07,3.43.29,5.13.23,1.84.65,3.64,1.34,5.36,1.04,2.59,2.7,4.66,5.08,6.16,1.46.92,3,1.65,4.65,2.15,2.39.72,4.84,1.08,7.34,1.09Z"/>
  <path class="cls-1" d="m93.84,143.56c-3.05.65-6.13.43-9.19.5-.85.02-1.69.04-2.54.09-1.92.11-1.38-.15-3.03,1.1-11.47,8.69-22.93,17.39-34.39,26.09-6.21,4.71-12.42,9.43-18.64,14.13-.99.75-2.02,1.46-3.07,2.14-1.26.82-2.64,1.26-4.16,1.27-1.65.01-3.3.1-4.95.11-3.74.03-7.49.2-11.23-.1-.88-.07-1.76-.2-2.64-.3v4.01c.53,0,1.07.03,1.6.03,30.14,0,60.28,0,90.41,0,.4,0,.8,0,1.2,0,.13,0,.27,0,.4-.02.2-.03.31-.16.31-.36.01-.36.02-.71.02-1.07,0-3.03,0-6.06,0-9.08,0-12.33,0-24.67,0-37,0-.48.09-.97-.11-1.52Z"/>
  <path class="cls-1" d="m.78,178.05c.69.98,1.65,1.42,2.83,1.53.93.09,1.87.15,2.8.15,3.26.01,6.51.02,9.77.02.67,0,1.38.12,1.99-.09.6-.2,1.11-.72,1.64-1.12,14.55-11.05,29.1-22.1,43.65-33.14,3.91-2.96,7.85-5.87,11.78-8.81,1.13-.85,2.39-1.35,3.79-1.53.89-.11,1.77-.18,2.67-.2,2.94-.07,5.88-.17,8.83-.2.72,0,1.29-.22,1.84-.63.47-.35.87-.77,1.2-1.24.24-.33.39-.68.39-1.11-.02-1.2,0-2.4,0-3.61,0-.27-.05-.52-.21-.75-.65-.95-1.47-1.65-2.64-1.9-.71-.15-1.42-.17-2.13-.17-3.88-.01-7.76,0-11.64-.04-.61,0-1.14.1-1.59.53-.13.12-.28.22-.42.33-17.63,13.4-35.26,26.81-52.89,40.21-.99.75-2,1.49-3.04,2.17-1.2.79-2.53,1.29-3.97,1.49-.84.12-1.68.2-2.53.21-2.01.02-4.01.02-6.02.04-.89,0-1.78.04-2.67.07-1.42.05-2.58.63-3.47,1.73-.2.24-.39.49-.72.55v4.81c.34.15.58.4.78.7Z"/>
  <path class="cls-1" d="m3.78,166.94c3.25-.02,6.51-.09,9.76-.2,2.05-.08,3.76-.72,5.4-1.96,13.35-10.19,26.72-20.34,40.1-30.5,4.9-3.72,9.82-7.4,14.71-11.13,1-.76,2.06-1.14,3.33-1.14,4.77.03,9.54.01,14.31,0,.51,0,.95.14,1.4.36.34.17.65.48,1.17.36,0-.53,0-1.06,0-1.59,0-1.17-.05-1.22-1.12-1.65-.39-.16-.79-.13-1.18-.13-5.17,0-10.34,0-15.51-.01-.7,0-1.32.13-1.91.47-.38.22-.77.44-1.13.7-.98.7-1.95,1.4-2.92,2.12-14.4,10.71-28.66,21.62-42.95,32.49-3.26,2.48-6.52,4.96-9.83,7.39-2.19,1.61-2.46,1.64-5.19,1.7-.49.01-.98.02-1.47.02-1.47,0-2.94.03-4.41,0-2.15-.03-4.27.09-6.32.82v2.94c.49.07.85-.23,1.23-.44.8-.44,1.63-.61,2.55-.62Z"/>
  <path class="cls-1" d="m.63,185.08c1.31.53,2.69.59,4.07.59,4.55-.01,9.1-.04,13.64-.02.94,0,1.75-.24,2.52-.71.38-.23.74-.5,1.1-.76,2.37-1.75,4.74-3.48,7.09-5.25,14.36-10.86,28.71-21.72,43.07-32.58,2.06-1.56,4.14-3.1,6.2-4.66.59-.45,1.22-.72,1.96-.75.89-.04,1.78-.13,2.67-.15,1.87-.04,3.75-.04,5.62-.09,1.16-.03,2.31-.14,3.47-.2.54-.03,1.05-.2,1.54-.42.16-.07.33-.18.34-.38.02-.44.03-.89.03-1.33,0-.42.07-.86-.11-1.35-.32.14-.57.23-.79.37-.82.54-1.73.64-2.68.64-2.05,0-4.1.03-6.15.08-1.34.03-2.67.14-4.01.17-1.16.03-2.16.44-3.08,1.13-1.53,1.15-3.11,2.24-4.64,3.4-14.04,10.62-28.06,21.25-42.09,31.88-3.09,2.34-6.18,4.68-9.25,7.05-1.03.8-2.17,1.21-3.45,1.24-1.47.03-2.94.05-4.41.05-3.03,0-6.06-.06-9.1-.03-1.27.01-2.48-.08-3.57-.82-.18-.12-.41-.18-.61-.26v3.21c.21-.15.42-.11.63-.02Z"/>
  <path class="cls-1" d="m165.1,16.65c1.38.51,2.81.59,4.26.56,4.29-.09,8.89-3.58,8.25-9.31-.15-1.38-.61-2.63-1.48-3.71-1.37-1.7-3.09-2.87-5.28-3.25-.21-.04-.46-.02-.58-.26h-2.44c-.53.1-1.06.17-1.58.3-2.63.63-4.73,2.02-5.87,4.54-1.6,3.52-.84,9.1,4.73,11.15Z"/>
  <path class="cls-1" d="m2.21,96.16c30.1,0,60.19,0,90.29,0,.36,0,.71,0,1.07,0,.57-.02.63-.07.64-.6.01-.4,0-.8,0-1.2,0-14.92,0-29.84,0-44.75s0-30.19,0-45.29c0-1.95.23-1.69-1.71-1.69-30.1,0-60.19,0-90.29,0-1.86,0-1.66-.21-1.66,1.62,0,30.1,0,60.2,0,90.31,0,1.84-.25,1.61,1.65,1.61ZM31.73,31.35c.47-.7.9-1.43,1.39-2.12,3.62-5.02,7.38-9.93,11.17-14.82,1.15-1.48,2.61-1.71,4.29-1.41.5.09.9.39,1.24.74.55.58,1.11,1.16,1.6,1.79,2.2,2.86,4.39,5.72,6.56,8.6,1.34,1.78,2.65,3.58,3.95,5.38.47.65.86,1.35,1.29,2.03.88,1.41.54,2.79-.35,3.98-.9,1.2-2.2,1.75-3.75,1.59-.85-.08-1.55-.44-2.1-1.05-.72-.79-1.42-1.6-2.07-2.45-1.74-2.26-3.44-4.54-5.17-6.81-.73-.95-1.48-1.89-2.34-3-.48.6-.85,1.03-1.2,1.49-1.97,2.58-3.93,5.17-5.91,7.75-.59.78-1.21,1.54-1.84,2.29-.28.34-.6.66-.93.95-.27.23-.57.44-.89.58-1.87.79-4.25-.16-5.09-2-.55-1.21-.63-2.39.15-3.55Zm1.63,14.43c.32-.2.67-.23,1.03-.24.98-.04,1.96-.1,2.94-.1,7.58,0,15.16,0,22.74,0,1.32,0,2.83,1.07,3.27,2.34.6,1.75.38,3.92-1.65,5.15-.52.32-1.03.45-1.63.45-4.24-.01-8.47,0-12.71,0-4.1,0-8.21-.04-12.31.02-1.79.03-2.86-.87-3.52-2.35-1.02-2.31.09-4.21,1.82-5.26Zm-2.07,18.92c.69-2.11,2.43-3.48,4.98-2.87.59.14,1.07.44,1.47.87.58.62,1.15,1.24,1.67,1.91,1.45,1.86,2.86,3.75,4.29,5.63.92,1.2,1.84,2.4,2.77,3.6.22.28.44.56.68.82.18.19.39.18.57-.03.34-.41.68-.82,1.01-1.24,1.7-2.23,3.39-4.46,5.09-6.69.65-.85,1.3-1.7,1.97-2.53.39-.48.86-.91,1.24-1.4,1.27-1.67,5.16-1.35,6.21,1.13.54,1.28.67,2.48-.14,3.67-.57.85-1.11,1.72-1.71,2.55-3.09,4.25-6.24,8.45-9.46,12.6-.57.74-1.19,1.44-1.82,2.13-.72.81-1.6,1.27-2.72,1.1-1.08.15-1.92-.31-2.61-1.07-.48-.52-.97-1.05-1.4-1.61-3.91-5.02-7.72-10.12-11.39-15.32-.1-.15-.21-.29-.3-.44-.57-.87-.71-1.8-.39-2.8Z"/>
  <path class="cls-1" d="m434.29,49.33c-.56-4.86-2.17-9.33-4.95-13.35-3.98-5.75-9.33-9.54-16.2-11.07-3.53-.79-7.1-.87-10.68-.32-2.57.4-5.02,1.17-7.23,2.6-2.38,1.53-4.5,3.36-6.29,5.55-.17.21-.29.47-.57.57-.29-.2-.29-.53-.34-.82-.38-1.91-.76-3.81-1.12-5.73-.26-1.38-.33-1.12-1.37-1.15-.05,0-.09,0-.14,0-8.52,0-17.05,0-25.57,0-1.3,0-1.06-.21-1.88.94-.05.07-.1.15-.16.22-4.17,5.87-8.34,11.74-12.52,17.6-.23.32-.39.7-.79.9-.41-.26-.6-.68-.86-1.04-4.25-5.92-8.51-11.84-12.74-17.78-.44-.62-.89-.88-1.66-.87-4.49.04-8.98.02-13.46.02-.24,0-.54-.14-.72.2.12.44.45.76.72,1.12,6.2,8.54,12.4,17.07,18.61,25.61.84,1.16.83.96.02,2.07-5.7,7.84-11.39,15.68-17.09,23.52-.21.29-.43.56-.64.84-.09-.02-.17-.05-.26-.07v-1.2c0-2.04,0-4.07,0-6.11,0-1.87.2-1.66-1.67-1.66-11.29,0-22.58,0-33.86,0-.41,0-.82,0-1.22-.02-.26-.01-.41-.17-.41-.44,0-.36-.01-.72-.01-1.09,0-6.52,0-13.04,0-19.56,0-1.82-.26-1.68,1.66-1.68,10.06,0,20.13,0,30.19,0,.36,0,.73,0,1.09,0,.79-.02.79-.03.81-.87,0-.27,0-.54,0-.81,0-2.63,0-5.25,0-7.88,0-1.93.24-1.68-1.63-1.68-10.15,0-20.31,0-30.46,0-.41,0-.82,0-1.22-.02-.26-.01-.41-.17-.42-.43-.01-.41-.02-.81-.02-1.22,0-6.11,0-12.22,0-18.34,0-1.88-.22-1.67,1.65-1.67,11.29,0,22.58,0,33.86,0,.41,0,.82,0,1.22-.01.25-.01.42-.16.42-.43,0-.36.01-.72.01-1.09,0-2.81,0-5.61,0-8.42,0-1.78.25-1.66-1.69-1.66-16.09,0-32.19,0-48.28,0-1.91,0-1.65-.15-1.65,1.68,0,25.22,0,50.44,0,75.66,0,.36,0,.72,0,1.09,0,.32.14.51.48.52.41,0,.82,0,1.22,0,20.76,0,41.53,0,62.29,0,.27,0,.55-.02.82,0,.51.05.87-.15,1.12-.59.11-.2.26-.37.39-.55,4.17-5.81,8.34-11.63,12.51-17.44,1.02-1.42.85-1.33,1.84.04,4.12,5.79,8.24,11.59,12.36,17.38.99,1.39.65,1.15,2.18,1.15,4.03.01,8.07,0,12.1,0,.36,0,.73,0,1.09,0,.57.02.63.08.65.62.01.36,0,.72,0,1.09,0,7.15,0,14.31,0,21.46,0,.36,0,.72,0,1.09,0,.32.13.52.47.52.36,0,.73,0,1.09,0,3.76,0,7.53,0,11.29,0,1.82,0,1.57.18,1.59-1.6,0-1.22,0-2.44,0-3.67,0-8.47,0-16.93,0-25.4,0-.44-.04-.88.04-1.32.46.04.56.38.74.61,3.19,3.99,7.33,6.39,12.31,7.4,3.14.64,6.29.7,9.47.3,4.02-.5,7.77-1.77,11.13-4.03,5.8-3.9,9.59-9.27,11.45-15.99,1.21-4.37,1.4-8.83.88-13.33Zm-60.47,29.9v1.32c-.09.02-.17.05-.26.07-.19-.24-.4-.48-.58-.74-6.17-8.44-12.34-16.88-18.5-25.32-.13-.18-.26-.37-.41-.54-.24-.29-.22-.57,0-.86.19-.25.38-.51.56-.77,6.04-8.26,12.07-16.51,18.11-24.77.26-.36.54-.72.79-1.05.31.03.29.22.29.39,0,.32,0,.63,0,.95,0,17.1,0,34.2,0,51.31Zm44.69-18.41c-2.38,5.64-6.77,8.78-12.91,9.37-.59.06-1.17.07-1.76.1-2.34-.03-4.6-.4-6.74-1.37-3.93-1.77-6.59-4.74-7.99-8.77-1.5-4.32-1.49-8.7-.02-13.05,1.64-4.81,6.32-9.8,13.64-10.15,2.42-.12,4.8.06,7.08.96,4.03,1.59,6.96,4.41,8.62,8.38,2,4.79,2.11,9.74.09,14.53Z"/>
  <path class="cls-1" d="m94.21,100.81c0-2.03.27-1.74-1.79-1.74-28.99,0-57.98,0-86.97,0-1.25,0-2.5,0-3.75,0-1.18,0-1.16-.06-1.16,1.18,0,4.9,0,9.8,0,14.7,0,14.92,0,29.84,0,44.76,0,.53-.09,1.07.11,1.61.18,0,.36.03.53,0,1.18-.28,2.39-.32,3.59-.34,2.1-.04,4.19-.06,6.29-.08.85,0,1.69,0,2.54,0,.36,0,.71-.02,1.02-.24,1.04-.76,2.09-1.52,3.13-2.28.23-.17.34-.4.34-.69,0-.36,0-.71.01-1.07.03-4.81.08-9.62.07-14.43,0-.97.19-1.84.67-2.67.27-.46.52-.94.84-1.36.4-.53.86-1.02,1.3-1.53.37-.43.37-.5.01-.87-.09-.1-.2-.18-.29-.28-1.44-1.61-2.46-3.39-2.27-5.65.02-.22.02-.45,0-.67-.17-1.61.44-2.98,1.38-4.21,1.65-2.16,3.72-3.58,6.59-3.38.13,0,.27,0,.4,0,1.73-.09,3.24.51,4.59,1.54,2.24,1.71,3.39,4.01,3.3,6.81-.06,2.12-.91,3.99-2.35,5.54-.71.77-.65.77,0,1.48.24.26.47.53.7.8,1.01,1.19,1.61,2.55,1.75,4.11.08.84.14,1.69.22,2.53.02.2-.08.45.2.56.35-.03.55-.28.79-.47,1.99-1.5,3.99-3,5.97-4.52,1.37-1.05,1.11-.65,1.14-2.29.04-2.4,0-4.81.11-7.21.04-1.02.78-1.43,1.53-1.51.86-.1,1.35.26,1.54,1.11.15.65.19,1.32.19,1.99.01,1.2.03,2.41.06,3.61.01.53.19.6.66.28.26-.18.51-.36.76-.55,2.02-1.54,4.04-3.08,6.06-4.62.74-.57,1.48-1.15,2.23-1.71.35-.26.54-.55.53-1-.04-1.42-.02-2.85-.08-4.27-.1-2.23-1.39-3.62-3.36-4.38-2.61-1.01-5.43.4-6.54,3.09-.1.25-.13.52-.24.76-.4.91-1.21,1.3-2.05,1.03-.84-.27-1.22-.92-1.07-1.9.09-.57.26-1.13.51-1.65.39-.8.88-1.55,1.48-2.22.27-.3.53-.6.79-.91.17-.2.18-.4.02-.6-.11-.14-.24-.26-.37-.39-1.96-1.98-2.65-4.38-2.27-7.1.52-3.72,3.98-7.11,7.98-6.81.4.03.8.04,1.2.05,1.2.02,2.26.43,3.25,1.09,1.05.7,1.92,1.59,2.62,2.64.68,1.03,1.09,2.13,1.04,3.39-.02.44-.02.89,0,1.34.09,1.98-.58,3.66-1.95,5.09-.33.34-.62.72-.94,1.11.33.35.6.64.89.92,1.05,1.02,1.76,2.24,2.07,3.67.19.87.3,1.75.45,2.63.06.34-.09.82.22.99.42.24.69-.26.99-.48,2.71-2.03,5.4-4.08,8.11-6.12.89-.67,1.8-1.31,2.78-1.85.94-.52,1.93-.93,3.02-1.01,1.11-.09,2.22-.2,3.34-.2,3.57-.03,7.14-.04,10.7,0,1.55.02,3.12.09,4.73.43.2-.52.12-.97.12-1.41,0-4.72.01-9.44,0-14.16Z"/>
  <path class="cls-1" d="m451.83,80.15c5.41,2.32,11.1,2.77,16.87,1.69,9.31-1.74,16.07-6.9,20.18-15.43,1.98-4.11,2.68-8.5,2.73-13.24-.06-2.56-.25-5.33-1.01-8.02-2.61-9.15-8.19-15.68-17.18-19.07-4.97-1.87-10.12-2.15-15.35-1.3-11.97,1.95-19.36,10.66-21.93,19.38-1.65,5.61-1.73,11.31-.39,16.98,2.14,9.02,7.59,15.37,16.08,19.01Zm-1.53-33.34c1.45-5.12,4.79-8.43,9.95-9.72,3.85-.96,7.46-.2,10.7,2.14,3.09,2.23,4.91,5.27,5.65,8.98.33,1.67.44,3.37.5,5.03-.06,2.51-.25,4.96-1.05,7.32-1.58,4.67-4.75,7.74-9.53,8.99-6.67,1.74-13.42-1.92-15.71-8.06-.69-1.86-1.07-3.79-1.23-5.75-.25-3.01-.11-6,.72-8.92Z"/>
  <path class="cls-1" d="m109.2,79.13c0,.32,0,.65,0,.97.02.77.06.81.76.83.37.01.74,0,1.12,0,14.64,0,29.28,0,43.91,0,1.3,0,2.6,0,3.9,0,.23,0,.47,0,.69-.04.11-.02.25-.15.27-.26.05-.22.05-.46.05-.69,0-3.25,0-6.5,0-9.75,0-.23-.04-.46-.06-.72-.56-.2-1.12-.12-1.67-.12-10.78,0-21.56,0-32.34,0-.46,0-.93-.01-1.39-.04-.21-.01-.35-.14-.36-.35-.03-.51-.04-1.02-.04-1.53,0-21.86,0-43.72,0-65.58,0-.46,0-.93-.02-1.39,0-.26-.16-.44-.42-.46-.37-.02-.74-.02-1.11-.02-3.81,0-7.62,0-11.43,0-2.15,0-1.85-.19-1.85,1.86,0,25.76,0,51.51,0,77.27Z"/>
  <path class="cls-1" d="m176.1,79.41c0-18.1,0-36.2,0-54.3,0-.23,0-.46,0-.7.02-.76-.16-.84-.77-.83-.14,0-.28,0-.42,0-4.18,0-8.36,0-12.55,0-.23,0-.46,0-.7.01-.21.01-.36.14-.37.34-.03.46-.04.93-.04,1.39,0,14.15,0,28.31,0,42.46,0,3.85,0,7.7,0,11.56,0,.5-.11,1.02.14,1.5.37.17.74.1,1.11.1,4,0,7.99,0,11.99,0,1.76,0,1.6.18,1.6-1.53Z"/>
  <path class="cls-1" d="m21.18,143.98c-.01,3.56-.02,7.12-.02,10.69,0,.2-.09.44.13.61.36.04.56-.23.79-.41,2.84-2.15,5.68-4.31,8.52-6.47.14-.11.28-.22.42-.32.24-.17.33-.4.33-.69-.02-1.6.08-3.21-.06-4.81-.35-4.02-4.04-5.19-6.52-4.46-1.97.58-3.31,2.21-3.51,4.25-.05.53-.07,1.07-.07,1.6Z"/>
  <path class="cls-1" d="m31.09,129.59c.09-2.27-1.64-4.83-4.8-4.81-3.35.02-4.91,2.6-4.89,4.73.03,2.83,2.18,5.12,4.93,5.01,2.53-.1,4.8-2.12,4.76-4.94Z"/>
  <path class="cls-1" d="m51.63,105.95c-2.89-.01-5,1.9-5.14,4.67-.14,2.8,2.78,5.09,4.72,5.05,2.89-.05,4.94-2.01,4.99-4.96.3-2.3-2.11-4.75-4.56-4.77Z"/>
</svg>