<?xml version="1.0" encoding="UTF-8"?>
<svg id="katman_1" xmlns="http://www.w3.org/2000/svg" viewBox="0 0 1448.01 564">
  <defs>
    <style>
      .cls-1 {
        fill: #0e6948;
      }
    </style>
  </defs>
  <path class="cls-1" d="M277.27,0H.88v277.62h276.4V0ZM166.57,218.94l-.7,1.05c-16.64,22.24-19.79,26.45-23.47,27.15-.88.18-1.93.18-3.15.18h-.18c-1.23,0-2.1,0-2.98-.18-3.85-.88-7.01-5.08-23.47-27.15l-.7-1.05c-10.68-14.36-19.62-26.97-20.14-28.02-.35-1.23-.7-2.8-.7-3.5-.18-4.73,3.5-10.16,7.71-11.56,1.23-.35,3.33-.7,4.73-.53,5.78.35,6.31.88,21.19,20.84,7.53,10.16,14.01,18.57,14.36,18.57s6.66-8.41,14.36-18.57c15.24-20.32,15.59-20.84,21.72-20.84s9.98,3.15,11.56,8.93c1.58,5.43,1.23,5.96-20.14,34.68ZM91.61,135.39c.88-3.15,4.55-7.01,7.36-7.88,1.23-.35,17.52-.53,41.16-.53l39.06.18,2.45,1.58c3.68,2.45,5.25,5.43,5.25,10.16s-1.58,7.71-5.25,10.16l-2.45,1.58h-80.05l-2.28-1.4c-4.55-2.8-6.66-8.41-5.25-13.84ZM186.89,93.01c-1.05,4.03-2.98,6.31-6.66,7.88-2.45,1.23-3.85,1.4-5.78,1.23-5.6-.7-6.13-1.23-20.84-21.02-7.53-10.16-14.01-18.57-14.36-18.57s-6.66,8.41-14.36,18.57c-15.24,20.32-15.59,20.84-21.72,20.84s-9.98-3.15-11.56-8.93c-1.58-5.08-1.23-5.78,19.97-34.16,10.68-14.19,19.97-26.1,20.67-26.62.35-.18.7-.35,1.23-.7.7-.35,1.23-.7,1.93-.88,1.05-.35,2.98-.7,4.55-.53,1.05,0,1.93.18,2.63.35,3.85.88,6.83,5.08,24,27.85l.18.18c21.37,28.55,21.72,29.25,20.14,34.51Z"/>
  <path class="cls-1" d="M.7,471.52c4.9-1.4,10.33-1.75,23.65-1.75h16.81l2.63-1.93c1.4-1.05,4.03-2.8,5.6-4.03l2.98-2.28.35-51.32,1.75-3.68c1.05-2.1,3.15-5.25,4.73-7.01l2.98-3.33-2.28-2.28c-1.23-1.23-3.33-4.2-4.38-6.48-1.93-4.03-2.1-4.73-2.1-10.86s.18-6.83,2.1-10.51c2.45-4.73,6.48-8.76,11.39-11.21,3.33-1.75,4.2-1.93,10.16-1.93s6.83.18,10.86,2.1c10.51,5.25,15.94,17.17,12.79,28.2-1.23,4.2-3.85,8.93-6.48,11.39l-1.58,1.58,2.98,3.33c4.55,5.08,6.13,9.28,6.66,16.99l.35,6.48,23.82-18.22v-13.31c0-7.36.18-13.84.35-14.36.7-1.58,3.85-2.98,5.78-2.63,3.15.7,3.68,2.45,3.68,12.61,0,5.25.18,9.46.53,9.28.35,0,7.01-5.08,15.24-11.39l14.71-11.39v-8.58c0-9.81-.88-12.26-5.43-16.29-4.9-4.2-11.74-4.73-17.52-1.4-2.98,1.75-6.66,6.66-6.66,8.93,0,.53-.53,1.93-1.4,2.8-1.75,2.1-5.08,2.45-7.18.35-2.8-2.8-.53-10.16,5.08-16.46l2.98-3.33-2.45-2.45c-7.71-7.88-8.76-21.19-2.28-30.48,2.98-4.55,5.96-6.83,11.03-8.93,3.33-1.4,4.73-1.58,9.81-1.4,4.9.18,6.48.53,9.63,1.93,4.55,2.28,9.11,6.83,11.39,11.56,1.58,3.33,1.75,4.38,1.75,10.68,0,8.06-1.05,10.86-5.96,16.29l-2.8,3.15,2.98,2.98c4.2,4.2,6.13,8.76,7.01,16.29l.88,6.31,16.11-12.26c16.81-12.96,19.97-14.89,25.92-16.46,5.43-1.4,49.92-1.4,55.52,0,.35.18.88.18,1.23.35.18,0,.35.18.53.18s.35.18.7.18v-51.67H.7v185.66Z"/>
  <path class="cls-1" d="M6.13,487.98l19.09-.35c20.14-.35,21.89-.7,26.62-4.03,1.23-.88,38.53-29.43,83.02-63.41l15.41-11.74c67.26-51.5,68.84-52.72,70.76-53.25h.18q.18,0,.35-.18c1.4-.53,9.81-.7,25.57-.53l23.65.18,3.85,1.93c.18.18.35.18.53.35.35.18.88.53,1.23.7v-8.76l-4.2-2.1h-51.15l-3.68,1.75c-2.98,1.4-64.46,47.99-157.46,119.46-7.88,5.96-14.19,10.51-15.94,11.03-2.28.88-6.48,1.05-19.62,1.05-15.06,0-19.27.18-24.35,2.45v8.93c.7-.35,1.23-.7,1.93-1.05l4.2-2.45Z"/>
  <path class="cls-1" d="M270.26,365.37c-2.45-1.05-4.73-1.23-24.17-1.23h-21.37l-5.43,4.2c-.53.53-2.45,1.93-5.43,4.2-11.56,8.76-39.41,30.13-70.06,53.6-38.53,29.43-73.92,56.58-78.47,59.9-14.54,11.21-16.29,11.56-39.94,11.56-15.24,0-16.64,0-19.09,1.4-2.63,1.4-4.73,3.33-6.13,5.78v14.01c.35.7.88,1.58,1.58,2.28,3.68,4.55,4.38,4.73,29.25,4.73h22.07l84.07-64.28c46.24-35.38,85.3-64.81,86.7-65.51,6.31-2.98,7.71-3.15,26.97-3.68l18.39-.35,2.8-1.93c1.58-1.23,3.33-3.15,4.55-5.43v-13.31c-1.4-2.63-3.68-4.9-6.31-5.96Z"/>
  <path class="cls-1" d="M32.75,543.33l23.82-.18,3.5-1.75c2.1-1.05,39.23-29.08,86.35-64.98,45.54-34.86,83.9-63.93,85.13-64.81,2.28-1.4,3.33-1.4,21.02-1.75,16.99-.35,18.92-.53,22.07-1.75.53-.18,1.05-.35,1.58-.7v-8.93c-.35.35-.88.7-1.58,1.05l-4.38,2.1-18.39.35c-16.29.35-18.57.53-21.54,1.75-2.98,1.23-32.93,23.82-168.5,127.69-5.6,4.2-5.78,4.2-32.23,4.03l-23.82-.18-4.03-1.93c-.53-.35-1.23-.7-1.75-1.05v8.76c1.75.7,3.5,1.4,5.25,1.75,2.63.53,10.68.7,27.5.53Z"/>
  <path class="cls-1" d="M236.28,420.55c-1.23.7-32.05,24.17-126.29,96.34-42.04,32.23-42.74,32.58-48.17,34.68-3.85,1.4-4.9,1.4-29.6,1.58-20.67.18-26.97.18-32.23-1.4v12.26h276.4v-145.9c-4.9,1.58-10.33,1.75-22.95,1.75-10.33,0-16.29.18-17.17.7Z"/>
  <path class="cls-1" d="M156.41,307.75c-5.6-2.45-13.31-.53-16.64,4.03-4.9,6.48-4.55,13.84,1.05,19.44,4.9,4.9,10.33,5.78,16.46,2.63,5.08-2.63,7.36-5.96,7.71-11.91.18-3.5,0-5.08-1.05-7.01-1.75-3.33-4.38-5.96-7.53-7.18Z"/>
  <path class="cls-1" d="M69.89,389.55c4.9,2.63,8.76,2.63,13.31.18,10.33-5.43,10.16-20.67-.35-25.75-5.6-2.8-13.14-1.4-17.34,3.33-2.63,3.15-3.68,6.31-3.33,11.03.35,5.25,2.8,8.76,7.71,11.21Z"/>
  <path class="cls-1" d="M61.65,454l30.13-22.95v-8.76c0-7.36-.18-9.11-1.4-11.56-1.58-3.68-3.5-5.6-6.66-7.36-1.4-.7-4.2-1.4-6.31-1.58-6.13-.53-12.44,3.5-14.89,9.46-.7,1.58-.88,6.83-.88,22.42v20.32Z"/>
  <polygon class="cls-1" points="465.21 206.95 363.62 206.95 363.62 9.37 321.59 9.37 321.59 239.88 465.21 239.88 465.21 206.95"/>
  <path class="cls-1" d="M496.04,51.06c7.71,0,13.84-2.28,18.74-7.01,5.08-4.55,7.53-10.51,7.53-17.52s-2.45-12.79-7.53-17.17c-4.73-4.55-11.03-6.83-18.74-6.83s-14.01,2.28-19.09,6.83c-4.73,4.38-7.18,10.16-7.18,17.17s2.45,12.79,7.18,17.52c5.08,4.73,11.39,7.01,19.09,7.01Z"/>
  <rect class="cls-1" x="475.02" y="76.46" width="42.04" height="163.42"/>
  <path class="cls-1" d="M638.97,182.77c0,21.37,5.08,36.08,15.41,44.49,10.33,8.41,24,12.44,40.99,12.44h28.55v-35.91h-20.32c-8.41,0-14.19-1.4-17.69-4.2-3.33-3.15-4.9-8.58-4.9-16.46v-71.46h43.96v-35.21h-43.96v-43.79h-37.13l-4.9,43.79h-56.58v-19.09c0-6.83,1.58-11.56,4.55-14.54,3.15-2.8,8.23-4.38,15.41-4.38h11.39V2.71h-18.04c-16.99,0-30.65,4.2-40.64,12.44-9.81,8.41-14.71,22.42-14.71,42.21v19.09h-22.24v35.21h22.24v128.04h42.04V111.66h56.58v71.11Z"/>
  <path class="cls-1" d="M1015.73,181.9l40.99,57.98h44.14v72.51h42.04v-94.93c5.6,8.41,13.14,14.89,22.24,19.44,9.11,4.55,19.97,6.83,32.05,6.83,15.24,0,28.9-3.68,40.99-10.86,12.09-7.53,21.54-17.52,28.55-30.3,7.01-12.96,10.51-27.67,10.51-44.14s-3.5-31.18-10.51-44.14c-7.01-12.96-16.46-23.12-28.55-30.65-12.09-7.53-25.75-11.21-40.99-11.21-13.84,0-25.05,2.8-33.8,8.23-8.58,5.43-15.41,11.91-20.67,19.09l-4.55-23.3h-81.45l-40.99,57.98-41.34-57.98h-45.01l59.03,81.62-54.47,75.32v-27.5h-107.9v-66.56h98.09v-32.93h-98.09v-63.23h107.9V9.37h-149.76v230.5h190.22l41.34-57.98ZM1154.97,123.22c8.76-9.28,19.97-13.84,33.45-13.84s24.35,4.55,33.1,13.84c8.76,9.28,13.14,21.02,13.14,35.21s-4.38,25.92-13.14,34.86c-8.76,8.93-19.79,13.49-33.1,13.49s-24.7-4.55-33.45-13.49c-8.58-9.28-12.79-21.02-12.79-35.21s4.2-25.75,12.79-34.86ZM1100.85,78.03v160.27l-58.15-80.05,58.15-80.22Z"/>
  <path class="cls-1" d="M1436.8,113.76c-7.01-12.96-16.99-23.12-29.6-30.3-12.44-7.18-26.45-10.86-42.04-10.86s-29.95,3.68-42.56,10.86c-12.44,7.18-22.42,17.34-29.78,30.3-7.36,12.79-11.21,27.5-11.21,44.49s3.68,31.88,10.86,44.84c7.36,12.79,17.34,22.77,29.78,29.95,12.61,7.18,26.8,10.86,42.56,10.86s29.6-3.68,42.21-10.86c12.61-7.18,22.6-17.17,29.78-29.95,7.36-12.96,11.21-27.85,11.21-44.84s-3.68-31.7-11.21-44.49ZM1393.36,195.04c-8.06,8.06-17.52,12.26-28.55,12.26s-20.49-4.03-28.55-12.26c-7.88-8.41-11.74-20.67-11.74-36.96s3.85-28.38,11.74-36.61c8.06-8.41,17.69-12.44,28.9-12.44s20.14,4.2,28.2,12.44c8.06,8.06,12.09,20.32,12.09,36.61s-4.03,28.55-12.09,36.96Z"/>
  <polygon class="cls-1" points="527.41 342.84 441.95 487.94 355.06 342.84 321.59 342.84 321.59 561.81 360.37 561.81 360.37 418.63 432.32 536.79 450.46 536.79 522.44 416.74 522.72 561.81 561.2 561.81 560.89 342.84 527.41 342.84"/>
  <path class="cls-1" d="M705.71,526.46c-7.51,2.92-15.95,4.38-25.34,4.38-10.85,0-20.44-2.08-28.78-6.26-8.34-4.17-14.81-10.11-19.39-17.83-2.89-4.86-4.87-10.18-5.94-15.95h131.06c.21-1.88.36-3.86.47-5.94.1-2.08.16-3.96.16-5.63,0-17.52-3.65-32.74-10.95-45.67-7.3-12.93-17.31-22.94-30.03-30.03-12.72-7.09-27.21-10.64-43.48-10.64s-31.54,3.65-44.57,10.95c-13.04,7.3-23.26,17.36-30.66,30.19-7.4,12.83-11.11,27.58-11.11,44.26s3.8,31.18,11.42,44.11c7.61,12.93,18.35,23.1,32.22,30.5,13.87,7.4,30.08,11.1,48.64,11.1,14.59,0,27.58-2.35,38.94-7.04,11.36-4.69,20.8-11.42,28.31-20.18l-20.96-24.09c-5.84,6.26-12.51,10.85-20.02,13.76ZM631.42,447.79c4.07-7.4,9.7-13.19,16.89-17.36,7.19-4.17,15.59-6.26,25.18-6.26s17.67,2.09,24.87,6.26c7.19,4.17,12.87,9.91,17.05,17.2,2.95,5.16,4.8,10.9,5.56,17.2h-95.01c.88-6.29,2.69-11.98,5.47-17.05Z"/>
  <polygon class="cls-1" points="922.8 394.77 880.57 394.77 839.46 449.41 798.61 394.77 755.13 394.77 817.51 476.92 752.32 561.81 795.49 561.81 838.79 504.07 881.51 561.81 925.61 561.81 860.28 476.38 922.8 394.77"/>
  <rect class="cls-1" x="938.75" y="394.77" width="39.1" height="167.04"/>
  <path class="cls-1" d="M958.46,323.76c-6.47,0-11.78,2.09-15.95,6.26-4.17,4.17-6.26,9.49-6.26,15.95s2.08,11.78,6.26,15.95c4.17,4.17,9.49,6.26,15.95,6.26s11.52-2.08,15.8-6.26c4.27-4.17,6.41-9.49,6.41-15.95s-2.14-11.78-6.41-15.95c-4.28-4.17-9.54-6.26-15.8-6.26Z"/>
  <path class="cls-1" d="M1063.87,432.31c7.71-4.17,16.37-6.26,25.96-6.26,8.34,0,16.11,1.88,23.3,5.63,7.19,3.75,13.29,9.59,18.3,17.52l30.03-17.52c-6.47-12.72-15.9-22.37-28.31-28.93-12.41-6.57-26.75-9.85-43.01-9.85-17.52,0-33.11,3.65-46.77,10.95-13.66,7.3-24.35,17.36-32.06,30.19-7.72,12.83-11.57,27.58-11.57,44.26s3.86,31.18,11.57,44.11c7.71,12.93,18.4,23.1,32.06,30.5,13.66,7.4,29.25,11.1,46.77,11.1,16.27,0,30.6-3.39,43.01-10.17,12.4-6.77,21.84-16.42,28.31-28.94l-30.03-17.52c-5,7.93-11.1,13.76-18.3,17.52-7.19,3.75-14.97,5.63-23.3,5.63-9.59,0-18.25-2.08-25.96-6.26-7.72-4.17-13.76-10.17-18.14-17.99-4.38-7.82-6.57-17.15-6.57-28s2.19-20.18,6.57-28c4.38-7.82,10.43-13.81,18.14-17.99Z"/>
  <path class="cls-1" d="M1298.32,403.84c-13.45-7.3-28.83-10.95-46.14-10.95s-32.33,3.65-45.67,10.95c-13.35,7.3-23.88,17.36-31.59,30.19-7.72,12.83-11.57,27.58-11.57,44.26s3.86,31.18,11.57,44.11c7.71,12.93,18.25,23.1,31.59,30.5,13.34,7.4,28.57,11.1,45.67,11.1s32.69-3.7,46.14-11.1c13.45-7.4,23.98-17.57,31.59-30.5,7.61-12.93,11.42-27.63,11.42-44.11s-3.81-31.7-11.42-44.42c-7.62-12.72-18.14-22.73-31.59-30.03ZM1295.51,506.13c-4.28,7.93-10.17,13.97-17.67,18.14-7.51,4.17-16.06,6.26-25.65,6.26s-17.78-2.08-25.18-6.26c-7.4-4.17-13.29-10.22-17.67-18.14-4.38-7.92-6.57-17.2-6.57-27.84s2.19-20.18,6.57-28c4.38-7.82,10.27-13.81,17.67-17.99,7.4-4.17,15.9-6.26,25.49-6.26s17.83,2.09,25.34,6.26c7.51,4.17,13.4,10.17,17.67,17.99,4.27,7.82,6.41,17.16,6.41,28s-2.14,19.92-6.41,27.84Z"/>
</svg>