<?xml version="1.0" encoding="UTF-8"?>
<svg id="katman_1" xmlns="http://www.w3.org/2000/svg" viewBox="0 0 680.53 212.94">
  <defs>
    <style>
      .cls-1 {
        fill: #1c3879;
      }
    </style>
  </defs>
  <path class="cls-1" d="M.18,105.1h102.01V2.55H.18v102.55h0ZM41.17,24.41c4.01-5.28,7.29-9.65,7.65-9.84,0,0,.36,0,.36-.18.18,0,.55-.18.73-.36.36,0,1.09-.18,1.64-.18h.91c1.46.36,2.55,1.82,8.74,10.2h0c7.83,10.56,8.01,10.93,7.47,12.93-.36,1.46-1.09,2.37-2.37,2.91-.91.36-1.46.55-2.19.55-2-.18-2.37-.36-7.65-7.65-2.73-3.83-5.1-6.74-5.28-6.74s-2.55,3.1-5.28,6.74c-5.65,7.47-5.83,7.65-8.01,7.65s-3.64-1.09-4.19-3.28c-.55-2-.36-2.19,7.47-12.75M69.04,53.92c0,1.82-.55,2.91-2,3.83l-.91.55h-29.51l-.91-.55c-1.64-1.09-2.55-3.1-2-5.1.36-1.09,1.64-2.55,2.73-2.91.36,0,6.38-.18,15.12,0h14.39l.91.73c1.46.91,2,2,2,3.83M36.43,67.58c.36,0,1.28-.18,1.82-.18,2.19,0,2.37.36,7.83,7.65,2.73,3.83,5.1,6.74,5.28,6.74s2.55-3.1,5.28-6.74c5.65-7.47,5.83-7.65,8.01-7.65s3.64,1.09,4.19,3.28c.55,2,.36,2.19-7.47,12.75l-.36.36c-6.19,8.2-7.29,9.65-8.74,10.02h-2.19c-1.46-.36-2.55-1.82-8.74-10.02l-.36-.36c-4.01-5.28-7.29-10.02-7.47-10.38,0-.36-.18-1.09-.18-1.28,0-1.82,1.28-3.64,2.91-4.19"/>
  <path class="cls-1" d="M.18,176.69c1.82-.55,3.83-.55,8.74-.55h6.19l.91-.73c.55-.36,1.46-1.09,2-1.46l1.09-.91v-18.94l.73-1.46c.36-.73,1.09-2,1.82-2.55l1.09-1.28-.91-.91c-.55-.55-1.28-1.46-1.64-2.37-.73-1.46-.73-1.82-.73-4.01s0-2.55.73-3.83c.91-1.82,2.37-3.28,4.19-4.19,1.28-.55,1.64-.73,3.83-.73s2.55,0,4.01.73c3.83,2,5.83,6.38,4.74,10.38-.36,1.64-1.46,3.28-2.37,4.19l-.55.55,1.09,1.28c1.64,1.82,2.37,3.46,2.55,6.19v2.37l8.93-6.74v-10.2c.18-.55,1.46-1.09,2.19-.91,1.09.36,1.28.91,1.28,4.55s0,3.46.18,3.46c0,0,2.55-1.82,5.65-4.19l5.46-4.19v-3.1c0-3.64-.36-4.55-2-6.01-1.82-1.64-4.37-1.82-6.38-.55-1.09.55-2.55,2.55-2.55,3.28s-.18.73-.55,1.09c-.55.73-1.82.91-2.73,0-1.09-1.09,0-3.83,1.82-6.01l1.09-1.28-.91-.91c-2.91-2.91-3.28-7.83-.91-11.29,1.09-1.64,2.19-2.55,4.01-3.28,1.28-.55,1.64-.55,3.64-.55,1.82,0,2.37.18,3.64.73,1.64.91,3.28,2.55,4.19,4.19.55,1.28.73,1.64.73,3.83s-.36,4.01-2.19,6.01l-1.09,1.09,1.09,1.09c1.46,1.46,2.19,3.28,2.55,6.01l.36,2.37,6.01-4.55c6.19-4.74,7.29-5.46,9.65-6.01,2-.55,18.4-.55,20.58,0h.55v-19.13H0v68.49l.18.91Z"/>
  <path class="cls-1" d="M2.19,182.88h7.1c7.47-.36,8.01-.36,9.84-1.64.36-.36,14.21-10.93,30.6-23.32l5.65-4.37h0c24.77-18.94,25.5-19.49,26.05-19.67h0c.55,0,3.64-.18,9.47-.18h8.74l1.46.73h.18s.36,0,.55.36v-3.28l-1.46-.73h-18.94l-1.28.55c-1.09.55-23.86,17.67-58.11,44.08-2.91,2.19-5.28,3.83-5.83,4.01-.91.36-2.37.36-7.29.36s-7.1,0-8.93.91v3.28c.18,0,.55-.18.73-.36l1.64-.73h-.18Z"/>
  <path class="cls-1" d="M11.29,196.73h8.2l30.97-23.68c17.12-13.12,31.51-23.86,32.06-24.23,2.37-1.09,2.91-1.28,10.02-1.28h6.74l1.09-.91c.55-.36,1.28-1.09,1.64-2v-4.92c-.55-.91-1.28-1.82-2.37-2.19-.91-.36-1.82-.55-8.93-.55h-7.83l-2,1.46c-.18,0-.91.73-2,1.46-4.19,3.28-14.57,11.11-25.87,19.85-14.21,10.93-27.32,20.95-28.96,22.22-5.28,4.19-6.01,4.37-14.75,4.37s-6.19,0-7.1.55S.36,188.17,0,189.08v5.28c0,.36.36.55.55.91,1.46,1.82,1.64,1.82,10.93,1.82"/>
  <path class="cls-1" d="M101.28,150.1h0l-1.64.73h-6.74c-6.01.18-6.92.36-8.01.73-1.09.36-12.2,8.74-62.11,47.18-2,1.64-2.19,1.64-11.84,1.46H2.19l-1.46-.73c-.18,0-.36-.18-.73-.36v3.28c.55.18,1.28.55,2,.55.91.18,4.01.18,10.2.18h8.74l1.28-.73c.73-.36,14.57-10.75,31.88-24.04,16.76-12.93,30.97-23.68,31.51-23.86.91-.55,1.28-.55,7.83-.73,6.19,0,6.92-.18,8.2-.73.18,0,.36,0,.55-.18v-3.28c-.18,0-.36.18-.55.36h0l-.36.18Z"/>
  <path class="cls-1" d="M87.25,157.93c-.55.18-11.84,8.93-46.63,35.52-15.48,11.84-15.85,12.02-17.85,12.75-1.46.55-1.82.55-10.93.55-7.65,0-10.02,0-11.84-.55v4.55h102.01v-53.92c-1.82.55-3.83.73-8.38.73s-6.01,0-6.38.18"/>
  <path class="cls-1" d="M57.74,116.21c-2-.91-4.92-.18-6.19,1.46-1.82,2.37-1.64,5.1.36,7.1,1.82,1.82,3.83,2.19,6.01.91,1.82-.91,2.73-2.19,2.91-4.37,0-1.28,0-1.82-.36-2.55-.55-1.28-1.64-2.19-2.73-2.55"/>
  <path class="cls-1" d="M30.6,146.45c3.83-2,3.83-7.65,0-9.47-2.19-1.09-4.92-.55-6.38,1.28-.91,1.09-1.28,2.37-1.28,4.01,0,2,1.09,3.28,2.91,4.19s3.1.91,4.92,0"/>
  <path class="cls-1" d="M22.77,170.31l11.11-8.56v-3.28c0-2.73,0-3.46-.55-4.37-.55-1.28-1.28-2-2.55-2.73-.55-.18-1.64-.55-2.37-.55-2.19,0-4.55,1.28-5.46,3.46-.18.55-.36,2.55-.36,8.38v7.47l.18.18Z"/>
  <polygon class="cls-1" points="171.77 75.59 134.25 75.59 134.25 2.73 118.76 2.73 118.76 87.8 171.77 87.8 171.77 75.59"/>
  <rect class="cls-1" x="175.41" y="27.51" width="15.48" height="60.29"/>
  <path class="cls-1" d="M183.07,18.03c2.91,0,5.1-.91,6.92-2.55s2.73-3.83,2.73-6.38-.91-4.74-2.73-6.38-4.01-2.55-6.92-2.55-5.1.91-7.1,2.55c-1.82,1.64-2.73,3.64-2.73,6.38s.91,4.74,2.73,6.38,4.19,2.55,7.1,2.55"/>
  <path class="cls-1" d="M191.26,40.44h8.2v47.36h15.48v-47.36h20.95v26.23c0,7.83,1.82,13.3,5.65,16.39s8.74,4.55,15.12,4.55h10.56v-13.3h-7.47c-3.1,0-5.28-.55-6.56-1.64s-1.82-3.1-1.82-6.01v-26.41h16.21v-12.93h-16.21V11.11h-13.66l-1.82,16.21h-20.95v-7.1c0-2.55.55-4.37,1.64-5.28,1.09-1.09,3.1-1.64,5.65-1.64h4.19V0h-6.74c-6.38,0-11.29,1.46-14.94,4.55s-5.46,8.2-5.46,15.48v7.1h-8.2v12.93l.18.36Z"/>
  <path class="cls-1" d="M375.06,66.49l15.12,21.49h16.21v26.78h15.48v-34.97c2.19,3.1,4.92,5.46,8.2,7.1,3.46,1.64,7.29,2.55,11.84,2.55s10.75-1.28,15.12-4.01,8.01-6.56,10.56-11.11c2.55-4.74,3.83-10.2,3.83-16.21s-1.28-11.48-3.83-16.21-6.01-8.56-10.56-11.29c-4.37-2.73-9.47-4.19-15.12-4.19s-9.29,1.09-12.39,3.1c-3.1,2-5.65,4.37-7.65,7.1l-1.64-8.56h-30.06l-15.12,21.49-15.3-21.49h-16.58l21.86,30.24-20.04,27.87v-10.2h-39.89v-24.59h36.25v-12.2h-36.25V15.85h39.89V3.28h-55.37v85.07h70.31l15.3-21.49-.18-.36ZM426.42,44.81c3.28-3.46,7.29-5.1,12.39-5.1s8.93,1.64,12.2,5.1c3.28,3.46,4.92,7.83,4.92,12.93s-1.64,9.65-4.92,12.93-7.29,4.92-12.2,4.92-9.11-1.64-12.39-4.92c-3.1-3.46-4.74-7.83-4.74-12.93s1.64-9.47,4.74-12.93M406.39,28.05v59.2l-21.49-29.51,21.49-29.51v-.18Z"/>
  <path class="cls-1" d="M488.17,85.25c4.74,2.73,10.02,4.01,15.67,4.01s10.93-1.28,15.67-4.01,8.38-6.38,10.93-11.11c2.73-4.74,4.19-10.38,4.19-16.58s-1.46-11.66-4.19-16.39-6.38-8.56-10.93-11.11c-4.55-2.73-9.84-4.01-15.48-4.01s-11.11,1.28-15.67,4.01-8.2,6.38-10.93,11.11-4.19,10.2-4.19,16.39,1.28,11.84,4.01,16.58,6.38,8.38,10.93,11.11M493.46,44.08c2.91-3.1,6.56-4.55,10.56-4.55s7.47,1.46,10.38,4.55c2.91,2.91,4.55,7.47,4.55,13.48s-1.46,10.56-4.55,13.66c-2.91,2.91-6.56,4.55-10.56,4.55s-7.47-1.46-10.56-4.55c-2.91-3.1-4.37-7.65-4.37-13.66s1.46-10.56,4.37-13.48"/>
  <polygon class="cls-1" points="184.7 125.69 165.58 125.69 134.25 160.11 134.25 125.69 118.76 125.69 118.76 210.93 134.25 210.93 134.25 180.33 142.26 171.41 166.49 210.93 185.62 210.93 153.37 159.57 184.7 125.69"/>
  <path class="cls-1" d="M208.93,149c-5.1,0-9.47.91-13.48,2.73-4.01,1.64-7.29,4.19-9.84,7.47-2.55,3.28-4.01,7.1-4.37,11.48h15.12c.55-2.91,2-5.1,4.37-6.56,2.37-1.46,5.1-2.37,8.2-2.37s6.38.91,8.74,2.91,3.46,4.92,3.46,9.11v1.46h-15.3c-8.74,0-15.3,1.82-19.67,5.28s-6.56,8.01-6.56,13.66.73,6.38,2.37,9.11,4.01,4.92,7.47,6.74c3.28,1.64,7.47,2.37,12.75,2.37s9.11-1.09,12.2-3.1c3.28-2.19,5.65-4.74,7.47-8.01l1.46,9.65h13.12v-37.16c0-7.83-2.37-14.03-7.47-18.22-4.92-4.37-11.66-6.38-20.22-6.38M215.85,195.82c-2.37,2.91-5.83,4.37-10.38,4.37s-5.28-.73-7.1-2-2.73-3.1-2.73-5.46.91-4.01,2.73-5.46,4.74-2.37,8.93-2.37h13.12c-.73,4.37-2.19,7.83-4.74,10.75"/>
  <polygon class="cls-1" points="285.44 163.03 285.44 150.46 237.35 150.46 237.35 163.39 267.77 163.39 236.98 198.37 236.98 210.93 285.98 210.93 285.98 198 254.29 198 285.44 163.03"/>
  <path class="cls-1" d="M316.04,149c-4.92,0-9.47.91-13.48,2.73-4.01,1.64-7.29,4.19-9.84,7.47-2.55,3.28-4.01,7.1-4.37,11.48h15.12c.55-2.91,2-5.1,4.37-6.56,2.37-1.46,5.1-2.37,8.2-2.37s6.38.91,8.74,2.91,3.46,4.92,3.46,9.11v1.46h-15.3c-8.74,0-15.3,1.82-19.67,5.28s-6.56,8.01-6.56,13.66.73,6.38,2.37,9.11,4.01,4.92,7.47,6.74c3.28,1.64,7.47,2.37,12.75,2.37s9.11-1.09,12.2-3.1c3.28-2.19,5.65-4.74,7.47-8.01l1.46,9.65h13.12v-37.16c0-7.83-2.37-14.03-7.47-18.22-4.92-4.37-11.66-6.38-20.22-6.38M323.14,195.82c-2.37,2.91-5.83,4.37-10.38,4.37s-5.28-.73-7.1-2-2.73-3.1-2.73-5.46.91-4.01,2.73-5.46,4.74-2.37,8.93-2.37h13.12c-.73,4.37-2.19,7.83-4.74,10.75"/>
  <path class="cls-1" d="M442.09,149c-4.37,0-8.38.91-11.84,2.91-3.46,1.82-6.01,4.37-8.2,7.83v-36.43h-15.48v86.71l-27.87-32.06,24.59-27.51h-18.4l-21.31,24.41v-51.73h-15.48v87.62h15.48v-30.24l24.41,30.24h34.25v-31.15c0-5.46,1.46-9.84,4.19-12.93,2.91-3.1,6.56-4.55,10.93-4.55s7.65,1.46,9.65,4.19c2.19,2.73,3.1,6.74,3.1,11.84v32.61h15.3v-34.06c0-9.11-2-16.03-6.19-20.58-4.01-4.74-9.84-7.1-17.12-7.1"/>
  <path class="cls-1" d="M508.39,177.6c-3.46-1.28-7.29-2.37-11.48-3.28-3.83-.91-6.92-1.82-9.29-2.91-2.37-1.09-3.46-2.55-3.46-4.19s.73-3.1,2.37-4.19c1.64-1.09,3.83-1.64,6.74-1.64,5.83,0,9.11,2.19,10.02,6.74h14.57c-.73-5.83-3.28-10.38-7.65-13.66-4.19-3.28-9.84-4.92-16.94-4.92s-13.66,1.82-17.85,5.46-6.38,8.2-6.38,13.48.73,5.46,2,7.47c1.46,2,3.1,3.64,5.28,4.92,2.19,1.28,4.74,2.19,7.47,3.1,2.73.73,5.28,1.46,7.83,2,4.01.91,7.1,1.82,9.47,2.73,2.19.91,3.46,2.55,3.46,5.28s-.73,3.28-2.37,4.74c-1.46,1.46-4.01,2-7.47,2s-6.19-.73-8.38-2.37-3.46-3.64-3.83-6.01h-15.67c.55,4.01,2,7.65,4.37,10.75,2.37,3.1,5.65,5.46,9.65,7.29,4.01,1.64,8.74,2.55,14.03,2.55s9.65-.91,13.48-2.55c3.83-1.64,6.74-4.01,8.74-7.1,2-2.91,2.91-6.38,2.91-10.02,0-4.37-1.09-7.65-3.1-9.84-2.19-2.37-4.92-4.01-8.56-5.28"/>
  <path class="cls-1" d="M542.82,134.43h-13.66l-1.82,16.21h-10.2v12.93h10.2v26.23c0,7.83,1.82,13.3,5.65,16.39s8.74,4.55,15.12,4.55h10.56v-13.3h-7.47c-3.1,0-5.28-.55-6.56-1.64-1.28-1.09-1.82-3.1-1.82-6.01v-26.41h16.21v-12.93h-16.21v-16.21.18Z"/>
  <path class="cls-1" d="M589.63,149c-5.1,0-9.47.91-13.48,2.73-4.01,1.64-7.29,4.19-9.84,7.47-2.55,3.28-4.01,7.1-4.37,11.48h15.12c.55-2.91,2-5.1,4.37-6.56,2.37-1.46,5.1-2.37,8.2-2.37s6.38.91,8.74,2.91,3.46,4.92,3.46,9.11v1.46h-15.3c-8.74,0-15.3,1.82-19.67,5.28-4.37,3.46-6.56,8.01-6.56,13.66s.73,6.38,2.37,9.11c1.64,2.73,4.01,4.92,7.47,6.74,3.28,1.64,7.47,2.37,12.75,2.37s9.11-1.09,12.2-3.1c3.28-2.19,5.65-4.74,7.47-8.01l1.46,9.65h13.12v-37.16c0-7.83-2.37-14.03-7.47-18.22-4.92-4.37-11.66-6.38-20.22-6.38M596.56,195.82c-2.37,2.91-5.83,4.37-10.38,4.37s-5.28-.73-7.1-2-2.73-3.1-2.73-5.46.91-4.01,2.73-5.46,4.74-2.37,8.93-2.37h13.12c-.73,4.37-2.19,7.83-4.74,10.75"/>
  <path class="cls-1" d="M674.34,156.11c-4.19-4.74-9.84-7.1-17.3-7.1s-8.93,1.09-12.39,3.1c-3.46,2.19-6.19,4.92-8.01,8.56l-1.28-10.2h-13.66v60.29h15.48v-31.15c0-5.46,1.46-9.84,4.19-12.93,2.91-3.1,6.38-4.55,10.75-4.55s7.65,1.46,9.84,4.19,3.1,6.74,3.1,11.84v32.61h15.48v-34.06c0-9.11-2-16.03-6.19-20.58"/>
</svg>