<svg xmlns="http://www.w3.org/2000/svg" viewBox="0 0 404.4 323.68"><defs><style>.cls-1{fill:#5ca51c;}.cls-2,.cls-3{fill:#f4b62f;}.cls-2{fill-rule:evenodd;}</style></defs><g id="Слой_2" data-name="Слой 2"><g id="Слой_2-2" data-name="Слой 2"><path class="cls-1" d="M252.34,179.44v-4.73l-2.2.72c-.07-1.08-.17-2.15-.32-3.21l2-1.07L251,166.5,249,167.59c-.25-1.05-.53-2.08-.86-3.1l1.8-1.41-1.62-4.44-1.84,1.44c-.43-1-.9-2-1.39-2.9l1.54-1.72-2.36-4.09-1.58,1.75c-.59-.89-1.21-1.76-1.87-2.61l1.23-2-3-3.62-1.25,2c-.74-.78-1.5-1.54-2.29-2.27l.86-2.13-3.62-3-.87,2.16c-.86-.65-1.75-1.25-2.65-1.83l.47-2.23-4.1-2.37-.47,2.26c-1-.49-1.94-.95-2.94-1.37l.08-2.23-4.44-1.61-.08,2.25c-1-.31-2.08-.58-3.14-.82l-.3-2.17-4.66-.83.31,2.2c-1.07-.13-2.15-.23-3.24-.28l-.66-2h-4.73l.67,2c-1.1.06-2.18.17-3.25.3l-1-1.84-4.66.82,1,1.85c-1.07.25-2.13.52-3.17.84L189.61,133l-4.45,1.62,1.24,1.58c-1,.43-2,.91-3,1.41l-1.44-1.3-4.09,2.37,1.45,1.3c-.92.6-1.82,1.23-2.7,1.9l-1.58-1-3.62,3,1.6,1c-.81.76-1.59,1.54-2.34,2.35l-1.66-.67-3,3.62,1.67.67c-.66.89-1.29,1.81-1.89,2.74l-1.68-.36-2.37,4.1,1.71.36c-.5,1-1,2-1.4,3l-1.65,0-1.61,4.44,1.67,0c-.31,1.07-.59,2.15-.83,3.24l-1.59.23-.82,4.65,1.63-.23c-.13,1.1-.22,2.22-.27,3.34l-1.48.49v4.72l1.52-.49c.07,1.12.18,2.24.33,3.34l-1.34.71.82,4.66,1.38-.74c.26,1.1.56,2.18.9,3.25l-1.16.91,1.62,4.44,1.21-.95c.45,1,.94,2,1.46,3l-1,1.09,2.36,4.09,1-1.14c.62.94,1.29,1.84,2,2.72l-.78,1.25,3,3.63.82-1.32c.78.81,1.58,1.59,2.41,2.34l-.55,1.38,3.62,3,.58-1.46c.91.66,1.83,1.29,2.78,1.88l-.31,1.48,4.1,2.36.32-1.55c1,.49,2,.94,3.07,1.35l-.06,1.54,4.45,1.62,0-1.63c1.07.3,2.15.58,3.24.81l.23,1.56,4.65.82-.24-1.66c1.1.11,2.21.17,3.32.2l.51,1.58h4.73l-.54-1.67c1.11-.08,2.21-.19,3.3-.34l.8,1.5,4.66-.82-.85-1.59c1.07-.27,2.13-.58,3.17-.92l1.1,1.39,4.44-1.61-1.16-1.48c1-.45,2-.93,3-1.45l1.37,1.23,4.09-2.36-1.44-1.3c.9-.61,1.78-1.27,2.64-1.94l1.63,1,3.62-3-1.72-1.07c.79-.76,1.55-1.54,2.27-2.35l1.86.74,3-3.62-1.94-.78q1-1.32,1.83-2.7l2,.43L247.7,199l-2.1-.45c.48-1,.91-2,1.32-3l2.12.07,1.62-4.44-2.21-.08c.3-1,.57-2.08.79-3.14l2.16-.3.82-4.66-2.24.32c.12-1.06.19-2.14.23-3.22Zm-47.62,24.92a26.17,26.17,0,1,1,26.17-26.17A26.17,26.17,0,0,1,204.72,204.36Z"/><path class="cls-1" d="M374.51,189.36V185.6l-1.75.57c-.06-.86-.14-1.71-.26-2.56l1.6-.85-.65-3.71-1.64.88c-.2-.84-.43-1.66-.68-2.48l1.43-1.12-1.29-3.54-1.47,1.15q-.51-1.17-1.11-2.31l1.23-1.36L368,167l-1.25,1.4c-.48-.71-1-1.41-1.49-2.08l1-1.57-2.42-2.88-1,1.59c-.59-.62-1.2-1.23-1.83-1.81l.69-1.7-2.89-2.42-.69,1.72c-.68-.51-1.39-1-2.11-1.45l.37-1.78-3.26-1.88-.38,1.79c-.76-.39-1.54-.75-2.34-1.09l.06-1.77-3.54-1.29-.06,1.79c-.82-.24-1.65-.46-2.49-.65l-.25-1.73-3.71-.65.25,1.74c-.85-.1-1.71-.18-2.58-.22l-.53-1.62H333.8l.54,1.63c-.88.05-1.74.13-2.59.24l-.78-1.47-3.71.66L328,153c-.85.19-1.7.41-2.52.67l-1-1.25L321,153.68l1,1.26c-.8.34-1.59.72-2.36,1.12l-1.15-1-3.26,1.88,1.16,1c-.74.48-1.46,1-2.15,1.51l-1.26-.78-2.89,2.42,1.28.79c-.65.6-1.27,1.23-1.87,1.87l-1.32-.53-2.42,2.88,1.33.54c-.53.71-1,1.44-1.5,2.18l-1.35-.28-1.88,3.26,1.36.28c-.4.79-.78,1.6-1.12,2.42l-1.31,0L300,178l1.34.05c-.25.85-.47,1.71-.67,2.58l-1.26.18-.65,3.71,1.29-.19c-.1.88-.17,1.77-.21,2.66l-1.17.39v3.76l1.21-.39c.05.9.14,1.78.26,2.66l-1.07.57.65,3.71,1.1-.59c.21.88.45,1.74.72,2.59l-.93.72,1.29,3.54,1-.76c.36.82.74,1.63,1.16,2.42l-.78.87,1.88,3.26.82-.91c.5.74,1,1.46,1.57,2.16l-.62,1,2.42,2.89.66-1c.62.64,1.25,1.27,1.92,1.87l-.45,1.09,2.89,2.42.46-1.16q1.08.8,2.22,1.5l-.25,1.17,3.26,1.89.26-1.24c.8.39,1.61.75,2.44,1.08l0,1.23,3.54,1.28,0-1.3c.85.25,1.71.47,2.59.65l.17,1.24,3.71.66-.19-1.33c.87.09,1.76.14,2.64.17l.41,1.25h3.77l-.43-1.32c.88-.07,1.76-.16,2.63-.28l.64,1.2,3.7-.66-.67-1.26c.85-.21,1.7-.46,2.53-.74l.87,1.11,3.54-1.28-.93-1.18c.8-.36,1.59-.74,2.36-1.15l1.09,1,3.26-1.89-1.15-1c.72-.49,1.42-1,2.1-1.55l1.31.82,2.88-2.42-1.37-.86c.63-.6,1.23-1.22,1.81-1.87l1.48.59,2.42-2.88-1.55-.62c.51-.7,1-1.42,1.45-2.15l1.61.34,1.88-3.26-1.67-.36c.38-.77.73-1.56,1.05-2.36l1.69.06,1.29-3.54-1.76-.06c.24-.82.45-1.66.63-2.5l1.72-.24.65-3.71-1.78.25c.09-.85.15-1.7.18-2.56Zm-37.93,20.88a21.87,21.87,0,1,1,21.86-21.87A21.87,21.87,0,0,1,336.58,210.24Z"/><path class="cls-1" d="M40.33,305.22l-5.26-18.1-5,18.1Zm3.18-33.3,17.84,50.43H45.1l-1.93-6.66H26.92l-1.87,6.66H9l17.89-50.43Z"/><polygon class="cls-1" points="102.26 271.92 102.26 283.71 79.86 283.71 79.86 322.35 63.51 322.35 63.51 271.92 102.26 271.92"/><path class="cls-1" d="M122.27,294.91h6.78c3.81,0,6.59-1.53,6.59-5.89,0-4.7-5.29-5.31-8.74-5.31h-4.63Zm0,27.45H105.94V271.92h24c14.35,0,21.27,6.67,21.27,17,0,10.86-6.38,17.75-20.72,17.75h-8.22Z"/><path class="cls-1" d="M169.47,296.87c0,6.43,1.94,14.48,9.75,14.48,7.05,0,9.84-6.13,9.84-14.48,0-6.85-2.72-13.94-10-13.94-7.42,0-9.61,7.56-9.61,13.94m35.93,0c0,17.16-11.44,26.81-26.18,26.81-15.63,0-26.09-9.81-26.09-27,0-15.83,10.59-26.11,26.09-26.11,17.79,0,26.18,12.93,26.18,26.26"/><path class="cls-1" d="M225.81,294.91h6.8c3.81,0,6.57-1.53,6.57-5.89,0-4.7-5.25-5.31-8.74-5.31h-4.63Zm0,27.45H209.5V271.92h24c14.32,0,21.24,6.67,21.24,17,0,10.86-6.35,17.75-20.69,17.75h-8.24Z"/><path class="cls-1" d="M272.67,271.92l8,19.9,7.9-19.9H306.1l-18.42,39.39c-4.22,9-8.42,12.37-14.66,12.37a22.54,22.54,0,0,1-7.68-1.54V310.66a7.52,7.52,0,0,0,3.38.69c1.74,0,2.94-.74,3.86-2.79l-18.31-36.64Z"/><path class="cls-1" d="M337.88,291.2c-.5-5.22-3.76-8.27-8.86-8.27-5.75,0-9.21,5-9.21,14.71,0,7.08,1.52,13.71,9.84,13.71,5.26,0,7.73-3.69,8.36-8.53h15.71c-1.47,13.05-10.67,20.86-23.83,20.86-16.44,0-26.41-10.23-26.41-26.6s10.94-26.47,24.84-26.47c15.24,0,23.72,7.65,25.06,20.59Z"/><path class="cls-1" d="M373.52,310.61h6c4,0,7-.87,7-4.63,0-4.44-3.83-4.72-9-4.72h-4.07Zm0-21.11h7.76c12.56,0,20.54,5.75,20.54,16.76,0,10.75-7.84,16.1-20.78,16.1H357.16V272h16.36Z"/><path class="cls-2" d="M202.44,234C109.7,234,31.17,249.21,0,270.52c44-13.91,116.75-23.06,198.87-23.06,86.38,0,162.43,10.12,205.53,25.31C375.53,250.34,295.3,234,202.44,234"/><polygon class="cls-3" points="62.26 231.56 49.35 202.77 22.23 186.04 35.13 214.84 62.26 231.56"/><polygon class="cls-3" points="146.94 60.48 154.16 29.76 142.75 0 135.53 30.72 146.94 60.48"/><polygon class="cls-3" points="158.3 47.35 185.61 31.54 199.45 2.84 172.14 18.64 158.3 47.35"/><polygon class="cls-3" points="71.69 210.37 60.22 171.96 28.84 146.4 40.31 184.8 71.69 210.37"/><polygon class="cls-3" points="127.96 85.28 133.69 48.09 117.36 13.77 111.63 50.96 127.96 85.28"/><polygon class="cls-3" points="77.86 181.16 72.15 132.97 40.03 95.95 45.73 144.15 77.86 181.16"/><polygon class="cls-3" points="91.3 148.44 91.52 102.1 65.41 63.27 65.18 109.61 91.3 148.44"/><polygon class="cls-3" points="107.59 115.69 113.27 73.89 94.28 35.75 88.6 77.55 107.59 115.69"/><polygon class="cls-3" points="64.97 221.41 93.51 207.95 124.99 212.91 96.45 226.37 64.97 221.41"/><polygon class="cls-3" points="144.25 67.35 172.31 52.92 203.94 56.8 175.88 71.23 144.25 67.35"/><polygon class="cls-3" points="72.97 196.44 106.43 174.38 146.9 174.94 113.44 197.01 72.97 196.44"/><polygon class="cls-3" points="121.2 94.36 153.33 77.22 189.88 81.14 157.76 98.28 121.2 94.36"/><polygon class="cls-3" points="81.97 164.4 120.55 138.74 167.34 139.2 128.77 164.87 81.97 164.4"/><polygon class="cls-3" points="101.75 126.04 138.23 104.87 180.72 107.9 144.24 129.07 101.75 126.04"/><path class="cls-1" d="M351.82,135.39l-15.09-9.81-44.34-8.68-4.53-44.68-51.7-3.81-16.41,3.78,2.64,6.6-10.57,23.59,7.17,5.28H190.31l-19.24,15.66s-4.35,11.16-4.66,11.89c3.4-2.46,22.86-12.33,26.88-13.64a17.72,17.72,0,0,1,4.3-1,17.32,17.32,0,0,1,4.9.55c12.62,2.68,21.74,2.67,33.72,7.43a13.54,13.54,0,0,1,4.18,2.26,14.32,14.32,0,0,1,2.29,2.85c2.91,4.35,5.88,8.8,7.24,13.86l8.25,4.57-.12,45.4,3.77,3.58,25.6.44,2.39-4,3-24.51a45.49,45.49,0,0,1,56.79-29.34,44.65,44.65,0,0,1,5.13,2l.49-1ZM284,142.17a82.4,82.4,0,0,1-8.82.34c-1.52,0-2.94,0-4.09,0l-8.85-27.92-32.37-13.77,5.24-14.35,8.41-2.9,39.26,2.75C284,95,287.13,120.8,284,142.17Z"/></g></g></svg>