<?xml version="1.0" encoding="UTF-8"?>
<svg id="katman_1" data-name="katman 1" xmlns="http://www.w3.org/2000/svg" version="1.1" viewBox="0 0 1920 1080">
  <defs>
    <style>
      .cls-1 {
        fill: #f7af1a;
      }

      .cls-1, .cls-2, .cls-3 {
        stroke-width: 0px;
      }

      .cls-2 {
        fill: #109447;
      }

      .cls-3 {
        fill: #606161;
      }
    </style>
  </defs>
  <g>
    <polygon class="cls-3" points="204.9 815.9 295.6 815.9 295.6 763.9 204.9 763.9 204.9 738.8 308 738.8 308 684.3 134 684.3 134 898.5 312.2 898.5 312.2 843.9 204.9 843.9 204.9 815.9"/>
    <path class="cls-3" d="M668.6,684.3h-103.1v214.2h72.1v-52.5h31c59.7,0,97.7-31.2,97.7-80.8s-37.9-80.8-97.7-80.8ZM663.9,790.1h-26.3v-50.1h26.3c19.8,0,29.5,9.4,29.5,25s-9.4,25-29.5,25Z"/>
    <path class="cls-3" d="M905.1,679.4c-69.6,0-121,47.1-121,112,.2,64.9,51.3,112,121,112s121-47.1,121-112-51.1-112-121-112ZM905.1,844.9c-26.5,0-48.1-20.1-48.1-53.5s21.3-53.5,48.1-53.5,48.1,20.1,48.1,53.5-21.3,53.5-48.1,53.5Z"/>
    <path class="cls-3" d="M393.5,739.1c8.7-3.2,18.1-5,27.8-5,2.2-.2,4.5-.2,6.4,0,1.5,0,3,.2,4.5.5l-31.7-46.8h-72.9l44.6,63.5c6.4-5.2,13.6-9.2,21.3-12.1Z"/>
    <path class="cls-3" d="M417.6,818.2l28.8,7.7,99.1-138.3h-69.4c-26,34.2-50.3,66.9-75.1,101.9l16.6,28.8Z"/>
    <path class="cls-3" d="M488.9,851.6c-6.2,10.4-14.6,19.3-24.5,26l11.2,17.4h74.4l-51.1-71.6c-1.5,10.2-5,19.6-9.9,28.3Z"/>
    <path class="cls-3" d="M489.7,812c0-8.4-1.5-16.4-4.2-23.5l-34.9,49.3-39.7-10.7-22.1-37.9,32-45.1c-37.4.2-67.4,30.7-67.4,68.2s2.2,20.1,6.4,28.8l-41.1,57.5h31.5l25-34.9c2.7-3.7,7.9-4.5,11.4-2,3.7,2.7,4.5,7.9,2,11.4l-18.1,25.3h30.5l12.9-18.6c2.5.2,5.2.5,7.7.5,37.7,0,68.2-30.5,68.2-68.2Z"/>
    <path class="cls-3" d="M1138.1,700.9h0c0,2.8-.6,4.8-1.8,6-1.2,1.2-2.8,1.8-4.9,1.8s-3.8-.6-4.9-1.8c-1.2-1.2-1.8-3.2-1.8-6v-16h-7v16.3c0,4.3,1.2,7.6,3.6,9.9,2.4,2.3,5.8,3.5,10.1,3.5s7.6-1.2,10.1-3.5c2.4-2.3,3.6-5.6,3.6-9.9v-16.3h-6.9v16Z"/>
    <polygon class="cls-3" points="1209.9 689.2 1209.9 684.8 1184.5 684.8 1184.5 690.3 1200.7 690.3 1184.1 709.6 1184.1 713.9 1210.5 713.9 1210.5 708.4 1193.3 708.4 1209.9 689.2"/>
    <path class="cls-3" d="M1272.4,699.1c-.3-.1-.5-.2-.8-.3,1.2-.6,2.1-1.4,2.8-2.4.8-1.1,1.2-2.5,1.2-4,0-2.3-1-4.1-2.9-5.5-1.9-1.4-4.7-2.1-8.6-2.1h-14.7v29.1h15.6c4,0,7-.7,9-2.1,2.1-1.4,3.1-3.3,3.1-5.8s-.4-3.1-1.2-4.3c-.8-1.2-2-2.1-3.5-2.7ZM1256.4,689.9h6.9c1.7,0,3,.3,3.9.8.9.6,1.4,1.4,1.4,2.6s-.4,2.1-1.4,2.6c-.9.6-2.2.8-3.9.8h-6.9v-6.9ZM1268.6,708c-.9.6-2.3.8-4.1.8h-8.1v-7.2h8.1c1.8,0,3.2.3,4.1.9.9.6,1.4,1.5,1.4,2.7s-.4,2.2-1.4,2.7Z"/>
    <polygon class="cls-3" points="1324.5 701.8 1338.5 701.8 1338.5 696.5 1324.5 696.5 1324.5 690.2 1340.4 690.2 1340.4 684.8 1317.6 684.8 1317.6 713.9 1340.9 713.9 1340.9 708.5 1324.5 708.5 1324.5 701.8"/>
    <polygon class="cls-3" points="1408.9 684.8 1401.2 684.8 1387.8 698.4 1387.8 684.8 1380.9 684.8 1380.9 713.9 1387.8 713.9 1387.8 706.6 1391.8 702.5 1401.5 713.9 1409.7 713.9 1396.4 697.8 1408.9 684.8"/>
    <rect class="cls-3" x="1457.7" y="684.8" width="7" height="29.1"/>
    <path class="cls-3" d="M1536.3,699.2c-1-.6-2.2-1.1-3.4-1.4-1.2-.4-2.5-.7-3.7-1-1.2-.3-2.4-.6-3.4-.8-1-.3-1.9-.6-2.5-1.1-.6-.4-1-1-1-1.8s.2-1.2.6-1.7c.4-.5,1-.9,1.8-1.2.8-.3,2-.4,3.3-.4s2.7.2,4.1.6c1.4.4,2.8,1,4.2,1.7l2.2-5.1c-1.4-.8-3-1.5-4.9-1.9-1.8-.4-3.7-.6-5.6-.6-2.9,0-5.2.4-7.1,1.2-1.9.8-3.3,1.9-4.2,3.3-.9,1.4-1.4,2.9-1.4,4.5s.3,2.8,1,3.8c.6,1,1.5,1.8,2.5,2.4,1,.6,2.2,1.1,3.4,1.5,1.2.4,2.5.7,3.7,1,1.2.3,2.4.5,3.4.8,1,.3,1.8.7,2.5,1.1.6.4,1,1.1,1,1.9s-.2,1.2-.6,1.6c-.4.5-1,.8-1.9,1.1-.8.3-2,.4-3.3.4s-3.6-.3-5.3-.8c-1.8-.6-3.3-1.3-4.6-2.2l-2.4,5.1c1.4,1,3.1,1.8,5.3,2.4,2.2.6,4.5.9,6.9.9s5.2-.4,7.1-1.2c1.9-.8,3.3-1.9,4.2-3.3,1-1.4,1.4-2.9,1.4-4.5s-.3-2.8-1-3.8c-.6-1-1.5-1.7-2.5-2.4Z"/>
    <polygon class="cls-3" points="1580.1 690.3 1589.7 690.3 1589.7 713.9 1596.7 713.9 1596.7 690.3 1606.3 690.3 1606.3 684.8 1580.1 684.8 1580.1 690.3"/>
    <path class="cls-3" d="M1655.7,684.8l-13.4,29.1h7.2l2.7-6.2h14l2.7,6.2h7.3l-13.5-29.1h-6.9ZM1654.3,702.6l4.8-11.1,4.8,11.1h-9.6Z"/>
    <polygon class="cls-3" points="1732.1 684.8 1732.1 702.5 1717.1 684.8 1711.3 684.8 1711.3 713.9 1718.2 713.9 1718.2 696.2 1733.3 713.9 1739 713.9 1739 684.8 1732.1 684.8"/>
  </g>
  <g>
    <polygon class="cls-1" points="296.2 575.5 296.2 520.9 206.6 520.9 206.6 484.1 308.8 484.1 308.8 429.5 134.2 429.5 134.2 644.3 206.6 644.3 206.6 575.5 296.2 575.5"/>
    <path class="cls-1" d="M386.4,429.5l-93.9,214.8h73.6l14.4-37.4h81.7l14.4,37.4h74.9l-93.9-214.8h-71.2ZM400.6,554.7l20.8-54.1,20.8,54.1h-41.6Z"/>
    <path class="cls-1" d="M696,530.1c-7.1-4.7-14.8-8.5-23.2-11.4-8.4-2.8-16.8-5.1-25.3-6.7-8.5-1.6-16.3-3.2-23.3-4.6-7-1.4-12.7-3.3-17-5.4-4.3-2.1-6.4-5-6.4-8.7s.9-4.7,2.6-6.8c1.7-2,4.7-3.7,8.8-4.9,4.1-1.2,9.6-1.8,16.6-1.8s19.1,1.4,29,4c9.9,2.7,20.2,6.7,30.8,12v-62.1c-5.2-1.7-10.6-3.2-16.3-4.5-14.1-3-28.4-4.6-42.9-4.6-22.1,0-40.6,3.3-55.4,9.8-14.8,6.6-25.9,15.3-33.4,26.2-7.4,11-11.2,23.1-11.2,36.4s2.1,21,6.4,28.7c4.2,7.7,10,13.9,17,18.6,7.1,4.7,14.8,8.5,23.3,11.4,8.5,2.9,16.9,5.1,25.3,6.9,8.4,1.7,16.1,3.4,23.2,4.9,7.1,1.6,12.7,3.5,17,5.7,4.3,2.2,6.4,5.3,6.4,9.2s-.9,4.6-2.8,6.3c-1.8,1.7-4.8,3.1-8.8,4-4,.9-9.4,1.4-16.4,1.4-11.8,0-24.1-1.8-36.6-5.4-12.6-3.6-24-8.3-34.2-14.3l28.3,70.9c13.6,2.7,27.6,4,42,4,22.3,0,40.8-3.3,55.6-10,14.7-6.7,25.8-15.5,33.3-26.4,7.4-11,11.2-23,11.2-36.1s-2.1-20.7-6.4-28.3c-4.3-7.5-10-13.7-17-18.4Z"/>
    <polygon class="cls-1" points="710.2 485.6 773.1 485.6 773.1 644.3 845.5 644.3 845.5 485.6 908.4 485.6 908.4 429.5 710.2 429.5 710.2 485.6"/>
    <polygon class="cls-1" points="926.3 644.3 1104.9 644.3 1104.9 589.7 997.5 589.7 997.5 561.4 1088.4 561.4 1088.4 509.3 997.5 509.3 997.5 484.1 1104.9 484.1 1104.9 429.5 926.3 429.5 926.3 644.3"/>
    <polygon class="cls-1" points="1341.8 644.3 1520.3 644.3 1520.3 589.7 1412.9 589.7 1412.9 561.4 1503.8 561.4 1503.8 509.3 1412.9 509.3 1412.9 484.1 1520.3 484.1 1520.3 429.5 1341.8 429.5 1341.8 644.3"/>
    <polygon class="cls-1" points="1258.8 527.2 1177.2 429.5 1117.7 429.5 1117.7 644.3 1188.2 644.3 1188.2 546.6 1269.9 644.3 1329.4 644.3 1329.4 429.5 1258.8 429.5 1258.8 527.2"/>
    <path class="cls-1" d="M1661.7,644.3h77.3l-45.1-66.1c12-6.2,21.5-14.5,28.5-24.9,8-12,12-26.2,12-42.8s-4-30.9-12-43.1c-8-12.2-19.3-21.5-33.9-28.1-14.6-6.5-32-9.8-52-9.8h-103.4v214.8h72.4v-54h19.7l36.4,54ZM1654.2,492.1c4.8,4.5,7.2,10.6,7.2,18.4s-2.4,13.9-7.2,18.4c-4.8,4.5-12.2,6.7-22.2,6.7h-26.4v-50.3h26.4c10,0,17.4,2.3,22.2,6.7Z"/>
  </g>
  <g>
    <polygon class="cls-2" points="916.2 180.2 843.9 180.2 843.9 395.1 1013.4 395.1 1013.4 338.8 916.2 338.8 916.2 180.2"/>
    <polygon class="cls-2" points="332.3 180.2 134 180.2 134 236.4 197 236.4 197 395.1 269.3 395.1 269.3 236.4 332.3 236.4 332.3 180.2"/>
    <polygon class="cls-2" points="502.1 286 495.9 296.7 488.7 309.1 488.4 309.1 475.1 332.4 421.3 332.4 394.5 285.8 421.3 239.2 456.5 178.4 386.1 178.4 324.1 285.8 386.1 393.3 510.3 393.3 572.5 285.8 537.3 225 502.1 286"/>
    <path class="cls-2" d="M704.1,182.4c-66.2,0-114.8,44.9-114.8,106.3s48.6,106.3,114.8,106.3,114.8-44.9,114.8-106.3-48.6-106.3-114.8-106.3ZM704.1,339.6c-25.3,0-45.6-19.1-45.6-50.8s20.3-50.8,45.6-50.8,45.6,19.1,45.6,50.8-20.3,50.8-45.6,50.8Z"/>
    <polygon class="cls-2" points="493.4 273.9 427.2 256.3 419.8 269.2 486 286.8 493.4 273.9"/>
    <polygon class="cls-2" points="410.1 285.8 467.4 318.7 477.5 301.1 411.4 283.5 410.1 285.8"/>
    <path class="cls-2" d="M482.7,160.4l-15.6,27,66.2,17.6,6.7-11.6,2.7,1.7,47.1,27c2.2-34.2-13.4-68.7-42.9-89.2l-12.6,22.1-15.1-8.7,12.6-22.1c-32.7-15.4-70.1-11.6-98.9,7.4l47.1,27,2.7,1.7Z"/>
    <polygon class="cls-2" points="524.9 219.3 458.7 201.7 451.3 214.6 517.4 232.2 524.9 219.3"/>
    <polygon class="cls-2" points="509 246.6 442.8 229 435.4 241.9 501.6 259.5 509 246.6"/>
    <path class="cls-2" d="M1296.5,287.9l-55.5-16.6c-1.8,10.3-4.6,19.5-8.4,27.9l-22.7-19.3c2.3-1.3,4.6-2.6,6.7-3.9,10.3-6.5,18-13.8,23-21.8,5-8,7.5-16.9,7.5-26.7s-3-20.7-8.9-28.8c-5.9-8.2-14.2-14.5-24.9-18.9-10.6-4.4-23.1-6.6-37.4-6.6s-29.1,2.5-40.7,7.4c-11.6,4.9-20.6,11.7-27,20.4-6.4,8.7-9.7,18.8-9.7,30.2s1.1,11.9,3.4,17.8c2.2,5.9,5.6,11.8,10.1,17.6,1.5,1.9,3.2,3.9,4.9,5.8-3.4,1.9-6.7,3.9-9.7,5.9-10.9,7.3-19,15.4-24.2,24.5-5.2,9.1-7.8,19.6-7.8,31.5s3.9,22.5,11.7,31.9c7.8,9.4,18.4,16.8,31.9,22.2,13.5,5.4,28.8,8.1,46,8.1s42.2-4.7,60.3-14c3.9-2,7.7-4.2,11.4-6.6l22.9,19.6,37.1-42-20.2-17.2c9.5-14.5,16.3-30.6,20.2-48.5ZM1165.3,221.5c2.6-2.3,6.2-3.5,10.9-3.5s7.5,1,9.7,3.1c2.1,2,3.2,4.7,3.2,8s-1.2,5.8-3.7,8.7c-2.5,3-6.6,6.1-12.4,9.4-.2.1-.5.3-.7.4-.9-.8-1.7-1.6-2.5-2.4-3.3-3.2-5.5-5.9-6.6-8.1-1.1-2.2-1.7-4.5-1.7-6.7,0-3.5,1.3-6.4,3.8-8.7ZM1170.1,345c-5.7,0-10.6-.8-14.6-2.5-4-1.6-7.1-3.9-9.2-6.7-2.2-2.9-3.2-5.9-3.2-9.2s1.1-8.5,3.4-12.1c1.8-2.9,4.7-5.8,8.5-8.5l39.4,33.8c-7.7,3.4-15.8,5.2-24.3,5.2Z"/>
  </g>
</svg>