<?xml version="1.0" encoding="utf-8"?>
<!-- Generator: Adobe Illustrator 28.0.0, SVG Export Plug-In . SVG Version: 6.00 Build 0)  -->
<svg version="1.1" id="katman_1" xmlns="http://www.w3.org/2000/svg" xmlns:xlink="http://www.w3.org/1999/xlink" x="0px" y="0px"
	 viewBox="0 0 887 258" style="enable-background:new 0 0 887 258;" xml:space="preserve">
<style type="text/css">
	.st0{fill-rule:evenodd;clip-rule:evenodd;fill:#748086;}
	.st1{fill:#748086;}
	.st2{fill-rule:evenodd;clip-rule:evenodd;fill:#0AA28C;}
	.st3{fill-rule:evenodd;clip-rule:evenodd;fill:#14AC63;}
	.st4{fill-rule:evenodd;clip-rule:evenodd;fill:#0099B5;}
	.st5{fill-rule:evenodd;clip-rule:evenodd;fill:#1EB53A;}
	.st6{fill-rule:evenodd;clip-rule:evenodd;fill:url(#SVGID_1_);}
	.st7{fill-rule:evenodd;clip-rule:evenodd;fill:url(#SVGID_00000046333548990766033160000017661868623156890537_);}
	.st8{enable-background:new    ;}
</style>
<g>
	<path class="st0" d="M194.2,182.7l-76.7,35.9V3.4l76.7,35.9v26.3l-49.8-14.8v120.4l49.8-14.8V182.7z"/>
	<path class="st1" d="M337,22.7L319.2,77l-17-54.3h-21.9l-17.8,53.8l-17-53.8H221l27.3,84.2h25.5l16.9-51.3l16.1,51.3h25.5
		l27.4-84.2C359.7,22.7,337,22.7,337,22.7z M368.2,106.9H392V22.7h-23.8V106.9z M465.9,22.7v44.9l-37.2-44.9H409v84.2h23.3V62
		l37.2,44.9h19.6V22.7H465.9z M506,106.9h39.8c27.9,0,47-16.2,47-42.1s-19.1-42.1-47-42.1H506V106.9z M529.8,87.9V41.7h15
		c14.3,0,23.9,8.5,23.9,23.1s-9.6,23.1-23.9,23.1H529.8z M647.8,108.6c27,0,46.8-18.5,46.8-43.8S674.8,21,647.8,21
		S601,39.5,601,64.8S621,108.6,647.8,108.6z M647.8,88.9c-12.8,0-22.7-9.5-22.7-24.1s10-24.1,22.7-24.1c12.8,0,22.7,9.5,22.7,24.1
		C670.7,79.4,660.7,88.9,647.8,88.9z M749.7,108.6c27,0,46.8-18.5,46.8-43.8S776.5,21,749.7,21c-27,0-46.8,18.5-46.8,43.8
		C702.8,90.1,722.8,108.6,749.7,108.6z M749.7,88.9c-12.8,0-22.7-9.5-22.7-24.1s10-24.1,22.7-24.1c12.8,0,22.7,9.5,22.7,24.1
		C772.5,79.4,762.5,88.9,749.7,88.9z M861,106.9h25.5l-18.1-26.5C879,75.3,885,66.2,885,53.8c0-19.3-14.4-31.2-37.4-31.2H809v84.2
		h23.7V84.5h13L861,106.9z M860.8,53.8c0,7.7-4.9,12.3-14.8,12.3h-13.3V41.5H846C856,41.5,860.8,46,860.8,53.8z"/>
	<path class="st1" d="M249.4,196.2V169h42.2v-10.2h-42.2v-25.9h47.4v-10.5h-59.4v84.2h61.1v-10.5L249.4,196.2L249.4,196.2
		L249.4,196.2z M383.8,206.6L351.9,163l29.7-40.7h-13.1l-23.3,32.4l-23.6-32.3h-13.7l29.7,41L306,206.6h13.8l24.9-34.8l25.3,34.8
		H383.8z M428,122.4h-32.8v84.2h12v-25.5H428c21.9,0,35.1-11.1,35.1-29.4S449.9,122.4,428,122.4L428,122.4z M427.6,170.7h-20.5
		v-37.8h20.5c15.4,0,23.5,6.9,23.5,18.9S443,170.7,427.6,170.7L427.6,170.7z M520,207.6c25.6,0,44.6-18.3,44.6-43.1
		s-19-43.1-44.6-43.1c-25.9,0-44.9,18.4-44.9,43.1S494.1,207.6,520,207.6z M520,196.9c-18.9,0-32.8-13.7-32.8-32.4
		c0-18.6,14-32.4,32.8-32.4c18.6,0,32.6,13.7,32.6,32.4C552.7,183.2,538.7,196.9,520,196.9z"/>
	<path class="st2" d="M104,38.6V106l-37.4-0.8V27.5L104,38.6z"/>
	<path class="st3" d="M53.7,23.7L0.5,7.9v96l53.2,1.1V23.7z"/>
	<path class="st4" d="M104,115.9v67.4l-37.4,11.1v-77.7L104,115.9z"/>
	<path class="st5" d="M53.7,116.9L0.5,118v96l53.2-15.8V116.9z"/>
	<g>
		
			<linearGradient id="SVGID_1_" gradientUnits="userSpaceOnUse" x1="30.6185" y1="-246.0464" x2="49.6229" y2="-300.6064" gradientTransform="matrix(1 0 0 -1 0 -76.7244)">
			<stop  offset="0" style="stop-color:#FFFFFF"/>
			<stop  offset="0.5757" style="stop-color:#FFFFFF;stop-opacity:0"/>
			<stop  offset="1" style="stop-color:#FFFFFF;stop-opacity:0"/>
		</linearGradient>
		<path class="st6" d="M0.5,254.6h100v-56.4H0.5V254.6z"/>
	</g>
	<g>
		
			<linearGradient id="SVGID_00000150791518781372456550000006947212010954683306_" gradientUnits="userSpaceOnUse" x1="82.6295" y1="-252.0466" x2="92.6029" y2="-278.3225" gradientTransform="matrix(1 0 0 -1 0 -76.7244)">
			<stop  offset="0" style="stop-color:#FFFFFF"/>
			<stop  offset="0.5757" style="stop-color:#FFFFFF;stop-opacity:0"/>
			<stop  offset="1" style="stop-color:#FFFFFF;stop-opacity:0"/>
		</linearGradient>
		<path style="fill-rule:evenodd;clip-rule:evenodd;fill:url(#SVGID_00000150791518781372456550000006947212010954683306_);" d="
			M66.6,218.4H118v-35.2H66.6V218.4z"/>
	</g>
	<g class="st8">
		<path class="st1" d="M242.1,238.5c-1.6,0-2.9-0.5-3.8-1.4c-0.9-0.9-1.4-2.2-1.4-4v-6.7h2.2v6.6c0,1.2,0.3,2.1,0.8,2.7
			c0.5,0.6,1.3,0.8,2.2,0.8s1.7-0.3,2.2-0.8c0.5-0.6,0.8-1.4,0.8-2.7v-6.6h2.2v6.7c0,1.7-0.5,3-1.4,4S243.7,238.5,242.1,238.5z"/>
		<path class="st1" d="M254.4,238.4v-1.5l7.6-9.3l0.3,0.8h-7.8v-1.9h9.8v1.5l-7.6,9.3l-0.3-0.8h8.1v1.9H254.4z"/>
		<path class="st1" d="M271.5,238.4v-11.8h5.5c1.4,0,2.5,0.3,3.2,0.8c0.7,0.6,1.1,1.3,1.1,2.2c0,0.6-0.1,1.2-0.4,1.6
			c-0.3,0.4-0.7,0.8-1.2,1c-0.5,0.2-1,0.4-1.6,0.4l0.3-0.6c0.7,0,1.3,0.1,1.8,0.4s0.9,0.6,1.3,1.1s0.5,1,0.5,1.7
			c0,1-0.4,1.8-1.2,2.4c-0.8,0.6-1.9,0.8-3.5,0.8H271.5z M273.7,236.6h3.6c0.8,0,1.5-0.1,1.9-0.4c0.4-0.3,0.7-0.7,0.7-1.3
			c0-0.6-0.2-1-0.7-1.3c-0.4-0.3-1.1-0.4-1.9-0.4h-3.7v-1.7h3.3c0.8,0,1.4-0.1,1.8-0.4c0.4-0.3,0.6-0.7,0.6-1.2c0-0.6-0.2-1-0.6-1.2
			c-0.4-0.3-1-0.4-1.8-0.4h-3.1V236.6z"/>
		<path class="st1" d="M291.6,236.5h6.7v1.8h-8.9v-11.8h8.6v1.8h-6.4V236.5z M291.4,231.5h5.9v1.8h-5.9V231.5z"/>
		<path class="st1" d="M305.7,238.4v-11.8h2.2v11.8H305.7z M307.7,235.6l-0.1-2.6l6.2-6.4h2.5l-5.2,5.5l-1.2,1.3L307.7,235.6z
			 M313.9,238.4l-4.5-5.4l1.5-1.6l5.6,7H313.9z"/>
		<path class="st1" d="M323,238.4v-11.8h2.2v11.8H323z"/>
		<path class="st1" d="M337.1,238.5c-0.9,0-1.8-0.1-2.7-0.4s-1.5-0.6-2-1l0.8-1.7c0.5,0.4,1.1,0.7,1.8,0.9c0.7,0.2,1.4,0.4,2.1,0.4
			c0.6,0,1.1-0.1,1.5-0.2c0.4-0.1,0.7-0.3,0.8-0.5c0.2-0.2,0.3-0.5,0.3-0.8c0-0.4-0.1-0.7-0.4-0.9c-0.3-0.2-0.6-0.4-1-0.5
			c-0.4-0.1-0.9-0.3-1.4-0.4c-0.5-0.1-1-0.2-1.5-0.4s-1-0.3-1.4-0.6c-0.4-0.2-0.7-0.6-1-1c-0.3-0.4-0.4-0.9-0.4-1.6
			c0-0.6,0.2-1.2,0.5-1.8s0.9-1,1.6-1.3c0.7-0.3,1.6-0.5,2.7-0.5c0.7,0,1.4,0.1,2.1,0.3c0.7,0.2,1.3,0.4,1.8,0.8l-0.7,1.7
			c-0.5-0.3-1.1-0.5-1.6-0.7s-1.1-0.2-1.6-0.2c-0.6,0-1.1,0.1-1.5,0.2c-0.4,0.1-0.7,0.3-0.8,0.6s-0.3,0.5-0.3,0.8
			c0,0.4,0.1,0.7,0.4,0.9c0.3,0.2,0.6,0.4,1,0.5c0.4,0.1,0.9,0.2,1.4,0.4c0.5,0.1,1,0.3,1.5,0.4s1,0.3,1.4,0.6c0.4,0.2,0.7,0.6,1,1
			c0.3,0.4,0.4,0.9,0.4,1.5c0,0.6-0.2,1.2-0.5,1.8s-0.9,1-1.6,1.3S338.1,238.5,337.1,238.5z"/>
		<path class="st1" d="M351.2,238.4v-10h-3.9v-1.9h10v1.9h-3.9v10H351.2z"/>
		<path class="st1" d="M361.7,238.4l5.3-11.8h2.2l5.3,11.8h-2.3l-4.6-10.7h0.9l-4.6,10.7H361.7z M364.2,235.6l0.6-1.7h6.4l0.6,1.7
			H364.2z"/>
		<path class="st1" d="M381.1,238.4v-11.8h1.8l7.4,9.1h-0.9v-9.1h2.2v11.8h-1.8l-7.4-9.1h0.9v9.1H381.1z"/>
		<path class="st1" d="M408.7,234.6v-1.8h4.6v1.8H408.7z"/>
		<path class="st1" d="M432.9,238.4v-10H429v-1.9h10v1.9h-3.9v10H432.9z"/>
		<path class="st1" d="M443.4,238.4l5.3-11.8h2.2l5.3,11.8H454l-4.6-10.7h0.9l-4.6,10.7H443.4z M445.9,235.6l0.6-1.7h6.4l0.6,1.7
			H445.9z"/>
		<path class="st1" d="M466.4,238.5c-0.9,0-1.8-0.1-2.7-0.4c-0.8-0.3-1.5-0.6-2-1l0.8-1.7c0.5,0.4,1.1,0.7,1.8,0.9
			c0.7,0.2,1.4,0.4,2.1,0.4c0.6,0,1.1-0.1,1.5-0.2c0.4-0.1,0.7-0.3,0.8-0.5c0.2-0.2,0.3-0.5,0.3-0.8c0-0.4-0.1-0.7-0.4-0.9
			c-0.3-0.2-0.6-0.4-1-0.5s-0.9-0.3-1.4-0.4c-0.5-0.1-1-0.2-1.5-0.4c-0.5-0.2-1-0.3-1.4-0.6s-0.7-0.6-1-1c-0.3-0.4-0.4-0.9-0.4-1.6
			c0-0.6,0.2-1.2,0.5-1.8s0.9-1,1.6-1.3c0.7-0.3,1.6-0.5,2.7-0.5c0.7,0,1.4,0.1,2.1,0.3c0.7,0.2,1.3,0.4,1.8,0.8l-0.7,1.7
			c-0.5-0.3-1.1-0.5-1.6-0.7s-1.1-0.2-1.6-0.2c-0.6,0-1.1,0.1-1.5,0.2c-0.4,0.1-0.7,0.3-0.8,0.6s-0.3,0.5-0.3,0.8
			c0,0.4,0.1,0.7,0.4,0.9c0.3,0.2,0.6,0.4,1,0.5s0.9,0.2,1.4,0.4s1,0.3,1.5,0.4c0.5,0.1,1,0.3,1.4,0.6c0.4,0.2,0.7,0.6,1,1
			c0.3,0.4,0.4,0.9,0.4,1.5c0,0.6-0.2,1.2-0.5,1.8s-0.9,1-1.6,1.3S467.5,238.5,466.4,238.5z"/>
		<path class="st1" d="M480.6,238.4h-2.2v-11.8h2.2V238.4z M486.9,233.3h-6.5v-1.9h6.5V233.3z M486.7,226.5h2.2v11.8h-2.2V226.5z"/>
		<path class="st1" d="M497.1,238.4v-11.8h2.2v11.8H497.1z M499,235.6l-0.1-2.6l6.2-6.4h2.5l-5.2,5.5l-1.2,1.3L499,235.6z
			 M505.3,238.4l-4.5-5.4l1.5-1.6l5.6,7H505.3z"/>
		<path class="st1" d="M516.6,236.5h6.7v1.8h-8.9v-11.8h8.6v1.8h-6.4V236.5z M516.4,231.5h5.9v1.8h-5.9V231.5z"/>
		<path class="st1" d="M530.7,238.4v-11.8h1.8l7.4,9.1H539v-9.1h2.2v11.8h-1.8l-7.4-9.1h0.9v9.1H530.7z"/>
		<path class="st1" d="M551.8,238.4v-10h-3.9v-1.9h10v1.9H554v10H551.8z"/>
	</g>
</g>
</svg>
