<?xml version="1.0" encoding="utf-8"?>
<!-- Generator: Adobe Illustrator 28.0.0, SVG Export Plug-In . SVG Version: 6.00 Build 0)  -->
<svg version="1.1" id="katman_1" xmlns="http://www.w3.org/2000/svg" xmlns:xlink="http://www.w3.org/1999/xlink" x="0px" y="0px"
	 viewBox="0 0 887 258" style="enable-background:new 0 0 887 258;" xml:space="preserve">
<style type="text/css">
	.st0{fill-rule:evenodd;clip-rule:evenodd;fill:#748086;}
	.st1{fill:#748086;}
	.st2{fill-rule:evenodd;clip-rule:evenodd;fill:#E52828;}
	.st3{fill-rule:evenodd;clip-rule:evenodd;fill:#E84E1B;}
	.st4{fill-rule:evenodd;clip-rule:evenodd;fill:#D42D1E;}
	.st5{fill-rule:evenodd;clip-rule:evenodd;fill:#F8B133;}
	.st6{fill-rule:evenodd;clip-rule:evenodd;fill:url(#SVGID_1_);}
	.st7{fill-rule:evenodd;clip-rule:evenodd;fill:url(#SVGID_00000114784442400072761740000018273952060196654248_);}
</style>
<path class="st0" d="M194.5,179.3l-76.7,35.9V0l76.7,35.9v26.3l-49.8-14.8v120.4l49.8-14.8V179.3z"/>
<path class="st1" d="M337.2,19.3l-17.7,54.3l-17-54.3h-21.9l-17.8,53.8l-17-53.8h-24.5l27.3,84.2h25.5L291,52.2l16.1,51.3h25.5
	L360,19.3H337.2z M368.5,103.5h23.8V19.3h-23.8V103.5z M466.1,19.3v44.9l-37.2-44.9h-19.6v84.2h23.3V58.6l37.2,44.9h19.6V19.3H466.1
	z M506.3,103.5h39.8c27.9,0,47-16.2,47-42.1s-19.1-42.1-47-42.1h-39.8V103.5z M530.1,84.5V38.3h15c14.3,0,23.9,8.5,23.9,23.1
	s-9.6,23.1-23.9,23.1H530.1z M648.1,105.2c27,0,46.8-18.5,46.8-43.8S675,17.6,648.1,17.6s-46.8,18.5-46.8,43.8
	S621.2,105.2,648.1,105.2z M648.1,85.5c-12.8,0-22.7-9.5-22.7-24.1s10-24.1,22.7-24.1c12.8,0,22.7,9.5,22.7,24.1
	C670.9,76,660.9,85.5,648.1,85.5z M749.9,105.2c27,0,46.8-18.5,46.8-43.8s-19.9-43.8-46.8-43.8c-27,0-46.8,18.5-46.8,43.8
	C703.1,86.7,723,105.2,749.9,105.2z M749.9,85.5c-12.8,0-22.7-9.5-22.7-24.1s10-24.1,22.7-24.1c12.8,0,22.7,9.5,22.7,24.1
	C772.7,76,762.7,85.5,749.9,85.5z M861.3,103.5h25.5L868.7,77c10.5-5.1,16.5-14.2,16.5-26.6c0-19.3-14.4-31.2-37.4-31.2h-38.5v84.2
	H833V81.1h13L861.3,103.5z M861.1,50.4c0,7.7-4.9,12.3-14.8,12.3H833V38.1h13.2C856.2,38.1,861.1,42.6,861.1,50.4z"/>
<path class="st1" d="M249.6,192.8v-27.2h42.2v-10.2h-42.2v-25.9H297V119h-59.4v84.2h61.1v-10.5h-49.1V192.8z M384,203.2l-31.9-43.6
	l29.7-40.7h-13.1l-23.3,32.4L321.8,119h-13.7l29.7,41l-31.6,43.2H320l24.9-34.8l25.3,34.8H384z M428.3,119h-32.8v84.2h12v-25.5h20.8
	c21.9,0,35.1-11.1,35.1-29.4S450.1,119,428.3,119L428.3,119z M427.9,167.3h-20.5v-37.8h20.5c15.4,0,23.5,6.9,23.5,18.9
	S443.3,167.3,427.9,167.3L427.9,167.3z M520.3,204.2c25.6,0,44.6-18.3,44.6-43.1s-19-43.1-44.6-43.1c-25.9,0-44.9,18.4-44.9,43.1
	S494.4,204.2,520.3,204.2z M520.3,193.5c-18.9,0-32.8-13.7-32.8-32.4c0-18.6,14-32.4,32.8-32.4c18.6,0,32.6,13.7,32.6,32.4
	C552.9,179.8,538.9,193.5,520.3,193.5z"/>
<g>
	<path class="st1" d="M245.8,232.3c0.8-0.3,1.5-0.9,1.9-1.6s0.7-1.6,0.7-2.5c0-1-0.2-1.8-0.7-2.5c-0.4-0.7-1.1-1.2-1.9-1.6
		c-0.8-0.3-1.8-0.6-3-0.6h-5.2V237h1.9v-4h3.3c0.3,0,0.6,0,0.9,0l2.9,4.1h2.1l-3.1-4.5C245.5,232.4,245.6,232.4,245.8,232.3z
		 M242.7,231.2h-3.2v-6h3.2c1.2,0,2.1,0.2,2.8,0.8s0.9,1.2,0.9,2.2c0,1-0.3,1.7-0.9,2.2C244.9,231,243.9,231.2,242.7,231.2z"/>
	<path class="st1" d="M264.5,231.1c0,1.5-0.3,2.6-1,3.2c-0.7,0.7-1.6,1-2.8,1c-1.2,0-2.1-0.3-2.8-1c-0.7-0.7-1-1.8-1-3.2v-7.5H255
		v7.6c0,1.9,0.4,3.3,1.5,4.4c1,1,2.3,1.5,4.1,1.5c1.8,0,3.1-0.4,4.1-1.5c1-1,1.5-2.5,1.5-4.4v-7.6h-1.9v7.5H264.5z"/>
	<path class="st1" d="M281.6,230.5c-0.4-0.2-1-0.4-1.6-0.7c-0.6-0.1-1.1-0.3-1.7-0.4c-0.6-0.1-1.1-0.3-1.6-0.4
		c-0.4-0.1-0.9-0.3-1.1-0.7s-0.4-0.7-0.4-1.1c0-0.4,0.1-0.8,0.3-1.1c0.2-0.3,0.6-0.6,1-0.8c0.4-0.2,1.1-0.3,1.9-0.3
		c0.6,0,1.2,0.1,1.9,0.2c0.7,0.2,1.2,0.4,1.8,0.8l0.7-1.6c-0.6-0.3-1.2-0.7-2-0.9c-0.8-0.2-1.6-0.3-2.3-0.3c-1.1,0-2.1,0.2-2.9,0.6
		c-0.8,0.3-1.3,0.8-1.7,1.3c-0.3,0.6-0.6,1.2-0.6,1.9s0.1,1.3,0.4,1.8c0.3,0.4,0.7,0.8,1.1,1.1c0.4,0.2,1,0.4,1.6,0.7
		c0.6,0.2,1.1,0.3,1.7,0.4c0.6,0.1,1.1,0.2,1.6,0.4s0.9,0.4,1.1,0.7c0.3,0.3,0.4,0.7,0.4,1.1s-0.1,0.8-0.3,1
		c-0.2,0.3-0.6,0.6-1.1,0.8c-0.4,0.2-1.1,0.2-1.9,0.2c-0.9,0-1.7-0.1-2.5-0.4c-0.8-0.3-1.5-0.7-1.9-1.1l-0.7,1.5
		c0.6,0.4,1.2,0.9,2.2,1.2c0.9,0.3,1.9,0.4,2.9,0.4c1.1,0,2.1-0.2,2.9-0.6s1.3-0.8,1.7-1.3c0.3-0.6,0.6-1.2,0.6-1.9
		s-0.1-1.2-0.4-1.7C282.3,230.9,282,230.8,281.6,230.5z"/>
	<path class="st1" d="M297.2,230.5c-0.4-0.2-1-0.4-1.6-0.7c-0.6-0.1-1.1-0.3-1.7-0.4c-0.6-0.1-1.1-0.3-1.6-0.4
		c-0.4-0.1-0.9-0.3-1.1-0.7s-0.4-0.7-0.4-1.1c0-0.4,0.1-0.8,0.3-1.1c0.2-0.3,0.6-0.6,1-0.8c0.4-0.2,1.1-0.3,1.9-0.3
		c0.6,0,1.2,0.1,1.9,0.2c0.7,0.2,1.2,0.4,1.8,0.8l0.7-1.6c-0.6-0.3-1.2-0.7-2-0.9c-0.8-0.2-1.6-0.3-2.3-0.3c-1.1,0-2.1,0.2-2.9,0.6
		c-0.8,0.3-1.3,0.8-1.7,1.3c-0.3,0.6-0.6,1.2-0.6,1.9s0.1,1.3,0.4,1.8c0.3,0.4,0.7,0.8,1.1,1.1c0.4,0.2,1,0.4,1.6,0.7
		c0.6,0.2,1.1,0.3,1.7,0.4c0.6,0.1,1.1,0.2,1.6,0.4s0.9,0.4,1.1,0.7c0.3,0.3,0.4,0.7,0.4,1.1s-0.1,0.8-0.3,1
		c-0.2,0.3-0.6,0.6-1.1,0.8c-0.4,0.2-1.1,0.2-1.9,0.2c-0.9,0-1.7-0.1-2.5-0.4c-0.8-0.3-1.5-0.7-1.9-1.1l-0.7,1.5
		c0.6,0.4,1.2,0.9,2.2,1.2c0.9,0.3,1.9,0.4,2.9,0.4c1.1,0,2.1-0.2,2.9-0.6s1.3-0.8,1.7-1.3c0.3-0.6,0.6-1.2,0.6-1.9
		s-0.1-1.2-0.4-1.7C298,230.9,297.6,230.8,297.2,230.5z"/>
	<rect x="305.3" y="223.6" class="st1" width="1.9" height="13.3"/>
	<path class="st1" d="M319,223.6l-6,13.3h2l1.5-3.3h7.1l1.5,3.3h2l-6-13.3H319z M317.1,232.1l2.9-6.6l2.9,6.6H317.1z"/>
	<rect x="340.8" y="230.9" class="st1" width="5.1" height="1.6"/>
	<path class="st1" d="M369.6,230.5c-0.4-0.2-1-0.4-1.6-0.7c-0.6-0.1-1.1-0.3-1.7-0.4c-0.6-0.1-1.1-0.3-1.6-0.4
		c-0.4-0.1-0.9-0.3-1.1-0.7s-0.4-0.7-0.4-1.1c0-0.4,0.1-0.8,0.3-1.1c0.2-0.3,0.6-0.6,1-0.8c0.4-0.2,1.1-0.3,1.9-0.3
		c0.6,0,1.2,0.1,1.9,0.2c0.7,0.2,1.2,0.4,1.8,0.8l0.7-1.6c-0.6-0.3-1.2-0.7-2-0.9c-0.8-0.2-1.6-0.3-2.3-0.3c-1.1,0-2.1,0.2-2.9,0.6
		c-0.8,0.3-1.3,0.8-1.7,1.3c-0.3,0.6-0.6,1.2-0.6,1.9s0.1,1.3,0.4,1.8c0.3,0.4,0.7,0.8,1.1,1.1c0.4,0.2,1,0.4,1.6,0.7
		c0.6,0.2,1.1,0.3,1.7,0.4c0.6,0.1,1.1,0.2,1.6,0.4s0.9,0.4,1.1,0.7c0.3,0.3,0.4,0.7,0.4,1.1s-0.1,0.8-0.3,1
		c-0.2,0.3-0.6,0.6-1.1,0.8c-0.4,0.2-1.1,0.2-1.9,0.2c-0.9,0-1.7-0.1-2.5-0.4c-0.8-0.3-1.5-0.7-1.9-1.1l-0.7,1.5
		c0.6,0.4,1.2,0.9,2.2,1.2c0.9,0.3,1.9,0.4,2.9,0.4c1.1,0,2.1-0.2,2.9-0.6c0.8-0.3,1.3-0.8,1.7-1.3c0.3-0.6,0.6-1.2,0.6-1.9
		s-0.1-1.2-0.4-1.7C370.4,230.9,370.1,230.8,369.6,230.5z"/>
	<polygon class="st1" points="375.7,225.3 380.3,225.3 380.3,236.9 382.2,236.9 382.2,225.3 386.8,225.3 386.8,223.6 375.7,223.6 	
		"/>
	<path class="st1" d="M392.2,234.4c-0.3,0-0.7,0.1-0.9,0.3c-0.2,0.2-0.3,0.6-0.3,0.9s0.1,0.7,0.3,0.9s0.6,0.3,0.9,0.3
		c0.3,0,0.7-0.1,0.9-0.3s0.3-0.6,0.3-0.9s-0.1-0.7-0.3-0.9C392.8,234.6,392.6,234.4,392.2,234.4z"/>
	<path class="st1" d="M408.3,224.2c-0.8-0.3-1.8-0.6-3-0.6H400v13.3h1.9v-4h3.3c1.1,0,2.1-0.2,3-0.6c0.9-0.3,1.5-0.9,1.9-1.6
		c0.4-0.7,0.7-1.6,0.7-2.5c0-1-0.2-1.8-0.7-2.5C409.7,225.1,409.2,224.5,408.3,224.2z M408.1,230.4c-0.7,0.6-1.6,0.8-2.8,0.8H402v-6
		h3.2c1.2,0,2.1,0.2,2.8,0.8c0.7,0.6,0.9,1.2,0.9,2.2C409,229.2,408.7,230,408.1,230.4z"/>
	<polygon class="st1" points="419.4,231 426.1,231 426.1,229.3 419.4,229.3 419.4,225.3 426.9,225.3 426.9,223.6 417.5,223.6 
		417.5,236.9 427.1,236.9 427.1,235.3 419.4,235.3 	"/>
	<polygon class="st1" points="432.2,225.3 436.7,225.3 436.7,236.9 438.6,236.9 438.6,225.3 443.2,225.3 443.2,223.6 432.2,223.6 	
		"/>
	<polygon class="st1" points="451,231 457.6,231 457.6,229.3 451,229.3 451,225.3 458.5,225.3 458.5,223.6 449,223.6 449,236.9 
		458.7,236.9 458.7,235.3 451,235.3 	"/>
	<path class="st1" d="M473.8,232.3c0.8-0.3,1.5-0.9,1.9-1.6c0.4-0.7,0.7-1.6,0.7-2.5c0-1-0.2-1.8-0.7-2.5s-1.1-1.2-1.9-1.6
		c-0.8-0.3-1.8-0.6-3-0.6h-5.1V237h1.9v-4h3.3c0.3,0,0.6,0,0.9,0l2.9,4.1h2.1l-3.1-4.5C473.5,232.4,473.7,232.4,473.8,232.3z
		 M470.8,231.2h-3.2v-6h3.2c1.2,0,2.1,0.2,2.8,0.8s0.9,1.2,0.9,2.2c0,1-0.3,1.7-0.9,2.2C472.9,231,472,231.2,470.8,231.2z"/>
	<path class="st1" d="M490.7,230.5c-0.4-0.2-1-0.4-1.6-0.7c-0.6-0.1-1.1-0.3-1.7-0.4c-0.6-0.1-1.1-0.3-1.6-0.4
		c-0.4-0.1-0.9-0.3-1.1-0.7s-0.4-0.7-0.4-1.1c0-0.4,0.1-0.8,0.3-1.1c0.2-0.3,0.6-0.6,1-0.8c0.4-0.2,1.1-0.3,1.9-0.3
		c0.6,0,1.2,0.1,1.9,0.2c0.7,0.1,1.2,0.4,1.8,0.8l0.7-1.6c-0.6-0.3-1.2-0.7-2-0.9c-0.8-0.2-1.6-0.3-2.3-0.3c-1.1,0-2.1,0.2-2.9,0.6
		c-0.8,0.3-1.3,0.8-1.7,1.3c-0.3,0.6-0.6,1.2-0.6,1.9s0.1,1.3,0.4,1.8c0.3,0.4,0.7,0.8,1.1,1.1c0.4,0.2,1,0.4,1.6,0.7
		c0.6,0.2,1.1,0.3,1.7,0.4c0.6,0.1,1.1,0.2,1.6,0.4s0.9,0.4,1.1,0.7c0.3,0.3,0.4,0.7,0.4,1.1s-0.1,0.8-0.3,1
		c-0.2,0.3-0.6,0.6-1.1,0.8c-0.4,0.2-1.1,0.2-1.9,0.2c-0.9,0-1.7-0.1-2.5-0.4c-0.8-0.3-1.5-0.7-1.9-1.1l-0.7,1.5
		c0.6,0.4,1.2,0.9,2.2,1.2c0.9,0.3,1.9,0.4,2.9,0.4c1.1,0,2.1-0.2,2.9-0.6s1.3-0.8,1.7-1.3c0.3-0.6,0.6-1.2,0.6-1.9
		s-0.1-1.2-0.4-1.7C491.5,230.9,491.2,230.8,490.7,230.5z"/>
	<path class="st1" d="M508.5,230.2c-0.2-0.1-0.4-0.1-0.7-0.2c0,0,0,0,0.1,0c0.6-0.2,1-0.7,1.3-1.1s0.4-1.1,0.4-1.8
		c0-1.1-0.4-1.9-1.2-2.6c-0.8-0.7-2-0.9-3.6-0.9h-6v13.3h6.4c1.7,0,3-0.3,3.8-0.9c0.8-0.6,1.3-1.6,1.3-2.7c0-0.8-0.2-1.5-0.6-1.9
		C509.5,231,509,230.5,508.5,230.2z M504.7,225.2c1,0,1.7,0.2,2.2,0.6c0.6,0.3,0.8,0.9,0.8,1.6c0,0.7-0.2,1.2-0.8,1.6
		c-0.6,0.3-1.2,0.6-2.2,0.6h-3.9v-4.2L504.7,225.2L504.7,225.2z M507.6,234.9c-0.6,0.3-1.3,0.6-2.5,0.6h-4.4V231h4.4
		c1,0,1.9,0.2,2.5,0.6c0.6,0.3,0.9,0.9,0.9,1.7C508.5,234,508.1,234.6,507.6,234.9z"/>
	<path class="st1" d="M526.4,231.1c0,1.5-0.3,2.6-1,3.2c-0.7,0.7-1.6,1-2.8,1s-2.1-0.3-2.8-1c-0.7-0.7-1-1.8-1-3.2v-7.5h-1.9v7.6
		c0,1.9,0.4,3.3,1.5,4.4c1,1,2.3,1.5,4.1,1.5s3.1-0.4,4.1-1.5c1-1,1.5-2.5,1.5-4.4v-7.6h-1.9v7.5H526.4z"/>
	<path class="st1" d="M544.2,232.3c0.8-0.3,1.5-0.9,1.9-1.6s0.7-1.6,0.7-2.5c0-1-0.2-1.8-0.7-2.5c-0.4-0.7-1.1-1.2-1.9-1.6
		c-0.8-0.3-1.8-0.6-3-0.6h-5.2V237h1.9v-4h3.3c0.3,0,0.6,0,0.9,0l2.9,4.1h2.1l-3.1-4.5C543.9,232.4,544,232.4,544.2,232.3z
		 M541.1,231.2h-3.2v-6h3.2c1.2,0,2.1,0.2,2.8,0.8c0.7,0.6,0.9,1.2,0.9,2.2c0,1-0.3,1.7-0.9,2.2C543.3,231,542.4,231.2,541.1,231.2z
		"/>
	<path class="st1" d="M562.9,234.6c-0.3,0.2-0.7,0.4-1.1,0.6c-0.7,0.2-1.3,0.3-2,0.3c-0.8,0-1.5-0.1-2.1-0.3
		c-0.7-0.2-1.2-0.6-1.7-1.1s-0.9-1-1.1-1.7c-0.2-0.7-0.4-1.3-0.4-2c0-0.8,0.1-1.5,0.4-2c0.2-0.7,0.7-1.1,1.1-1.7
		c0.4-0.4,1-0.8,1.7-1.1c0.7-0.3,1.3-0.3,2.1-0.3s1.5,0.1,2.1,0.3c0.7,0.2,1.2,0.7,1.8,1.1l1.2-1.2c-0.6-0.7-1.3-1.2-2.2-1.6
		c-0.9-0.3-1.9-0.6-2.9-0.6c-1,0-2,0.2-2.9,0.6s-1.6,0.8-2.2,1.5c-0.7,0.7-1.1,1.3-1.5,2.1c-0.3,0.8-0.6,1.8-0.6,2.7
		c0,0.9,0.2,1.9,0.6,2.7c0.3,0.8,0.9,1.6,1.5,2.1c0.6,0.6,1.3,1.1,2.2,1.5s1.8,0.6,2.8,0.6c0.9,0,1.9-0.1,2.8-0.4
		c0.9-0.3,1.7-0.7,2.3-1.2V230H563v4.6H562.9z"/>
</g>
<path class="st2" d="M104.2,35.2v67.4l-37.4-0.8V24.1L104.2,35.2z"/>
<path class="st3" d="M53.9,20.3L0.7,4.5v96l53.2,1.1V20.3z"/>
<path class="st4" d="M104.2,112.5v67.4L66.8,191v-77.7L104.2,112.5z"/>
<path class="st5" d="M53.9,113.5l-53.2,1.1v96l53.2-15.8V113.5z"/>
<g>
	
		<linearGradient id="SVGID_1_" gradientUnits="userSpaceOnUse" x1="30.8239" y1="501.9375" x2="49.8283" y2="556.4975" gradientTransform="matrix(1 0 0 1 0 -336)">
		<stop  offset="0" style="stop-color:#FFFFFF"/>
		<stop  offset="0.5757" style="stop-color:#FFFFFF;stop-opacity:0"/>
		<stop  offset="1" style="stop-color:#FFFFFF;stop-opacity:0"/>
	</linearGradient>
	<path class="st6" d="M0.7,251.2h100v-56.4H0.7V251.2z"/>
</g>
<g>
	
		<linearGradient id="SVGID_00000116920737583804214790000001097513059295803564_" gradientUnits="userSpaceOnUse" x1="82.8359" y1="507.9387" x2="92.8093" y2="534.2147" gradientTransform="matrix(1 0 0 1 0 -336)">
		<stop  offset="0" style="stop-color:#FFFFFF"/>
		<stop  offset="0.5757" style="stop-color:#FFFFFF;stop-opacity:0"/>
		<stop  offset="1" style="stop-color:#FFFFFF;stop-opacity:0"/>
	</linearGradient>
	<path style="fill-rule:evenodd;clip-rule:evenodd;fill:url(#SVGID_00000116920737583804214790000001097513059295803564_);" d="
		M66.8,215h51.4v-35.2H66.8V215z"/>
</g>
</svg>
