<?xml version="1.0" encoding="UTF-8"?>
<svg xmlns="http://www.w3.org/2000/svg" version="1.1" viewBox="0 0 198.4 198.4">
  <defs>
    <style>
      .cls-1 {
        fill: #9bb23b;
      }

      .cls-1, .cls-2, .cls-3, .cls-4 {
        fill-rule: evenodd;
      }

      .cls-2 {
        fill: #3f0400;
      }

      .cls-3 {
        fill: #fff;
      }

      .cls-4 {
        fill: #f8cb00;
      }
    </style>
  </defs>
  <!-- Generator: Adobe Illustrator 28.7.1, SVG Export Plug-In . SVG Version: 1.2.0 Build 142)  -->
  <g>
    <g id="katman_1">
      <g id="_Слой_1">
        <path class="cls-4" d="M73.3,183.1c31.8,0,57.8-26,57.8-57.8s-26-57.8-57.8-57.8S15.4,93.4,15.4,125.3s26,57.8,57.8,57.8h.1Z"/>
        <path class="cls-2" d="M81.8,42.8c-1.1,0-3.5,0-3.5-1s2.4-2.6,3.5-2.6,1.9.8,1.9,1.8-.9,1.8-1.9,1.8h0ZM20,148.9l69.6-6s.5-31.3-2-40.5-7.2-16-8.4-19.3c-.9.3-4.2-29.3-.3-18.5,0,0,20.5,5,24.5-7.5h-.2c0,0-.3,0-.4-.2,0,0-.2-.2-.4-.3l-.3-.3c0,0,0-.3-.2-.4,0,0,0-.3-.2-.4v-.4c0-.5,0-.7,0-.7,0,0,.2.3.3.7,0,0,0,.2.2.3,0,0,.2.2.2.3s0,.2.2.3l.3.3c0,0,.2.2.3.3,0,0,.2.2.3.2s.2,0,.3.2h0c1.1-.6,4.5-2.7,3.6-6.7,0,0-16.2-7.2-19.1-8.6,0,0-2.2-6.4-8.4-8.7,0,0,2.1-9-.6-10.4,0,0-9.7,6.1-10.4,7.9,0,0-.7-10.4-2.5-12.2,0,0-12.2,7.9-11.5,19.1,0,0-8.5,12.8-12.9,26.5-9.8,25.2-2.2,19.1-26.2,66.3-5.9,11.7,1.9,13,4.3,18.9v-.2Z"/>
        <path class="cls-3" d="M71.2,77.5c0,.5-.5,1-1.1,1s-1.9,0-1.9-.6,1.4-1.4,2-1.4,1.1.5,1,1h0ZM65.6,139.4c.7-.4-3.8-6-2.3-16.1.7-4.6,2-9.8,2-12.8-.2-11.7-5-13.5-4.8-19.2.6-3.3,7.6,0,9.5,0s2.2-1.6,2.7-1.7c.4,0,2.2-1.3,3.8-3.5h-.2s-.2,0-.2-.2l-.2-.2-.2-.2-.2-.2s0,0,0-.2c0,0,0-.2-.2-.3h0c0,0,0,0,.2,0,0,0,0,0,.2.2l.2.2.2.2.2.2.2.2s0,0,.2,0c0,0,.2-.3.3-.5,1.7-2.6-2.2-1.5-3.3-7.8-1.2-6.3-8.3-5.8-6.6-6.8,3.3-9.3,2.4-8.8,2.4-8.8l-8.6,6.8c0-.6,1.1-10.9-1.9-10.1-3,.8-6.9,11.9-6.9,11.9-4.8,4.7-8.3,9.5-10.7,14.5l-3.2,8.7c.6.8-25.1,43.4-15.2,39,8.8-4,35.3,10.3,42.8,6.5h0Z"/>
        <path class="cls-1" d="M52.2,94.5c.9,0,1,.7.6,1.4-.2.3-.4.5-.7.5-.5,0-.9-.6-.9-1s.5-.8,1-.8h0ZM26.9,132.7l21,2.9,14.6-2c-4.9-7.7-6-18.2-9.2-26-1-2.4-3-3.7-3-3.7,0,0-2.6-2.5-3.9-3.2-1.3-.7-1.2-.9-.8-3.8.3-2.9,3.4-3.8,4.9-4.3,3.4-1.1,8.4,1.8,6.1,3.7-3,3.4-5.7,5.4-3,9.8,0,0,3.1.3,3.3.3s.6,0,1.2-1.5c.5-1.3-.9-2.4-.8-2.6.2-.2,1.5.7,2.1,1.7,1,1.9-1.4,5.9-1.3,5.9,2.5-.7,5.1-5.2,4.8-7.9-.2-1.5-.9-2.9-1.4-3.4-.6-.5-1.9-2.9-2-3.2-3.7-7.3-13.2-7.2-17.8-1.5-.6.7-4,6.1-4.8,7.8-3.5,7.1-10,23-10,30.9h0Z"/>
        <path class="cls-3" d="M64.6,137.9c3.2-4.7,8.8-7.7,15-7.7s10.8,2.5,14.1,6.5v-4.6h28.1l5.9,7.8,5.8-7.8h17.2c4.7,0,8.8,1.8,11,5.3,2.9-3.5,7.3-5.7,12.4-5.7,9.2,0,16,7.2,16,16.2s-7,16.2-16.1,16.2-13.5-4.8-15.4-11.5c-2.3,1.6-5.3,2.4-8.4,2.4h-2.6v8.7h-13.9l-6.2-8.3-6.2,8.3h-27.7v-4.8c-3.3,4.1-8.4,6.6-14.2,6.6s-11.8-3-15-7.7c-3.2,4.7-8.8,7.7-15,7.7s-8-1.3-11-3.6v3.2H8.1v-10.8l7.8-9.1h-7.4v-14.6h30v3.2c3.1-2.3,6.9-3.6,11.1-3.6,6.3,0,11.8,3,15,7.7h0Z"/>
        <path class="cls-2" d="M23.4,141.8h-11.5v-7.7h23.1v6.1l-11.9,13.8h11.9v7.7H11.5v-6.1l11.9-13.8h0ZM174,160.7c7.5,0,12.6-6,12.6-12.8s-5.1-12.8-12.6-12.8-12.6,6-12.6,12.8,5.1,12.8,12.6,12.8h0ZM174,158.1c-5.7,0-9.7-4.6-9.7-10.2s4-10.2,9.7-10.2,9.7,4.6,9.7,10.2-4,10.2-9.7,10.2h0ZM141.4,160.3h2.8v-8.7h6c5.3,0,9.7-2.8,9.7-8.1s-3.7-7.9-9.3-7.9h-9.3v24.7h.1ZM144.2,149v-10.9h6.3c4,0,6.6,1.8,6.6,5.4s-2.7,5.5-6.8,5.5h-6.1ZM116.4,160.3h3.2l7.9-10.6,7.9,10.6h3.3l-9.5-12.6,9.1-12.1h-3.2l-7.5,10.1-7.6-10.1h-3.3l9.1,12.1-9.5,12.6h0ZM97.1,160.3h18v-2.5h-15.3v-8.7h13.5v-2.5h-13.5v-8.4h15.1v-2.5h-17.9v24.7h.1ZM49.5,162.1c8.1,0,14.6-6.1,14.6-14.2h0c0-8.2-6.5-14.2-14.6-14.2s-14.6,6.1-14.6,14.2h0c0,8.2,6.5,14.2,14.6,14.2h0ZM79.5,162.1c-8.1,0-14.6-6-14.6-14.2h0c0-8.3,6.6-14.3,14.6-14.3s14.6,6,14.6,14.2h0c0,8.3-6.6,14.3-14.6,14.3h0ZM49.6,154.2c-3.5,0-6-2.9-6-6.3h0c0-3.5,2.4-6.3,6-6.3s6,2.9,6,6.3h0c0,3.5-2.4,6.3-6,6.3h0ZM79.6,154.2c3.5,0,6-2.8,6-6.2h0c0-3.5-2.5-6.4-6-6.4s-6,2.8-6,6.2h0c0,3.5,2.5,6.4,6,6.4Z"/>
        <g>
          <path class="cls-2" d="M23.4,141.8h-11.5v-7.7h23.1v6.1l-11.9,13.8h11.9v7.7H11.5v-6.1l11.9-13.8h0ZM49.5,162.1c8.1,0,14.6-6.1,14.6-14.2h0c0-8.2-6.5-14.2-14.6-14.2s-14.6,6.1-14.6,14.2h0c0,8.2,6.5,14.2,14.6,14.2h0ZM79.5,162.1c-8.1,0-14.6-6-14.6-14.2h0c0-8.3,6.6-14.3,14.6-14.3s14.6,6,14.6,14.2h0c0,8.3-6.6,14.3-14.6,14.3h0ZM49.6,154.2c-3.5,0-6-2.9-6-6.3h0c0-3.5,2.4-6.3,6-6.3s6,2.9,6,6.3h0c0,3.5-2.4,6.3-6,6.3h0ZM79.6,154.2c3.5,0,6-2.8,6-6.2h0c0-3.5-2.5-6.4-6-6.4s-6,2.8-6,6.2h0c0,3.5,2.5,6.4,6,6.4Z"/>
          <path class="cls-1" d="M13,160.3h20.6v-4.8h-13.6l13.6-15.8v-4.1H13.4v4.8h13.2l-13.6,15.8v4.1h0ZM49.5,160.7c7.6,0,13.2-5.8,13.2-12.8h0c0-7.1-5.5-12.8-13.1-12.8s-13.2,5.8-13.2,12.8h0c0,7.1,5.5,12.8,13.1,12.8h0ZM49.6,155.7c-4.4,0-7.5-3.5-7.5-7.8h0c0-4.3,3-7.8,7.4-7.8s7.5,3.5,7.5,7.8h0c0,4.3-3,7.8-7.4,7.8h0ZM79.5,160.7c7.6,0,13.2-5.8,13.2-12.8h0c0-7.1-5.5-12.8-13.1-12.8s-13.2,5.8-13.2,12.8h0c0,7.1,5.5,12.8,13.1,12.8h0ZM79.6,155.7c-4.4,0-7.5-3.5-7.5-7.8h0c0-4.3,3-7.8,7.4-7.8s7.5,3.5,7.5,7.8h0c0,4.3-3,7.8-7.4,7.8Z"/>
        </g>
      </g>
    </g>
  </g>
</svg>