<svg width="140" height="62" viewBox="0 0 140 62" fill="none" xmlns="http://www.w3.org/2000/svg">
<g clip-path="url(#clip0_1_223)">
<mask id="mask0_1_223" style="mask-type:luminance" maskUnits="userSpaceOnUse" x="4" y="9" width="6" height="32">
<path d="M9.19215 9.97705H4.84744V40.2334H9.19215V9.97705Z" fill="white"/>
</mask>
<g mask="url(#mask0_1_223)">
<path d="M9.19215 9.97705H4.84744V40.2334H9.19215V9.97705Z" fill="url(#paint0_linear_1_223)"/>
</g>
<mask id="mask1_1_223" style="mask-type:luminance" maskUnits="userSpaceOnUse" x="4" y="0" width="6" height="5">
<path d="M9.19215 0.00341797H4.84744V4.32791H9.19215V0.00341797Z" fill="white"/>
</mask>
<g mask="url(#mask1_1_223)">
<path d="M9.19215 0.00341797H4.84744V4.32791H9.19215V0.00341797Z" fill="url(#paint1_linear_1_223)"/>
</g>
<mask id="mask2_1_223" style="mask-type:luminance" maskUnits="userSpaceOnUse" x="15" y="9" width="32" height="32">
<path d="M15.2114 9.97705V40.2334H19.5561V16.2047C19.5561 15.648 19.7062 15.2338 20.1243 14.8331C20.5407 14.4323 20.9706 14.2999 21.5321 14.2999H39.8129C40.3726 14.2999 40.8986 14.4323 41.3016 14.8331C41.7045 15.2338 41.9557 15.648 41.9557 16.2047V40.2317H46.3038V16.2047C46.3038 14.4642 45.6142 13.0188 44.3683 11.7847C43.1258 10.5455 41.5629 9.97705 39.8129 9.97705H15.2114Z" fill="white"/>
</mask>
<g mask="url(#mask2_1_223)">
<path d="M46.3021 9.97705H15.2114V40.2334H46.3021V9.97705Z" fill="url(#paint2_linear_1_223)"/>
</g>
<mask id="mask3_1_223" style="mask-type:luminance" maskUnits="userSpaceOnUse" x="51" y="0" width="19" height="41">
<path d="M51.6478 0V33.8615C51.6478 35.602 52.2497 37.1178 53.4754 38.3536C54.7045 39.5928 56.1999 40.2333 57.9853 40.2333H69.0334V35.9089H57.9853C57.4256 35.9089 56.9704 35.7026 56.5708 35.3035C56.1679 34.8994 55.9959 34.4215 55.9959 33.8615V14.2998H69.0351V9.97534H55.9959V0H51.6478Z" fill="white"/>
</mask>
<g mask="url(#mask3_1_223)">
<path d="M69.0334 0H51.6478V40.2333H69.0334V0Z" fill="url(#paint3_linear_1_223)"/>
</g>
<mask id="mask4_1_223" style="mask-type:luminance" maskUnits="userSpaceOnUse" x="73" y="9" width="24" height="32">
<path d="M79.4673 9.97702C77.7156 9.97702 76.183 10.5455 74.9371 11.7846C73.6979 13.0204 73.0455 14.4658 73.0455 16.2047V40.2317H77.3902V16.2047C77.3902 15.648 77.6043 15.2338 78.0106 14.8331C78.4102 14.4323 78.9042 14.2998 79.4673 14.2998H96.4431V9.97534H79.4673V9.97702Z" fill="white"/>
</mask>
<g mask="url(#mask4_1_223)">
<path d="M96.4431 9.97729H73.0455V40.2336H96.4431V9.97729Z" fill="url(#paint4_linear_1_223)"/>
</g>
<mask id="mask5_1_223" style="mask-type:luminance" maskUnits="userSpaceOnUse" x="99" y="9" width="32" height="32">
<path d="M104.665 35.3035C104.266 34.8994 104.136 34.4215 104.136 33.8615V16.2047C104.136 15.648 104.266 15.2338 104.665 14.8331C105.068 14.4323 105.485 14.2998 106.048 14.2998H124.329C124.885 14.2998 125.445 14.4323 125.848 14.8331C126.247 15.2338 126.531 15.648 126.531 16.2047V33.8615C126.531 34.4215 126.247 34.8994 125.848 35.3035C125.445 35.7009 124.885 35.9089 124.329 35.9089H106.048C105.485 35.9089 105.07 35.7026 104.665 35.3035ZM106.048 9.97534C104.294 9.97534 102.845 10.5438 101.6 11.7829C100.361 13.0187 99.7896 14.4642 99.7896 16.203V33.8598C99.7896 35.6003 100.361 37.1162 101.6 38.352C102.846 39.5911 104.296 40.2317 106.048 40.2317H124.329C126.114 40.2317 127.694 39.5911 128.94 38.352C130.186 37.1162 130.877 35.6003 130.877 33.8598V16.203C130.877 14.4625 130.184 13.0171 128.94 11.7829C127.694 10.5438 126.114 9.97534 124.329 9.97534H106.048Z" fill="white"/>
</mask>
<g mask="url(#mask5_1_223)">
<path d="M130.875 9.97705H99.7881V40.2334H130.875V9.97705Z" fill="url(#paint5_linear_1_223)"/>
</g>
<path d="M9.99298 60.7425C9.71312 61.1667 9.36581 61.4702 8.95612 61.6513C8.53632 61.8357 8.08448 61.9263 7.5905 61.9263C7.16395 61.9263 6.77787 61.8559 6.43225 61.7133C6.08831 61.5708 5.78821 61.3679 5.54206 61.108C5.29086 60.8498 5.10372 60.5412 4.97221 60.1858C4.83902 59.8336 4.7699 59.4379 4.7699 59.0086C4.7699 58.5794 4.84071 58.2105 4.97558 57.86C5.11215 57.5079 5.30434 57.201 5.55387 56.9411C5.80507 56.6863 6.09674 56.4783 6.43225 56.3325C6.77113 56.1832 7.14372 56.1128 7.55004 56.1128C7.95635 56.1128 8.34918 56.1832 8.67457 56.3325C9.00333 56.4783 9.27308 56.6745 9.49394 56.9177C9.7148 57.1625 9.88171 57.4375 9.9913 57.7494C10.1043 58.0596 10.1599 58.3765 10.1599 58.6934V59.1981H5.49149C5.49149 59.3507 5.52352 59.5435 5.58253 59.7766C5.64491 60.013 5.7545 60.2428 5.91466 60.4658C6.07314 60.6888 6.28894 60.88 6.56207 61.0409C6.82845 61.1986 7.17575 61.2807 7.59556 61.2807C7.96984 61.2807 8.32726 61.1902 8.6712 61.0158C9.01513 60.8414 9.27983 60.6016 9.46528 60.2981L9.9913 60.7408L9.99298 60.7425ZM9.43999 58.5525C9.43999 58.3061 9.39447 58.078 9.28994 57.86C9.19216 57.6437 9.05559 57.4526 8.88025 57.2882C8.70829 57.1273 8.5026 56.9965 8.26825 56.9009C8.03053 56.807 7.78101 56.7584 7.518 56.7584C7.1218 56.7584 6.79641 56.8389 6.53678 56.9981C6.27377 57.1591 6.06471 57.3402 5.91635 57.5515C5.76292 57.7544 5.65671 57.959 5.59096 58.1535C5.52858 58.348 5.49317 58.4838 5.49317 58.5542H9.43999V58.5525Z" fill="#034693"/>
<path d="M13.1946 58.7924L11.2085 56.2571H12.1341L13.6768 58.3497L15.2009 56.2571H16.1045L14.1438 58.7924L16.5277 61.7838H15.5853L13.6498 59.2837L11.748 61.7838H10.8831L13.1946 58.7924Z" fill="#034693"/>
<path d="M17.5578 52.7373H18.2828V57.2228H18.3064C18.4497 56.9226 18.6908 56.6594 19.0314 56.4397C19.3635 56.22 19.7563 56.1094 20.2048 56.1094C20.6533 56.1094 20.9921 56.1781 21.2653 56.3139C21.5384 56.4498 21.7525 56.6275 21.9093 56.8472C22.0627 57.0668 22.1757 57.32 22.2347 57.6068C22.2937 57.8952 22.3223 58.1886 22.3223 58.4904V61.782H21.6008V58.529C21.6008 58.306 21.5839 58.0897 21.5417 57.8767C21.503 57.6671 21.4305 57.476 21.3327 57.3083C21.2315 57.1406 21.0916 57.0115 20.9061 56.9109C20.7274 56.8103 20.4931 56.7583 20.2031 56.7583C19.9401 56.7583 19.6889 56.8069 19.4545 56.8975C19.2134 56.988 19.0128 57.1272 18.8409 57.315C18.6689 57.5028 18.5289 57.7392 18.4312 58.0193C18.33 58.3043 18.2811 58.6363 18.2811 59.0186V61.7837H17.5562V52.739L17.5578 52.7373Z" fill="#034693"/>
<path d="M24.1887 54.067C24.1887 53.9144 24.2409 53.7853 24.3472 53.6814C24.4483 53.5774 24.5781 53.5271 24.7316 53.5271C24.885 53.5271 25.0148 53.5791 25.1126 53.6814C25.2205 53.7853 25.2727 53.9144 25.2727 54.067C25.2727 54.2196 25.2205 54.3454 25.1126 54.4493C25.0148 54.5533 24.8816 54.6053 24.7316 54.6053C24.5815 54.6053 24.4483 54.5533 24.3472 54.4493C24.2393 54.3454 24.1887 54.2163 24.1887 54.067ZM24.3708 56.2569H25.089V61.7804H24.3708V56.2569Z" fill="#034693"/>
<path d="M26.9772 52.7373H27.6988V57.2228H27.7258C27.8388 57.0316 27.9753 56.8673 28.149 56.7281C28.3142 56.5889 28.4963 56.4732 28.6952 56.3827C28.8908 56.2888 29.0982 56.2217 29.3123 56.1764C29.5298 56.1345 29.7405 56.1144 29.953 56.1144C30.3761 56.1144 30.7656 56.1831 31.123 56.3274C31.4804 56.4699 31.7856 56.6728 32.0469 56.9327C32.3099 57.1909 32.5122 57.4994 32.6555 57.8516C32.7989 58.2104 32.8764 58.5961 32.8764 59.022C32.8764 59.4479 32.7989 59.8336 32.6555 60.1857C32.5122 60.5412 32.3116 60.848 32.0469 61.1079C31.7873 61.3662 31.4804 61.5707 31.123 61.7133C30.7656 61.8558 30.3744 61.9262 29.953 61.9262C29.7422 61.9262 29.5298 61.9061 29.3123 61.8608C29.0982 61.8189 28.8891 61.7485 28.6952 61.6579C28.4963 61.5674 28.3142 61.4517 28.149 61.3125C27.977 61.17 27.8405 61.009 27.7258 60.8178H27.6988V61.7854H26.9772V52.7407V52.7373ZM27.628 59.0203C27.628 59.3305 27.687 59.6256 27.8101 59.9006C27.9281 60.1723 28.0934 60.4121 28.2974 60.6149C28.5081 60.8195 28.7559 60.9805 29.0358 61.0995C29.3157 61.2186 29.6208 61.2806 29.953 61.2806C30.2851 61.2806 30.5903 61.2186 30.8667 61.0995C31.1365 60.9805 31.3708 60.8178 31.563 60.6149C31.7552 60.4121 31.9002 60.1723 32.0014 59.9006C32.1026 59.6256 32.1514 59.3322 32.1514 59.0203C32.1514 58.7084 32.1026 58.415 32.0014 58.1383C31.9002 57.8633 31.7536 57.6235 31.563 57.4206C31.3708 57.2194 31.1365 57.0584 30.8667 56.936C30.5903 56.817 30.2885 56.7583 29.953 56.7583C29.6175 56.7583 29.3157 56.817 29.0358 56.936C28.7559 57.0584 28.5098 57.2211 28.2974 57.4206C28.0917 57.6235 27.9264 57.8633 27.8101 58.1383C27.687 58.4167 27.628 58.7067 27.628 59.0203Z" fill="#034693"/>
<path d="M34.4241 54.067C34.4241 53.9144 34.4797 53.7853 34.5809 53.6814C34.6888 53.5774 34.8152 53.5271 34.967 53.5271C35.1187 53.5271 35.2502 53.5791 35.3514 53.6814C35.4593 53.7853 35.5082 53.9144 35.5082 54.067C35.5082 54.2196 35.4593 54.3454 35.3514 54.4493C35.2502 54.5533 35.1204 54.6053 34.967 54.6053C34.8136 54.6053 34.6871 54.5533 34.5809 54.4493C34.4797 54.3454 34.4241 54.2163 34.4241 54.067ZM34.6062 56.2569H35.3278V61.7804H34.6062V56.2569Z" fill="#034693"/>
<path d="M40.0906 56.901H38.5008V60.5027C38.5008 60.7526 38.5699 60.9421 38.7048 61.0779C38.8413 61.2137 39.0302 61.2808 39.2713 61.2808C39.4112 61.2808 39.5444 61.2607 39.6877 61.2254C39.8276 61.1902 39.9642 61.1416 40.0906 61.0896L40.1496 61.7335C40.0131 61.7821 39.8563 61.8241 39.6843 61.866C39.5056 61.9046 39.3488 61.9247 39.2156 61.9247C38.956 61.9247 38.7351 61.8895 38.553 61.8123C38.3676 61.7386 38.2175 61.6379 38.1046 61.5088C37.9933 61.3831 37.9124 61.2305 37.8567 61.0594C37.8045 60.8918 37.7826 60.704 37.7826 60.5027V56.901H36.5788V56.2571H37.7826V54.6658H38.5008V56.2571H40.0906V56.901Z" fill="#034693"/>
<path d="M41.3332 54.067C41.3332 53.9144 41.3855 53.7853 41.4866 53.6814C41.5912 53.5774 41.7244 53.5271 41.871 53.5271C42.0177 53.5271 42.1543 53.5791 42.2588 53.6814C42.3633 53.7853 42.4156 53.9144 42.4156 54.067C42.4156 54.2196 42.3633 54.3454 42.2588 54.4493C42.1543 54.5533 42.0245 54.6053 41.871 54.6053C41.7176 54.6053 41.5912 54.5533 41.4866 54.4493C41.3855 54.3454 41.3332 54.2163 41.3332 54.067ZM41.5086 56.2569H42.2335V61.7804H41.5086V56.2569Z" fill="#034693"/>
<path d="M43.9667 59.0221C43.9667 58.5945 44.0358 58.2105 44.1808 57.8517C44.3241 57.4995 44.5248 57.1927 44.7827 56.9328C45.039 56.6746 45.3475 56.47 45.7066 56.3275C46.0708 56.1816 46.4636 56.1145 46.8868 56.1145C47.31 56.1145 47.7028 56.1833 48.0602 56.3275C48.4176 56.47 48.7295 56.6729 48.9875 56.9328C49.2471 57.191 49.4494 57.4995 49.5927 57.8517C49.7394 58.2105 49.8136 58.5962 49.8136 59.0221C49.8136 59.448 49.7394 59.8337 49.5927 60.1858C49.4494 60.5413 49.2488 60.8481 48.9875 61.108C48.7312 61.3663 48.4176 61.5708 48.0602 61.7134C47.7028 61.8559 47.315 61.9263 46.8868 61.9263C46.4585 61.9263 46.0708 61.8559 45.7066 61.7134C45.3492 61.5708 45.0407 61.3679 44.7827 61.108C44.5264 60.8498 44.3241 60.5413 44.1808 60.1858C44.0341 59.8337 43.9667 59.4413 43.9667 59.0221ZM44.6849 59.0221C44.6849 59.3323 44.7338 59.6274 44.835 59.9024C44.9361 60.1741 45.0811 60.4138 45.2733 60.6167C45.4689 60.8213 45.7016 60.9823 45.9747 61.1013C46.2478 61.2204 46.5462 61.2824 46.8851 61.2824C47.224 61.2824 47.5291 61.2204 47.8023 61.1013C48.0754 60.9823 48.3064 60.8196 48.4986 60.6167C48.6941 60.4138 48.8408 60.1741 48.9369 59.9024C49.0381 59.6274 49.0869 59.334 49.0869 59.0221C49.0869 58.7102 49.0381 58.4168 48.9369 58.1401C48.8391 57.8651 48.6924 57.6253 48.4986 57.4224C48.3064 57.2212 48.0754 57.0602 47.8023 56.9378C47.5291 56.8188 47.224 56.7601 46.8851 56.7601C46.5462 56.7601 46.2478 56.8188 45.9747 56.9378C45.7016 57.0602 45.4672 57.2229 45.2733 57.4224C45.0811 57.6253 44.9344 57.8651 44.835 58.1401C44.7338 58.4184 44.6849 58.7085 44.6849 59.0221Z" fill="#034693"/>
<path d="M51.4237 57.8114C51.4237 57.7074 51.4203 57.5783 51.4102 57.4324C51.4035 57.2865 51.3967 57.139 51.3934 56.9864C51.3866 56.8321 51.3832 56.6896 51.3731 56.5605C51.3664 56.4314 51.363 56.3274 51.363 56.257H52.0846C52.0913 56.4632 52.0947 56.6611 52.1015 56.8556C52.1048 57.0467 52.1149 57.1691 52.1335 57.2245H52.1655C52.3122 56.9243 52.5499 56.6611 52.8871 56.4414C53.226 56.2218 53.6154 56.1111 54.0673 56.1111C54.5191 56.1111 54.8512 56.1798 55.1244 56.3157C55.3975 56.4515 55.6116 56.6292 55.7718 56.8489C55.9286 57.0685 56.0348 57.3217 56.0972 57.6085C56.1562 57.8969 56.1882 58.1903 56.1882 58.4921V61.7837H55.4633V58.5307C55.4633 58.3077 55.443 58.0914 55.4042 57.8784C55.3621 57.6688 55.2913 57.4777 55.1935 57.31C55.0923 57.1457 54.9524 57.0099 54.7703 56.9126C54.5916 56.812 54.3539 56.76 54.0673 56.76C53.8043 56.76 53.5531 56.8086 53.3153 56.8992C53.0776 56.9897 52.8736 57.1289 52.7017 57.3167C52.5297 57.5045 52.3931 57.7409 52.292 58.021C52.1908 58.306 52.1419 58.638 52.1419 59.0203V61.7854H51.4203V57.8147L51.4237 57.8114Z" fill="#034693"/>
<path d="M66.1353 59.3188L67.3643 57.1172H68.1837L66.6427 59.8235L68.5765 61.8424H67.5076L66.2297 60.4809C65.8857 60.9437 65.5081 61.3126 65.0917 61.5876C64.682 61.8625 64.1812 62.0017 63.5827 62.0017C63.2219 62.0017 62.8831 61.9397 62.5678 61.8273C62.2491 61.7116 61.976 61.5456 61.7417 61.3327C61.5107 61.113 61.3252 60.8581 61.192 60.553C61.0555 60.2495 60.983 59.9091 60.983 59.5368C60.983 59.2065 61.0386 58.9197 61.1516 58.6733C61.2662 58.4234 61.4112 58.2071 61.5899 58.0143C61.772 57.8231 61.976 57.6521 62.2104 57.4961C62.4447 57.3385 62.6824 57.1893 62.9319 57.0367C62.8122 56.8908 62.6875 56.7399 62.5644 56.584C62.438 56.4314 62.3301 56.267 62.2323 56.0994C62.1345 55.935 62.0569 55.759 61.9912 55.5812C61.9254 55.4001 61.8968 55.2157 61.8968 55.0212C61.8968 54.721 61.9524 54.4494 62.0687 54.2096C62.1851 53.9698 62.3419 53.7703 62.5408 53.6043C62.733 53.4399 62.964 53.3159 63.227 53.2287C63.4833 53.1415 63.7564 53.0962 64.0363 53.0962C64.2875 53.0962 64.5269 53.1415 64.7578 53.2287C64.9922 53.3159 65.1996 53.4383 65.3766 53.5909C65.5587 53.7501 65.702 53.9363 65.8048 54.1576C65.906 54.3739 65.9616 54.6238 65.9616 54.8954C65.9616 55.1922 65.906 55.4588 65.7998 55.6818C65.6919 55.9048 65.5486 56.1061 65.3665 56.2805C65.1878 56.4548 64.9821 56.6141 64.7578 56.7466C64.5336 56.8824 64.3026 57.0149 64.0615 57.144L66.1302 59.3205L66.1353 59.3188ZM63.3905 57.533C63.1983 57.647 63.0095 57.7661 62.8207 57.8952C62.6285 58.0243 62.4599 58.1635 62.3031 58.3194C62.1429 58.4754 62.0198 58.6498 61.9221 58.846C61.8277 59.0405 61.7754 59.2635 61.7754 59.5083C61.7754 59.78 61.8277 60.0231 61.9288 60.2394C62.03 60.4557 62.1632 60.6402 62.3385 60.7961C62.5105 60.9487 62.7128 61.0711 62.9505 61.1549C63.1882 61.2354 63.4377 61.2807 63.7041 61.2807C63.9284 61.2807 64.1357 61.2421 64.3347 61.1734C64.5302 61.0996 64.7123 61.0023 64.8809 60.885C65.0495 60.7626 65.2063 60.6267 65.3496 60.4674C65.4929 60.3149 65.6295 60.1505 65.7458 59.9728L63.3888 57.5314L63.3905 57.533ZM63.9823 53.8139C63.6181 53.8139 63.3163 53.9245 63.0685 54.1442C62.819 54.3639 62.6909 54.6523 62.6909 55.0111C62.6909 55.1536 62.7229 55.3029 62.7853 55.4538C62.8443 55.6064 62.9218 55.7506 63.0162 55.8965C63.1039 56.039 63.2084 56.1748 63.3096 56.3039C63.4226 56.4297 63.5204 56.5471 63.6046 56.6493C63.7766 56.5622 63.952 56.4683 64.1374 56.3609C64.3195 56.257 64.4881 56.1379 64.6449 56.0021C64.7949 55.8663 64.9214 55.7137 65.0225 55.5393C65.1237 55.3683 65.1726 55.1738 65.1726 54.9507C65.1726 54.6154 65.0613 54.3404 64.8371 54.1291C64.6095 53.9162 64.3229 53.8122 63.9823 53.8122" fill="#034693"/>
<path d="M77.4902 60.9689C77.217 61.2992 76.9085 61.5407 76.5663 61.6966C76.219 61.8492 75.848 61.9263 75.4451 61.9263C75.0185 61.9263 74.6257 61.8559 74.2683 61.7134C73.9075 61.5708 73.5956 61.3679 73.341 61.108C73.0848 60.8498 72.8824 60.5413 72.7391 60.1858C72.5958 59.8337 72.525 59.4413 72.525 59.0221C72.525 58.6029 72.5958 58.2105 72.7391 57.8517C72.8824 57.4995 73.0831 57.1927 73.341 56.9328C73.5939 56.6746 73.9058 56.47 74.2683 56.3275C74.6257 56.1816 75.0202 56.1145 75.4451 56.1145C75.87 56.1145 76.2324 56.195 76.5831 56.3643C76.9304 56.5287 77.244 56.7651 77.5138 57.072L76.9389 57.5029C76.7315 57.2698 76.5005 57.0887 76.2527 56.9596C76.0048 56.8238 75.7385 56.7584 75.4468 56.7584C75.1113 56.7584 74.8061 56.8171 74.533 56.9361C74.2599 57.0585 74.0255 57.2212 73.8333 57.4207C73.6445 57.6236 73.4944 57.8634 73.395 58.1384C73.2972 58.4168 73.2449 58.7069 73.2449 59.0204C73.2449 59.334 73.2972 59.6257 73.395 59.9007C73.4961 60.1724 73.6445 60.4122 73.8333 60.6151C74.0255 60.8196 74.2599 60.9806 74.533 61.0997C74.8061 61.2187 75.1113 61.2807 75.4468 61.2807C75.7553 61.2807 76.0318 61.2103 76.2864 61.0711C76.5393 60.9286 76.7585 60.7442 76.9405 60.5145L77.4935 60.9672L77.4902 60.9689Z" fill="#034693"/>
<path d="M78.3096 59.0221C78.3096 58.5945 78.3804 58.2105 78.5237 57.8517C78.6704 57.4995 78.8677 57.1927 79.1256 56.9328C79.3853 56.6746 79.6955 56.47 80.0529 56.3275C80.4137 56.1816 80.8099 56.1145 81.2331 56.1145C81.6563 56.1145 82.0491 56.1833 82.4065 56.3275C82.7606 56.47 83.0691 56.6729 83.3338 56.9328C83.5934 57.191 83.7957 57.4995 83.939 57.8517C84.0857 58.2105 84.1532 58.5962 84.1532 59.0221C84.1532 59.448 84.084 59.8337 83.939 60.1858C83.7957 60.5413 83.5951 60.8481 83.3338 61.108C83.0708 61.3663 82.7622 61.5708 82.4065 61.7134C82.0491 61.8559 81.6579 61.9263 81.2331 61.9263C80.8082 61.9263 80.4137 61.8559 80.0529 61.7134C79.6955 61.5708 79.387 61.3679 79.1256 61.108C78.8694 60.8498 78.6704 60.5413 78.5237 60.1858C78.3804 59.8337 78.3096 59.4413 78.3096 59.0221ZM79.0312 59.0221C79.0312 59.3323 79.0801 59.6274 79.1779 59.9024C79.2824 60.1741 79.4274 60.4138 79.6196 60.6167C79.8118 60.8213 80.0428 60.9823 80.3227 61.1013C80.5924 61.2204 80.8942 61.2824 81.2331 61.2824C81.572 61.2824 81.8737 61.2204 82.1469 61.1013C82.42 60.9823 82.6543 60.8196 82.8465 60.6167C83.0387 60.4138 83.1888 60.1741 83.2849 59.9024C83.3827 59.6274 83.4349 59.334 83.4349 59.0221C83.4349 58.7102 83.3827 58.4168 83.2849 58.1401C83.1871 57.8651 83.037 57.6253 82.8465 57.4224C82.6543 57.2212 82.42 57.0602 82.1469 56.9378C81.8737 56.8188 81.572 56.7601 81.2331 56.7601C80.8942 56.7601 80.5924 56.8188 80.3227 56.9378C80.0428 57.0602 79.8118 57.2229 79.6196 57.4224C79.4274 57.6253 79.2824 57.8651 79.1779 58.1401C79.0801 58.4184 79.0312 58.7085 79.0312 59.0221Z" fill="#034693"/>
<path d="M85.7682 57.8114C85.7682 57.7074 85.7648 57.5783 85.7547 57.4324C85.7446 57.2865 85.7412 57.139 85.7379 56.9864C85.7311 56.8321 85.7277 56.6896 85.7176 56.5605C85.7075 56.4314 85.7041 56.3274 85.7041 56.257H86.4257C86.4358 56.4632 86.4426 56.6611 86.446 56.8556C86.4493 57.0467 86.4594 57.1691 86.4746 57.2245H86.5134C86.6567 56.9243 86.8978 56.6611 87.235 56.4414C87.5705 56.2218 87.9633 56.1111 88.4118 56.1111C88.8602 56.1111 89.1991 56.1798 89.4689 56.3157C89.742 56.4515 89.9561 56.6292 90.1129 56.8489C90.2697 57.0685 90.3793 57.3217 90.4383 57.6085C90.5007 57.8969 90.5293 58.1903 90.5293 58.4921V61.7837H89.8111V58.5307C89.8111 58.3077 89.7875 58.0914 89.7454 57.8784C89.7066 57.6688 89.6341 57.4777 89.538 57.31C89.4368 57.1457 89.2969 57.0099 89.1148 56.9126C88.9361 56.812 88.6984 56.76 88.4118 56.76C88.1454 56.76 87.8976 56.8086 87.6615 56.8992C87.4238 56.9897 87.2164 57.1289 87.0462 57.3167C86.8708 57.5045 86.7343 57.7409 86.6365 58.021C86.5353 58.306 86.4864 58.638 86.4864 59.0203V61.7854H85.7648V57.8147L85.7682 57.8114Z" fill="#034693"/>
<path d="M92.8661 56.901H91.7079V56.2572H92.8661V54.4496C92.8661 54.0907 92.9184 53.7922 93.0246 53.5575C93.1359 53.3211 93.2691 53.1333 93.4309 52.9907C93.5911 52.8448 93.7698 52.7409 93.967 52.6839C94.1592 52.6252 94.3481 52.5967 94.5268 52.5967C94.8623 52.5967 95.1371 52.6419 95.3529 52.7392L95.2096 53.3596C95.0494 53.2825 94.8353 53.2439 94.5622 53.2439C93.9114 53.2439 93.586 53.7319 93.586 54.7162V56.2588H94.8842V56.9027H93.586V61.7856H92.8644V56.9027L92.8661 56.901Z" fill="#034693"/>
<path d="M100.923 60.7425C100.643 61.1667 100.299 61.4702 99.8864 61.6513C99.47 61.8357 99.0182 61.9263 98.5208 61.9263C98.0909 61.9263 97.7082 61.8559 97.3659 61.7133C97.022 61.5708 96.7219 61.3679 96.4757 61.108C96.2245 60.8498 96.0374 60.5412 95.9008 60.1858C95.7744 59.8336 95.7053 59.4379 95.7053 59.0086C95.7053 58.5794 95.7727 58.2105 95.9093 57.86C96.0425 57.5079 96.238 57.201 96.4875 56.9411C96.7354 56.6863 97.0271 56.4783 97.3659 56.3325C97.7014 56.1832 98.074 56.1128 98.482 56.1128C98.912 56.1128 99.2812 56.1832 99.6099 56.3325C99.9353 56.4783 100.205 56.6745 100.423 56.9177C100.647 57.1625 100.812 57.4375 100.923 57.7494C101.04 58.0596 101.095 58.3765 101.095 58.6934V59.1981H96.4269C96.4269 59.3507 96.4555 59.5435 96.5145 59.7766C96.5769 60.013 96.6831 60.2428 96.8467 60.4658C97.0085 60.6888 97.2243 60.88 97.4907 61.0409C97.7604 61.1986 98.1077 61.2807 98.5309 61.2807C98.9018 61.2807 99.2593 61.1902 99.6015 61.0158C99.9454 60.8414 100.212 60.6016 100.396 60.2981L100.925 60.7408L100.923 60.7425ZM100.37 58.5525C100.37 58.3061 100.318 58.078 100.22 57.86C100.122 57.6437 99.9825 57.4526 99.8106 57.2882C99.6386 57.1273 99.4329 56.9965 99.1952 56.9009C98.9575 56.807 98.7113 56.7584 98.4449 56.7584C98.0555 56.7584 97.7267 56.8389 97.4671 56.9981C97.2074 57.1591 96.9984 57.3402 96.8467 57.5515C96.6932 57.7544 96.587 57.959 96.5246 58.1535C96.4555 58.348 96.4269 58.4838 96.4269 58.5542H100.37V58.5525Z" fill="#034693"/>
<path d="M102.705 57.8114C102.705 57.7074 102.702 57.5783 102.692 57.4324C102.682 57.2866 102.678 57.139 102.675 56.9864C102.668 56.8321 102.662 56.6896 102.656 56.5605C102.65 56.4314 102.646 56.3274 102.646 56.257H103.368C103.375 56.4632 103.378 56.6611 103.381 56.8556C103.388 57.0468 103.402 57.1692 103.417 57.2245C103.599 56.9009 103.833 56.6292 104.127 56.423C104.413 56.2168 104.767 56.1128 105.184 56.1128C105.258 56.1128 105.327 56.1195 105.394 56.1329C105.465 56.1463 105.531 56.1581 105.605 56.1748L105.521 56.8791C105.423 56.8472 105.332 56.8305 105.244 56.8305C104.932 56.8305 104.659 56.8791 104.428 56.9797C104.201 57.0837 104.012 57.2195 103.865 57.3939C103.715 57.5716 103.609 57.7762 103.533 58.0093C103.462 58.249 103.425 58.5006 103.425 58.7722V61.7854H102.704V57.8148L102.705 57.8114Z" fill="#034693"/>
<path d="M111.622 60.7425C111.339 61.1667 110.995 61.4702 110.582 61.6513C110.166 61.8357 109.714 61.9263 109.213 61.9263C108.786 61.9263 108.404 61.8559 108.058 61.7133C107.714 61.5708 107.417 61.3679 107.171 61.108C106.92 60.8498 106.73 60.5412 106.6 60.1858C106.467 59.8336 106.401 59.4379 106.401 59.0086C106.401 58.5794 106.47 58.2105 106.603 57.86C106.743 57.5079 106.932 57.201 107.181 56.9411C107.431 56.6863 107.724 56.4783 108.06 56.3325C108.399 56.1832 108.771 56.1128 109.178 56.1128C109.584 56.1128 109.978 56.1832 110.302 56.3325C110.628 56.4783 110.901 56.6745 111.122 56.9177C111.342 57.1625 111.506 57.4375 111.622 57.7494C111.734 58.0596 111.787 58.3765 111.787 58.6934V59.1981H107.122C107.122 59.3507 107.151 59.5435 107.213 59.7766C107.273 60.013 107.382 60.2428 107.542 60.4658C107.704 60.6888 107.917 60.88 108.186 61.0409C108.453 61.1986 108.8 61.2807 109.227 61.2807C109.594 61.2807 109.951 61.1902 110.295 61.0158C110.639 60.8414 110.907 60.6016 111.091 60.2981L111.621 60.7408L111.622 60.7425ZM111.066 58.5525C111.066 58.3061 111.017 58.078 110.919 57.86C110.815 57.6437 110.682 57.4526 110.506 57.2882C110.338 57.1273 110.129 56.9965 109.894 56.9009C109.653 56.807 109.404 56.7584 109.141 56.7584C108.751 56.7584 108.426 56.8389 108.159 56.9981C107.903 57.1591 107.694 57.3402 107.542 57.5515C107.392 57.7544 107.286 57.959 107.217 58.1535C107.154 58.348 107.122 58.4838 107.122 58.5542H111.066V58.5525Z" fill="#034693"/>
<path d="M113.399 57.8114C113.399 57.7074 113.393 57.5783 113.389 57.4324C113.379 57.2865 113.372 57.139 113.371 56.9864C113.364 56.8321 113.357 56.6896 113.35 56.5605C113.344 56.4314 113.34 56.3274 113.34 56.257H114.058C114.069 56.4632 114.075 56.6611 114.079 56.8556C114.082 57.0467 114.092 57.1691 114.111 57.2245H114.143C114.289 56.9243 114.531 56.6611 114.868 56.4414C115.2 56.2218 115.596 56.1111 116.045 56.1111C116.493 56.1111 116.832 56.1798 117.105 56.3157C117.375 56.4515 117.592 56.6292 117.746 56.8489C117.902 57.0685 118.012 57.3217 118.071 57.6085C118.133 57.8969 118.162 58.1903 118.162 58.4921V61.7837H117.441V58.5307C117.441 58.3077 117.424 58.0914 117.378 57.8784C117.343 57.6688 117.27 57.4777 117.169 57.31C117.068 57.1457 116.928 57.0099 116.749 56.9126C116.564 56.812 116.333 56.76 116.043 56.76C115.776 56.76 115.529 56.8086 115.293 56.8992C115.055 56.9897 114.851 57.1289 114.677 57.3167C114.505 57.5045 114.365 57.7409 114.268 58.021C114.17 58.306 114.117 58.638 114.117 59.0203V61.7854H113.396V57.8147L113.399 57.8114Z" fill="#034693"/>
<path d="M124.744 60.9689C124.471 61.2992 124.162 61.5407 123.817 61.6966C123.473 61.8492 123.099 61.9263 122.696 61.9263C122.293 61.9263 121.88 61.8559 121.519 61.7134C121.158 61.5708 120.853 61.3679 120.592 61.108C120.339 60.8498 120.136 60.5413 119.99 60.1858C119.843 59.8337 119.776 59.4413 119.776 59.0221C119.776 58.6029 119.845 58.2105 119.99 57.8517C120.136 57.4995 120.337 57.1927 120.592 56.9328C120.851 56.6746 121.158 56.47 121.519 56.3275C121.88 56.1816 122.272 56.1145 122.696 56.1145C123.119 56.1145 123.49 56.195 123.834 56.3643C124.184 56.5287 124.496 56.7651 124.768 57.072L124.193 57.5029C123.982 57.2698 123.758 57.0887 123.503 56.9596C123.259 56.8238 122.989 56.7584 122.697 56.7584C122.362 56.7584 122.06 56.8171 121.787 56.9361C121.514 57.0585 121.279 57.2212 121.087 57.4207C120.895 57.6236 120.75 57.8634 120.649 58.1384C120.548 58.4168 120.495 58.7069 120.495 59.0204C120.495 59.334 120.548 59.6257 120.649 59.9007C120.75 60.1724 120.897 60.4122 121.087 60.6151C121.279 60.8196 121.514 60.9806 121.787 61.0997C122.06 61.2187 122.362 61.2807 122.697 61.2807C123.002 61.2807 123.282 61.2103 123.537 61.0711C123.79 60.9286 124.009 60.7442 124.194 60.5145L124.747 60.9672L124.744 60.9689Z" fill="#034693"/>
<path d="M130.783 60.7425C130.503 61.1667 130.159 61.4702 129.746 61.6513C129.33 61.8357 128.878 61.9263 128.377 61.9263C127.951 61.9263 127.565 61.8559 127.222 61.7133C126.882 61.5708 126.578 61.3679 126.336 61.108C126.083 60.8498 125.894 60.5412 125.761 60.1858C125.631 59.8336 125.565 59.4379 125.565 59.0086C125.565 58.5794 125.631 58.2105 125.767 57.86C125.904 57.5079 126.096 57.201 126.346 56.9411C126.595 56.6863 126.885 56.4783 127.224 56.3325C127.563 56.1832 127.934 56.1128 128.342 56.1128C128.75 56.1128 129.143 56.1832 129.466 56.3325C129.792 56.4783 130.065 56.6745 130.282 56.9177C130.507 57.1625 130.668 57.4375 130.783 57.7494C130.896 58.0596 130.952 58.3765 130.952 58.6934V59.1981H126.282C126.282 59.3507 126.314 59.5435 126.373 59.7766C126.432 60.013 126.541 60.2428 126.705 60.4658C126.865 60.6888 127.082 60.88 127.349 61.0409C127.615 61.1986 127.964 61.2807 128.389 61.2807C128.757 61.2807 129.114 61.1902 129.46 61.0158C129.804 60.8414 130.072 60.6016 130.25 60.2981L130.783 60.7408V60.7425ZM130.23 58.5525C130.23 58.3061 130.181 58.078 130.08 57.86C129.979 57.6437 129.842 57.4526 129.667 57.2882C129.498 57.1273 129.293 56.9965 129.057 56.9009C128.819 56.807 128.569 56.7584 128.306 56.7584C127.914 56.7584 127.585 56.8389 127.327 56.9981C127.064 57.1591 126.858 57.3402 126.706 57.5515C126.553 57.7544 126.447 57.959 126.381 58.1535C126.315 58.348 126.283 58.4838 126.283 58.5542H130.23V58.5525Z" fill="#034693"/>
<path d="M140 46.332L135.066 42.8291L135.062 45.4583L0.000320435 45.5623V47.2408H135.059L135.055 49.9991L140 46.332Z" fill="url(#paint6_linear_1_223)"/>
</g>
<defs>
<linearGradient id="paint0_linear_1_223" x1="-24.0806" y1="25.1677" x2="157.475" y2="25.1677" gradientUnits="userSpaceOnUse">
<stop stop-color="#0D76BA"/>
<stop offset="1" stop-color="#164A8A"/>
</linearGradient>
<linearGradient id="paint1_linear_1_223" x1="17379.6" y1="2.3545" x2="17393" y2="2.3545" gradientUnits="userSpaceOnUse">
<stop stop-color="#0D76BA"/>
<stop offset="1" stop-color="#164A8A"/>
</linearGradient>
<linearGradient id="paint2_linear_1_223" x1="-24.4996" y1="25.2351" x2="157.992" y2="25.2351" gradientUnits="userSpaceOnUse">
<stop stop-color="#0D76BA"/>
<stop offset="1" stop-color="#164A8A"/>
</linearGradient>
<linearGradient id="paint3_linear_1_223" x1="-23.7949" y1="20.2376" x2="157.894" y2="20.2376" gradientUnits="userSpaceOnUse">
<stop stop-color="#0D76BA"/>
<stop offset="1" stop-color="#164A8A"/>
</linearGradient>
<linearGradient id="paint4_linear_1_223" x1="-22.9161" y1="24.9962" x2="159.212" y2="24.9962" gradientUnits="userSpaceOnUse">
<stop stop-color="#0D76BA"/>
<stop offset="1" stop-color="#164A8A"/>
</linearGradient>
<linearGradient id="paint5_linear_1_223" x1="-23.4315" y1="25.1022" x2="158.533" y2="25.1022" gradientUnits="userSpaceOnUse">
<stop stop-color="#0D76BA"/>
<stop offset="1" stop-color="#164A8A"/>
</linearGradient>
<linearGradient id="paint6_linear_1_223" x1="0.000320435" y1="46.4141" x2="140" y2="46.4141" gradientUnits="userSpaceOnUse">
<stop stop-color="#FAAA45"/>
<stop offset="1" stop-color="#F9A944"/>
</linearGradient>
<clipPath id="clip0_1_223">
<rect width="140" height="62" fill="white"/>
</clipPath>
</defs>
</svg>
