<svg id="svg8" height="512" viewBox="0 0 32 32" width="512" xmlns="http://www.w3.org/2000/svg" xmlns:svg="http://www.w3.org/2000/svg"><g id="g2911" transform="translate(0 200)"><path id="path4527" d="m85 2c-1.644703 0-3 1.3553-3 3v18.080078l4.625-5.648437c1.123836-1.464266 3.000073-1.461044 4.259766-.0039l2.361328 2.802735 6.560547-7.28711c1.216689-1.450873 3.097469-1.37327 4.365239.04687l5.82812 6.564452v-14.554688c0-1.6447-1.3553-3-3-3zm5 4c2.197292 0 4 1.80271 4 4s-1.802708 4-4 4-4-1.80271-4-4 1.802708-4 4-4zm0 2c-1.116417 0-2 .88358-2 2s.883583 2 2 2 2-.88358 2-2-.883583-2-2-2zm11.29297 6.28125-6.744142 7.496094 6.925782 8.222656h5.52539c1.6447 0 3-1.3553 3-3v-4.431641l-7.33398-8.261718c-.44753-.497193-.92473-.499357-1.37305-.02539zm-13.121095 4.416016-6.171875 7.541015v.761719c0 1.6447 1.355297 3 3 3h13.857422l-9.501953-11.283203c-.363048-.428755-.850107-.405595-1.183594-.01953z" transform="translate(-80 -200)" font-variant-ligatures="normal" font-variant-position="normal" font-variant-caps="normal" font-variant-numeric="normal" font-variant-alternates="normal" font-variant-east-asian="normal" font-feature-settings="normal" font-variation-settings="normal" text-indent="0" text-align="start" text-decoration-line="none" text-decoration-style="solid" text-decoration-color="rgb(0,0,0)" text-transform="none" text-orientation="mixed" white-space="normal" shape-padding="0" shape-margin="0" inline-size="0" isolation="auto" mix-blend-mode="normal" solid-color="rgb(0,0,0)" solid-opacity="1" vector-effect="none"/></g></svg>